<svg xmlns="http://www.w3.org/2000/svg" viewBox="0 0 102 102"><defs><style>.cls-1{isolation:isolate;}.cls-2,.cls-6{fill:#0d6c6f;}.cls-3{fill:#45cc95;}.cls-4{fill:#ffda95;}.cls-5{fill:#abcf56;}.cls-6{opacity:0.25;mix-blend-mode:multiply;}.cls-7{fill:#421c43;}.cls-8{fill:#f75e9d;}.cls-9{fill:#ccf094;}</style></defs><g class="cls-1"><g id="OBJECTS"><path class="cls-2" d="M13.23,74.63a5.88,5.88,0,0,1,2.38-4.78,8.44,8.44,0,0,1,1.52-1c.37-.18.36-.23.07-.57s-.5-.61-.73-.93a5.05,5.05,0,0,1-1-3,5.69,5.69,0,0,1,1.33-3.71,6.17,6.17,0,0,1,3.59-2.15c.36-.07.73-.06,1.09-.1.17,0,.23-.13.14-.27s-.16-.21-.23-.31a7.1,7.1,0,0,1-1.33-3.18,5.41,5.41,0,0,1,1.36-4.68A6.41,6.41,0,0,1,25,48c.36-.07.73-.11,1.09-.17.13,0,.17-.12.08-.22l-.27-.28a6.14,6.14,0,0,1-1.8-3.44,5.06,5.06,0,0,1,1.54-5,5.8,5.8,0,0,1,3.16-1.5,10.26,10.26,0,0,1,1.56-.21,1.42,1.42,0,0,0,.53-.13c.1,0,.09-.12,0-.19-.33-.4-.67-.8-1-1.21a7.06,7.06,0,0,1-1-1.7,5,5,0,0,1,0-3.85,6.48,6.48,0,0,1,4.62-4,6.72,6.72,0,0,1,1.09-.19c.37-.05.4-.2.19-.45a8.58,8.58,0,0,1-1-1.62,4.89,4.89,0,0,1-.5-2.29A5.43,5.43,0,0,1,34.68,18a6.32,6.32,0,0,1,6.18-2.11,9.82,9.82,0,0,1,2.89,1,4.73,4.73,0,0,1,.66.44A1.41,1.41,0,0,1,45,19c-.15.51-.31,1-.5,1.5q-1.47,3.62-3,7.23c-1,2.31-1.9,4.62-2.87,6.92-1,2.47-2.08,4.94-3.11,7.41-.85,2-1.68,4-2.52,6s-1.57,3.73-2.36,5.6c-.68,1.62-1.35,3.25-2,4.87-.8,1.92-1.6,3.83-2.41,5.75s-1.67,4-2.52,6S22,74.22,21.22,76.16l-1.47,3.49c0,.09-.07.19-.12.29a1.5,1.5,0,0,1-1.81.9,2.18,2.18,0,0,1-.72-.31,10.83,10.83,0,0,1-2.58-2.29A5.45,5.45,0,0,1,13.23,74.63Z"/><path class="cls-3" d="M20.52,70.7a9.13,9.13,0,0,1,1.8.16.56.56,0,0,0,.21,0,1.29,1.29,0,0,0-.17-.16,9.86,9.86,0,0,1-2.43-2,6.31,6.31,0,0,1-1.56-2.88A3.72,3.72,0,0,1,19.93,62a6.12,6.12,0,0,1,3-1,10.28,10.28,0,0,1,4,.44c.37.11.42.21.27.57s-.36.88-.56,1.3-.22.33-.56.27-.88-.14-1.32-.23a5.58,5.58,0,0,0-2.72.15,2.32,2.32,0,0,0-.44.16,1.64,1.64,0,0,0-1,2.14,3.51,3.51,0,0,0,.88,1.47,8.55,8.55,0,0,0,1.9,1.65,4.6,4.6,0,0,1,.45.32.36.36,0,0,1,.11.43c-.1.29-.22.59-.34.88l-.93,2.17c-.14.35-.26.44-.65.38a12.65,12.65,0,0,0-2.75,0,3.66,3.66,0,0,0-1.43.44c-.77.41-1,.88-.7,1.92a2.16,2.16,0,0,0,.54.86,10,10,0,0,0,1.84,1.6c.8.49.76.38.41,1.3l-.09.21c-.26.59-.34.63-.86.34a10,10,0,0,1-2.78-2.06,5.3,5.3,0,0,1-1.29-2.31,3.18,3.18,0,0,1,1.19-3.37,5.38,5.38,0,0,1,2.35-1A9.28,9.28,0,0,1,20.52,70.7Z"/><path class="cls-3" d="M31.81,39.28a10.37,10.37,0,0,1,3.82.62L36,40a.27.27,0,0,1,.19.37,12.22,12.22,0,0,1-.69,1.67.38.38,0,0,1-.53.21,15.66,15.66,0,0,0-1.91-.47,11.36,11.36,0,0,0-2.67-.05,2.27,2.27,0,0,0-.76.21,1.49,1.49,0,0,0-.94,2.1,5.47,5.47,0,0,0,.74,1.39,11,11,0,0,0,2.62,2.48c.9.64.78.45.41,1.43-.3.8-.39.81-1.14.41A12.24,12.24,0,0,1,27.83,47a7.2,7.2,0,0,1-1.48-2.68A3.65,3.65,0,0,1,28,40.09a5.48,5.48,0,0,1,2.85-.81Z"/><path class="cls-3" d="M31.22,32.74a4.16,4.16,0,0,1,2.66-4.1,8,8,0,0,1,3.28-.73,14.6,14.6,0,0,1,3.67.34c.3.07.36.17.26.45-.19.51-.41,1-.63,1.53a.39.39,0,0,1-.5.26c-.67-.21-1.37,0-2-.25a.81.81,0,0,0-.31,0,9.41,9.41,0,0,0-2.47.43,4.19,4.19,0,0,0-.84.44,1.8,1.8,0,0,0-.8,1.84,3.94,3.94,0,0,0,.57,1.54,9.79,9.79,0,0,0,2.33,2.43l.25.19c.73.56.73.56.36,1.43s-.47,1-1.33.41a12,12,0,0,1-2.27-1.81,7.92,7.92,0,0,1-1.94-3A3.83,3.83,0,0,1,31.22,32.74Z"/><path class="cls-3" d="M35.33,21.52a3.37,3.37,0,0,1,2.57-3.37,7.15,7.15,0,0,1,3.19-.22,14.26,14.26,0,0,1,3.1.87l.36.17c.24.14.31.26.24.52a10.14,10.14,0,0,1-.6,1.62.27.27,0,0,1-.39.15c-.22-.09-.43-.2-.65-.3a8.09,8.09,0,0,0-3.76-.71,2.34,2.34,0,0,0-1.12.32,1,1,0,0,0-.53.9,2.43,2.43,0,0,0,.2,1.07,7,7,0,0,0,2.18,2.56c.49.39,1,.73,1.54,1.1.31.23.33.3.2.67a7,7,0,0,1-.34.79c-.17.32-.28.35-.65.23a6.42,6.42,0,0,1-1.57-.73A10,10,0,0,1,36,23.91,4.59,4.59,0,0,1,35.33,21.52Z"/><path class="cls-3" d="M27.81,50.2a17.29,17.29,0,0,1,3.58.6c.31.11.37.27.17.53a8.33,8.33,0,0,0-.92,1.36.48.48,0,0,1-.54.24c-.39-.07-.77-.16-1.16-.22a7.08,7.08,0,0,0-3,.11,3,3,0,0,0-.72.29,1.3,1.3,0,0,0-.65,1.53,4.22,4.22,0,0,0,1.11,2,10.77,10.77,0,0,0,2.1,1.78,5.15,5.15,0,0,1,.45.32.3.3,0,0,1,.13.34c-.16.42-.32.83-.51,1.23-.09.2-.24.23-.47.12a10.66,10.66,0,0,1-2-1.27,10.86,10.86,0,0,1-1.84-1.81,5.37,5.37,0,0,1-1.22-2.85,3.32,3.32,0,0,1,1.32-3,5.55,5.55,0,0,1,2.67-1.08C26.82,50.29,27.29,50.25,27.81,50.2Z"/><path class="cls-2" d="M37.69,59.17a11.09,11.09,0,0,1,1.84-5.94,4.44,4.44,0,0,1,6.29-1.3A6.33,6.33,0,0,1,48,54.41c.11.21.21.42.33.63s.24.19.36,0c.32-.45.61-.92.93-1.37a6.84,6.84,0,0,1,1.51-1.48,4.42,4.42,0,0,1,6.3.9,8.59,8.59,0,0,1,1.18,1.95,23.06,23.06,0,0,1,1.27,3.64,4,4,0,0,0,.22.67,2.32,2.32,0,0,1,.07,1.17.91.91,0,0,1-.86.78,1,1,0,0,1-.54,0A2.58,2.58,0,0,0,57,61.21c-.31,0-.62.08-.93.09-1.18.06-2.36.16-3.54.21-.75,0-1.52.05-2.27.14-.94.12-1.89.07-2.83.16-2.18.22-4.35.1-6.53.14a3,3,0,0,1-1.74-.42.8.8,0,0,0-.51-.13.81.81,0,0,1-.85-.66A5.55,5.55,0,0,1,37.69,59.17Z"/><path class="cls-3" d="M49.22,59.16a7.08,7.08,0,0,1,1.71-4.47,3.36,3.36,0,0,1,4.4-.88,4.12,4.12,0,0,1,1.35,1.31,7.12,7.12,0,0,1,1.1,3.25,3.19,3.19,0,0,1-.16,1.4.56.56,0,0,1-.51.43.61.61,0,0,1-.64-.36,2.42,2.42,0,0,1-.13-.53c-.12-.57-.22-1.14-.34-1.7a5.2,5.2,0,0,0-.55-1.31,2.47,2.47,0,0,0-.67-.77,1.33,1.33,0,0,0-1.6-.16,2.86,2.86,0,0,0-.88.78,5.82,5.82,0,0,0-1,2.64c-.07.41-.11.83-.15,1.25a1,1,0,0,1-.84.91,1,1,0,0,1-1-.68A3.87,3.87,0,0,1,49.22,59.16Z"/><path class="cls-3" d="M42.75,53.18a3,3,0,0,1,2.24.88,6.31,6.31,0,0,1,1.73,2.69,15.76,15.76,0,0,1,.44,1.67,1.62,1.62,0,0,1,0,.62.9.9,0,0,1-.83.82,1,1,0,0,1-1-.67c-.1-.3-.17-.61-.24-.91a6,6,0,0,0-.68-1.84c-.14-.25-.3-.5-.46-.73a1.73,1.73,0,0,0-.31-.35,1.39,1.39,0,0,0-2.16,0,3.92,3.92,0,0,0-.95,1.53A10.69,10.69,0,0,0,40,59.34a3.32,3.32,0,0,1-.09.55.63.63,0,0,1-1.25,0,1.61,1.61,0,0,1-.11-.61,7.64,7.64,0,0,1,1.76-5A2.92,2.92,0,0,1,42.75,53.18Z"/><path class="cls-4" d="M83.78,58.42l-.49-.09c-.4-.07-.41-.07-.53.35a2.49,2.49,0,0,1-.67,1.22,1.8,1.8,0,0,1-1.78.36,2.17,2.17,0,0,1-1.53-1.37,1.66,1.66,0,0,1-.1-.54.56.56,0,0,1,.39-.62,1.58,1.58,0,0,0,.86-.64A3.15,3.15,0,0,0,80.67,56a.65.65,0,0,1,.44-.43,2.19,2.19,0,0,0,.68-.53c1-1,1.94-2.07,2.84-3.16.19-.22.36-.46.53-.69s.17-.27.27-.39a1.11,1.11,0,0,1,1.83,0,4.42,4.42,0,0,1,1,2.68,2,2,0,0,1-1.87,2.13h-.08c-.29,0-.33.06-.28.33a1.92,1.92,0,0,1-.06.86A2,2,0,0,1,83.78,58.42Z"/><path class="cls-5" d="M74.21,86.55a8.4,8.4,0,0,1-2.79-.65A5.91,5.91,0,0,1,69,83.7a15.26,15.26,0,0,1-.87-1.59c-.73-1.63-1.45-3.27-2.12-4.93-.78-2-1.5-3.93-2.24-5.89-.19-.49-.35-1-.56-1.48C62.86,69,63,69,62.09,69H36.28c-1.29,0-1-.08-1.45,1-1.09,2.84-2.13,5.71-3.2,8.57a42.8,42.8,0,0,1-1.75,4.06c-.28.56-.61,1.1-.94,1.63a4.43,4.43,0,0,1-2.9,2,6.9,6.9,0,0,1-5-.6,7.1,7.1,0,0,1-2.85-2.77,5.85,5.85,0,0,1-.7-3.49,16.37,16.37,0,0,1,1.29-4.62c1.8-4.63,3.64-9.24,5.47-13.87q2.05-5.2,4.1-10.42,3.09-7.82,6.16-15.63c1.45-3.7,2.89-7.4,4.35-11.09a27.21,27.21,0,0,1,1.78-3.69,9.64,9.64,0,0,1,3.56-3.5,7.8,7.8,0,0,1,2.82-1,11,11,0,0,1,2.43-.18,12.42,12.42,0,0,1,2.72.41,9,9,0,0,1,4.93,3.61,20,20,0,0,1,2.27,4.32c.66,1.66,1.29,3.33,2,5,.88,2.2,1.78,4.39,2.67,6.58.8,2,1.59,3.95,2.39,5.93q1.91,4.71,3.82,9.43a3.78,3.78,0,0,0,.17.35.33.33,0,0,0,.4.18l.82-.29a64.17,64.17,0,0,1,7.5-2.41A24.35,24.35,0,0,1,81.83,48a8.47,8.47,0,0,1,3.29.12,2.13,2.13,0,0,1,1.56,1.43,2.07,2.07,0,0,1,.07.93A5.42,5.42,0,0,1,85.54,53a22.16,22.16,0,0,1-3.14,3.21c-.87.76-1.76,1.5-2.69,2.18a.91.91,0,0,0-.17.17.16.16,0,0,0,.1.24c.51.12,1,.21,1.54.34a27,27,0,0,1,4.21,1.31,10.93,10.93,0,0,1,2.09,1.09,3.72,3.72,0,0,1,.86.82,2.19,2.19,0,0,1-.2,2.87,6.25,6.25,0,0,1-2.08,1.25,20.16,20.16,0,0,1-3.42,1,40.66,40.66,0,0,1-4.67.65h-.16c-.47.08-.52.17-.35.62L79.58,74a26.53,26.53,0,0,1,1.2,3.59,14.73,14.73,0,0,1,.36,1.85,5.07,5.07,0,0,1-.44,2.77A7,7,0,0,1,76,86.3,8.21,8.21,0,0,1,74.21,86.55ZM49,58.39H58.1c.24,0,.47,0,.71,0a.18.18,0,0,0,.17-.22,2.29,2.29,0,0,0-.12-.37l-1.23-3.33L53.36,42.73l-4-11c-.11-.3-.22-.59-.34-.88a.18.18,0,0,0-.13-.08.24.24,0,0,0-.1.1c-.09.22-.19.43-.27.66q-1.64,4.56-3.26,9.13c-.84,2.35-1.68,4.71-2.53,7.06l-3.49,9.72c-.33.91-.32.92.62.92Z"/><path class="cls-6" d="M77,73A11.9,11.9,0,0,1,71,71.6a10.07,10.07,0,0,1-4.19-4,8.3,8.3,0,0,1-.38-.86.57.57,0,0,1,.18-.71.66.66,0,0,1,.73-.11,1.45,1.45,0,0,1,.35.18,15.4,15.4,0,0,0,4.93,1.8,13.34,13.34,0,0,0,2.81.35c.52,0,1,.16,1.56.13a.48.48,0,0,1,.49.34c.08.19.18.38.25.57A28.84,28.84,0,0,0,78.78,72a3.59,3.59,0,0,1,.2.51c.07.23,0,.34-.22.43a2.92,2.92,0,0,1-.93.1C77.51,73,77.2,73,77,73Z"/><path class="cls-2" d="M62.19,47.35a4.61,4.61,0,0,1,2.23.67A1,1,0,0,1,63.91,50a2,2,0,0,1-.84-.15,1.65,1.65,0,0,0-2.24.68c-.16.24-.3.49-.46.73a.83.83,0,0,1-1.51-.08A1.46,1.46,0,0,1,58.78,50,3.52,3.52,0,0,1,62.19,47.35Z"/><path class="cls-2" d="M84.19,50.17a3.92,3.92,0,0,1-.27,1.57.89.89,0,0,1-1.16.54.75.75,0,0,1-.52-.64,3.88,3.88,0,0,1,.38-2.07.76.76,0,0,1,.8-.39.83.83,0,0,1,.73.63A1.82,1.82,0,0,1,84.19,50.17Z"/><path class="cls-7" d="M63.87,51.76A2.15,2.15,0,0,1,66,53.83,2.08,2.08,0,0,1,63.94,56a2.14,2.14,0,1,1-.07-4.28Z"/><path class="cls-8" d="M68.54,63.36A5.88,5.88,0,0,1,66,62.9a4.08,4.08,0,0,1-1.27-.9,1.83,1.83,0,0,1-.15-2.31,3.72,3.72,0,0,1,1.21-1,5.47,5.47,0,0,1,1.71-.57,7.14,7.14,0,0,1,3.12.09,5.6,5.6,0,0,1,1.58.7,2.17,2.17,0,0,1,.88,1,1.68,1.68,0,0,1-.13,1.65,3.38,3.38,0,0,1-1.71,1.32A6,6,0,0,1,68.54,63.36Z"/><path class="cls-9" d="M59.38,39.66a6.4,6.4,0,0,1-2-.65,3.47,3.47,0,0,1-1.67-2.88,4.09,4.09,0,0,1,.16-1.08c0-.21.1-.41.14-.62s0-.28-.25-.28A4.06,4.06,0,0,1,55,34,2.46,2.46,0,0,1,53,31.65q0-.55,0-1.11a3.37,3.37,0,0,1,.52-1.63c.09-.15,0-.25-.13-.28a14.16,14.16,0,0,1-1.69-.37,2.89,2.89,0,0,1-1.81-1.64,2.8,2.8,0,0,1-.14-1.78,4.6,4.6,0,0,1,2.13-2.91,1,1,0,0,1,.67-.16.55.55,0,0,1,.47.75,1.7,1.7,0,0,1-.35.52,6.54,6.54,0,0,0-1,1.5,2.47,2.47,0,0,0-.18.52,1.31,1.31,0,0,0,1.05,1.73A4,4,0,0,0,53.8,27c.53,0,1.06,0,1.58,0a.87.87,0,0,1,.79.43.82.82,0,0,1,.07.83,6.14,6.14,0,0,1-.77,1.18,2.94,2.94,0,0,0-.65,1.74c0,1,.55,1.41,1.48,1.08.32-.12.63-.25,1-.39a1,1,0,0,1,.84,0,1,1,0,0,1,.57,1.3c-.12.37-.29.73-.43,1.1A4.43,4.43,0,0,0,57.79,36a2.16,2.16,0,0,0,.09.62,1.59,1.59,0,0,0,1.27,1.06,4.27,4.27,0,0,1,.68.18.9.9,0,0,1,.63,1A1.08,1.08,0,0,1,59.38,39.66Z"/><path class="cls-9" d="M42,39.67A2.54,2.54,0,0,1,40.69,42a8.28,8.28,0,0,1-1,.43c-.26.1-.29.15-.16.41a8.26,8.26,0,0,1,.65,1.6A3.34,3.34,0,0,1,39,47.94a1.92,1.92,0,0,1-1,.43,2.6,2.6,0,0,0-.39.05.36.36,0,0,0-.3.47c.06.31.14.61.19.92a4.43,4.43,0,0,1-.59,3,2.11,2.11,0,0,1-2.73.91A3.8,3.8,0,0,1,32,51.54c-.17-.39-.1-.65.18-.83a.6.6,0,0,1,.74,0c.31.23.61.49.92.74a6,6,0,0,0,.71.5.66.66,0,0,0,1.06-.4,3.12,3.12,0,0,0,.1-2.09A7,7,0,0,0,35.09,48a1.1,1.1,0,0,1,0-1.39,1.21,1.21,0,0,1,1.32-.23,8.67,8.67,0,0,0,.84.22.81.81,0,0,0,1-.5,1.5,1.5,0,0,0,.15-1.14,5.59,5.59,0,0,0-.59-1.46c-.18-.29-.37-.57-.53-.87a1.05,1.05,0,0,1,.59-1.65,11.77,11.77,0,0,1,1.29-.36,1.78,1.78,0,0,0,.65-.26.86.86,0,0,0,.38-1.1,2.78,2.78,0,0,0-.51-.88c-.21-.24-.4-.49-.6-.73a1.45,1.45,0,0,1-.3-.64.64.64,0,0,1,.85-.78,1.52,1.52,0,0,1,.49.25,5.65,5.65,0,0,1,1.66,2A2.55,2.55,0,0,1,42,39.67Z"/><path class="cls-9" d="M53.53,66.37a3.11,3.11,0,0,1-2.41-.92l-.29-.28c-.23-.2-.32-.21-.49.06a4.34,4.34,0,0,1-1.14,1.08A3.12,3.12,0,0,1,45.1,66a5.82,5.82,0,0,1-.71-.85c-.32-.49-.33-.48-.76-.11-.24.2-.49.4-.74.58a4.44,4.44,0,0,1-1.21.56,2.73,2.73,0,0,1-2.4-.39,1.64,1.64,0,0,1-.56-.55,3.41,3.41,0,0,1,.14-3.79,2.79,2.79,0,0,1,.38-.39.5.5,0,0,1,.59-.09.54.54,0,0,1,.33.58,6.34,6.34,0,0,1-.19.84,2.89,2.89,0,0,0-.18.92,1.8,1.8,0,0,0,.13.69,1,1,0,0,0,1.35.58,3.3,3.3,0,0,0,1.19-.75c.34-.37.7-.72,1.06-1.06a1,1,0,0,1,1.64.13,3.13,3.13,0,0,1,.4.77,3.44,3.44,0,0,0,.56.94,1.33,1.33,0,0,0,1.93.37,3.89,3.89,0,0,0,1.43-1.53c.12-.21.24-.42.34-.63a1,1,0,0,1,1.53,0,5.14,5.14,0,0,0,.45.75A2.76,2.76,0,0,0,53,64.6a1,1,0,0,0,1-.16A3.22,3.22,0,0,0,55,63.2a3.61,3.61,0,0,1,.59-1,.53.53,0,0,1,.92,0,1.21,1.21,0,0,1,.34,1.29,4.62,4.62,0,0,1-.29.73,5.33,5.33,0,0,1-1.29,1.58A2.19,2.19,0,0,1,53.53,66.37Z"/><path class="cls-9" d="M25.3,81.2a3.77,3.77,0,0,1-3.59-2.58,1.66,1.66,0,0,1-.1-.54.59.59,0,0,1,.92-.48,3.87,3.87,0,0,1,.52.47c.28.28.55.57.82.85a2.13,2.13,0,0,0,1.26.6,1.14,1.14,0,0,0,.91-.18,1,1,0,0,0,.48-.93,2.16,2.16,0,0,0-.21-.83,12.52,12.52,0,0,0-.88-1.5c-.68-1-.41-1.65.82-1.88a7.53,7.53,0,0,0,1.22-.31,1.57,1.57,0,0,0,1-1.13.85.85,0,0,0-.06-.61,2.69,2.69,0,0,0-1-1.11,2.65,2.65,0,0,1-.87-.89,1.89,1.89,0,0,1-.16-.36.49.49,0,0,1,.4-.64,1.68,1.68,0,0,1,1.22.22A5.67,5.67,0,0,1,29.7,71a2.89,2.89,0,0,1-.45,3.74,3.55,3.55,0,0,1-1.57.88c-.5.12-.56.17-.24.68.1.16.18.32.28.48a3.55,3.55,0,0,1,.4,2.21,2.7,2.7,0,0,1-2.34,2.22Z"/><path class="cls-9" d="M75.13,83.71A3.24,3.24,0,0,1,72,79.21c.12-.35.12-.35-.23-.53a7.49,7.49,0,0,1-.69-.36,2,2,0,0,1-1-1.7,2.86,2.86,0,0,1,1.15-2.38,3.79,3.79,0,0,1,1.46-.76,1.32,1.32,0,0,1,.39-.06.62.62,0,0,1,.61.41.58.58,0,0,1-.12.66,4.63,4.63,0,0,1-.48.4c-.28.21-.56.4-.83.61a1.22,1.22,0,0,0-.45.72.62.62,0,0,0,.35.78,2.09,2.09,0,0,0,.92.2,2.85,2.85,0,0,1,1,.16.82.82,0,0,1,.48,1.31,8.05,8.05,0,0,1-.74.92,1.42,1.42,0,0,0,.89,2.33c.21,0,.42,0,.63,0a1.29,1.29,0,0,1,.61.16.79.79,0,0,1,.49.74.82.82,0,0,1-.53.73A1.45,1.45,0,0,1,75.13,83.71Z"/></g></g></svg>