<svg xmlns="http://www.w3.org/2000/svg" viewBox="0 0 102 102"><defs><style>.cls-1{fill:#bb4f3e;}.cls-2{fill:#8d2e1f;}.cls-3{fill:#d67557;}.cls-4{fill:#ffda95;}.cls-5{fill:#421c43;}.cls-6{fill:#ffa8d0;}</style></defs><g id="OBJECTS"><path class="cls-1" d="M65.79,12.16a7.38,7.38,0,0,0-5.27,2.05,12.76,12.76,0,0,0-2.92,3.91,9.69,9.69,0,0,0-.91,3.08,6.44,6.44,0,0,0,0,2A5.69,5.69,0,0,0,57.42,25a4.89,4.89,0,0,0,2.4,2,6.52,6.52,0,0,0,2.55.55,9.64,9.64,0,0,0,5-1.39,10.07,10.07,0,0,0,3.8-3.78,6.77,6.77,0,0,0,.9-4.94,6.34,6.34,0,0,0-4.52-4.94A5,5,0,0,0,65.79,12.16Z"/><path class="cls-2" d="M62.67,27.5a9.29,9.29,0,0,0,4.53-1.27,10,10,0,0,0,4-3.95,6.9,6.9,0,0,0,.68-5.66,5,5,0,0,0-.29-.67c-.17-.35-.32-.42-.71-.35a11.75,11.75,0,0,0-2.25.63,12.76,12.76,0,0,0-4.49,2.83,13.28,13.28,0,0,0-3,4.72,14.69,14.69,0,0,0-.72,2.83c0,.05,0,.1,0,.15,0,.31,0,.47.36.54a5.91,5.91,0,0,0,1.45.21Z"/><path class="cls-3" d="M25.19,55.5V29.69A13.35,13.35,0,0,1,25.66,26a6.11,6.11,0,0,1,1.78-3,6.3,6.3,0,0,1,2.33-1.29,9.08,9.08,0,0,1,2.78-.49H56.87a41.3,41.3,0,0,1,4.72.19,27.14,27.14,0,0,1,6.17,1.25A17.41,17.41,0,0,1,74,26.53a16.54,16.54,0,0,1,3.26,4.33A16,16,0,0,1,78.75,35,17.28,17.28,0,0,1,79,40a14.88,14.88,0,0,1-2.36,7.12,15.43,15.43,0,0,1-3.16,3.49,19.66,19.66,0,0,1-3.83,2.49,3.84,3.84,0,0,0-.35.18c-.07,0-.14.09-.12.18a.27.27,0,0,0,.11.1l.44.17a26,26,0,0,1,4.91,2.33,15.64,15.64,0,0,1,6.16,6.8,15.45,15.45,0,0,1,1.25,4.31,20.83,20.83,0,0,1,.26,3.06,19.3,19.3,0,0,1-3.09,10.52,17.55,17.55,0,0,1-8.71,7,26.33,26.33,0,0,1-5.8,1.44c-1.59.22-3.18.36-4.78.49-2.29.17-4.58.12-6.86.13H33.61a12.44,12.44,0,0,1-3.74-.48,5.76,5.76,0,0,1-4-3.78,12.49,12.49,0,0,1-.65-4.11v-26Zm14.1,13.8v9c0,.9,0,.91.91.91H54.48A24.79,24.79,0,0,0,59,78.87a14.85,14.85,0,0,0,4.56-1.47,8.09,8.09,0,0,0,4.33-6.06,13.16,13.16,0,0,0,0-4.47A7.48,7.48,0,0,0,64.5,61.8a10.74,10.74,0,0,0-2.86-1.31,21.56,21.56,0,0,0-6.28-1q-7.62,0-15.23,0c-.84,0-.84,0-.84.82C39.28,63.31,39.29,66.31,39.29,69.3Zm0-28.72c0,2.68,0,5.37,0,8.05,0,.69,0,.71.7.7,4.76-.06,9.52.13,14.27-.11a28.21,28.21,0,0,0,4.3-.52,8.11,8.11,0,0,0,6.38-6A9.67,9.67,0,0,0,65,37.88a6.11,6.11,0,0,0-4.17-4.73c-.28-.09-.55-.19-.83-.27a25,25,0,0,0-6.6-1c-4.44-.06-8.89,0-13.33-.05-.81,0-.81,0-.81.85,0,.16,0,.32,0,.48Z"/><path class="cls-1" d="M66.91,55.08a3.68,3.68,0,0,1,0,.47,1.18,1.18,0,0,1-2.27.35,4.75,4.75,0,0,1-.22-.92,6.53,6.53,0,0,1-.08-1.65,1.43,1.43,0,0,1,.32-.87,1,1,0,0,1,1.46-.13,1.18,1.18,0,0,1,.38.58A7.31,7.31,0,0,1,66.91,55.08Z"/><path class="cls-1" d="M35.81,31.28a2.23,2.23,0,0,1,0,1.09,1.1,1.1,0,0,1-1,1,1.14,1.14,0,0,1-1.24-.77,4,4,0,0,1-.12-1.64,3.39,3.39,0,0,1,.15-.77,1.14,1.14,0,0,1,1-.93,1.2,1.2,0,0,1,1.07.9,3.94,3.94,0,0,1,.12.7A3.68,3.68,0,0,1,35.81,31.28Z"/><path class="cls-1" d="M52.08,54.7c0,.32,0,.63,0,.95a1.24,1.24,0,0,1-.15.6,1.05,1.05,0,0,1-1,.58,1,1,0,0,1-.93-.62,3.14,3.14,0,0,1-.19-1.55A11.74,11.74,0,0,1,50,53.49a2,2,0,0,1,.16-.52,1,1,0,0,1,1.68,0,1.65,1.65,0,0,1,.23.83c0,.31,0,.63,0,.94Z"/><path class="cls-1" d="M27.73,41.91c0-.21,0-.42,0-.63a2.55,2.55,0,0,1,0-.39,1.08,1.08,0,0,1,1-1c.46,0,.8.24,1,.82A6.55,6.55,0,0,1,30,43.36a1,1,0,0,1-.83.82A1,1,0,0,1,28,43.67a1.87,1.87,0,0,1-.25-.9c0-.29,0-.57,0-.86Z"/><path class="cls-1" d="M36.91,55.07a3.35,3.35,0,0,1,0,.55.94.94,0,0,1-.71.85,1,1,0,0,1-1.08-.24,1.49,1.49,0,0,1-.45-1,9.82,9.82,0,0,0-.12-1.09,2.45,2.45,0,0,1,.16-1.31.85.85,0,0,1,1.55-.24,1.94,1.94,0,0,1,.31.54A5.77,5.77,0,0,1,36.91,55.07Z"/><path class="cls-1" d="M34.05,42.23a3.68,3.68,0,0,1,.12-1.32,2.2,2.2,0,0,1,.13-.36.82.82,0,0,1,1.47,0A3.62,3.62,0,0,1,36.24,42a9.08,9.08,0,0,1,.1,1.17,1.41,1.41,0,0,1-.09.53,1.06,1.06,0,0,1-1.82.35,1.78,1.78,0,0,1-.37-1A6.94,6.94,0,0,1,34.05,42.23Z"/><path class="cls-1" d="M44.49,55.12c0,.26,0,.52,0,.78A1.09,1.09,0,0,1,43.44,57a1.2,1.2,0,0,1-1.18-1,8,8,0,0,1,0-2.35,1,1,0,0,1,1.14-.85.86.86,0,0,1,.83.61,4,4,0,0,1,.2.84,8.11,8.11,0,0,1,0,.86Z"/><path class="cls-1" d="M30.31,31.63a6.87,6.87,0,0,1-.08.78,1.05,1.05,0,0,1-1,.86,1.08,1.08,0,0,1-1.15-.77,3.81,3.81,0,0,1,.09-2.62.89.89,0,0,1,1-.63.93.93,0,0,1,.91.74A6.44,6.44,0,0,1,30.31,31.63Z"/><path class="cls-1" d="M36.1,66.18A2.72,2.72,0,0,1,36,67a1.28,1.28,0,0,1-.81.81.64.64,0,0,1-.6-.06,1.63,1.63,0,0,1-.73-1,5.22,5.22,0,0,1,.06-2.26,1.18,1.18,0,0,1,.19-.43.86.86,0,0,1,1.3-.21,1.18,1.18,0,0,1,.39.58A6.08,6.08,0,0,1,36.1,66.18Z"/><path class="cls-1" d="M29.64,54a6,6,0,0,1-.07.94,1.14,1.14,0,0,1-1.84.69,1.2,1.2,0,0,1-.46-.88,5.29,5.29,0,0,1,.2-1.94,1.24,1.24,0,0,1,.44-.64,1,1,0,0,1,1.52.36,1.82,1.82,0,0,1,.19.76V54Z"/><path class="cls-1" d="M59.12,83.1a2.67,2.67,0,0,1,0-.41A1,1,0,0,1,61,82.36a4,4,0,0,1,.57,2.09,1.13,1.13,0,0,1-2.2.48A5.18,5.18,0,0,1,59.12,83.1Z"/><path class="cls-1" d="M57.54,54.11c0-.24,0-.47,0-.71a.94.94,0,0,1,.79-.94.9.9,0,0,1,1.07.59,4.46,4.46,0,0,1,.4,2.22A1,1,0,0,1,59,56.34a1.16,1.16,0,0,1-1.24-.75,3.12,3.12,0,0,1-.18-1.09c0-.13,0-.26,0-.39Z"/><path class="cls-1" d="M69.28,83.07a1.29,1.29,0,0,1-.21.85,1.12,1.12,0,0,1-2-.24,4.36,4.36,0,0,1-.21-2.26,1,1,0,0,1,1.58-.56,1.48,1.48,0,0,1,.47.63A5.2,5.2,0,0,1,69.28,83.07Z"/><path class="cls-1" d="M34.17,84.71a4,4,0,0,1,.25-1.52.91.91,0,0,1,.8-.66,1,1,0,0,1,1,.68,5.1,5.1,0,0,1,.2,2.33.83.83,0,0,1-.08.22,1.12,1.12,0,0,1-1,.72,1.16,1.16,0,0,1-1-.74A3.19,3.19,0,0,1,34.17,84.71Z"/><path class="cls-1" d="M52.69,84.92a5,5,0,0,1,0,.59c-.21.84-.87,1-1.6.76a.76.76,0,0,1-.46-.51,3.4,3.4,0,0,1-.12-2.39.93.93,0,0,1,1-.72c.52,0,.78.21,1,.76A6.76,6.76,0,0,1,52.69,84.92Z"/><path class="cls-1" d="M42,84a6.48,6.48,0,0,1,.09-.77c.09-.35.26-.64.67-.68s.85,0,1.08.43a4.61,4.61,0,0,1,.32.8A9.89,9.89,0,0,1,44.43,85a1.24,1.24,0,0,1-.23.89,1,1,0,0,1-1.61.11,1.62,1.62,0,0,1-.35-.69A5.85,5.85,0,0,1,42,84Z"/><path class="cls-1" d="M72.09,65.68c0,.2,0,.36,0,.51a1.23,1.23,0,0,1-.17.6,1,1,0,0,1-1.87-.09,3.06,3.06,0,0,1-.16-.68,5.49,5.49,0,0,1,.2-1.71,1.89,1.89,0,0,1,.16-.36.86.86,0,0,1,.87-.54.9.9,0,0,1,.8.75A5.38,5.38,0,0,1,72.09,65.68Z"/><path class="cls-1" d="M30.44,65.43c0,.26,0,.52,0,.79a1.42,1.42,0,0,1-.22.74,1,1,0,0,1-1.09.45,1,1,0,0,1-.77-.8,5.41,5.41,0,0,1,.34-2.7.79.79,0,0,1,.73-.52.81.81,0,0,1,.78.43,1.53,1.53,0,0,1,.23.74C30.45,64.85,30.44,65.14,30.44,65.43Z"/><path class="cls-1" d="M34.33,75.85v-.79a.9.9,0,0,1,.3-.63.78.78,0,0,1,1.18,0,1.43,1.43,0,0,1,.29.37A4.37,4.37,0,0,1,36.59,77a1,1,0,0,1-.71,1,1.05,1.05,0,0,1-1.2-.37,1.35,1.35,0,0,1-.32-.79c0-.31,0-.63,0-.94Z"/><path class="cls-1" d="M72.94,74.4a2,2,0,0,1,0,1,.84.84,0,0,1-.74.71A1,1,0,0,1,71,75.6a1,1,0,0,1-.12-.29A4.79,4.79,0,0,1,71,73a.62.62,0,0,1,.1-.22.86.86,0,0,1,1.6.08,3.89,3.89,0,0,1,.21.83A6.4,6.4,0,0,1,72.94,74.4Z"/><path class="cls-1" d="M78.42,74.58a2.64,2.64,0,0,1-.08.47.94.94,0,0,1-1.57.41,1.5,1.5,0,0,1-.2-.24,4.07,4.07,0,0,1-.26-2.29.89.89,0,0,1,.77-.69.93.93,0,0,1,1,.6A3.86,3.86,0,0,1,78.42,74.58Z"/><path class="cls-1" d="M75.54,64.66a1.46,1.46,0,0,1,.08-.62,1,1,0,0,1,1.68-.18,3,3,0,0,1,.62,1.76.75.75,0,0,1-.08.38c-.15.37-.28.79-.74.83A1.25,1.25,0,0,1,76,66.24,2.65,2.65,0,0,1,75.54,64.66Z"/><path class="cls-2" d="M67.71,26.71a1.07,1.07,0,0,1-1.34,1.12,5.9,5.9,0,0,1-.92-.23,1.7,1.7,0,0,0-2,.63,2.66,2.66,0,0,0-.28.38c-.1.12-.19.25-.3.36a.89.89,0,0,1-1.13.27,1,1,0,0,1-.52-1.13A3.57,3.57,0,0,1,63,25.68a4.25,4.25,0,0,1,3.79-.19,1.89,1.89,0,0,1,.47.28A1,1,0,0,1,67.71,26.71Z"/><path class="cls-1" d="M46.18,12.16a7.38,7.38,0,0,1,5.27,2.05,12.6,12.6,0,0,1,2.92,3.91,9.69,9.69,0,0,1,.91,3.08,6.14,6.14,0,0,1,0,2A5.91,5.91,0,0,1,54.56,25a5,5,0,0,1-2.4,2,6.61,6.61,0,0,1-2.56.55,9.64,9.64,0,0,1-5-1.39,10.14,10.14,0,0,1-3.8-3.78,6.77,6.77,0,0,1-.9-4.94,6.36,6.36,0,0,1,4.52-4.94A5.08,5.08,0,0,1,46.18,12.16Z"/><path class="cls-2" d="M49.31,27.5a9.29,9.29,0,0,1-4.54-1.27,10,10,0,0,1-4-3.95,6.9,6.9,0,0,1-.67-5.66,4,4,0,0,1,.28-.67.53.53,0,0,1,.71-.35,11.75,11.75,0,0,1,2.25.63,12.76,12.76,0,0,1,4.49,2.83,13.28,13.28,0,0,1,3,4.72,14.69,14.69,0,0,1,.72,2.83.77.77,0,0,1,0,.15c0,.31,0,.47-.36.54a5.83,5.83,0,0,1-1.44.21Z"/><path class="cls-1" d="M22.32,83.68a9.7,9.7,0,0,1-3.66-.56,9.77,9.77,0,0,1-3.85-2.24,4.57,4.57,0,0,1-1.43-2.66,3.48,3.48,0,0,1,1.46-3.45,5.83,5.83,0,0,1,2.57-1.12c.36-.06.4-.16.21-.48a12,12,0,0,1-1.14-2.5,6.62,6.62,0,0,1-.41-2.08c0-2.27.95-3.81,3.26-4.4a5.15,5.15,0,0,1,3,.27,8.89,8.89,0,0,1,3.57,2.25,16.94,16.94,0,0,1,1.79,2,14,14,0,0,1,2.39,5.77,13.46,13.46,0,0,1,.14,1.41,7.77,7.77,0,0,1-.6,3.78,6.56,6.56,0,0,1-3.92,3.54A7.42,7.42,0,0,1,22.32,83.68Z"/><path class="cls-2" d="M23.42,75.55a2.13,2.13,0,0,1,.86.21,8.74,8.74,0,0,1,1.73.93,1.54,1.54,0,0,1,.44.44,1.13,1.13,0,0,1,0,1.26,1.27,1.27,0,0,1-1.24.5,3.21,3.21,0,0,1-.8-.3c-.57-.33-1.11-.69-1.67-1a.51.51,0,0,1-.13-.09,1.19,1.19,0,0,1-.41-1.26A1.14,1.14,0,0,1,23.42,75.55Z"/><path class="cls-2" d="M20.31,68.47a1.31,1.31,0,0,1,.67.17,7,7,0,0,1,2,1.48,1.19,1.19,0,0,1,.31,1.09,1.12,1.12,0,0,1-1.36.86,2.09,2.09,0,0,1-.58-.24,7.84,7.84,0,0,1-1.7-1.39c-.1-.12-.18-.26-.27-.38a.94.94,0,0,1-.07-1A1,1,0,0,1,20.31,68.47Z"/><path class="cls-2" d="M21,81.28l-.44-.11a11.4,11.4,0,0,1-1.84-.86,1.47,1.47,0,0,1-.51-.48.89.89,0,0,1,.61-1.42,2.27,2.27,0,0,1,.78,0,7.58,7.58,0,0,1,2.22.76,1.13,1.13,0,0,1,.39,1.68A1.26,1.26,0,0,1,21,81.28Z"/><path class="cls-4" d="M71.43,40.42a14,14,0,0,1,.36-4A15.05,15.05,0,0,1,74,31a11.6,11.6,0,0,1,1-1.15A2.64,2.64,0,0,1,77.38,29a10.82,10.82,0,0,1,6.3,3,9.77,9.77,0,0,1,2.87,5,8.68,8.68,0,0,1,.15,3.52,10.43,10.43,0,0,1-6.89,8.33,13.67,13.67,0,0,1-3.83.83,5.61,5.61,0,0,1-.71,0,2.06,2.06,0,0,1-1.59-.88,12.19,12.19,0,0,1-1.93-4.45A14.93,14.93,0,0,1,71.43,40.42Z"/><path class="cls-1" d="M77.33,36.31a1.1,1.1,0,0,1-1.12,1.07,1.17,1.17,0,0,1-1.06-1.15,1.13,1.13,0,0,1,1.09-1A1.16,1.16,0,0,1,77.33,36.31Z"/><path class="cls-1" d="M80.5,34.29a1.07,1.07,0,0,1-1,1,1.09,1.09,0,0,1-1.07-1.12,1.06,1.06,0,1,1,2.12.08Z"/><path class="cls-1" d="M79.88,36.86a1,1,0,0,1,1.09,1,1,1,0,0,1-1,1.13,1,1,0,0,1-1.08-1A1,1,0,0,1,79.88,36.86Z"/><path class="cls-5" d="M85.7,38.84c-1.53.22-3.21-1.55-2.86-3.53a3,3,0,0,1,2.81-2.66,2.58,2.58,0,0,1,1.95.7,3.2,3.2,0,0,1,.85,3.52A3,3,0,0,1,87,38.56,2,2,0,0,1,85.7,38.84Z"/><path class="cls-5" d="M82.41,44.33A9,9,0,0,1,77.85,43a3.15,3.15,0,0,1-.61-.48.66.66,0,0,1-.16-.86A.65.65,0,0,1,78,41.4c.35.13.68.29,1,.42a8.71,8.71,0,0,0,4.41.47,14.34,14.34,0,0,0,2.36-.61,5.18,5.18,0,0,1,.53-.14c.1,0,.15.06.16.14A3.14,3.14,0,0,1,86,43.17a.94.94,0,0,1-.62.56,7.38,7.38,0,0,1-1.12.38c-.36.07-.71.17-1.08.21A5.06,5.06,0,0,1,82.41,44.33Z"/><path class="cls-5" d="M64.32,31.15A2.07,2.07,0,0,1,66.43,29a2.2,2.2,0,0,1,2.17,2.16,2.13,2.13,0,0,1-2.21,2.12A2,2,0,0,1,64.32,31.15Z"/><path class="cls-6" d="M65.22,48.48a5.27,5.27,0,0,1-5.37-5.34,5.41,5.41,0,0,1,5.4-5.47,5.48,5.48,0,0,1,5.42,5.46A5.32,5.32,0,0,1,65.22,48.48Z"/></g></svg>