<svg xmlns="http://www.w3.org/2000/svg" viewBox="0 0 102 102"><defs><style>.cls-1{fill:#ffac1b;}.cls-2{fill:#421c43;}.cls-3{fill:#3aaa7d;}.cls-4{fill:#0d6c6f;}.cls-5{fill:#6fb2f3;}.cls-6{fill:#2067ac;}.cls-7{fill:#f54752;}.cls-8{fill:#b40c56;}.cls-9{fill:#ffda95;}.cls-10{fill:#fff;}.cls-11{fill:#f75e9d;}</style></defs><g id="OBJECTS"><path class="cls-1" d="M92,30.16A4.24,4.24,0,0,1,91.48,32a9.87,9.87,0,0,1-1.75,2.45,10.15,10.15,0,0,1-2.2,1.83c-.1.06-.27.17-.26.23s.23.12.35.15a27.55,27.55,0,0,1,2.69.77,5.81,5.81,0,0,1,1,.43,1,1,0,0,1,.44,1.4,2.2,2.2,0,0,1-.48.62,8.11,8.11,0,0,1-2,1.33c-1,.54-2,1-3,1.55a4.18,4.18,0,0,1-.8.32.88.88,0,0,1-1.09-.59,4.61,4.61,0,0,1-.22-.83,21.87,21.87,0,0,0-2.32-6.61c-.29-.55-.64-1.08-1-1.6a2,2,0,0,1-.34-.79.72.72,0,0,1,.45-.88c.39-.18.79-.35,1.19-.49Q85.79,30,89.42,29a5.63,5.63,0,0,1,1.42-.24A1,1,0,0,1,92,29.87,2.8,2.8,0,0,1,92,30.16Z"/><path class="cls-2" d="M86.83,33.63a.67.67,0,0,1-.67-.93,4.15,4.15,0,0,1,1.12-1.56.79.79,0,0,1,.61-.17.56.56,0,0,1,.51.59.9.9,0,0,1,0,.28,5.11,5.11,0,0,1-1,1.58A.68.68,0,0,1,86.83,33.63Z"/><path class="cls-3" d="M35.69,80.15a8.94,8.94,0,0,1-5.12-1.5,11.87,11.87,0,0,1-3.34-3.32A24.37,24.37,0,0,1,24.15,69c-.42-1.25-.88-2.48-1.39-3.7a10.85,10.85,0,0,0-2.38-3.57,4.4,4.4,0,0,0-4.15-1.24,5.79,5.79,0,0,0-3.44,2.06,2.07,2.07,0,0,1-1,.79.93.93,0,0,1-1.21-.85,1.91,1.91,0,0,1,.13-.78,20.45,20.45,0,0,1,1.07-2.27,10.86,10.86,0,0,1,4.78-4.63,8.88,8.88,0,0,1,4-1,7.23,7.23,0,0,1,4.36,1.47,9.52,9.52,0,0,1,2.38,2.56,24,24,0,0,1,2.22,4.59c.67,1.72,1.25,3.47,2,5.16a19.73,19.73,0,0,0,1.15,2.24L34,72a3.51,3.51,0,0,0,.83.89,31.32,31.32,0,0,0,3.31,2.16c.35.21.7.41,1,.63a4.34,4.34,0,0,1,.8.61,1.62,1.62,0,0,1,.16,2.11,3.59,3.59,0,0,1-2.24,1.45A8.15,8.15,0,0,1,35.69,80.15Z"/><path class="cls-4" d="M18,56.46a7.3,7.3,0,0,1,3.09.62,10.92,10.92,0,0,1,2.72,1.73,22.74,22.74,0,0,1,2.16,2c.45.5.88,1,1.31,1.53a1,1,0,0,1,.23.87.72.72,0,0,1-.9.6,1.46,1.46,0,0,1-.71-.46c-.44-.5-.88-1-1.34-1.5a14.92,14.92,0,0,0-3.08-2.69,9.2,9.2,0,0,0-1.21-.62,5.33,5.33,0,0,0-3.65-.21c-.37.11-.73.25-1.09.37s-.58.07-.75-.19a.61.61,0,0,1,0-.79,2.21,2.21,0,0,1,.91-.69A6.57,6.57,0,0,1,18,56.46Z"/><path class="cls-5" d="M20.24,44.64a12.22,12.22,0,0,1,5.29,1.21A19.06,19.06,0,0,1,30,49c.31.3.66.56,1,.87a43.23,43.23,0,0,1,4.53,5.39c1.06,1.48,2,3,3,4.58q.28.45.54.93c.64,1.26,1.37,2.47,1.94,3.77s1.13,2.44,1.61,3.69a25.48,25.48,0,0,1,1.15,4,4.52,4.52,0,0,1,.08,1.56,2.77,2.77,0,0,1-1.71,2.31,6.33,6.33,0,0,1-3.65.49,8.37,8.37,0,0,1-4.58-2.38,13.76,13.76,0,0,1-2.52-3.48,21.84,21.84,0,0,1-1.88-4.81c-.34-1.25-.7-2.49-1.09-3.73a28.92,28.92,0,0,0-1.49-3.81,14.38,14.38,0,0,0-2.11-3.25A15.21,15.21,0,0,0,20,51.39a9.72,9.72,0,0,0-4.36-1.07q-1.15,0-2.31,0a3.6,3.6,0,0,0-.56.08,1.59,1.59,0,0,1-.78-.07,1.09,1.09,0,0,1-.54-1.78,7.1,7.1,0,0,1,1.25-1.2,16.2,16.2,0,0,1,3.92-2.08A9.3,9.3,0,0,1,19,44.78,9.83,9.83,0,0,1,20.24,44.64Z"/><path class="cls-6" d="M18.48,46.68a11.21,11.21,0,0,1,3.79.71A19.84,19.84,0,0,1,28,50.66a14.57,14.57,0,0,1,1.15,1.08,1.54,1.54,0,0,1,.21.29.8.8,0,0,1-.7,1.18,1,1,0,0,1-.73-.25c-.33-.25-.64-.51-1-.77a16.46,16.46,0,0,0-7-3.63,7.44,7.44,0,0,0-3.48,0,2.45,2.45,0,0,1-.71.07.64.64,0,0,1-.6-.44.58.58,0,0,1,.15-.6,1.77,1.77,0,0,1,.83-.54,6.32,6.32,0,0,1,1.62-.34Z"/><path class="cls-7" d="M34.29,82.3a12.13,12.13,0,0,1-5.77-1.57,15.42,15.42,0,0,1-4-3.44c-1.09-1.28-2.05-2.66-3.13-3.94-.3-.37-.57-.77-.86-1.15a7,7,0,0,0-4.17-2.63,3.56,3.56,0,0,0-1.49,0,6.36,6.36,0,0,0-2,.73,9.83,9.83,0,0,0-1,.73,5,5,0,0,1-.46.34,1,1,0,0,1-1.4-.81,2.84,2.84,0,0,1,.43-1.42,10,10,0,0,1,2.42-2.63,17,17,0,0,1,2.89-1.88,9.62,9.62,0,0,1,3-.94,6,6,0,0,1,2,.18A8.39,8.39,0,0,1,23.5,65a18.24,18.24,0,0,1,4.35,3.62c1.25,1.39,2.5,2.77,3.83,4.09a17.24,17.24,0,0,0,2.9,2.35A32.86,32.86,0,0,0,39,77.59c.35.16.7.3,1,.47a2.43,2.43,0,0,1,.49.29,1,1,0,0,1,.33,1.22,2.2,2.2,0,0,1-.67.92,5.83,5.83,0,0,1-1.68,1,11.68,11.68,0,0,1-3.14.74A9.59,9.59,0,0,1,34.29,82.3Z"/><path class="cls-8" d="M17.57,66A8.91,8.91,0,0,1,22,67.35a17.5,17.5,0,0,1,3.74,3.23c.85.91,1.66,1.85,2.5,2.78a23.74,23.74,0,0,0,2.9,2.77,10.05,10.05,0,0,0,4.27,2,7.79,7.79,0,0,1,.83.22,1.43,1.43,0,0,1,.45.21.66.66,0,0,1,.24.71.53.53,0,0,1-.49.45,1.72,1.72,0,0,1-.64,0,12.82,12.82,0,0,1-5.08-1.89,17.73,17.73,0,0,1-3.19-2.67C26.28,73.74,25,72.34,23.64,71a14.72,14.72,0,0,0-4-2.8,6.42,6.42,0,0,0-2.14-.58,4.85,4.85,0,0,0-2.25.36c-.25.1-.49.2-.74.28a.53.53,0,0,1-.59-.16.56.56,0,0,1-.08-.67,1.76,1.76,0,0,1,.62-.68A5.71,5.71,0,0,1,17.57,66Z"/><path class="cls-9" d="M30.19,55.45c0-.84,0-1.69,0-2.52s.16-1.72.24-2.58a28.38,28.38,0,0,1,.45-3.05,31.84,31.84,0,0,1,4.89-12,27.54,27.54,0,0,1,4.85-5.38,26.65,26.65,0,0,1,5.62-3.73,30.15,30.15,0,0,1,7.9-2.6,32.93,32.93,0,0,1,3.71-.44c.72-.05,1.43-.1,2.15-.11,1.28,0,2.54.13,3.8.24a27,27,0,0,1,4.73.89,26.43,26.43,0,0,1,5.72,2.3A27.74,27.74,0,0,1,79,29.66a21,21,0,0,1,4.41,5,18.52,18.52,0,0,1,1.93,4,11,11,0,0,1,.49,4.19,4.68,4.68,0,0,1-.59,1.84,5.54,5.54,0,0,1-2.65,2.54,4.66,4.66,0,0,1-2.73.4c-.28,0-.57-.06-.86-.1A4.56,4.56,0,0,1,76,45.63a19.42,19.42,0,0,1-1.74-2.73,25.29,25.29,0,0,0-2.59-4,14.64,14.64,0,0,0-4.72-4,13.13,13.13,0,0,0-3.61-1.21,17.17,17.17,0,0,0-4.29-.26,14.67,14.67,0,0,0-8.86,3.33A17.07,17.07,0,0,0,46,41.94a23.73,23.73,0,0,0-2.31,7.16c-.22,1.25-.33,2.51-.45,3.78a38.21,38.21,0,0,0-.07,5.24,31.62,31.62,0,0,0,1.32,8.14A18,18,0,0,0,48.23,73a13.38,13.38,0,0,0,4.65,3.33,15.75,15.75,0,0,0,4.93,1.24,19.16,19.16,0,0,0,2.51.1A15.72,15.72,0,0,0,68,75.5a13.74,13.74,0,0,0,4-3.68,19.13,19.13,0,0,0,2.6-5,14.94,14.94,0,0,1,1.69-3.48,4.08,4.08,0,0,1,2.62-1.76,6.43,6.43,0,0,1,3.2.09A5.7,5.7,0,0,1,86,66.2a11.73,11.73,0,0,1-.22,3.35,20.11,20.11,0,0,1-4.14,8.76c-.61.77-1.25,1.52-1.93,2.23a22.67,22.67,0,0,1-5.28,4,24.61,24.61,0,0,1-6.83,2.61,29.71,29.71,0,0,1-3.4.54,32.13,32.13,0,0,1-4.38.22c-1.22,0-2.44-.1-3.66-.21A42.28,42.28,0,0,1,52,87.05,25.06,25.06,0,0,1,43,83.38a22.43,22.43,0,0,1-2.92-2.33,29,29,0,0,1-5.7-7.45,34,34,0,0,1-3.5-9.86,43.79,43.79,0,0,1-.61-4.56C30.18,57.94,30.19,56.69,30.19,55.45Z"/><path class="cls-10" d="M43.33,35.75c0,.08,0,.31-.09.55-.1.69-.22,1.37-.32,2.06a2,2,0,0,0,.09.85c0,.12.09.16.19,0a9.2,9.2,0,0,0,1.13-1.57c.24-.39.46-.79.68-1.19a1.63,1.63,0,0,1,.78-.71.46.46,0,0,1,.66.24,1.1,1.1,0,0,1,0,1,17.33,17.33,0,0,1-2.24,3.68,2.33,2.33,0,0,1-.87.61,1.45,1.45,0,0,1-1.68-.62A3.81,3.81,0,0,1,41.25,39c0-.3.09-.61-.09-.89-.29.09-.44.35-.68.51a5.1,5.1,0,0,1-1,.54,1.29,1.29,0,0,1-1.82-.87,2.63,2.63,0,0,1-.07-1.42,5.75,5.75,0,0,1,.34-1.09,23.41,23.41,0,0,1,1.6-3.06,1.26,1.26,0,0,1,.74-.64.44.44,0,0,1,.57.39,1.29,1.29,0,0,1-.17.69c-.32.67-.64,1.34-.94,2-.23.5-.42,1-.63,1.53a1.64,1.64,0,0,0-.1.85c0,.11.11.15.22.1a1.89,1.89,0,0,0,.3-.19,9.4,9.4,0,0,0,1.19-1.25c.33-.43.68-.86,1-1.3a1.15,1.15,0,0,1,.51-.39.78.78,0,0,1,1.09.68A4.84,4.84,0,0,1,43.33,35.75Z"/><path class="cls-10" d="M33.07,51.71a15,15,0,0,1,.42-2.83,1,1,0,0,1,.26-.5.56.56,0,0,1,1,.2,1.57,1.57,0,0,1,.07.71c0,.55-.1,1.1-.12,1.65s0,1,0,1.43a1,1,0,0,0,.11.34.13.13,0,0,0,.19,0,.83.83,0,0,0,.29-.4A11.56,11.56,0,0,0,36,50.7a6.59,6.59,0,0,1,.3-.73.78.78,0,0,1,.72-.51.89.89,0,0,1,.75.49,1.88,1.88,0,0,1,.19.61,14.61,14.61,0,0,0,.53,2.17,2.23,2.23,0,0,0,.31.64c.13.17.29.18.4,0a4.27,4.27,0,0,0,.56-1.32,4.39,4.39,0,0,1,.62-1.29.44.44,0,0,1,.08-.11.41.41,0,0,1,.74.16,2.6,2.6,0,0,1,.13,1,5.89,5.89,0,0,1-.89,2.62,1.77,1.77,0,0,1-3,0,5,5,0,0,1-.61-1.22c-.07-.21-.16-.23-.28-.06a5.87,5.87,0,0,1-.86,1.06,1.63,1.63,0,0,1-.47.32,1.38,1.38,0,0,1-1.81-.72,4.51,4.51,0,0,1-.39-1.74C33.07,52,33.07,51.83,33.07,51.71Z"/><path class="cls-10" d="M34.07,67a5.61,5.61,0,0,1,0-.58.66.66,0,0,1,.52-.53.56.56,0,0,1,.56.37,4.15,4.15,0,0,1,.22.68c.12.44.22.89.34,1.33A5.35,5.35,0,0,0,36.53,70c.1.14.18.34.36.32s.18-.25.23-.4a6.3,6.3,0,0,0,.13-1.5,4.64,4.64,0,0,1,0-.65.8.8,0,0,1,1.32-.49,3.43,3.43,0,0,1,.49.52c.25.3.47.61.72.9a2.64,2.64,0,0,0,1,.73.21.21,0,0,0,.33-.16,3.08,3.08,0,0,0,0-1.21,6.63,6.63,0,0,0-.25-.9,3.42,3.42,0,0,1-.13-1.42A.46.46,0,0,1,41,65.3a.48.48,0,0,1,.53.12,2.25,2.25,0,0,1,.73,1c.15.58.33,1.15.45,1.74A3.44,3.44,0,0,1,42.57,70,1.54,1.54,0,0,1,41,71.1a3.08,3.08,0,0,1-1.85-.71c-.13-.1-.25-.22-.38-.33s-.17-.06-.21.06-.09.37-.15.55a4,4,0,0,1-.23.61,1.36,1.36,0,0,1-2.23.4,5.36,5.36,0,0,1-1.42-2.21A7.67,7.67,0,0,1,34.07,67Z"/><path class="cls-10" d="M75.39,72.75A1.61,1.61,0,0,1,77,74.23,2.62,2.62,0,0,1,77,75c-.08.25-.17.49-.24.75s-.27.34-.1.5.31,0,.48,0a2.17,2.17,0,0,1,.36,0A1.3,1.3,0,0,1,78.63,78a4.66,4.66,0,0,1-1.33,1.86A9.15,9.15,0,0,1,75,81.27a1.51,1.51,0,0,1-.41.13.55.55,0,0,1-.55-.26.53.53,0,0,1,0-.61,2.41,2.41,0,0,1,.7-.61,8.58,8.58,0,0,0,1.73-1.39l.39-.43c.07-.09.19-.2.13-.31s-.25,0-.38,0a11.31,11.31,0,0,0-1.7.57,2.69,2.69,0,0,1-.55.17.76.76,0,0,1-.8-.35.72.72,0,0,1,0-.81,4.43,4.43,0,0,1,.74-.88,4.86,4.86,0,0,0,1-1.5c.1-.22.25-.51.1-.67s-.49,0-.73.06a5.41,5.41,0,0,0-1.37.9,3,3,0,0,1-.81.46.68.68,0,0,1-.62-.06.49.49,0,0,1-.24-.55,1.13,1.13,0,0,1,.41-.74,9.6,9.6,0,0,1,2-1.3A4.41,4.41,0,0,1,75.39,72.75Z"/><path class="cls-10" d="M61.7,85.91a5.79,5.79,0,0,1-1.53-.17,1,1,0,0,1-.4-.15.51.51,0,0,1,0-.92,1.3,1.3,0,0,1,.7-.12,12.06,12.06,0,0,0,2.08-.15,5.36,5.36,0,0,0,.89-.26s.1-.06.1-.09a.21.21,0,0,0-.09-.1,6.22,6.22,0,0,0-1.18-.52,8.72,8.72,0,0,1-1.1-.34.71.71,0,0,1-.47-.92.75.75,0,0,1,.47-.51c.29-.11.59-.2.89-.29a3.82,3.82,0,0,0,1.37-.6.71.71,0,0,0,.15-.15c0-.07,0-.15,0-.16a4.91,4.91,0,0,0-1.21-.17A2.77,2.77,0,0,1,61,80a1.19,1.19,0,0,1-.25-.13.39.39,0,0,1,0-.7,2,2,0,0,1,.81-.26,7.35,7.35,0,0,1,2.43.16,1.76,1.76,0,0,1,1,.59,1.24,1.24,0,0,1,.11,1.54,1.84,1.84,0,0,1-.62.68c-.16.1-.3.23-.46.35s-.23.22,0,.38.42.24.62.37a1.28,1.28,0,0,1,0,2.09,2.63,2.63,0,0,1-.95.5A7.18,7.18,0,0,1,61.7,85.91Z"/><path class="cls-10" d="M47.62,82.89a4.34,4.34,0,0,1-1.94-.44,8,8,0,0,1-1.76-1.11,1.39,1.39,0,0,1-.37-.43.47.47,0,0,1,.38-.69,1.26,1.26,0,0,1,.89.23,9.37,9.37,0,0,0,1.35.66,7.12,7.12,0,0,0,1.17.35.24.24,0,0,0,.19,0,.24.24,0,0,0,0-.2c-.35-.45-.72-.89-1.08-1.34-.09-.11-.2-.2-.28-.32a.75.75,0,0,1,.62-1.19,2.26,2.26,0,0,1,.57.09c.39.08.79.19,1.18.28a3.36,3.36,0,0,0,1,0,.12.12,0,0,0,.1-.08.18.18,0,0,0,0-.12,2.15,2.15,0,0,0-.32-.29c-.23-.18-.47-.34-.7-.51a2.92,2.92,0,0,1-.32-.28.72.72,0,0,1-.15-.8.73.73,0,0,1,.79-.36,1.4,1.4,0,0,1,.4.16,6.25,6.25,0,0,1,1.64,1.39,2.34,2.34,0,0,1,.36.61,1.15,1.15,0,0,1-.63,1.55,2.68,2.68,0,0,1-1,.23l-.64,0c-.2,0-.24.08-.15.28a4.61,4.61,0,0,1,.32.8A1.14,1.14,0,0,1,48,82.88Z"/><path class="cls-2" d="M75.56,35.65a1.93,1.93,0,0,1-2-2,1.85,1.85,0,0,1,1.94-1.9,1.83,1.83,0,0,1,2,1.92A1.9,1.9,0,0,1,75.56,35.65Z"/><path class="cls-11" d="M75,39.33a5.54,5.54,0,0,1,2.88.7,2.16,2.16,0,0,1,.94.95,1.73,1.73,0,0,1-.58,2.17,5,5,0,0,1-2,.93A6.28,6.28,0,0,1,73,44a3.46,3.46,0,0,1-1.74-1.08A1.47,1.47,0,0,1,71,41.1a2.35,2.35,0,0,1,.94-1A5.78,5.78,0,0,1,75,39.33Z"/><path class="cls-7" d="M53.57,28.46a10.08,10.08,0,0,1-7.36-2.94,6.51,6.51,0,0,1-1.71-3.19,3.23,3.23,0,0,1,0-.93,2.1,2.1,0,0,1,1.48-1.86,4.75,4.75,0,0,1,2.48-.16l.63.14c.19,0,.3-.06.24-.22A5.85,5.85,0,0,1,49,17a2.81,2.81,0,0,1,2.4-2.8,4.44,4.44,0,0,1,1.63.13,4.72,4.72,0,0,1,1.67.81A10,10,0,0,1,57,17.24a1.76,1.76,0,0,0,.3.31c.11.11.19.09.26-.07a5.51,5.51,0,0,1,.69-1.26,4.87,4.87,0,0,1,2-1.76,4.21,4.21,0,0,1,1.1-.32A2.86,2.86,0,0,1,64,15.24a4,4,0,0,1,.81,1.59,13.59,13.59,0,0,1,.38,1.9,6,6,0,0,1-.12,1.79,8.84,8.84,0,0,1-2.24,4.74,7.39,7.39,0,0,1-1.93,1.49,15.12,15.12,0,0,1-4.68,1.57A16.64,16.64,0,0,1,53.57,28.46Z"/><path class="cls-8" d="M52.85,17.14a.91.91,0,0,1,.57.38,9.55,9.55,0,0,1,1.08,1.6c.51.95,1,1.9,1.45,2.89.1.24.2.48.29.73a1.27,1.27,0,0,1,.06.64.77.77,0,0,1-1.14.67,1.35,1.35,0,0,1-.68-.61c-.25-.47-.52-.92-.76-1.39-.55-1.11-1.15-2.21-1.62-3.36a1.87,1.87,0,0,1-.18-.84C52,17.44,52.27,17.14,52.85,17.14Z"/><path class="cls-8" d="M62.2,17.9c-.12.83-.23,1.66-.36,2.48-.09.52-.21,1-.32,1.55a1.09,1.09,0,0,1-.53.74.79.79,0,0,1-1-.13,1.13,1.13,0,0,1-.34-1c.18-1.37.48-2.73.79-4.08a2.49,2.49,0,0,1,.16-.55.78.78,0,0,1,.77-.55.82.82,0,0,1,.73.59A3,3,0,0,1,62.2,17.9Z"/><path class="cls-8" d="M48.42,21.6a1.4,1.4,0,0,1,.86.32c.57.41,1.13.82,1.68,1.25s.93.75,1.38,1.14A2.72,2.72,0,0,1,53,25a.73.73,0,0,1,0,.93.8.8,0,0,1-.91.26,3.1,3.1,0,0,1-.69-.38A23.51,23.51,0,0,1,48.15,23a1.89,1.89,0,0,1-.34-.46A.62.62,0,0,1,48.42,21.6Z"/><path class="cls-7" d="M80.05,45.21a4.13,4.13,0,0,1,2.87,1.12,6.22,6.22,0,0,1,1.61,2.36,13.89,13.89,0,0,1,.93,3,6.35,6.35,0,0,1,.07,2.42,4.7,4.7,0,0,1-.55,1.4,2.07,2.07,0,0,1-2.56.89A3.62,3.62,0,0,1,80.57,55c-.22-.31-.39-.66-.58-1-.11-.18-.19-.18-.32,0-.3.43-.61.85-.91,1.29a3.68,3.68,0,0,1-1.18,1,2.76,2.76,0,0,1-2,.3,1.6,1.6,0,0,1-1-.66,2.8,2.8,0,0,1-.56-1.53,7.26,7.26,0,0,1,.67-3.5A17.73,17.73,0,0,1,77,47a10.38,10.38,0,0,1,.76-.86A2.83,2.83,0,0,1,80.05,45.21Z"/><path class="cls-8" d="M78.4,48.89a.68.68,0,0,1,.69.75,2.23,2.23,0,0,1-.14.62c-.35,1-.71,1.94-1.08,2.9a1.53,1.53,0,0,1-.47.71.7.7,0,0,1-.79.15.8.8,0,0,1-.53-.71,1.91,1.91,0,0,1,.07-.71,12.87,12.87,0,0,1,1.26-3,2.49,2.49,0,0,1,.41-.5A.8.8,0,0,1,78.4,48.89Z"/><path class="cls-8" d="M83.61,53.09a.82.82,0,0,1-.48.86.79.79,0,0,1-.9-.25,1.7,1.7,0,0,1-.24-.44,8.61,8.61,0,0,1-.4-1.74,1.18,1.18,0,0,1,.22-.88.63.63,0,0,1,1-.06.66.66,0,0,1,.12.17A13.44,13.44,0,0,1,83.61,53.09Z"/></g></svg>