<svg xmlns="http://www.w3.org/2000/svg" viewBox="0 0 102 102"><defs><style>.cls-1{fill:#8d2e1f;}.cls-2{fill:#d67557;}.cls-3{fill:#bb4f3e;}.cls-4{fill:#ffda95;}.cls-5{fill:#421c43;}.cls-6{fill:#ffa8d0;}.cls-7{fill:#fff;}</style></defs><g id="OBJECTS"><path class="cls-1" d="M70.15,32.4a3.12,3.12,0,0,0-2.19.53c-1,.59-2.08,1.14-3.1,1.73a16.45,16.45,0,0,0-3.19,2.44,7.21,7.21,0,0,0-1.51,2.1l-.61,1.19a3,3,0,0,1-.39.59,1.36,1.36,0,0,1-1.52.35,1.11,1.11,0,0,1-.73-1,2.64,2.64,0,0,1,.18-1.24,13.54,13.54,0,0,1,1.32-2.42,19.16,19.16,0,0,1,3.13-3.42,15,15,0,0,1,2.57-1.83c1.7-1.05,3.5-1.93,5.29-2.81.88-.43,1.76-.84,2.64-1.24a1.49,1.49,0,0,0,.86-1,11.3,11.3,0,0,0,.5-4.9,23.15,23.15,0,0,0-.82-3.85,7.15,7.15,0,0,1-.19-.92.79.79,0,0,1,.43-.86.86.86,0,0,1,1,.18,2.16,2.16,0,0,1,.54.76,13.14,13.14,0,0,1,1.44,5.69,1,1,0,0,0,0,.24,5.5,5.5,0,0,0,.11,1.76,8.21,8.21,0,0,0,1.26-1.17,7.63,7.63,0,0,0,1.17-1.48,23.31,23.31,0,0,0,2.45-5.2,31.11,31.11,0,0,0,1.23-5c.1-.59.12-1.2.18-1.8.06-.81.11-1.62.19-2.43a6.94,6.94,0,0,1,.2-1,.73.73,0,0,1,.65-.6.79.79,0,0,1,.77.57,4.63,4.63,0,0,1,.27,1.38c0,.47,0,1,0,1.42a5,5,0,0,0,.09,1.34.6.6,0,0,1,0,.23,27.48,27.48,0,0,1-.55,4.53c-.16.61-.28,1.23-.42,1.85-.06.28,0,.39.34.3a10.8,10.8,0,0,0,3.57-1.79,16.66,16.66,0,0,0,3.16-3.39,8.49,8.49,0,0,1,.88-1,1.57,1.57,0,0,1,.61-.35.5.5,0,0,1,.65.41,2,2,0,0,1-.11,1.08,11.42,11.42,0,0,1-1.6,2.8,12.81,12.81,0,0,1-3.35,3.09,10.28,10.28,0,0,1-3.24,1.4,7.3,7.3,0,0,1-1.55.19.38.38,0,0,0-.41.27A19.84,19.84,0,0,1,81,22.72a24.08,24.08,0,0,1-1.92,2.59,22.81,22.81,0,0,1-4.42,3.9c-.49.35-1,.65-1.53,1-.07,0-.14.09-.09.18s.09,0,.14.05c1.19.24,2.37.49,3.56.7a11.44,11.44,0,0,0,2.1.23,9.21,9.21,0,0,0,3.32-.61,11.63,11.63,0,0,0,3.73-2.3,18.53,18.53,0,0,0,2.73-3.14c.24-.35.51-.67.78-1a1.35,1.35,0,0,1,.49-.39.77.77,0,0,1,1.1.79,3.64,3.64,0,0,1-.29.9A13.79,13.79,0,0,1,89,28.52a12.79,12.79,0,0,1-8.09,5.08,7.84,7.84,0,0,1-2.27.19,24.73,24.73,0,0,1-3-.39c-1.07-.26-2.15-.5-3.22-.75A7.1,7.1,0,0,0,70.15,32.4Z"/><path class="cls-2" d="M20.15,61.36q0-12.39,0-24.78a15.05,15.05,0,0,1,.43-3.9,8.5,8.5,0,0,1,.74-1.91,5.87,5.87,0,0,1,3.47-2.69,9.73,9.73,0,0,1,2.79-.49l1.34,0H48.5c.66,0,1.32,0,2,0,.92.06,1.83.17,2.75.24s1.93.22,2.89.38a24.08,24.08,0,0,1,8.31,2.82,23.55,23.55,0,0,1,3.66,2.6,28.42,28.42,0,0,1,5.35,6.08,32.33,32.33,0,0,1,3.71,8.16,42.75,42.75,0,0,1,1.39,6.71c.12.83.17,1.67.24,2.51a78.6,78.6,0,0,1,.1,8.12c0,1-.19,1.94-.26,2.9a31,31,0,0,1-.5,3.59A35.09,35.09,0,0,1,76.05,79a27.41,27.41,0,0,1-4.34,7.38c-.66.79-1.32,1.58-2,2.3a23.87,23.87,0,0,1-4.6,3.58,25.58,25.58,0,0,1-8.37,3.16,49.29,49.29,0,0,1-5.15.65c-1.79.15-3.57.13-5.36.13H29a16.66,16.66,0,0,1-3.45-.32,7,7,0,0,1-3-1.37,5.16,5.16,0,0,1-1.67-2.44,14.45,14.45,0,0,1-.62-3.56c-.22-3-.11-5.89-.12-8.84Q20.14,70.52,20.15,61.36Zm14.19.49V84c0,1.1,0,1,1,1,3.36,0,6.73.1,10.1-.09.91,0,1.84,0,2.76,0a18.46,18.46,0,0,0,4.67-.65,12.15,12.15,0,0,0,4.81-2.45,17.4,17.4,0,0,0,4.87-7.08,31.54,31.54,0,0,0,1.86-8.36,38.23,38.23,0,0,0,.2-3.86c0-2,0-3.94-.19-5.91a34.53,34.53,0,0,0-.83-5,19.22,19.22,0,0,0-1.49-4.15,18.61,18.61,0,0,0-2.38-3.52,13.45,13.45,0,0,0-2.89-2.54,12.51,12.51,0,0,0-3.7-1.54A31.88,31.88,0,0,0,48.53,39c-1.28-.12-2.56-.26-3.85-.27-3.16,0-6.32,0-9.47,0h-.48c-.27,0-.36.11-.38.4s0,.52,0,.79Z"/><path class="cls-3" d="M25.22,69.18c0,.46,0,.75,0,1a1.47,1.47,0,0,1-.18.68.86.86,0,0,1-.9.5.92.92,0,0,1-.85-.59.53.53,0,0,1-.05-.15,6.69,6.69,0,0,1-.2-2.4c0-.23.05-.46.07-.7a1.58,1.58,0,0,1,.24-.73.83.83,0,0,1,1.35,0,1.67,1.67,0,0,1,.34.78A8.68,8.68,0,0,1,25.22,69.18Z"/><path class="cls-3" d="M50.75,89.58c0-.27,0-.53,0-.79a1.77,1.77,0,0,1,.15-.6.89.89,0,0,1,1.58-.13,2.31,2.31,0,0,1,.25.58,12,12,0,0,1,.4,2.15,1.81,1.81,0,0,1-.43,1.31.71.71,0,0,1-.91.23,1.41,1.41,0,0,1-.85-1,4.13,4.13,0,0,1-.13-.61c0-.39-.06-.78-.09-1.17Z"/><path class="cls-3" d="M38.19,90.7c0,.42,0,.84-.07,1.26A1.45,1.45,0,0,1,37.53,93a.76.76,0,0,1-.75.13,1.18,1.18,0,0,1-.85-1,6.34,6.34,0,0,1,.28-3,1,1,0,0,1,1.94.26,1.94,1.94,0,0,1,0,.24v1Z"/><path class="cls-3" d="M43.5,91a8.3,8.3,0,0,1,.18-1.72,1,1,0,0,1,1.59-.74,1,1,0,0,1,.42.64,5.88,5.88,0,0,1,.06,2.64,1.83,1.83,0,0,1-.54.93.68.68,0,0,1-1,.06,1.73,1.73,0,0,1-.69-1.19C43.51,91.46,43.51,91.25,43.5,91Z"/><path class="cls-3" d="M28.62,69.31c0-.35,0-.69.05-1a1.39,1.39,0,0,1,.21-.66.85.85,0,0,1,1.53,0,1.9,1.9,0,0,1,.27.64,9,9,0,0,1,.19,2.42,1.36,1.36,0,0,1-.25.73A.94.94,0,0,1,29,71.3a2.22,2.22,0,0,1-.28-1c0-.34,0-.68,0-1Z"/><path class="cls-3" d="M31.36,58.71a3.52,3.52,0,0,1-.05.5,1,1,0,0,1-.8.78,1,1,0,0,1-1.06-.5,2.2,2.2,0,0,1-.27-.74A17.11,17.11,0,0,1,29,56.48a1,1,0,0,1,.56-1,.74.74,0,0,1,.68,0,1.31,1.31,0,0,1,.62.69A8.76,8.76,0,0,1,31.36,58.71Z"/><path class="cls-3" d="M28.62,45.76c0-.24,0-.55.05-.86a1.61,1.61,0,0,1,.15-.53.86.86,0,0,1,1.53-.11,1.75,1.75,0,0,1,.23.5,7.22,7.22,0,0,1,.33,2.4,1.76,1.76,0,0,1-.06.39,1,1,0,0,1-1,.8,1.07,1.07,0,0,1-1-.73,6.57,6.57,0,0,1-.21-1C28.63,46.37,28.64,46.1,28.62,45.76Z"/><path class="cls-3" d="M25.37,35.43c0,.34,0,.69,0,1a1.19,1.19,0,0,1-.75,1,.55.55,0,0,1-.38,0,1.1,1.1,0,0,1-.91-1,7.6,7.6,0,0,1,.14-2.89.81.81,0,0,1,.91-.7.79.79,0,0,1,.81.61,5.08,5.08,0,0,1,.16.85c0,.34,0,.68,0,1Z"/><path class="cls-3" d="M25.38,57.93v1a1.55,1.55,0,0,1-.18.76.88.88,0,0,1-.88.53.92.92,0,0,1-.88-.55,1.23,1.23,0,0,1-.12-.37,8.76,8.76,0,0,1,.12-2.89.81.81,0,0,1,1-.7.83.83,0,0,1,.79.65A5.39,5.39,0,0,1,25.38,57.93Z"/><path class="cls-3" d="M31.65,36.3a2.16,2.16,0,0,1-.22.76,1,1,0,0,1-1.43.3,1,1,0,0,1-.43-.63,6.57,6.57,0,0,1-.12-2.79,1.07,1.07,0,0,1,.24-.49.84.84,0,0,1,1.35,0,2.89,2.89,0,0,1,.27.56A15.75,15.75,0,0,1,31.65,36.3Z"/><path class="cls-3" d="M22.82,46.93a9.12,9.12,0,0,1,0-1.17.9.9,0,0,1,1-.81.93.93,0,0,1,.83.63,3,3,0,0,1,.2.83c0,.58,0,1.16,0,1.74a1.18,1.18,0,0,1-.1.45.92.92,0,0,1-.94.69,1,1,0,0,1-.93-.72A4.52,4.52,0,0,1,22.82,46.93Z"/><path class="cls-3" d="M71.82,79.24a6.48,6.48,0,0,1-.08.77,1,1,0,0,1-.85.71.85.85,0,0,1-1-.57,5.35,5.35,0,0,1-.23-2.86,1,1,0,0,1,.34-.6.84.84,0,0,1,1.29.19,2.7,2.7,0,0,1,.23.58A8.18,8.18,0,0,1,71.82,79.24Z"/><path class="cls-3" d="M60.22,89.77a2.34,2.34,0,0,1-.35.94.57.57,0,0,1-.69.23,1.45,1.45,0,0,1-1-.77,6.44,6.44,0,0,1-.48-2.07,1.23,1.23,0,0,1,.29-.88.83.83,0,0,1,1.3-.12,1.43,1.43,0,0,1,.24.31A7,7,0,0,1,60.22,89.77Z"/><path class="cls-3" d="M66.75,78.54a7.82,7.82,0,0,1-.43,2.14,1.21,1.21,0,0,1-.46.63.92.92,0,0,1-1.3-.27,1.26,1.26,0,0,1-.17-.83,8.26,8.26,0,0,1,.51-1.89,2.8,2.8,0,0,1,.39-.67.77.77,0,0,1,.91-.28.76.76,0,0,1,.55.77Z"/><path class="cls-3" d="M30.55,90.65A4.26,4.26,0,0,1,30.44,92a2,2,0,0,1-.39.76.74.74,0,0,1-1,.19,1.28,1.28,0,0,1-.7-1.08,5,5,0,0,1,.44-2.29.85.85,0,0,1,.95-.54.93.93,0,0,1,.8.85A6.77,6.77,0,0,1,30.55,90.65Z"/><path class="cls-3" d="M67.52,47.68a.82.82,0,0,1,1.36-.77,3,3,0,0,1,.72,1c.19.38.34.77.5,1.15a1.62,1.62,0,0,1,.12.69,1,1,0,0,1-1.51.72,1.31,1.31,0,0,1-.45-.54,18.08,18.08,0,0,1-.72-2.15C67.52,47.72,67.52,47.64,67.52,47.68Z"/><path class="cls-3" d="M30.28,81.26c0,.18,0,.39,0,.6a.86.86,0,0,1-.8.9.94.94,0,0,1-1.08-.69,4.87,4.87,0,0,1-.19-1.47,6.83,6.83,0,0,1,.2-1.08.75.75,0,0,1,.79-.62.77.77,0,0,1,.84.56A4.35,4.35,0,0,1,30.28,81.26Z"/><path class="cls-3" d="M75.11,48a1.19,1.19,0,0,1-.19.82.78.78,0,0,1-.84.28,1.24,1.24,0,0,1-.72-.57,6.32,6.32,0,0,1-.76-2.06.91.91,0,0,1,.13-.68.77.77,0,0,1,1.14-.27,1.67,1.67,0,0,1,.48.51,6.43,6.43,0,0,1,.73,1.73A1.36,1.36,0,0,1,75.11,48Z"/><path class="cls-3" d="M65.65,88.55a3,3,0,0,1-.11.93.92.92,0,0,1-.82.63.89.89,0,0,1-.89-.53,3.56,3.56,0,0,1-.1-2.53.86.86,0,0,1,1.33-.47,1.06,1.06,0,0,1,.36.5A3.87,3.87,0,0,1,65.65,88.55Z"/><path class="cls-1" d="M62.66,28.89a7,7,0,0,1-1.26,4.16c-.19.26-.18.28.1.5.56.43,1.14.84,1.69,1.29a16.43,16.43,0,0,1,3,3.12,7.19,7.19,0,0,1,1.07,2.1,2,2,0,0,1,0,1.31,1.37,1.37,0,0,1-1.83.89,3.18,3.18,0,0,1-1.13-.71,16.86,16.86,0,0,1-1.77-2,25.69,25.69,0,0,0-3-3.3A12.54,12.54,0,0,0,57,34.6c-.94-.52-1.9-1-2.88-1.46a2.63,2.63,0,0,0-1.76-.2l-2.85.64a17.75,17.75,0,0,1-3.41.58c-.44,0-.87.14-1.33.12a12.66,12.66,0,0,1-7.46-2.82A14.45,14.45,0,0,1,33.12,26a2.18,2.18,0,0,1-.22-.91.75.75,0,0,1,.43-.7.71.71,0,0,1,.81.11,5.88,5.88,0,0,1,1,1.19A17.6,17.6,0,0,0,37,28a12.08,12.08,0,0,0,4.63,3.19,8.78,8.78,0,0,0,2.14.51,6.59,6.59,0,0,0,1.33.13,26.06,26.06,0,0,0,3.73-.58c.11,0,.29,0,.31-.16s-.13-.14-.22-.2c-.54-.37-1.06-.77-1.58-1.17a13.22,13.22,0,0,1-2.27-2.4,24.08,24.08,0,0,1-3.26-5.65c-.14-.34-.3-.68-.44-1a.44.44,0,0,0-.35-.28,7,7,0,0,0-.78-.13,5.61,5.61,0,0,1-1.46-.32A11.42,11.42,0,0,1,35,17.72a14.08,14.08,0,0,1-3.12-3.84,7.05,7.05,0,0,1-.58-1.46.76.76,0,0,1,0-.16.81.81,0,0,1,.28-.85c.28-.19.57,0,.81.12a3.27,3.27,0,0,1,.83.83c.46.61,1,1.19,1.4,1.81a10.09,10.09,0,0,0,1.68,1.65,10.12,10.12,0,0,0,3.71,2,1.09,1.09,0,0,0,.3.07c.12,0,.21-.06.19-.18s-.07-.26-.1-.39a22.6,22.6,0,0,1-.66-3.47A46.94,46.94,0,0,1,39.57,9a9.32,9.32,0,0,1,.17-1.48A2.93,2.93,0,0,1,40,6.69a.66.66,0,0,1,1.2-.06,1.32,1.32,0,0,1,.24.66c.07.63.15,1.25.19,1.88a31.76,31.76,0,0,0,1.85,9.4A17.07,17.07,0,0,0,46.7,24c.14.15.26.33.39.49a3.9,3.9,0,0,0,.89.78s.11.05.14,0,.05-.09,0-.14-.06-.31-.07-.46a14.88,14.88,0,0,1,1.41-7.28,2.82,2.82,0,0,1,.63-.9.78.78,0,0,1,.94-.14.81.81,0,0,1,.41.87,7.18,7.18,0,0,1-.2.92,19.61,19.61,0,0,0-.74,3.38,12.2,12.2,0,0,0,.28,4.85,5.27,5.27,0,0,0,.2.6,2.46,2.46,0,0,0,1.27,1.52c.79.37,1.52.85,2.28,1.26l3.7,1.94c.14.07.28.15.43.21s.36.12.59-.16a4.22,4.22,0,0,0,.94-2.54,7.54,7.54,0,0,0-.12-2.12,2.32,2.32,0,0,1,0-.79.92.92,0,0,1,1.52-.66,2,2,0,0,1,.66,1A5.22,5.22,0,0,1,62.66,28.89Z"/><path class="cls-3" d="M62.51,57.51A9.18,9.18,0,0,1,56,54.91a15.2,15.2,0,0,1-3.58-5.23,13.62,13.62,0,0,1-.81-2.46,5.05,5.05,0,0,1-.11-1,.9.9,0,0,1,.46-.86,4.33,4.33,0,0,1,.78-.38,6.91,6.91,0,0,1,4-.24,12.61,12.61,0,0,1,2.55.81,19.51,19.51,0,0,1,4.48,2.61,12.92,12.92,0,0,1,3.31,4,8.76,8.76,0,0,1,.53,1.4,2,2,0,0,1-.46,2.05,5.18,5.18,0,0,1-4,1.95Z"/><path class="cls-1" d="M62.56,57.51A9.2,9.2,0,0,1,56,54.84a15.28,15.28,0,0,1-3.52-5.17,14.68,14.68,0,0,1-1-3.15,1.5,1.5,0,0,1,0-.47.73.73,0,0,1,1-.63c.38.1.76.21,1.12.34a23.16,23.16,0,0,1,6.93,3.83,19,19,0,0,1,4.8,5.68c.18.35.4.68.57,1a.38.38,0,0,1-.14.55,1.54,1.54,0,0,1-.49.26,5.63,5.63,0,0,1-2.15.41A3.65,3.65,0,0,0,62.56,57.51Z"/><path class="cls-4" d="M74.26,67.53A21.71,21.71,0,0,1,75.52,60a9.66,9.66,0,0,1,1.09-2.18,2.19,2.19,0,0,1,2.14-1.06,11.11,11.11,0,0,1,1.41.19,20.32,20.32,0,0,1,7,2.73,13.66,13.66,0,0,1,3.52,3.13,5.92,5.92,0,0,1,1.12,2.49,4.41,4.41,0,0,1-.21,2.1A7.34,7.34,0,0,1,90,70.12a13.43,13.43,0,0,1-4.46,3.45,13.81,13.81,0,0,1-4.75,1.33c-.49,0-1,.11-1.48.12a13.06,13.06,0,0,1-2.65-.32,1.81,1.81,0,0,1-1.49-1.36,28.56,28.56,0,0,1-.72-2.9A16.72,16.72,0,0,1,74.26,67.53Z"/><path class="cls-3" d="M81.27,68a1.18,1.18,0,0,1-1.11-1,1.2,1.2,0,0,1,1.08-1.14,1.15,1.15,0,0,1,1.13,1.08A1.11,1.11,0,0,1,81.27,68Z"/><path class="cls-3" d="M78.41,63.47a1.1,1.1,0,1,1-1.13,1.08A1.18,1.18,0,0,1,78.41,63.47Z"/><path class="cls-3" d="M81.94,64.46A1.06,1.06,0,1,1,83,63.39,1,1,0,0,1,81.94,64.46Z"/><path class="cls-5" d="M87.14,71.25a5.73,5.73,0,0,1-2.94-.76,2.81,2.81,0,0,1-1.06-1c-.35-.59.12-.92.55-.89a3.25,3.25,0,0,1,1.12.35,4.88,4.88,0,0,0,2.6.5A2.91,2.91,0,0,0,90,67.62c.13-.31.11-.41-.18-.59a5.56,5.56,0,0,1-1.36-1,3.72,3.72,0,0,1-.67-1.06A2.58,2.58,0,0,1,90,61.4a3.38,3.38,0,0,1,3.63,2.81,2.49,2.49,0,0,1-.88,2.25,1.11,1.11,0,0,1-.39.26c-.57.17-.76.62-1,1.13a7.84,7.84,0,0,1-1.85,2.71,1.55,1.55,0,0,1-.66.4A5,5,0,0,1,87.14,71.25Z"/><path class="cls-5" d="M73.54,58.72a2.16,2.16,0,1,1-2.22-2.09A2.15,2.15,0,0,1,73.54,58.72Z"/><path class="cls-6" d="M70.7,67.57A5.3,5.3,0,0,1,65.37,73a5.4,5.4,0,1,1,5.33-5.38Z"/><path class="cls-4" d="M25.68,84.27a4.54,4.54,0,0,1-.16,1.47,3.53,3.53,0,0,1-1.85,2.34,7.47,7.47,0,0,1-2.78.83,7.74,7.74,0,0,0-1.17.12.6.6,0,0,1-.23,0,18,18,0,0,1-5.08-1A13.43,13.43,0,0,1,11,86.23a8.31,8.31,0,0,1-1.91-2,4.63,4.63,0,0,1-.74-1.81,3.26,3.26,0,0,1,.82-2.77,4.7,4.7,0,0,1,2.19-1.5,5.34,5.34,0,0,0,.52-.18c.24-.09.25-.13.1-.33A7.63,7.63,0,0,1,10.65,75a9,9,0,0,1-.31-1.63,3,3,0,0,1,3-3.32,6.43,6.43,0,0,1,2,.28,9.13,9.13,0,0,1,3.14,1.77c.6.49,1.19,1,1.8,1.52a12,12,0,0,1,1.6,1.74,18.07,18.07,0,0,1,3.34,5.94A9,9,0,0,1,25.68,84.27Z"/><path class="cls-7" d="M23,84.39a1.06,1.06,0,0,1-.05.56.8.8,0,0,1-1.21.47,1.29,1.29,0,0,1-.61-.59c-.18-.35-.36-.7-.53-1.06a22.08,22.08,0,0,0-4.14-6.19,11.78,11.78,0,0,0-2.11-1.88A5.06,5.06,0,0,1,13,74.56a.7.7,0,0,1-.09-.94.81.81,0,0,1,1-.32,7.85,7.85,0,0,1,2,1.16,18,18,0,0,1,3.72,3.72,24.89,24.89,0,0,1,3,5.33A2.63,2.63,0,0,1,23,84.39Z"/><path class="cls-7" d="M13.29,80.33a1.49,1.49,0,0,1,.93.16,4.93,4.93,0,0,1,.74.43,22.32,22.32,0,0,1,3,2.64,1.44,1.44,0,0,1,.4,1.08.88.88,0,0,1-.83.89,1.18,1.18,0,0,1-.89-.22,4.82,4.82,0,0,1-.6-.5c-.86-.85-1.72-1.69-2.66-2.46-.24-.2-.46-.43-.68-.65a.78.78,0,0,1-.23-.86A.8.8,0,0,1,13.29,80.33Z"/></g></svg>