<svg xmlns="http://www.w3.org/2000/svg" viewBox="0 0 102 102"><defs><style>.cls-1{fill:#bdbdbe;}.cls-2{fill:#828283;}.cls-3{fill:#e4e4e5;}.cls-4{fill:#421c43;}.cls-5{fill:#5c5c5c;}.cls-6{fill:#f75e9d;}</style></defs><g id="OBJECTS"><path class="cls-1" d="M59.73,95.32H41a12.3,12.3,0,0,1-3.2-.32,12.11,12.11,0,0,1-1.21-.37,5.73,5.73,0,0,1-3.44-3.48,10.69,10.69,0,0,1-.65-3.31c0-.55,0-1.11,0-1.66V51c0-.63,0-.72-.75-.62a8.07,8.07,0,0,1-4-.54,7.45,7.45,0,0,1-3.29-2.37,7.23,7.23,0,0,1-1.55-3.91,9.34,9.34,0,0,1,.69-4.4,19.26,19.26,0,0,1,3.65-5.77c.75-.84,1.5-1.68,2.23-2.55a10.5,10.5,0,0,0,.8-1.17,1.07,1.07,0,0,0,.05-1.13,5.36,5.36,0,0,0-.63-1,20.64,20.64,0,0,0-1.62-1.62c-1-.85-2-1.67-2.85-2.6a11.82,11.82,0,0,1-1.89-2.61,7.88,7.88,0,0,1-.72-5.59,11.18,11.18,0,0,1,3.49-6,9.37,9.37,0,0,1,5-2.36,10.36,10.36,0,0,1,5.26.58,15.17,15.17,0,0,1,5.26,3.4,21.26,21.26,0,0,1,3.19,3.89c.23.36.25.36.63.18a10.41,10.41,0,0,1,4.65-1.08c.2,0,.41,0,.62-.06a1.31,1.31,0,0,1,.39,0,22.83,22.83,0,0,1,3.57.55A15.26,15.26,0,0,1,58,15.64,19.68,19.68,0,0,1,63,20c.95,1.13,1.84,2.3,2.71,3.49a19.88,19.88,0,0,0,1.71,2,3.86,3.86,0,0,0,2.23,1.09,12.47,12.47,0,0,0,2.12.18c2.08,0,4.16,0,6.23,0a17.5,17.5,0,0,1,3,.3,8,8,0,0,1,3.43,1.51,7.62,7.62,0,0,1,2.75,3.85,12.13,12.13,0,0,1,.67,3.15A13.29,13.29,0,0,1,87.94,38a20.13,20.13,0,0,0-.11,2.2c0,.81,0,1.63,0,2.44A5.57,5.57,0,0,0,90,47.05a9.93,9.93,0,0,1,1.82,1.73,3.25,3.25,0,0,1,.53,1,2,2,0,0,1-.76,2.25,2.59,2.59,0,0,1-2.15.55,4.57,4.57,0,0,1-2-.82,3.05,3.05,0,0,0-.32-.22c-.23-.11-.39-.46-.65-.36s-.25.44-.34.68a9.73,9.73,0,0,1-.9,1.76,4,4,0,0,1-.88,1,2.22,2.22,0,0,1-1.12.54A1.88,1.88,0,0,1,81,53.44a6.32,6.32,0,0,1,.27-2.73A9.85,9.85,0,0,0,81.88,48a15.91,15.91,0,0,0,0-2.29,21.6,21.6,0,0,0-.58-3.57,10.22,10.22,0,0,0-.71-2,4.42,4.42,0,0,0-3-2.48,3.43,3.43,0,0,0-.78-.07h-9.4a.52.52,0,0,0-.46.26c-.23.35-.46.7-.7,1a16,16,0,0,1-5.59,4.89,15.35,15.35,0,0,1-3.83,1.42,8.56,8.56,0,0,1-2,.28,4.52,4.52,0,0,0-.63.08,2.58,2.58,0,0,1-.39,0,13.86,13.86,0,0,1-6-1.51c-.32-.18-.62-.39-.94-.57a.17.17,0,0,0-.28.14,5.06,5.06,0,0,0,0,.55q0,4.58,0,9.16c0,.9,0,.87.88.87H74.94a10.94,10.94,0,0,1,2.35.16,5.74,5.74,0,0,1,3,1.56,4.88,4.88,0,0,1,1.3,2.81A5.62,5.62,0,0,1,81.47,61a4.77,4.77,0,0,1-3.06,3.36,7.82,7.82,0,0,1-2.71.48h-28c-1.14,0-1.08-.09-1.08,1.06V83.17c0,1.06-.05,1,1,1H78c.55,0,1.1,0,1.65,0a6.51,6.51,0,0,1,2.69.55,5,5,0,0,1,3.14,4.45,6.32,6.32,0,0,1-.09,1.89,4.94,4.94,0,0,1-3.28,3.74,7.3,7.3,0,0,1-2.62.5H59.73Z"/><path class="cls-2" d="M78.47,95.32c-.53,0-1,0-1.58,0-.38,0-.47-.1-.49-.47a6.63,6.63,0,0,1,.24-2.34A7.6,7.6,0,0,1,78,90c.36-.43.37-.44,0-.86a8,8,0,0,1-1.41-3.22,5.57,5.57,0,0,1-.08-1.41c0-.27.13-.39.4-.4a19.42,19.42,0,0,1,2.75,0c.42,0,.83.14,1.24.2a5.28,5.28,0,0,1,2.68,1.25,4.88,4.88,0,0,1,1.83,3.7,7,7,0,0,1-.16,2A5.41,5.41,0,0,1,83.59,94a6.07,6.07,0,0,1-3.7,1.35c-.47,0-1,0-1.42,0Z"/><path class="cls-2" d="M74.91,64.85c-.53,0-1,0-1.58,0s-.5-.1-.53-.52a8.22,8.22,0,0,1,.68-3.76c.18-.41.57-.78.51-1.22a4,4,0,0,0-.55-1.12,6.55,6.55,0,0,1-.67-3.51c0-.42.11-.53.51-.53a29,29,0,0,1,3.23,0,5.85,5.85,0,0,1,3.74,1.64A5,5,0,0,1,81.65,59a5.87,5.87,0,0,1-.58,3.06,4.33,4.33,0,0,1-2.23,2.13,6.85,6.85,0,0,1-2.67.61H74.91Z"/><path class="cls-2" d="M32.5,51.07V51c0-.92,0-.82.74-1.05a22.08,22.08,0,0,0,3.08-1.2,19.42,19.42,0,0,0,3.59-2.27,14.52,14.52,0,0,0,2.92-3.29c.15-.22.29-.44.45-.65a1.67,1.67,0,0,1,.31-.34.55.55,0,0,1,.6-.09.58.58,0,0,1,.32.59,2.23,2.23,0,0,1-.22.83,8.92,8.92,0,0,1-1.07,1.84A17.26,17.26,0,0,1,37,50.44a22.52,22.52,0,0,1-3.53,1.35l-.08,0c-.84.24-.88.21-.88-.67Z"/><path class="cls-2" d="M80,34.49a2.25,2.25,0,0,1,.33-1.21,9.42,9.42,0,0,1,3.85-4.15c.53-.29.69-.27,1.11.13a5.77,5.77,0,0,1,.92,1.18c.15.23.09.37-.2.46A6.8,6.8,0,0,0,82.38,34a6.11,6.11,0,0,1-.86,1.22.89.89,0,0,1-.55.28C80.38,35.52,80,35.16,80,34.49Z"/><path class="cls-2" d="M49.29,22.21a8.19,8.19,0,0,1,0,.86.55.55,0,0,1-.47.55.64.64,0,0,1-.71-.38,2.85,2.85,0,0,1-.15-.52,33.07,33.07,0,0,0-1.38-4.26,17,17,0,0,0-1.22-2.55,3.84,3.84,0,0,1-.18-.35c-.2-.44-.19-.49.26-.73a6.58,6.58,0,0,1,.72-.32c.51-.19.63-.15.88.32a20.66,20.66,0,0,1,1.28,2.79,21.66,21.66,0,0,1,.87,3.18A6.1,6.1,0,0,1,49.29,22.21Z"/><path class="cls-2" d="M77,32.88a4.77,4.77,0,0,1,.25-1.48,12.07,12.07,0,0,1,2.22-4.13.84.84,0,0,1,.73-.4,7.13,7.13,0,0,1,2.13.51c.11.05.12.16,0,.26a.65.65,0,0,1-.18.15,7.41,7.41,0,0,0-2.35,2.8,15.38,15.38,0,0,0-.95,2.16,6.08,6.08,0,0,1-.36.78.77.77,0,0,1-.82.48.8.8,0,0,1-.69-.75A2.11,2.11,0,0,1,77,32.88Z"/><path class="cls-2" d="M60.93,34.51s0-.06,0-.08c0-.3.1-.59.4-.71a.87.87,0,0,1,1,.16,2.35,2.35,0,0,1,.26.29,10.09,10.09,0,0,0,4.08,3.11,2.44,2.44,0,0,1,.28.14.2.2,0,0,1,.1.27,2.35,2.35,0,0,1-.21.42c-.24.35-.48.69-.73,1s-.28.28-.54.16a9.19,9.19,0,0,1-4.25-3.59A2.29,2.29,0,0,1,60.93,34.51Z"/><path class="cls-2" d="M72.93,31.19a8.46,8.46,0,0,1,1.18-4,1,1,0,0,1,1-.58c.6,0,1.21,0,1.81,0,.25,0,.32.19.19.37a2.57,2.57,0,0,1-.21.24,8.08,8.08,0,0,0-1.69,3.26c-.13.48-.24,1-.37,1.45a3.71,3.71,0,0,1-.24.66.79.79,0,0,1-.76.48.82.82,0,0,1-.71-.54,2.23,2.23,0,0,1-.14-.62A5.45,5.45,0,0,1,72.93,31.19Z"/><path class="cls-3" d="M31.22,10.6a8.45,8.45,0,0,1,4.85,1.45A16.05,16.05,0,0,1,39.7,15.3c.52.59,1.09,1.14,1.63,1.71A15.67,15.67,0,0,1,44,20.65a20.71,20.71,0,0,1,1.9,5,9.39,9.39,0,0,1,.3,2.18c0,.44.14.87.13,1.33A20.2,20.2,0,0,1,45,36.26a17.34,17.34,0,0,1-2.88,4.86,21.59,21.59,0,0,1-7,5.31,8.25,8.25,0,0,1-3.95.91,3.78,3.78,0,0,1-3.06-1.53A3.66,3.66,0,0,1,27.52,43a8.8,8.8,0,0,1,1.38-3.33A25.3,25.3,0,0,1,32,35.86a41.34,41.34,0,0,0,3.28-3.72,6.37,6.37,0,0,0,.9-1.66,2.72,2.72,0,0,0-.24-2.43,7.91,7.91,0,0,0-1.77-1.88c-.86-.7-1.75-1.36-2.59-2.07a14,14,0,0,1-4.29-5.94,9.18,9.18,0,0,1-.57-2.77,4.49,4.49,0,0,1,2.11-4.23,3.53,3.53,0,0,1,1.87-.56Z"/><path class="cls-3" d="M69.17,90.66a3,3,0,0,1,1.19.15.87.87,0,0,1,.57.85.79.79,0,0,1-.53.79,4.17,4.17,0,0,1-2.15.29,1.17,1.17,0,0,1-.94-.84,1.34,1.34,0,0,1,.74-1,1.67,1.67,0,0,1,.45-.13C68.76,90.69,69,90.67,69.17,90.66Z"/><path class="cls-3" d="M71.86,89.15h-.7a1.12,1.12,0,0,1-.59-.19.91.91,0,0,1-.17-1.42,1,1,0,0,1,.62-.32,4.86,4.86,0,0,1,1.86.11,1.53,1.53,0,0,1,.55.29A.78.78,0,0,1,73.25,89a1.83,1.83,0,0,1-.45.15c-.31,0-.62,0-.93.07Z"/><path class="cls-3" d="M65.82,87.36a7.51,7.51,0,0,1,1,0,.76.76,0,0,1,.69.82.69.69,0,0,1-.39.64,2.39,2.39,0,0,1-1,.3,13.46,13.46,0,0,1-1.42,0,.89.89,0,0,1-.84-.79.81.81,0,0,1,.52-.81,1.61,1.61,0,0,1,.75-.2h.71Z"/><path class="cls-3" d="M38.58,69.41a3.32,3.32,0,0,1,0,1.09,1.06,1.06,0,0,1-.87.8,1.14,1.14,0,0,1-1-.62,1.55,1.55,0,0,1-.08-.23,4.31,4.31,0,0,1,0-2.17,1.11,1.11,0,0,1,.21-.42.85.85,0,0,1,1.48.1,1.66,1.66,0,0,1,.24.75C38.55,68.94,38.56,69.18,38.58,69.41Z"/><path class="cls-3" d="M38.4,75.81a3,3,0,0,1,0,.43.82.82,0,0,1-.6.74,1,1,0,0,1-1.06-.32,1,1,0,0,1-.09-.13,3.19,3.19,0,0,1-.11-2.37.76.76,0,0,1,.85-.55.82.82,0,0,1,.84.68A4.45,4.45,0,0,1,38.4,75.81Z"/><path class="cls-3" d="M42.07,71.69c0,.25,0,.51,0,.77a.94.94,0,0,1-.36.68.85.85,0,0,1-1.37-.3,2.61,2.61,0,0,1-.17-.68,4.82,4.82,0,0,1,.21-1.46.74.74,0,0,1,.14-.28.77.77,0,0,1,1.36,0A1.11,1.11,0,0,1,42,71C42.05,71.21,42.06,71.44,42.07,71.69Z"/><path class="cls-4" d="M56.66,30.7a2.09,2.09,0,0,1,2.11-2.08,2.2,2.2,0,0,1,2.16,2.17,2.11,2.11,0,0,1-2.2,2.12A2,2,0,0,1,56.66,30.7Z"/><path class="cls-5" d="M52.54,18.26a.86.86,0,0,1-.84-1.07,9.23,9.23,0,0,1,.86-2A11.15,11.15,0,0,1,54.13,13a9.16,9.16,0,0,1,4-2.62,2.23,2.23,0,0,1,.85-.1.7.7,0,0,1,.65.49.63.63,0,0,1-.21.71,2.34,2.34,0,0,1-.51.36,13,13,0,0,0-3.82,3.35A13.8,13.8,0,0,0,54,16.86a10.47,10.47,0,0,1-.63,1A.93.93,0,0,1,52.54,18.26Z"/><path class="cls-5" d="M63.29,14.36a.65.65,0,0,1-.28.54,4.45,4.45,0,0,1-.48.26A16.27,16.27,0,0,0,58.21,18c-.32.3-.67.59-1,.87A.89.89,0,0,1,56.1,19a.84.84,0,0,1-.37-1.14,2.66,2.66,0,0,1,.44-.65,12.6,12.6,0,0,1,2.93-2.37A11.67,11.67,0,0,1,60.79,14a3.94,3.94,0,0,1,1.86-.25A.67.67,0,0,1,63.29,14.36Z"/><path class="cls-6" d="M56.06,41.6a6.94,6.94,0,0,1-2.6-.65,3.6,3.6,0,0,1-1.14-1,1.58,1.58,0,0,1-.2-1.77,2.52,2.52,0,0,1,1.06-1.13,6,6,0,0,1,2.35-.83,6.63,6.63,0,0,1,4.13.64,2.61,2.61,0,0,1,1.08,1,1.88,1.88,0,0,1-.44,2.36,4.14,4.14,0,0,1-1.27.78A7.94,7.94,0,0,1,56.06,41.6Z"/><path class="cls-2" d="M33.06,92a7.93,7.93,0,0,1-2.76-.59,5.86,5.86,0,0,1-2.17-1.78,7.49,7.49,0,0,1-1.48-3.1A31.18,31.18,0,0,1,26,82.31,11.18,11.18,0,0,0,25,78.23a6.3,6.3,0,0,0-4-3.32,9.1,9.1,0,0,0-2-.27h-.71a.69.69,0,0,1-.48-.23.56.56,0,0,1,.08-.89,2.57,2.57,0,0,1,.94-.37,7,7,0,0,1,4.65.76,9.12,9.12,0,0,1,3.94,3.86,16.32,16.32,0,0,1,1.6,4.92,27.33,27.33,0,0,0,.72,3.07,6.68,6.68,0,0,0,1.08,1.91,1.67,1.67,0,0,0,1,.61,12.09,12.09,0,0,0,1.69.36,4.58,4.58,0,0,1,1.88.54,1.35,1.35,0,0,1,.7,1.67,1.31,1.31,0,0,1-1.15,1A8.92,8.92,0,0,1,33.06,92Z"/><path class="cls-1" d="M13.15,67.76a8.07,8.07,0,0,1,4.67,1.67,6.34,6.34,0,0,1,2.08,2.43,5.27,5.27,0,0,1,.43,1.6,1.62,1.62,0,0,1-.26,1A3.3,3.3,0,0,1,18.8,75.7a6,6,0,0,1-7.4-1,6.57,6.57,0,0,1-1.8-4.35,2.13,2.13,0,0,1,1.26-2.1,4.08,4.08,0,0,1,2-.46Z"/><path class="cls-3" d="M11.64,70.29a.81.81,0,0,1,.52.15,3.71,3.71,0,0,1,.29.27A8.75,8.75,0,0,0,15,72.47c.31.14.62.29.92.45a2.06,2.06,0,0,1,.4.25c.33.26.42.51.31.81a.84.84,0,0,1-.92.58,5.74,5.74,0,0,1-1.59-.42A6.54,6.54,0,0,1,11.37,72a2.31,2.31,0,0,1-.4-.94A.68.68,0,0,1,11.64,70.29Z"/><path class="cls-3" d="M14.9,69.54a3,3,0,0,1,1.59,1,.79.79,0,0,1-.66,1.24,2.14,2.14,0,0,1-1.85-1,.78.78,0,0,1,0-.9C14.18,69.59,14.45,69.51,14.9,69.54Z"/></g></svg>