<svg xmlns="http://www.w3.org/2000/svg" viewBox="0 0 102 102"><defs><style>.cls-1{fill:#c94a28;}.cls-2{fill:#992316;}.cls-3{fill:#ffda95;}.cls-4{fill:#fff;}.cls-5{fill:#ff7248;}.cls-6{fill:#421c43;}.cls-7{fill:#ffa8d0;}</style></defs><g id="OBJECTS"><path class="cls-1" d="M18,27.46a17.88,17.88,0,0,1,7.92,1.72,19.84,19.84,0,0,1,3.65,2.19,17.69,17.69,0,0,1,3.6,3.73A26.88,26.88,0,0,1,36,40.44a50.15,50.15,0,0,1,2.68,9.14,17.45,17.45,0,0,1,.42,2.4c0,.57.24,1.13.3,1.7.1.81.29,1.6.45,2.4a3.45,3.45,0,0,1,.11.54A16.73,16.73,0,0,0,40.42,59,44.79,44.79,0,0,0,42,65.06a26.63,26.63,0,0,0,3.35,7.19,16.2,16.2,0,0,0,3.58,3.85,9.23,9.23,0,0,0,3.65,1.61,4.12,4.12,0,0,1,.69.18,1.36,1.36,0,0,1,.61,2,9.18,9.18,0,0,1-4,3.39,17.21,17.21,0,0,1-2.83,1,14.75,14.75,0,0,1-4.77.41,19.77,19.77,0,0,1-4.09-.82,23.86,23.86,0,0,1-5.33-2.52,21,21,0,0,1-3.09-2.3,24.17,24.17,0,0,1-3.36-3.86,26.33,26.33,0,0,1-4.06-8.84c-.25-1-.56-1.92-.72-2.91-.13-.83-.3-1.65-.47-2.47-.24-1.13-.33-2.29-.56-3.42s-.34-2.34-.5-3.51c-.13-1-.25-2-.38-3-.06-.47-.13-.93-.19-1.4-.23-1.61-.5-3.22-.87-4.8a31.49,31.49,0,0,0-2.53-7.37A12.67,12.67,0,0,0,12.38,33a13.08,13.08,0,0,0-2.07-1.3,9.76,9.76,0,0,1-.91-.47,1.35,1.35,0,0,1-.62-1.2.74.74,0,0,1,.33-.6A3.18,3.18,0,0,1,9.92,29,13.21,13.21,0,0,1,13.16,28c.73-.12,1.44-.29,2.17-.39C16.27,27.5,17.22,27.52,18,27.46Z"/><path class="cls-2" d="M28.31,49.93a.78.78,0,0,1,.55.2,2.12,2.12,0,0,1,.45.54,6.36,6.36,0,0,1,.72,2,1,1,0,0,1-.77,1.26.83.83,0,0,1-.9-.35A2.81,2.81,0,0,1,28,53a8.8,8.8,0,0,1-.47-1.9,1.4,1.4,0,0,1,0-.54A.74.74,0,0,1,28.31,49.93Z"/><path class="cls-2" d="M22,52.56a1.63,1.63,0,0,1,.08-.62.8.8,0,0,1,1.16-.43,1.16,1.16,0,0,1,.5.48,6.79,6.79,0,0,1,.78,2,1,1,0,0,1-1.18,1.17,1,1,0,0,1-.68-.49A5.78,5.78,0,0,1,22,52.56Z"/><path class="cls-2" d="M29.67,75a.86.86,0,0,1-.69-.27,3.89,3.89,0,0,1-1.12-1.94,1.27,1.27,0,0,1,0-.77.85.85,0,0,1,1.3-.38,1.58,1.58,0,0,1,.23.22,12.14,12.14,0,0,1,1.13,1.69,1.43,1.43,0,0,1,.08.22A.89.89,0,0,1,29.67,75Z"/><path class="cls-2" d="M35.15,50.9A1.07,1.07,0,0,1,34.46,52a1.14,1.14,0,0,1-1.24-.61,4.86,4.86,0,0,1-.28-.81c-.07-.33-.11-.67-.17-1a1.43,1.43,0,0,1,.07-.62.85.85,0,0,1,1.41-.43,1.79,1.79,0,0,1,.31.36A4.74,4.74,0,0,1,35.15,50.9Z"/><path class="cls-2" d="M39.09,80.19a.85.85,0,0,1-1.11.86,3.84,3.84,0,0,1-2.25-1.84.82.82,0,0,1,.77-1.14.58.58,0,0,1,.23,0,6.31,6.31,0,0,1,2.17,1.5A.82.82,0,0,1,39.09,80.19Z"/><path class="cls-2" d="M34.13,59c0-.12,0-.26,0-.38A.73.73,0,0,1,34.7,58a.9.9,0,0,1,1,.2,2.59,2.59,0,0,1,.34.52,6.91,6.91,0,0,1,.5,1.66,1.08,1.08,0,0,1-.7,1.19,1,1,0,0,1-1-.33,1,1,0,0,1-.21-.33A6.22,6.22,0,0,1,34.13,59Z"/><path class="cls-2" d="M31.59,62.92a1,1,0,0,1-.66.95,1,1,0,0,1-1.16-.46,4.45,4.45,0,0,1-.46-2.51.77.77,0,0,1,.59-.66.73.73,0,0,1,.79.2,1.18,1.18,0,0,1,.25.3A6.06,6.06,0,0,1,31.59,62.92Z"/><path class="cls-2" d="M24.18,62.72c0-.13,0-.26.05-.39a.83.83,0,0,1,.68-.67.73.73,0,0,1,.81.35,5.17,5.17,0,0,1,.81,2.27.92.92,0,0,1-.68,1,1,1,0,0,1-1.18-.53A5.55,5.55,0,0,1,24.18,62.72Z"/><path class="cls-2" d="M37.14,67.46a.79.79,0,0,1,.46-.82.81.81,0,0,1,.95.15,3.58,3.58,0,0,1,1.12,2,.86.86,0,0,1-.49.92.85.85,0,0,1-1-.07A3.27,3.27,0,0,1,37.14,67.46Z"/><path class="cls-2" d="M34.83,71.39a.87.87,0,0,1-.42.9.9.9,0,0,1-1,0,1.72,1.72,0,0,1-.43-.46,6.47,6.47,0,0,1-.64-1.51.81.81,0,0,1,.33-1,1,1,0,0,1,1.11.07,3.49,3.49,0,0,1,1,1.51A3.68,3.68,0,0,1,34.83,71.39Z"/><path class="cls-2" d="M41.74,76.24a1,1,0,0,1-1.52.8A3,3,0,0,1,39,75.47a.88.88,0,0,1,1-1.11A2.45,2.45,0,0,1,41.72,76,.86.86,0,0,1,41.74,76.24Z"/><path class="cls-3" d="M18.08,27.45a18.3,18.3,0,0,1,9.81,2.79c.52.32,1,.63,1.52,1a17.94,17.94,0,0,1,4,4.15,27,27,0,0,1,2.57,4.69c.32.75.28.85-.45,1.22a4.53,4.53,0,0,1-2.86.27,7,7,0,0,1-2.46-1c-.17-.11-.35-.23-.53-.33a.09.09,0,0,0-.14.1c.05.44.14.88.18,1.32A4.59,4.59,0,0,1,29,44.7a2.58,2.58,0,0,1-2.8.95,6.33,6.33,0,0,1-3-1.68l-1.07-1a.14.14,0,0,0-.14,0,.13.13,0,0,0-.08.11,3.37,3.37,0,0,0,0,.55,8,8,0,0,1-.71,3.37,4.68,4.68,0,0,1-1.42,1.76c-.16.12-.3.08-.37-.12A2.4,2.4,0,0,1,19.2,48c-.06-.63-.24-1.24-.32-1.86a17.66,17.66,0,0,0-.55-2.62,32.64,32.64,0,0,0-1.83-5.28,13.76,13.76,0,0,0-3.4-4.69,12.87,12.87,0,0,0-2.53-1.73c-.35-.19-.71-.36-1.06-.53a1.44,1.44,0,0,1-.74-1.23.78.78,0,0,1,.3-.62,2.76,2.76,0,0,1,.8-.5,13.75,13.75,0,0,1,3.32-1c.72-.12,1.44-.28,2.17-.38C16.3,27.5,17.24,27.52,18.08,27.45Z"/><path class="cls-4" d="M22.16,38.6a1.08,1.08,0,0,1-.75,1.09,1,1,0,0,1-1.11-.43,3.65,3.65,0,0,1-.35-.78,14,14,0,0,0-2.41-4.23,6.47,6.47,0,0,0-1.26-1.19,1.56,1.56,0,0,1-.56-.75.49.49,0,0,1,.27-.65,1.26,1.26,0,0,1,1-.06,5.5,5.5,0,0,1,1.78,1.15A12.87,12.87,0,0,1,20.57,35a10.82,10.82,0,0,1,1.45,3A5.35,5.35,0,0,1,22.16,38.6Z"/><path class="cls-4" d="M23.35,31.34a2,2,0,0,1,1.12.66,7,7,0,0,1,.49.62,14.17,14.17,0,0,1,1.59,2.88,3.88,3.88,0,0,1,.14.45.8.8,0,0,1-.31.84.81.81,0,0,1-.95.14,1.34,1.34,0,0,1-.61-.59c-.3-.55-.61-1.1-.9-1.66a10.54,10.54,0,0,0-1.13-1.88,1.75,1.75,0,0,1-.27-.48A.73.73,0,0,1,23.35,31.34Z"/><path class="cls-1" d="M74.33,13.47a11.71,11.71,0,0,0-.69-2.65,9.1,9.1,0,0,0-1-1.87,1.43,1.43,0,0,0-2.06-.44,9.47,9.47,0,0,0-1.42,1,22.63,22.63,0,0,0-3,3.1A11.61,11.61,0,0,0,64,16.91a6.28,6.28,0,0,0,.25,4.31,3.62,3.62,0,0,0,1.07,1.43,7.52,7.52,0,0,0,2,1.19A5,5,0,0,0,70,24.1a4.76,4.76,0,0,0,2.87-1.81A8.43,8.43,0,0,0,74.5,18.4,12,12,0,0,0,74.33,13.47Z"/><path class="cls-5" d="M44,58.76q0-12.94,0-25.89a14,14,0,0,1,.64-4.58,5.82,5.82,0,0,1,3.59-3.73,10.32,10.32,0,0,1,3.47-.66c1,0,1.89,0,2.84,0a.67.67,0,0,0,.75-.52,11,11,0,0,1,2.69-4,12.68,12.68,0,0,1,6.75-3.53,13.2,13.2,0,0,1,2.66-.28,14.68,14.68,0,0,1,12.23,6.8c.24.37.46.77.67,1.16a.68.68,0,0,0,.71.39c.31,0,.63,0,.94,0,1.37,0,2.74,0,4.11,0a7.57,7.57,0,0,1,2.62.5A4.88,4.88,0,0,1,92,28.86a5.53,5.53,0,0,1-.14,1.81,4.91,4.91,0,0,1-3.37,3.65,6.58,6.58,0,0,1-1.46.33,23.48,23.48,0,0,1-2.51.15q-12.55,0-25.11,0c-.26,0-.52,0-.78,0s-.4.12-.43.45c0,.18,0,.37,0,.55V51.13c0,1,0,1,1,1H80.78a8.23,8.23,0,0,1,2.27.17,12.11,12.11,0,0,1,1.21.37A4.58,4.58,0,0,1,87,55.79a5.8,5.8,0,0,1,0,3.12,4.57,4.57,0,0,1-2.81,3.2,8.5,8.5,0,0,1-2.61.55c-2.26.15-4.52.08-6.78.08-5.21,0-10.42,0-15.63,0-1.11,0-1.08,0-1.08,1.08,0,6.82,0,13.63,0,20.45a16.4,16.4,0,0,1-.42,4.3,6.51,6.51,0,0,1-3.58,4.47,7.07,7.07,0,0,1-6.6-.23,5.93,5.93,0,0,1-2.69-3,11,11,0,0,1-.79-3.36c-.16-1.94-.09-3.89-.1-5.83Q44,69.7,44,58.76Z"/><path class="cls-1" d="M49.06,69.77a2.41,2.41,0,0,1-.58,1.61.54.54,0,0,1-.48.22,1.34,1.34,0,0,1-1.17-1,5,5,0,0,1-.11-2.18,5.14,5.14,0,0,0,.06-.55,3.13,3.13,0,0,1,.12-.53.88.88,0,0,1,.84-.61.89.89,0,0,1,.83.52,1.18,1.18,0,0,1,.14.37C48.83,68.33,48.94,69.05,49.06,69.77Z"/><path class="cls-1" d="M47,56.78a3.11,3.11,0,0,1,.16-1.26,1.07,1.07,0,0,1,2,0,6.25,6.25,0,0,1,.21,2.65,1.09,1.09,0,0,1-1,1,1.18,1.18,0,0,1-1.21-.83,1.62,1.62,0,0,1-.09-.38A5.05,5.05,0,0,1,47,56.78Z"/><path class="cls-1" d="M51.52,80.12a7.83,7.83,0,0,1,.18-.84.92.92,0,0,1,1.54-.35,1.77,1.77,0,0,1,.35.61A7.41,7.41,0,0,1,54,81.77a1.29,1.29,0,0,1-.34,1c-.64.7-1.08.62-1.7-.21a1.79,1.79,0,0,1-.23-.66C51.62,81.33,51.69,80.71,51.52,80.12Z"/><path class="cls-1" d="M66.69,57a4.34,4.34,0,0,1,.11-1.48,1.29,1.29,0,0,1,.42-.65.75.75,0,0,1,1,0,1.1,1.1,0,0,1,.41.65A8.53,8.53,0,0,1,68.9,58a2.81,2.81,0,0,1-.18.76.87.87,0,0,1-.84.61.93.93,0,0,1-1-.53A1.62,1.62,0,0,1,66.7,58C66.69,57.7,66.69,57.36,66.69,57Z"/><path class="cls-1" d="M53.94,44.05a3.85,3.85,0,0,1,0,.48,2.44,2.44,0,0,1-.07.46,1.16,1.16,0,0,1-1.08.87A1.18,1.18,0,0,1,51.73,45a1.84,1.84,0,0,1-.06-.47c0-.6,0-1.2,0-1.8a1.65,1.65,0,0,1,.15-.69.89.89,0,0,1,.84-.59.87.87,0,0,1,.88.52,4.61,4.61,0,0,1,.37,1.59,3.25,3.25,0,0,1,0,.54Z"/><path class="cls-1" d="M46.92,43c0-.28,0-.6,0-.91a.9.9,0,0,1,.77-.78.79.79,0,0,1,.86.42,2.23,2.23,0,0,1,.27.56,7.18,7.18,0,0,1,.35,2.16,1.64,1.64,0,0,1-.14.69.92.92,0,0,1-.84.6,1,1,0,0,1-1-.62A4.65,4.65,0,0,1,47,43.89,8.22,8.22,0,0,1,46.92,43Z"/><path class="cls-1" d="M48.59,80.15a4.61,4.61,0,0,1-.15,1.33.92.92,0,0,1-1,.75.88.88,0,0,1-1-.76,5.09,5.09,0,0,1,.1-2.79,1,1,0,0,1,1-.65.91.91,0,0,1,.92.72,1.62,1.62,0,0,1,.09.38C48.56,79.47,48.57,79.81,48.59,80.15Z"/><path class="cls-1" d="M51.66,33.14c0-.18,0-.41,0-.65a2,2,0,0,1,.21-.75.93.93,0,0,1,1.66-.1,3.48,3.48,0,0,1,.33,2.87,1.08,1.08,0,0,1-.94.73,1.17,1.17,0,0,1-1.08-.66A3.38,3.38,0,0,1,51.66,33.14Z"/><path class="cls-1" d="M62.11,56.8a8.42,8.42,0,0,1,0,.87A1.18,1.18,0,0,1,61,58.81a1.2,1.2,0,0,1-1.09-1.16,6.18,6.18,0,0,1,.13-2,1.87,1.87,0,0,1,.07-.22,1,1,0,0,1,1-.77,1.07,1.07,0,0,1,.91.85A3.53,3.53,0,0,1,62.11,56.8Z"/><path class="cls-1" d="M55.2,56.78v.71a1.48,1.48,0,0,1-.19.68,1,1,0,0,1-1.54.2,1.36,1.36,0,0,1-.36-.68,5.7,5.7,0,0,1,0-2.1,1.33,1.33,0,0,1,.17-.43.85.85,0,0,1,.91-.48.94.94,0,0,1,.83.63A4.08,4.08,0,0,1,55.2,56.78Z"/><path class="cls-1" d="M48.85,33.09a3.4,3.4,0,0,1-.15,1.31,1,1,0,0,1-1,.77.88.88,0,0,1-.8-.55,1.62,1.62,0,0,1-.15-1.06,4.14,4.14,0,0,0,.06-.7,4.38,4.38,0,0,1,.2-1.08.88.88,0,0,1,1.75.07A3.45,3.45,0,0,1,48.85,33.09Z"/><path class="cls-1" d="M52,69.24a4.61,4.61,0,0,1,.12-1.17A.91.91,0,0,1,53.88,68a3.49,3.49,0,0,1,.19.85,14.77,14.77,0,0,1,0,1.49,1,1,0,0,1-.79,1,1,1,0,0,1-1.13-.65,1.34,1.34,0,0,1-.1-.38C52,69.92,52,69.58,52,69.24Z"/><path class="cls-1" d="M72.18,57.19c0-.29,0-.58,0-.86a1.36,1.36,0,0,1,.33-.79.85.85,0,0,1,1.4.13,2.48,2.48,0,0,1,.24.66,5.13,5.13,0,0,1,0,1.79,1.56,1.56,0,0,1-.59,1,.59.59,0,0,1-.9,0,1.66,1.66,0,0,1-.56-1.25c0-.21,0-.42,0-.63Z"/><path class="cls-1" d="M51,15.4a11.65,11.65,0,0,1,.18-2.73,9,9,0,0,1,.62-2,1.42,1.42,0,0,1,1.94-.82,10.13,10.13,0,0,1,1.58.7A21.59,21.59,0,0,1,58.9,13a11.66,11.66,0,0,1,3,3.81,6.28,6.28,0,0,1,.57,4.28,3.67,3.67,0,0,1-.78,1.61,7.29,7.29,0,0,1-1.77,1.55A4.9,4.9,0,0,1,57.3,25a4.75,4.75,0,0,1-3.16-1.23,8.53,8.53,0,0,1-2.33-3.5A12,12,0,0,1,51,15.4Z"/><path class="cls-2" d="M51,15.79V14.61a.5.5,0,0,1,.38-.53,2.57,2.57,0,0,1,2.13.21,3.77,3.77,0,0,1,1.39,1.57c.14.26.27.52.42.77a.18.18,0,0,0,.27.06l.44-.33a2,2,0,0,1,2.94.69,6.53,6.53,0,0,1,.69,1.58A15,15,0,0,1,60.12,21c.09.82.08,1.63.12,2.44a1,1,0,0,1-.66,1,5.1,5.1,0,0,1-2.27.58,4.36,4.36,0,0,1-2.05-.49,6.71,6.71,0,0,1-2.79-2.82A11.6,11.6,0,0,1,51,15.79Z"/><path class="cls-3" d="M77.2,34.83H69.07c-.23,0-.47,0-.7,0,0,0,0,0-.05-.05s0-.07,0-.07a2.72,2.72,0,0,1,.44-.18l2.76-.63a13,13,0,0,0,4.75-2.4A10.64,10.64,0,0,0,79.24,28a10.43,10.43,0,0,0,1-3c.06-.29.11-.57.17-.86a.36.36,0,0,1,.34-.28l.47,0h4.89a7.76,7.76,0,0,1,2.7.52A5,5,0,0,1,92,29a7.21,7.21,0,0,1-.19,2,4.75,4.75,0,0,1-2.93,3.28,9.24,9.24,0,0,1-2.06.5,16.36,16.36,0,0,1-2.52.12c-1.18,0-2.37,0-3.55,0Z"/><path class="cls-1" d="M74.78,41.62a.89.89,0,0,1-.82-.48.69.69,0,0,1,.06-.82,12.66,12.66,0,0,1,.89-1c1.82-1.85,3.66-3.69,5.49-5.53a11.19,11.19,0,0,1,1.31-1.16,1.64,1.64,0,0,1,.51-.26A.62.62,0,0,1,83,33a.89.89,0,0,1-.24.6c-.45.54-.88,1.1-1.35,1.62-1.85,2-3.79,4-5.74,5.89a3.07,3.07,0,0,1-.38.34A1,1,0,0,1,74.78,41.62Z"/><path class="cls-1" d="M70.72,38.29a.8.8,0,0,1,.36-.72l1-.74c2.32-1.68,4.6-3.42,7-5,.41-.27.83-.52,1.24-.78a1.25,1.25,0,0,1,.61-.22.6.6,0,0,1,.56.27.54.54,0,0,1,0,.62,3.15,3.15,0,0,1-.49.54c-1.43,1.2-2.93,2.33-4.44,3.42l-4.08,3a3.94,3.94,0,0,1-.61.39A.8.8,0,0,1,70.72,38.29Z"/><path class="cls-6" d="M90.37,23.42a2.83,2.83,0,0,1,2.48,1.25,2.19,2.19,0,0,1-.23,2.76,1.79,1.79,0,0,0-.53,1.17,3.85,3.85,0,0,1-2.63,3.25,6.18,6.18,0,0,1-2,.44,6.36,6.36,0,0,1-2.62-.46,1.24,1.24,0,0,1-.39-.25.56.56,0,0,1-.19-.57.59.59,0,0,1,.5-.45,2.05,2.05,0,0,1,.78,0,5.46,5.46,0,0,0,2.94-.26A2.56,2.56,0,0,0,90.06,29a2.35,2.35,0,0,0,.14-.45c0-.26,0-.37-.27-.5L89.79,28a2.54,2.54,0,0,1-1.68-2.36,1.8,1.8,0,0,1,1.4-2.07A2.75,2.75,0,0,1,90.37,23.42Z"/><path class="cls-6" d="M78.68,52h2a11.4,11.4,0,0,1,2.73.33,5,5,0,0,1,3.16,2.19,4.35,4.35,0,0,1,.72,2.38A6.8,6.8,0,0,1,87,59.32a4.66,4.66,0,0,1-2.77,2.84,8.41,8.41,0,0,1-2.22.5c-2,.23-3.89.06-5.83.12h-.24c-.51,0-.62-.16-.53-.63a9.45,9.45,0,0,1,1.71-4c.7-1,.68-.66,0-1.56A9,9,0,0,1,75.57,53a2.08,2.08,0,0,1,0-.23c-.06-.59,0-.72.61-.73h2.53Z"/><path class="cls-6" d="M70.84,23.24A2,2,0,0,1,73,25.31a2.16,2.16,0,1,1-2.12-2.07Z"/><path class="cls-7" d="M69.29,30.52a6,6,0,0,1,3.14.76,2.42,2.42,0,0,1,1.08,1.11,1.93,1.93,0,0,1-.65,2.32,5.49,5.49,0,0,1-2.28,1A6.87,6.87,0,0,1,67,35.62a3.88,3.88,0,0,1-1.91-1.19,1.62,1.62,0,0,1-.21-2,2.76,2.76,0,0,1,1.06-1A6.42,6.42,0,0,1,69.29,30.52Z"/></g></svg>