<svg xmlns="http://www.w3.org/2000/svg" viewBox="0 0 102 102"><defs><style>.cls-1{fill:#ffda95;}.cls-2{fill:#ffac1b;}.cls-3{fill:#bdbdbe;}.cls-4{fill:#e4e4e5;}.cls-5{fill:#421c43;}.cls-6{fill:#828283;}.cls-7{fill:#5c5c5c;}.cls-8{fill:#f75e9d;}.cls-9{fill:#ffa8d0;}</style></defs><g id="OBJECTS"><path class="cls-1" d="M94.2,54.49a11.79,11.79,0,0,1-.47,3.23,23.43,23.43,0,0,1-1.14,3.13,6,6,0,0,1-1.54,2.21l-.16.16a.83.83,0,0,1-1.33-.5c-.06-.63-.18-1.26-.29-1.88a9,9,0,0,0-1-2.86,4.08,4.08,0,0,0-1.58-1.56,10,10,0,0,0-2.34-.92c-.43-.12-.86-.23-1.28-.36a5.77,5.77,0,0,1-2.76-1.7,5.68,5.68,0,0,1-1.48-4.83A9.31,9.31,0,0,1,79.12,47a5.34,5.34,0,0,1,1.5-2.22,5.74,5.74,0,0,1,4.06-1.54,8.39,8.39,0,0,1,4.93,1.58,9.67,9.67,0,0,1,2.69,3,12.68,12.68,0,0,1,1.78,5.12A14.18,14.18,0,0,1,94.2,54.49Z"/><path class="cls-2" d="M91.51,59c0,.11-.06.29-.11.46a.71.71,0,0,1-.64.55.75.75,0,0,1-.69-.36,2.94,2.94,0,0,1-.36-.92A8.89,8.89,0,0,0,89.17,57a5.93,5.93,0,0,0-3-2.92c-.49-.23-1-.43-1.49-.66a5.56,5.56,0,0,1-3-3,1.36,1.36,0,0,1-.13-.81.46.46,0,0,1,.74-.31,2.58,2.58,0,0,1,.36.38c.17.22.34.44.49.67A3.83,3.83,0,0,0,85,51.81c.57.25,1.14.48,1.72.69a7.22,7.22,0,0,1,2.69,1.69,7,7,0,0,1,2,4c0,.22.07.45.1.67A.71.71,0,0,1,91.51,59Z"/><path class="cls-2" d="M91.88,54.74a.81.81,0,0,1-.73-.39A1.29,1.29,0,0,1,91,54a6.53,6.53,0,0,0-1.14-1.94,7.26,7.26,0,0,0-1.78-1.59l-1.36-.92a3.11,3.11,0,0,1-1-1.11,2.77,2.77,0,0,1-.22-.65.57.57,0,0,1,.27-.58.5.5,0,0,1,.62,0,1.87,1.87,0,0,1,.33.3,4.53,4.53,0,0,0,1.17.92,15.27,15.27,0,0,1,2.46,1.68,7.67,7.67,0,0,1,2.2,3.19,2.25,2.25,0,0,1,.13.51A.77.77,0,0,1,91.88,54.74Z"/><path class="cls-3" d="M71.64,57.26h8a13.26,13.26,0,0,1,3.43.47,5.26,5.26,0,0,1,3.71,3.41,10.59,10.59,0,0,1,.6,3.06c0,.12,0,.25,0,.38,0,4.75,0,9.51,0,14.26A12.43,12.43,0,0,1,87,81.48a6.23,6.23,0,0,1-2,3.26,16.4,16.4,0,0,1-3,2.14,57.83,57.83,0,0,1-7,3.36,40.38,40.38,0,0,1-8.47,2.43c-1,.17-2,.29-3,.39a51.07,51.07,0,0,1-5.24.26c-1.43,0-2.86-.13-4.28-.27a34.93,34.93,0,0,1-6.24-1.21A29.41,29.41,0,0,1,37.56,86.6,28.14,28.14,0,0,1,30,77.26a34.39,34.39,0,0,1-2.92-7.88,45.18,45.18,0,0,1-.88-5.18,53.72,53.72,0,0,1-.23-7.61c0-.91.17-1.82.23-2.73a32.9,32.9,0,0,1,.62-4.06A36.34,36.34,0,0,1,28.86,43a29,29,0,0,1,3.83-6.67,27.32,27.32,0,0,1,3.47-3.74,28.68,28.68,0,0,1,6.23-4.21,33,33,0,0,1,8.27-2.82c1.18-.24,2.37-.42,3.57-.58a23.59,23.59,0,0,1,2.65-.18c.8,0,1.58-.16,2.37-.12,1.45.08,2.9.09,4.35.24A35.84,35.84,0,0,1,68,25.6a30.22,30.22,0,0,1,5,1.66,26.15,26.15,0,0,1,4.69,2.58,24.52,24.52,0,0,1,2.36,2,7.62,7.62,0,0,0,1.51,1.09,40.4,40.4,0,0,0,3.74,1.83,14.28,14.28,0,0,1,2.91,1.49,3.74,3.74,0,0,1,1.63,3.94,8.31,8.31,0,0,1-2.09,4.22,13.56,13.56,0,0,1-1.9,1.81,11.06,11.06,0,0,1-5.06,2.17,13.22,13.22,0,0,1-2.35.27,10.09,10.09,0,0,1-6.48-2.39,27.1,27.1,0,0,1-2.31-2.36c-1.13-1.28-2.07-2.71-3.09-4.08a16.84,16.84,0,0,0-2.79-2.93,7.66,7.66,0,0,0-3.44-1.5,12.64,12.64,0,0,0-3.53-.07,22.62,22.62,0,0,0-2.71.37,16.8,16.8,0,0,0-7.43,3.57,17.62,17.62,0,0,0-4,4.93,25.11,25.11,0,0,0-2.72,7.78A34.94,34.94,0,0,0,39.39,56c0,.78-.1,1.57-.11,2.36,0,1.65.11,3.29.26,4.94a31.58,31.58,0,0,0,.91,5.09,21.19,21.19,0,0,0,3.44,7.37,16.35,16.35,0,0,0,7.25,5.6,20.13,20.13,0,0,0,5.46,1.24c.86.09,1.72.1,2.58.11a27.27,27.27,0,0,0,3.61-.26,25.86,25.86,0,0,0,3.49-.66A34.2,34.2,0,0,0,71.45,80c1.09-.47,2.14-1,3.21-1.56a.91.91,0,0,0,.58-.93c0-3.08,0-6.15,0-9.23,0-.13,0-.26,0-.38a.32.32,0,0,0-.34-.33l-.66,0c-3,0-6,0-9,0a14.15,14.15,0,0,1-3.66-.43,5.93,5.93,0,0,1-2.28-1,3.82,3.82,0,0,1-1.42-2.74,8.55,8.55,0,0,1,0-1.6,4.71,4.71,0,0,1,1.68-3.12A5.68,5.68,0,0,1,63,57.27c.35,0,.69,0,1,0h7.62Z"/><path class="cls-4" d="M37.09,38.05a.73.73,0,0,1-.78-.62,1.34,1.34,0,0,1,.24-1.08,7.58,7.58,0,0,1,1-1.15c.44-.4.88-.8,1.34-1.18a2.3,2.3,0,0,1,.65-.36.85.85,0,0,1,1.08.42.76.76,0,0,1,0,.73,3.69,3.69,0,0,1-.6.86c-.53.57-1.07,1.12-1.62,1.67a2.28,2.28,0,0,1-1.07.65Z"/><path class="cls-4" d="M40,41.14c-.77,0-1.15-.69-.81-1.47a2.36,2.36,0,0,1,.5-.74,19.08,19.08,0,0,1,1.83-1.77,1.88,1.88,0,0,1,.64-.37.85.85,0,0,1,1.09,1.05,1.57,1.57,0,0,1-.23.55,5.67,5.67,0,0,1-.57.79c-.46.5-.93,1-1.41,1.46A1.3,1.3,0,0,1,40,41.14Z"/><path class="cls-4" d="M33.75,61.92a9.15,9.15,0,0,1,.15-1.81,3.67,3.67,0,0,1,.27-.87.86.86,0,0,1,1.08-.42.72.72,0,0,1,.47.63A7.91,7.91,0,0,1,35.77,62a7.73,7.73,0,0,0-.05.84,1.25,1.25,0,0,1-.79,1.1.65.65,0,0,1-.81-.16,1.26,1.26,0,0,1-.37-.88Z"/><path class="cls-4" d="M37.63,47.44a9.31,9.31,0,0,1-.58,2.66,1.1,1.1,0,0,1-.52.62A.89.89,0,0,1,35.12,50a2.19,2.19,0,0,1,.05-.76,15.51,15.51,0,0,1,.7-2.32,1.55,1.55,0,0,1,.4-.63.74.74,0,0,1,1.25.33A2.35,2.35,0,0,1,37.63,47.44Z"/><path class="cls-4" d="M38.1,74.52a.88.88,0,0,1-.67,1,1,1,0,0,1-1.09-.42.54.54,0,0,1-.07-.13,10,10,0,0,1-.88-3,1.36,1.36,0,0,1,0-.6A.77.77,0,0,1,36.77,71a1.53,1.53,0,0,1,.32.5c.3.74.58,1.5.86,2.26A1.93,1.93,0,0,1,38.1,74.52Z"/><path class="cls-4" d="M31.26,58.52s0,.19-.05.36c-.14.7-.27,1.39-.42,2.09a2.66,2.66,0,0,1-.32.85.81.81,0,0,1-1.44-.1A1.26,1.26,0,0,1,28.9,61a12.55,12.55,0,0,1,.68-3,1.29,1.29,0,0,1,.3-.52.76.76,0,0,1,1.28.25A2,2,0,0,1,31.26,58.52Z"/><path class="cls-4" d="M33.46,75.06c-.05.23-.1.51-.18.77a.48.48,0,0,1-.76.31,1.87,1.87,0,0,1-.91-1A24,24,0,0,1,31,72.6a3.92,3.92,0,0,1,0-.91.64.64,0,0,1,.35-.54.63.63,0,0,1,.82.06,1.27,1.27,0,0,1,.38.55,18.38,18.38,0,0,1,.91,3C33.42,74.87,33.44,74.94,33.46,75.06Z"/><path class="cls-4" d="M61.42,89.78c.42,0,.79,0,1.15,0a1.07,1.07,0,0,1,.93.54.68.68,0,0,1,0,.78,1.07,1.07,0,0,1-.93.53,12.85,12.85,0,0,1-3.16-.15.84.84,0,0,1-.72-.57.69.69,0,0,1,.25-.81,1.39,1.39,0,0,1,.55-.19A7.58,7.58,0,0,1,61.42,89.78Z"/><path class="cls-4" d="M30.93,48.48a2.11,2.11,0,0,1,.09-.64,12.2,12.2,0,0,1,.89-2.26,2.4,2.4,0,0,1,.23-.38A.68.68,0,0,1,33,45a.7.7,0,0,1,.41.8,12.89,12.89,0,0,1-.9,3,1.73,1.73,0,0,1-.44.6.54.54,0,0,1-.75,0A.93.93,0,0,1,30.93,48.48Z"/><path class="cls-4" d="M45.68,86.73a1,1,0,0,1,.55.15l1.59.82a1.43,1.43,0,0,1,.56.48.86.86,0,0,1,.06,1,1,1,0,0,1-.95.47l-.07,0a5.23,5.23,0,0,1-2.29-1.47L45,88A.8.8,0,0,1,45.68,86.73Z"/><path class="cls-4" d="M60.61,87.53c-.17,0-.44,0-.71,0a.69.69,0,0,1-.61-.58.67.67,0,0,1,.31-.71,2.2,2.2,0,0,1,.46-.23,8.55,8.55,0,0,1,2.84-.38.78.78,0,0,1,.65.3.77.77,0,0,1-.24,1.16,2.24,2.24,0,0,1-.7.24A7.89,7.89,0,0,1,60.61,87.53Z"/><path class="cls-4" d="M72.18,88.76a.81.81,0,0,1-.83-.54.79.79,0,0,1,.26-.88,3.09,3.09,0,0,1,.37-.26,7.12,7.12,0,0,1,2.1-.91,1.06,1.06,0,0,1,.66,0,.67.67,0,0,1,.51.58c0,.34,0,.68-.29.89a9.79,9.79,0,0,1-2.58,1.1A.75.75,0,0,1,72.18,88.76Z"/><path class="cls-4" d="M71.9,84.48h-.44a.68.68,0,0,1-.6-.5.69.69,0,0,1,.16-.77,1.34,1.34,0,0,1,.34-.29,9.89,9.89,0,0,1,1.82-.81,1.73,1.73,0,0,1,1.4.29.44.44,0,0,1,.13.66,2.5,2.5,0,0,1-.84.84A3.74,3.74,0,0,1,71.9,84.48Z"/><path class="cls-4" d="M48.35,83.5l.6.15a6.77,6.77,0,0,1,1.8.86,1,1,0,0,1,.33,1.14.75.75,0,0,1-.61.5,1,1,0,0,1-.58,0,8.56,8.56,0,0,1-2-1,1.45,1.45,0,0,1-.23-.19.82.82,0,0,1,.67-1.42Z"/><path class="cls-4" d="M71.14,62.06c-.46-.07-.93-.12-1.39-.2a1.09,1.09,0,0,1-.33-.15.76.76,0,0,1,0-1.31,1.47,1.47,0,0,1,.55-.2,13.47,13.47,0,0,1,2.29,0,1,1,0,0,1,.88.7.49.49,0,0,1,0,.44,1,1,0,0,1-.66.57C72,62,71.58,62,71.14,62.06Z"/><path class="cls-4" d="M81.6,65.3c0-.25,0-.5,0-.76,0-.49.24-.8.57-.87a.89.89,0,0,1,1,.6,5.58,5.58,0,0,1,.34,1.56,6.42,6.42,0,0,1,0,.76,1.26,1.26,0,0,1-.27.69.77.77,0,0,1-1.41-.18,3.24,3.24,0,0,1-.24-1.19c0-.2,0-.4,0-.61Z"/><path class="cls-4" d="M79.84,76.74c0,.3,0,.61,0,.91a1,1,0,0,1-.82.85.94.94,0,0,1-.9-.65,1.63,1.63,0,0,1-.08-.37,9.27,9.27,0,0,1,0-1.9,2.74,2.74,0,0,1,.15-.51.8.8,0,0,1,.81-.55c.31,0,.54.23.65.63A5.31,5.31,0,0,1,79.84,76.74Z"/><path class="cls-4" d="M77.73,65.86c0-.23,0-.46,0-.69a.8.8,0,0,1,.22-.55.75.75,0,0,1,1.26.12,1,1,0,0,1,.13.27,7.05,7.05,0,0,1,.36,2.09.75.75,0,0,1,0,.3c-.11.34-.23.68-.64.75a1,1,0,0,1-1-.52,2.37,2.37,0,0,1-.27-.94c0-.28,0-.56-.05-.83Z"/><path class="cls-4" d="M71.33,65.55a5.24,5.24,0,0,1-1.53-.15.76.76,0,0,1-.62-.74.74.74,0,0,1,.48-.69,1.47,1.47,0,0,1,.65-.15h1.91a1.19,1.19,0,0,1,.56.14.8.8,0,0,1,.16,1.28,1.07,1.07,0,0,1-.73.32C71.92,65.56,71.62,65.55,71.33,65.55Z"/><path class="cls-4" d="M84,76.71c0,.33,0,.66-.08,1a.88.88,0,0,1-.51.7.8.8,0,0,1-1.08-.32,1,1,0,0,1-.14-.35,5.27,5.27,0,0,1,.22-2.46.77.77,0,0,1,1.44.1A4.74,4.74,0,0,1,84,76.71Z"/><path class="cls-4" d="M62.37,61.44A3.28,3.28,0,0,1,61,61.29a.66.66,0,0,1-.42-.79.58.58,0,0,1,.27-.43,2.18,2.18,0,0,1,.47-.21,4.93,4.93,0,0,1,1.91-.13,1.66,1.66,0,0,1,.57.15.76.76,0,0,1,.16,1.3,1.09,1.09,0,0,1-.69.26C63,61.45,62.66,61.44,62.37,61.44Z"/><path class="cls-4" d="M62.07,65.39c-.37,0-.78-.1-1.19-.18a1,1,0,0,1-.62-.38.65.65,0,0,1,.11-.93.59.59,0,0,1,.33-.17A5.85,5.85,0,0,1,63,63.65c.07,0,.15,0,.21.05a.87.87,0,0,1,.57.73.86.86,0,0,1-.6.78A3.67,3.67,0,0,1,62.07,65.39Z"/><path class="cls-5" d="M84.86,44.81a5.73,5.73,0,0,1-3.59-.88,4.81,4.81,0,0,1-1.87-2,1.52,1.52,0,0,1-.19-.88.53.53,0,0,1,.81-.44,1.68,1.68,0,0,1,.42.42,5.21,5.21,0,0,0,2.21,1.6,5.31,5.31,0,0,0,4.1-.24,2.5,2.5,0,0,0,1.2-1.2.16.16,0,0,0-.07-.25l-.6-.3A3.59,3.59,0,0,1,85.64,39a2.22,2.22,0,0,1,.26-2.43,2.25,2.25,0,0,1,1.26-.75c.19-.05.38-.07.57-.11a2.87,2.87,0,0,1,2.91,4.08A4.44,4.44,0,0,0,90.22,41a3.76,3.76,0,0,1-.84,1.75,6.16,6.16,0,0,1-.77.92,4.79,4.79,0,0,1-2.85,1.1C85.44,44.83,85.11,44.81,84.86,44.81Z"/><path class="cls-5" d="M71.76,31.92a2,2,0,0,1,2,2,2,2,0,0,1-2,2.08,2,2,0,1,1,0-4.06Z"/><path class="cls-6" d="M71.81,19.11h1.35a4.28,4.28,0,0,1,1.78.43,1.81,1.81,0,0,1,.77.57,1.68,1.68,0,0,1,.09,2.05c-.19.28-.16.3.18.33a6.17,6.17,0,0,1,2.09.41,4.59,4.59,0,0,1,.79.42,1.25,1.25,0,0,1,.44,1.48,1.82,1.82,0,0,1-.84,1,6.21,6.21,0,0,1-1.72.67c-.06,0-.16,0-.15.11s.08.11.14.15a10,10,0,0,1,1.41.83,2.4,2.4,0,0,1,.76.91,1.59,1.59,0,0,1-.41,2,3.5,3.5,0,0,1-2.13.76,13.41,13.41,0,0,1-4.87-.7A25,25,0,0,1,64.16,27a16.2,16.2,0,0,1-1.51-1.23c-1.26-1.14-1.11-2.14.05-3.36a3.25,3.25,0,0,1,.29-.23,12.12,12.12,0,0,1,5-2.61A11.77,11.77,0,0,1,71.81,19.11Z"/><path class="cls-7" d="M73.76,28.77l-.61-.13a21.36,21.36,0,0,1-6.51-2.4c-.43-.26-.85-.53-1.25-.83s-.39-.49-.23-.78a.6.6,0,0,1,.77-.26,4.89,4.89,0,0,1,.48.2l2.16,1a33.49,33.49,0,0,0,4.77,1.62c.23.07.47.12.71.2a2.14,2.14,0,0,1,.4.2.66.66,0,0,1,.33.7.67.67,0,0,1-.61.48C74.08,28.78,74,28.77,73.76,28.77Z"/><path class="cls-7" d="M73.29,24.84a14.25,14.25,0,0,1-3.55-.59c-.57-.15-1.14-.33-1.7-.52a1.55,1.55,0,0,1-.79-.52.49.49,0,0,1,.25-.83,1.91,1.91,0,0,1,1,0c1,.2,2.07.42,3.11.6.67.12,1.36.19,2,.26a2,2,0,0,1,.64.14.79.79,0,0,1,.45.87.68.68,0,0,1-.67.59h-.73Z"/><path class="cls-8" d="M73.05,42a5.06,5.06,0,0,1-5,5.2,5.22,5.22,0,1,1,5-5.2Z"/><path class="cls-6" d="M53.21,38.71A13.72,13.72,0,0,1,46,36.59a6,6,0,0,1-2.12-2.19,2.32,2.32,0,0,1-.33-1.15A1.79,1.79,0,0,1,44,32a6.69,6.69,0,0,1,1.88-1.47,21.56,21.56,0,0,1,6.45-2.36A8.64,8.64,0,0,1,54.17,28c.34,0,.68-.12,1-.12a14.63,14.63,0,0,1,4,.47,7.65,7.65,0,0,1,1,.39,2.69,2.69,0,0,1,1.59,2.14,5.54,5.54,0,0,1-1.34,4.71,8.25,8.25,0,0,1-4.87,2.84A16.48,16.48,0,0,1,53.21,38.71Z"/><path class="cls-9" d="M52.17,33a18.38,18.38,0,0,1,7.73,1.65c1,.44,1,.44.21,1.25a8.45,8.45,0,0,1-4.58,2.47,9.86,9.86,0,0,1-2.48.31A13.29,13.29,0,0,1,46,36.58a7,7,0,0,1-1.33-1.1c-.21-.22-.18-.37.06-.56a5.89,5.89,0,0,1,1.31-.7,18.57,18.57,0,0,1,3.85-1A8.67,8.67,0,0,1,52.17,33Z"/><path class="cls-1" d="M54.47,18.92a20.91,20.91,0,0,1,1.88-8.46c.14-.32.31-.63.46-1a1.79,1.79,0,0,1,.45-.6.69.69,0,0,1,1.19.29,5,5,0,0,1,.22,1c.1.58.18,1.15.26,1.73a29.69,29.69,0,0,0,1,4.29,33.48,33.48,0,0,0,3,6.87,8.16,8.16,0,0,1,.64,1.37,2.47,2.47,0,0,1-1,3,4.77,4.77,0,0,1-1.77.74,6,6,0,0,1-2.81-.41,5.46,5.46,0,0,1-2-1.91,9.46,9.46,0,0,1-1.35-4.22A26.35,26.35,0,0,1,54.47,18.92Z"/><path class="cls-2" d="M56.89,26.08c-.68.21-1-.32-1.34-1a2.31,2.31,0,0,0-.1-.28c-.27-.52-.09-.66.38-.63a9,9,0,0,0,2.63-.35,5.76,5.76,0,0,0,3.08-2,2.1,2.1,0,0,1,.22-.3.2.2,0,0,1,.32,0,1.27,1.27,0,0,1,.13.19l.72,1.33c.16.31.15.41-.11.67a7.27,7.27,0,0,1-2.59,1.71A10,10,0,0,1,56.89,26.08Z"/><path class="cls-2" d="M56.12,21.31a3.7,3.7,0,0,1-1.24-.14.41.41,0,0,1-.33-.36c0-.46,0-.92,0-1.37a.28.28,0,0,1,.3-.28,1.46,1.46,0,0,1,.36,0,2.22,2.22,0,0,0,.44.06A8,8,0,0,0,59.79,18l.06,0c.48-.31.52-.3.74.24s.33.84.5,1.27a.35.35,0,0,1-.14.45,6,6,0,0,1-1.44.8A9.15,9.15,0,0,1,56.12,21.31Z"/><path class="cls-2" d="M56.68,16.11c-.54-.06-1-.1-1.52-.18a.38.38,0,0,1-.35-.48c.08-.45.18-.9.28-1.34,0-.2.17-.31.38-.26a6.35,6.35,0,0,0,2.77-.29l.21-.08c.7-.22.7-.22.89.52l.27,1c.07.31,0,.42-.24.54a5.15,5.15,0,0,1-1.43.39A9.46,9.46,0,0,0,56.68,16.11Z"/><path class="cls-6" d="M34.61,86.18a8.83,8.83,0,0,1-6-2.52,14.6,14.6,0,0,1-3.76-5.94c-.5-1.38-.92-2.79-1.36-4.19a20.47,20.47,0,0,0-2.18-5,10.77,10.77,0,0,0-2.82-2.89,12.81,12.81,0,0,0-2-1.17,4.14,4.14,0,0,1-.59-.31.7.7,0,0,1-.3-.73.62.62,0,0,1,.56-.53,2.72,2.72,0,0,1,1.1.06,6.93,6.93,0,0,1,1.64.68,14.42,14.42,0,0,1,3.71,2.75,11.2,11.2,0,0,1,2,3.18c.91,2.19,1.7,4.44,2.5,6.68a13.55,13.55,0,0,0,1.81,3.48,8.07,8.07,0,0,0,3.64,2.9,4.75,4.75,0,0,0,3.68-.19c.45-.2.88-.46,1.32-.69l.67-.32a1.55,1.55,0,0,1,.8-.08,1.23,1.23,0,0,1,1,1.87,1.86,1.86,0,0,1-.27.45,7.89,7.89,0,0,1-2.85,2.14A5.58,5.58,0,0,1,34.61,86.18Z"/><path class="cls-1" d="M21.69,61.08a8.34,8.34,0,0,1-.34,2.63,5.15,5.15,0,0,1-3.16,3.67A9.36,9.36,0,0,1,15.6,68a4,4,0,0,1-1.46-.15,8.88,8.88,0,0,1-2.56-1.18,13.9,13.9,0,0,1-2.84-2.41A5.3,5.3,0,0,1,8,63.09a2.22,2.22,0,0,1-.16-1.34,1.6,1.6,0,0,1,1.49-1.27,4.69,4.69,0,0,1,1.4.06,3.8,3.8,0,0,0,.59.06c.08,0,.12-.07.08-.16a1.86,1.86,0,0,0-.1-.2,18.1,18.1,0,0,1-1.47-3.65A11.9,11.9,0,0,1,9.31,53a2.4,2.4,0,0,1,.07-.6,1.45,1.45,0,0,1,1.68-1,2.5,2.5,0,0,1,.89.38,10.48,10.48,0,0,1,2.57,2.49,30.35,30.35,0,0,1,2,3,3.41,3.41,0,0,0,.25.37.11.11,0,0,0,.19,0,2.53,2.53,0,0,0,.12-.36,11.38,11.38,0,0,1,.58-1.64,2.84,2.84,0,0,1,.52-.83,1.05,1.05,0,0,1,1.63,0,4.2,4.2,0,0,1,.92,1.55,13.94,13.94,0,0,1,.88,3.37C21.66,60.11,21.66,60.6,21.69,61.08Z"/><path class="cls-2" d="M14.9,61.45a1,1,0,0,1-.81-.39A7.79,7.79,0,0,1,13,59.51c-.52-.95-1-1.92-1.49-2.89A6.41,6.41,0,0,1,11,55.27a.66.66,0,0,1,1.13-.66,5.84,5.84,0,0,1,.89,1.2c.76,1.24,1.5,2.5,2.25,3.75a3.4,3.4,0,0,1,.35.84.84.84,0,0,1,0,.52A.66.66,0,0,1,14.9,61.45Z"/><path class="cls-2" d="M15.29,66.31c-.49-.12-1.09-.24-1.69-.4a9.15,9.15,0,0,1-3.67-2,2.59,2.59,0,0,1-.43-.51.66.66,0,0,1,.84-1,2.92,2.92,0,0,1,.47.23,14.93,14.93,0,0,0,4.62,1.94,3.86,3.86,0,0,1,.48.16.86.86,0,0,1,.51.92.88.88,0,0,1-.8.67Z"/><path class="cls-2" d="M20.16,59.49A13.84,13.84,0,0,1,19.89,62a1,1,0,0,1-.45.66.84.84,0,0,1-1.25-.48,1.32,1.32,0,0,1-.08-.59c.13-.93.25-1.85.37-2.78,0-.22,0-.45.07-.68.1-.47.36-.77.68-.8s.67.29.8.76A4.92,4.92,0,0,1,20.16,59.49Z"/></g></svg>