<svg xmlns="http://www.w3.org/2000/svg" viewBox="0 0 102 102"><defs><style>.cls-1{fill:#ffa959;}.cls-2{fill:#d67011;}.cls-3{fill:#ffda95;}.cls-4{fill:#8d2e1f;}.cls-5{fill:#421c43;}.cls-6{fill:#f75e9d;}.cls-7{fill:#bb4f3e;}.cls-8{fill:#a84708;}</style></defs><g id="OBJECTS"><path class="cls-1" d="M24.86,54.36q0-13.57,0-27.15A12.35,12.35,0,0,1,25.2,24a6.9,6.9,0,0,1,2-3.5A6.36,6.36,0,0,1,30.77,19a7.8,7.8,0,0,1,3,.18A6.26,6.26,0,0,1,38.16,23,10.76,10.76,0,0,1,38.84,26,44.87,44.87,0,0,1,39,30.51c0,5.13,0,10.26,0,15.39,0,1.06,0,1,1,1H67.63c1,0,1,0,1-1q0-9.43,0-18.87a10.24,10.24,0,0,1,.83-4.3A6.26,6.26,0,0,1,74.37,19a5.54,5.54,0,0,1,2.18.21,56.59,56.59,0,0,1,6.88,2c1.46.53,2.9,1.08,4.33,1.68a39.27,39.27,0,0,1,7.29,3.9A14,14,0,0,1,98.39,30a5.76,5.76,0,0,1,1,2.54,3.75,3.75,0,0,1-.32,2,6.11,6.11,0,0,1-2.17,2.55,15.2,15.2,0,0,1-4,2,34.76,34.76,0,0,1-6.21,1.44c-1,.14-1.93.22-2.89.35-1.18.17-1.07-.07-1.07,1.15V81.09a14.2,14.2,0,0,1-.34,3.44,7.34,7.34,0,0,1-1.47,3,6.53,6.53,0,0,1-3.5,2.15,7.36,7.36,0,0,1-3.67,0,6.29,6.29,0,0,1-4.61-4.54,12.35,12.35,0,0,1-.51-3.58q0-11.06,0-22.1c0-.26,0-.53,0-.79a.29.29,0,0,0-.3-.29H40c-1.06,0-1-.07-1,1.05V81.05a15.67,15.67,0,0,1-.31,3.13,7.19,7.19,0,0,1-1.89,3.75,6.73,6.73,0,0,1-4.44,2,7.06,7.06,0,0,1-3-.42,6.1,6.1,0,0,1-3.75-3.71,9.52,9.52,0,0,1-.68-3.46V54.36Z"/><path class="cls-2" d="M82.73,44.18c0,.79,0,1.58,0,2.37,0,.13,0,.26,0,.39a.3.3,0,0,1-.38.29A11.45,11.45,0,0,1,80,46.74a12.93,12.93,0,0,1-5.46-3.61,7.51,7.51,0,0,1-1.9-3.58,2.5,2.5,0,0,1-.06-.86.69.69,0,0,1,.87-.58,1.53,1.53,0,0,1,.73.44,9.68,9.68,0,0,0,1.69,1.29,8.34,8.34,0,0,0,4.57,1.24l1.89,0c.31,0,.37.06.37.37,0,.76,0,1.53,0,2.29v.47Z"/><path class="cls-2" d="M56,58.49c-3.15-.25-6.3-.08-9.46-.12a12.06,12.06,0,0,0-1.8.09,10,10,0,0,1-1.73,0c-.36,0-.49-.17-.42-.5A9.91,9.91,0,0,1,43,56.37a8.4,8.4,0,0,1,3.48-4.63A6,6,0,0,1,49,50.89a7.65,7.65,0,0,1,5.11,1.21,6.75,6.75,0,0,1,2.39,3,17.56,17.56,0,0,1,.93,2.76,1.55,1.55,0,0,1,0,.31.26.26,0,0,1-.26.32,8.43,8.43,0,0,1-.87,0Z"/><path class="cls-2" d="M39,33.14c0,1.84,0,3.68,0,5.52,0,1-.05,1-1,1.07a6.33,6.33,0,0,1-3.56-.8,5.91,5.91,0,0,1-3.12-4.31,5.42,5.42,0,0,1,.83-3.77,8.26,8.26,0,0,1,5.64-4.07,5,5,0,0,1,.78-.08c.27,0,.4.11.42.36a5.67,5.67,0,0,1,0,.71C39,29.56,39,31.35,39,33.14Z"/><path class="cls-2" d="M32.2,61.73a6.08,6.08,0,0,1-1.66,4.15A10.24,10.24,0,0,1,25.42,69L25.2,69c-.26,0-.43,0-.44-.31a13.85,13.85,0,0,1,0-1.58A9.2,9.2,0,0,0,24.86,66v-7.8a7.55,7.55,0,0,0-.09-1.34,5.76,5.76,0,0,1,0-1.1c0-.35.14-.46.51-.43a7.71,7.71,0,0,1,1.17.19,9,9,0,0,1,3.4,1.58,5.93,5.93,0,0,1,2.28,3.49A5.77,5.77,0,0,1,32.2,61.73Z"/><path class="cls-2" d="M68.6,69.74V65.17c0-.32,0-.64,0-1,0-.52.16-.65.69-.54a7.68,7.68,0,0,1,4,2,6,6,0,0,1,1.39,2,5,5,0,0,1,0,4,7,7,0,0,1-4.21,3.78,5.4,5.4,0,0,1-1.52.39.24.24,0,0,1-.28-.22c0-.23,0-.47,0-.7Z"/><path class="cls-2" d="M82.73,57.05q0,3,0,6c0,.21,0,.42,0,.63a.21.21,0,0,1-.27.2,1.91,1.91,0,0,1-.52-.19,8.66,8.66,0,0,1-4.24-5,6.64,6.64,0,0,1,.25-5,8.39,8.39,0,0,1,2.24-2.9,3.89,3.89,0,0,1,2-.87c.36-.06.53.08.55.47,0,.21,0,.42,0,.63Z"/><path class="cls-3" d="M85.05,34.32a18.72,18.72,0,0,1,2-8.9,13.52,13.52,0,0,1,1.15-1.88c.2-.26.3-.28.61-.16a26.8,26.8,0,0,1,2.91,1.4,28.62,28.62,0,0,1,4,2.52,13.28,13.28,0,0,1,2.78,2.87,5.37,5.37,0,0,1,.91,2.41,3.84,3.84,0,0,1-.33,2,6,6,0,0,1-2.18,2.54,15.68,15.68,0,0,1-4,2A38.1,38.1,0,0,1,87,40.48l-.32,0a.5.5,0,0,1-.59-.4c-.19-.6-.4-1.2-.54-1.81A17.57,17.57,0,0,1,85.05,34.32Z"/><path class="cls-4" d="M95.78,36.86a9.37,9.37,0,0,1-3.58-.79,2.81,2.81,0,0,1-1.11-.85A.7.7,0,0,1,91.45,34a1.27,1.27,0,0,1,.77,0c.66.15,1.32.32,2,.45a6.08,6.08,0,0,0,4.47-.7,3.79,3.79,0,0,1,.34-.2.34.34,0,0,1,.22,0,.25.25,0,0,1,.07.21,4.82,4.82,0,0,1-.92,2,2.59,2.59,0,0,1-2.3,1.1Z"/><path class="cls-4" d="M94.29,32.46a1,1,0,0,1-1-.49,4.56,4.56,0,0,1-.64-1.6.92.92,0,0,1,.48-1,.75.75,0,0,1,1,.09,3.78,3.78,0,0,1,1.17,1.82A1,1,0,0,1,94.29,32.46Z"/><path class="cls-5" d="M81.15,29.09a2.13,2.13,0,1,1-4.26.07,2.13,2.13,0,0,1,4.26-.07Z"/><path class="cls-6" d="M79.42,38a7.57,7.57,0,0,1-2.59-.52,3.48,3.48,0,0,1-1.34-.94,1.81,1.81,0,0,1-.08-2.26,3,3,0,0,1,1-.89,6.65,6.65,0,0,1,6.35-.05,2.4,2.4,0,0,1,.71.5,1.75,1.75,0,0,1,.12,2.55,3.32,3.32,0,0,1-1.24.95A7.3,7.3,0,0,1,79.42,38Z"/><path class="cls-4" d="M30,52.38a20.56,20.56,0,0,1-1.73,8.1,43.41,43.41,0,0,1-2.92,5.41,34.32,34.32,0,0,1-3.4,4.73,22.87,22.87,0,0,1-7.3,5.8,16,16,0,0,1-3.82,1.2,11.83,11.83,0,0,1-3.14.12,15.58,15.58,0,0,1-3-.5,4.54,4.54,0,0,1-1.49-.71,1.41,1.41,0,0,1,.1-2.37c.28-.14.54-.32.83-.46a18.08,18.08,0,0,0,5.07-3.83,10.42,10.42,0,0,0,2.22-3.51,3.84,3.84,0,0,0,.2-.6c0-.09,0-.24,0-.29s-.23,0-.33.1a12.88,12.88,0,0,1-4.83,2,6.44,6.44,0,0,1-1.58.07,2.49,2.49,0,0,1-.46-.09c-.85-.21-.93-1-.47-1.6a1.53,1.53,0,0,1,.55-.43A9.89,9.89,0,0,0,6.91,63.7a19.38,19.38,0,0,0,4.41-5.9c.35-.76.67-1.55.95-2.34A36.31,36.31,0,0,1,14.35,51a17.22,17.22,0,0,1,2.37-3.23A11.74,11.74,0,0,1,19,45.9a8.62,8.62,0,0,1,2.4-1.17,7.15,7.15,0,0,1,5,.25,4.08,4.08,0,0,1,.88.52,6.18,6.18,0,0,1,2.05,2.83A12,12,0,0,1,30,52.38Z"/><path class="cls-7" d="M7.52,75.55a1,1,0,0,1-.89-.47.94.94,0,0,1,.4-1,4.17,4.17,0,0,1,.63-.33,25.53,25.53,0,0,0,2.91-1.57,10.13,10.13,0,0,0,1.81-1.39,16.7,16.7,0,0,0,3-3.89,31.74,31.74,0,0,0,2-4.45c.6-1.66,1.15-3.33,1.78-5a18.33,18.33,0,0,1,2.32-4.2,18.89,18.89,0,0,1,2.26-2.63,10.09,10.09,0,0,1,1.82-1.37,1.77,1.77,0,0,1,.89-.29c.3,0,.59,0,.74.32s0,.49-.31.74l-.57.43A15.63,15.63,0,0,0,23,54.1a15.84,15.84,0,0,0-2,4c-.51,1.5-1,3-1.54,4.47a29.7,29.7,0,0,1-2.69,5.87A15.79,15.79,0,0,1,11.08,74,15.92,15.92,0,0,1,8.4,75.32,2.91,2.91,0,0,1,7.52,75.55Z"/><path class="cls-7" d="M18,71.91a.59.59,0,0,1-.68-.6,1.53,1.53,0,0,1,.32-1l1.12-1.53a27,27,0,0,0,3-5.19c.73-1.61,1.38-3.24,2.09-4.85A26.25,26.25,0,0,1,26,54.35c.28-.41.58-.81.88-1.21a2.21,2.21,0,0,1,.93-.72.6.6,0,0,1,.71.16.57.57,0,0,1,0,.73,3.24,3.24,0,0,1-.24.31,18.38,18.38,0,0,0-1.61,2.79c-1.23,2.65-2.25,5.38-3.46,8a29.4,29.4,0,0,1-4.09,6.63,5.79,5.79,0,0,1-.54.57A.84.84,0,0,1,18,71.91Z"/><path class="cls-7" d="M11.11,62.29a1.35,1.35,0,0,1,.36-.86,23.57,23.57,0,0,0,3.7-5.94c.3-.64.58-1.29.9-1.93a20.23,20.23,0,0,1,2.06-3.35,10.07,10.07,0,0,1,5.21-3.51,4.4,4.4,0,0,1,1.49-.1,1.15,1.15,0,0,1,.74.41.35.35,0,0,1-.12.58,2.63,2.63,0,0,1-.52.17,8.69,8.69,0,0,0-5.7,3.77,26.83,26.83,0,0,0-2.13,3.86A27.32,27.32,0,0,1,13,62.2a2.43,2.43,0,0,1-1.06.78C11.47,63.13,11.09,62.85,11.11,62.29Z"/><path class="cls-4" d="M31.9,77.37H38c.91,0,.91,0,.91.93s0,2,0,3a12.68,12.68,0,0,1-.75,4.4,6.46,6.46,0,0,1-5,4.09,7.36,7.36,0,0,1-3.81-.28,6.08,6.08,0,0,1-3.81-3.73,9.28,9.28,0,0,1-.69-3.46c0-1.28-.05-2.57-.11-3.85s0-1.07,1.08-1.07H31.9Z"/><path class="cls-7" d="M36.14,81.88a6.13,6.13,0,0,1-.83,3.32,4.83,4.83,0,0,1-3.06,2.31A1.07,1.07,0,0,1,30.91,87a.89.89,0,0,1,.09-1,2.34,2.34,0,0,1,.4-.37,1.66,1.66,0,0,1,.41-.23,3.35,3.35,0,0,0,2.11-2.56,10.83,10.83,0,0,0,.27-1.47,9.91,9.91,0,0,1,.18-1.09A.72.72,0,0,1,35,79.6a.76.76,0,0,1,.84.44,1.91,1.91,0,0,1,.29.9C36.15,81.25,36.14,81.57,36.14,81.88Z"/><path class="cls-4" d="M82.71,80.29c0,.65,0,1.31,0,2a11.07,11.07,0,0,1-.53,3A6.75,6.75,0,0,1,80,88.47a6.32,6.32,0,0,1-1.92,1,7.5,7.5,0,0,1-4.35.15,6.29,6.29,0,0,1-4.55-4.49,12,12,0,0,1-.52-3.57c0-1.11,0-2.21,0-3.32,0-.15,0-.31,0-.47,0-.33.1-.42.42-.44H81.67c1.06,0,1.06,0,1,1v1.89Z"/><path class="cls-7" d="M80.37,82.12a5.72,5.72,0,0,1-1.7,4.13,4,4,0,0,1-2,1,1.17,1.17,0,0,1-.91-.12,1,1,0,0,1-.08-1.77,3.15,3.15,0,0,1,.64-.31,2.37,2.37,0,0,0,1.34-1.26,6.21,6.21,0,0,0,.52-2.28c0-.19,0-.37,0-.55a1.6,1.6,0,0,1,.18-.68.88.88,0,0,1,1.51-.15,1.8,1.8,0,0,1,.37.94C80.35,81.38,80.35,81.72,80.37,82.12Z"/><path class="cls-4" d="M60,52.17a5.25,5.25,0,0,1-2.48-.3,2.32,2.32,0,0,1-.9-.61,1.16,1.16,0,0,1,0-1.64,5.69,5.69,0,0,1,.81-.74c.34-.26.7-.48,1-.71a20.22,20.22,0,0,0,3.88-3.33,2.69,2.69,0,0,0,.3-.37c.08-.13.26-.28.19-.4s-.33,0-.5,0A8.48,8.48,0,0,1,57.92,44a3.24,3.24,0,0,1-1.25-.64,1.64,1.64,0,0,1,0-2.49c.31-.24.62-.49.94-.71a22.48,22.48,0,0,0,3-2.34,20,20,0,0,0,1.63-1.93c.18-.22.34-.46.5-.7a.31.31,0,0,0,.06-.22c0-.09-.13,0-.2,0a12.11,12.11,0,0,1-1.67.45,5.65,5.65,0,0,1-2.65-.14,2.48,2.48,0,0,1-1.66-1.35,1.19,1.19,0,0,1,.18-1.39,6.21,6.21,0,0,1,.73-.72,35.16,35.16,0,0,0,3.34-3.23c.68-.73,1.31-1.51,2-2.26a13.71,13.71,0,0,1,2.89-2.42,8.37,8.37,0,0,1,2.47-1,1.54,1.54,0,0,1,.31,0,1.31,1.31,0,0,1,1.52,1.47.93.93,0,0,1,0,.24,11,11,0,0,0-.38,2.8,14.06,14.06,0,0,0,.19,4.24c.23,1.11.53,2.2.85,3.28a23.45,23.45,0,0,1,.84,4.57c.08.81.11,1.62.11,2.43a9.6,9.6,0,0,1-.74,3.85,9.85,9.85,0,0,1-1.4,2.27,13.43,13.43,0,0,1-8.12,4.23A13.43,13.43,0,0,1,60,52.17Z"/><path class="cls-7" d="M69.56,39.58a9.31,9.31,0,0,1-1.39,3.83,27,27,0,0,1-2.75,3.73,20.79,20.79,0,0,1-3.43,3,1.36,1.36,0,0,1-1.09.32.79.79,0,0,1-.7-1,1.1,1.1,0,0,1,.41-.66c.25-.19.49-.39.76-.56A11.7,11.7,0,0,0,63.8,46a26.58,26.58,0,0,0,2.78-3.71,11,11,0,0,0,1.3-2.59,3.15,3.15,0,0,1,.29-.65.67.67,0,0,1,.68-.44.74.74,0,0,1,.64.61A2.32,2.32,0,0,1,69.56,39.58Z"/><path class="cls-7" d="M68.51,32.57a3.81,3.81,0,0,1-.32,1.37,14.76,14.76,0,0,1-1.78,3.14A25.11,25.11,0,0,1,62,41.66a2.92,2.92,0,0,1-.81.49.86.86,0,0,1-1.05-.28.89.89,0,0,1-.07-1.1,4.64,4.64,0,0,1,.64-.69c.85-.75,1.68-1.5,2.47-2.31a22,22,0,0,0,3-3.93c.28-.47.52-1,.79-1.45a4.72,4.72,0,0,1,.35-.52.68.68,0,0,1,.78-.23.6.6,0,0,1,.4.62Z"/><path class="cls-7" d="M67.07,26.2a1.82,1.82,0,0,1-.19.76A14.32,14.32,0,0,1,64.8,30.2a9.49,9.49,0,0,1-1.61,1.62,4.06,4.06,0,0,1-.79.5.81.81,0,0,1-.61.06.83.83,0,0,1-.66-1.18,1.28,1.28,0,0,1,.29-.47,5.9,5.9,0,0,1,.5-.5,22,22,0,0,0,3.5-4.14c.11-.15.2-.31.32-.45a.74.74,0,0,1,1.33.56Z"/><path class="cls-4" d="M80.83,12.81a5.87,5.87,0,0,1,2.45.54,13.67,13.67,0,0,1,1.59.88c.66.43,1.33.85,2,1.25a8.27,8.27,0,0,0,2.93,1.11h.08c1,.23,1.32.93.78,1.81A6,6,0,0,1,89.4,19.8a9.39,9.39,0,0,1-2.53,1.59,5.21,5.21,0,0,1-2.3.47,2.56,2.56,0,0,0-.39,0,.1.1,0,0,0-.05.18l.76.7c.26.22.54.41.79.64a1.14,1.14,0,0,1,.08,1.74,2.33,2.33,0,0,1-1,.66,4.8,4.8,0,0,1-2.63.22,10.8,10.8,0,0,1-4.56-2.22,8.19,8.19,0,0,1-1.49-1.51A5.42,5.42,0,0,1,74.93,19a5.71,5.71,0,0,1,1.16-3.61,6.48,6.48,0,0,1,4-2.54A3.71,3.71,0,0,1,80.83,12.81Z"/><path class="cls-7" d="M85.3,19.84a7.51,7.51,0,0,1-5-2.07,8.76,8.76,0,0,1-1.32-1.46,5.3,5.3,0,0,1-.57-1.11.65.65,0,0,1,.22-.84.64.64,0,0,1,.86.07,3.72,3.72,0,0,1,.42.47,10.54,10.54,0,0,0,2,1.9A6.41,6.41,0,0,0,84.58,18,3.72,3.72,0,0,0,86,18l1-.2a1.57,1.57,0,0,1,.86.05.82.82,0,0,1,.31,1.35,1.16,1.16,0,0,1-.6.36A6.88,6.88,0,0,1,85.3,19.84Z"/><path class="cls-7" d="M82.11,24.09a1.39,1.39,0,0,1-.64-.15,9.13,9.13,0,0,1-4.42-4.1,4.12,4.12,0,0,1-.36-1,.73.73,0,0,1,.37-.87.76.76,0,0,1,.88.11,2,2,0,0,1,.44.55,14.22,14.22,0,0,0,1.41,1.79A9.6,9.6,0,0,0,82,22.19a3.16,3.16,0,0,1,.69.51.76.76,0,0,1,.22.86A.77.77,0,0,1,82.11,24.09Z"/><path class="cls-2" d="M64.66,15.77a5.25,5.25,0,0,1,.18-1.72,7.25,7.25,0,0,1,.36-.87,2,2,0,0,1,2.25-1.07A6,6,0,0,1,70,13.19a17.58,17.58,0,0,1,4.2,4,8.79,8.79,0,0,1,1.67,3.69c0,.06,0,.11,0,.16a1.89,1.89,0,0,1-1.06,2.29,4.66,4.66,0,0,1-3.26.59,8.42,8.42,0,0,1-2.4-.72,8.23,8.23,0,0,1-3.27-3.11,8.28,8.28,0,0,1-1.1-2.76A8.37,8.37,0,0,1,64.66,15.77Z"/><path class="cls-8" d="M72.3,24.08a7.86,7.86,0,0,1-3.91-1.25A8.92,8.92,0,0,1,65.23,19a8.84,8.84,0,0,1-.6-2.27,7.38,7.38,0,0,1,.17-2.65,1.58,1.58,0,0,1,.11-.37.32.32,0,0,1,.45-.19,3.92,3.92,0,0,1,.51.22,16.25,16.25,0,0,1,4.77,3.79,20,20,0,0,1,2.3,3.19c.41.73.77,1.49,1.14,2.24a2,2,0,0,1,.09.22c.12.38,0,.56-.31.67A4.35,4.35,0,0,1,72.3,24.08Z"/></g></svg>