<svg xmlns="http://www.w3.org/2000/svg" viewBox="0 0 102 102"><defs><style>.cls-1{isolation:isolate;}.cls-2,.cls-6{fill:#6fb2f3;}.cls-3{fill:#3472c0;}.cls-4{fill:#2067ac;}.cls-5{fill:#92d8ff;}.cls-6{opacity:0.5;mix-blend-mode:multiply;}.cls-7{fill:#421c43;}.cls-8{fill:#ffa8d0;}.cls-9{fill:#fff;}</style></defs><g class="cls-1"><g id="OBJECTS"><path class="cls-2" d="M65.66,51.05c0,5.5,0,11,0,16.5,0,1.18,0,2.37,0,3.55s-.18,2.2-.25,3.3a19.59,19.59,0,0,1-.5,3.42,22.46,22.46,0,0,1-3.24,7.83,18.05,18.05,0,0,1-6.14,5.58,23,23,0,0,1-7.64,2.63,32.62,32.62,0,0,1-6.83.41,29.13,29.13,0,0,1-8.43-1.5,16.4,16.4,0,0,1-6.78-4.47,18.75,18.75,0,0,1-2.68-3.8,27.4,27.4,0,0,1-2.87-8.8A22.15,22.15,0,0,1,20,72.16a8.69,8.69,0,0,1,.45-2.63A5.48,5.48,0,0,1,23,66.46a7.11,7.11,0,0,1,5.72-.62A4.42,4.42,0,0,1,31,67.41a9.82,9.82,0,0,1,1.6,3.32c.3,1.08.54,2.19.82,3.29s.57,2.24.94,3.34a9.27,9.27,0,0,0,2.36,3.77,6.86,6.86,0,0,0,3.4,1.72,10.87,10.87,0,0,0,3.46.15,7.42,7.42,0,0,0,6.16-4.09,14.64,14.64,0,0,0,1.48-4.8,35.54,35.54,0,0,0,.31-5.26q0-18.55,0-37.11A13.28,13.28,0,0,1,52,28.08a6.32,6.32,0,0,1,2.88-3.9,6.87,6.87,0,0,1,2.6-.85,8,8,0,0,1,2.89.15,6.17,6.17,0,0,1,4.59,4,10.42,10.42,0,0,1,.65,3.32c0,.5,0,1,0,1.5Q65.66,41.69,65.66,51.05Z"/><path class="cls-3" d="M37,88.33a6.93,6.93,0,0,1-5.21-2.06,9.44,9.44,0,0,1-2.07-3.14c-.56-1.33-.89-2.75-1.36-4.11-.12-.35-.25-.69-.38-1a3.11,3.11,0,0,0-1.88-1.89c-.15-.06-.31-.09-.45-.16a.76.76,0,0,1-.49-.74.77.77,0,0,1,.52-.72,1.65,1.65,0,0,1,.69-.12,3.6,3.6,0,0,1,2.43,1,5.57,5.57,0,0,1,1.64,2.47c.34,1,.66,1.94,1,2.91a16.41,16.41,0,0,0,1,2.33A5.39,5.39,0,0,0,35,85.52a4.19,4.19,0,0,0,3.45,0A3.18,3.18,0,0,0,40,84a11.27,11.27,0,0,0,.77-2.15,10.82,10.82,0,0,1,1.3-3,8.84,8.84,0,0,1,4-3.27c.67-.29,1.36-.55,2-.84a7.68,7.68,0,0,0,1.33-.7,1.84,1.84,0,0,0,.86-1.51,3.87,3.87,0,0,0-.46-2.28A11.52,11.52,0,0,1,48.65,67a12.32,12.32,0,0,1-.25-3.53,5.4,5.4,0,0,1,2.69-4.22,12,12,0,0,1,1.13-.57,11.46,11.46,0,0,0,1.23-.7,1.32,1.32,0,0,0,.59-.9,2.66,2.66,0,0,0-.42-2,19.65,19.65,0,0,1-1.49-2.6A11.89,11.89,0,0,1,51,48.76a6,6,0,0,1,1.09-4.33A4.85,4.85,0,0,1,53.59,43c.33-.2.63-.47,1-.68A2.23,2.23,0,0,1,55.2,42a.77.77,0,0,1,.88.37.48.48,0,0,1,0,.59c-.88,1-1.25,2.25-2,3.29a3.12,3.12,0,0,0-.48,2.41A11.94,11.94,0,0,0,55.2,52.8c.18.32.39.63.57.94a5.56,5.56,0,0,1,.86,3,4,4,0,0,1-2,3.48,10.7,10.7,0,0,1-1.61.84A3.45,3.45,0,0,0,50.9,63.4a5.09,5.09,0,0,0-.06,1.65,16.82,16.82,0,0,0,.26,1.71,8.17,8.17,0,0,0,.83,2.29c.14.29.29.56.42.85a5.48,5.48,0,0,1,.22,4.15,4.25,4.25,0,0,1-1.73,2.18,9.49,9.49,0,0,1-2,1.06,18.77,18.77,0,0,0-2.58,1.18,6,6,0,0,0-2.54,2.92,19.55,19.55,0,0,0-.63,1.87A9.18,9.18,0,0,1,42,85.7a5.94,5.94,0,0,1-3.17,2.35A5.64,5.64,0,0,1,37,88.33Z"/><path class="cls-3" d="M57.38,89.42a15.79,15.79,0,0,1-2.75-.23,3,3,0,0,0-1.31.09,3.56,3.56,0,0,0-2.41,2.2,2.1,2.1,0,0,0-.12.7,2.28,2.28,0,0,1-.13.69.84.84,0,0,1-.72.64.92.92,0,0,1-1-.39,2.36,2.36,0,0,1-.35-1.88A4.84,4.84,0,0,1,50,88.63a5.92,5.92,0,0,1,3-1.72,8.19,8.19,0,0,1,2.66,0,9.17,9.17,0,0,0,3.22-.05,2.76,2.76,0,0,0,2.14-2.68,14.37,14.37,0,0,0-.45-3.75,17.75,17.75,0,0,1-.53-5.08,6.62,6.62,0,0,1,2.58-5.11,18,18,0,0,1,1.66-1.06,5.06,5.06,0,0,0,2.49-3.39,4.33,4.33,0,0,0-.08-2.34c-.14-.43-.27-.85-.42-1.28a9.7,9.7,0,0,1-.5-2.38,6,6,0,0,1,2.39-5.54c.19-.15.39-.28.56-.43a3.24,3.24,0,0,0,1-3.29,6.54,6.54,0,0,0-.93-2.25,11.46,11.46,0,0,1-1.15-2.92,1.82,1.82,0,0,1-.06-.62.5.5,0,0,1,.32-.5.61.61,0,0,1,.67.1l.06.05a18.75,18.75,0,0,0,1.71,1.86,2.55,2.55,0,0,1,.24.31,12.68,12.68,0,0,1,1.55,3.26,5.62,5.62,0,0,1,.08,3.12,5,5,0,0,1-1.89,2.91c-.2.14-.38.29-.57.44a3.61,3.61,0,0,0-1.43,3.61A12.94,12.94,0,0,0,69,62.41,7.11,7.11,0,0,1,69.46,65,7.73,7.73,0,0,1,68,69.28a7,7,0,0,1-2.36,2.06,15,15,0,0,0-1.52,1,3,3,0,0,0-.88,1,5.75,5.75,0,0,0-.69,2.17,11.65,11.65,0,0,0,.08,2.36c.14,1.41.52,2.79.74,4.19.09.57.2,1.14.24,1.71a4.74,4.74,0,0,1-.25,1.87,5.18,5.18,0,0,1-3.9,3.64A7.71,7.71,0,0,1,57.38,89.42Z"/><path class="cls-4" d="M79.07,52.89a4.9,4.9,0,0,1-1.7,3.7l-1.69,1.54c-.38.36-.78.71-1.14,1.1a2.39,2.39,0,0,0-.41,2.84c.39.78.8,1.54,1.2,2.31a5.54,5.54,0,0,1,.5,1.65,4.11,4.11,0,0,1-1,3.36A6,6,0,0,1,73,70.87c-.62.33-1.24.68-1.87,1a5.58,5.58,0,0,0-1.67,1.3,2.58,2.58,0,0,0-.63,2.63c.09.3.19.6.26.91a1.32,1.32,0,0,1-.83,1.59,1.37,1.37,0,0,1-1.68-.66,5.3,5.3,0,0,1,.79-6.36,8,8,0,0,1,2.22-1.75c.55-.3,1.1-.62,1.66-.9a2,2,0,0,0,.89-3,15.87,15.87,0,0,1-1.06-2.2,7.73,7.73,0,0,1-.57-2.61A6,6,0,0,1,71.82,57a9.36,9.36,0,0,1,1.64-1.69A13,13,0,0,0,74.81,54a2.93,2.93,0,0,0,.8-2.24A2.19,2.19,0,0,0,75,50.47c-.22-.24-.45-.45-.68-.67a12.74,12.74,0,0,1-1.87-2.33,2.9,2.9,0,0,1-.53-1.69c0-.51-.12-1-.14-1.57A4.35,4.35,0,0,1,72,42.82a1.44,1.44,0,0,1,.15-.36,1.08,1.08,0,0,1,1-.6.87.87,0,0,1,.87.77,8.93,8.93,0,0,0,.69,2,8.31,8.31,0,0,0,2,3.06,9.36,9.36,0,0,1,1.63,2.12A5.77,5.77,0,0,1,79.07,52.89Z"/><path class="cls-4" d="M40,72.67a1.28,1.28,0,0,1,.52-1.09c.25-.2.52-.36.78-.55.58-.41,1.16-.81,1.73-1.23a2.72,2.72,0,0,0,1-1.31,2.26,2.26,0,0,0-.2-2A6.65,6.65,0,0,0,42.74,65l-1.07-1a4.48,4.48,0,0,1-1.25-3.9,6.85,6.85,0,0,1,1.63-3.44,17.7,17.7,0,0,1,1.66-1.8,5.47,5.47,0,0,0,1.58-5,15.59,15.59,0,0,0-.6-2.69,10.3,10.3,0,0,1-.5-3.25,7.12,7.12,0,0,1,2.17-5.17A3.47,3.47,0,0,1,47.44,38a1.25,1.25,0,0,1,.69-.09.71.71,0,0,1,.63,1,.38.38,0,0,0,.07.42A1.55,1.55,0,0,1,49,41.14,18.07,18.07,0,0,0,48,44.43a6.9,6.9,0,0,0,.13,3.35c.22.81.47,1.61.7,2.42a5.85,5.85,0,0,1-.4,4.07,10.81,10.81,0,0,1-1.6,2.42,25.93,25.93,0,0,0-2,2.48,4.7,4.7,0,0,0-.58,1.11A2.17,2.17,0,0,0,44.38,62a10.22,10.22,0,0,0,.85,1.32,7.77,7.77,0,0,1,1.54,3.33A4.64,4.64,0,0,1,46.66,69a7.2,7.2,0,0,1-4.33,4.6,3.73,3.73,0,0,1-1,.23A1.23,1.23,0,0,1,40,72.67Z"/><path class="cls-4" d="M66.57,50.08a4.87,4.87,0,0,1-.73,2.35,8.64,8.64,0,0,1-2,2.18c-.45.37-.93.68-1.39,1a5,5,0,0,0-.64.58,2.11,2.11,0,0,0-.54,1.36,5,5,0,0,0,.59,2.73,6.56,6.56,0,0,1,.91,2.43,5,5,0,0,1-1,3.91,19.86,19.86,0,0,1-2,1.89,9.38,9.38,0,0,0-2.35,3,2.76,2.76,0,0,0-.27,1.6,13.2,13.2,0,0,1,.13,1.88,1,1,0,0,1-.62,1.07,1.1,1.1,0,0,1-1.29-.52,1.87,1.87,0,0,1-.26-.48,6.69,6.69,0,0,1,.45-6,8.73,8.73,0,0,1,2-2.23,14.24,14.24,0,0,0,2.11-2,1.24,1.24,0,0,0,.25-1.32c-.13-.31-.2-.65-.32-1-.3-.79-.61-1.57-.91-2.35A7.23,7.23,0,0,1,59,54.38a9.31,9.31,0,0,1,2.35-2.94,11.8,11.8,0,0,0,1-1,.93.93,0,0,0,.19-1,5.19,5.19,0,0,0-.61-1.28,15.42,15.42,0,0,1-1.07-1.75,7.93,7.93,0,0,1-.79-2.7,18.6,18.6,0,0,1-.12-2,2.29,2.29,0,0,1,.24-1,1.21,1.21,0,0,1,1.24-.65,1.1,1.1,0,0,1,1.05.81,3.51,3.51,0,0,1,.18,1.25,2.87,2.87,0,0,0,.28,1.22,2.41,2.41,0,0,0,.64.88A9,9,0,0,1,66.41,49C66.49,49.36,66.51,49.7,66.57,50.08Z"/><path class="cls-5" d="M77.19,27a18,18,0,0,1-.67,5.61,3.11,3.11,0,0,0-.11,1.17A1.91,1.91,0,0,0,77,35.11l.81.74a19.8,19.8,0,0,1,2.83,3A7.45,7.45,0,0,1,82,41.73a2.88,2.88,0,0,1-.22,1.84,3.76,3.76,0,0,1-2.9,2.29,5.35,5.35,0,0,1-3.34-.64,8.4,8.4,0,0,1-1.71-1.12c-.1-.08-.2-.06-.23.07A5.57,5.57,0,0,1,73,45.56a3.84,3.84,0,0,1-2.49,1.92,3.09,3.09,0,0,1-1.32,0,5.53,5.53,0,0,1-3.28-2c-.38-.47-.74-1-1.12-1.44-.19-.24-.27-.23-.45,0s-.28.45-.43.66a6.84,6.84,0,0,1-2.17,1.91A3,3,0,0,1,58,46.18a6.49,6.49,0,0,1-1.74-2.69c0-.1-.07-.19-.11-.29s-.19-.19-.3-.06l-.48.62a6.89,6.89,0,0,1-2.75,2.18,3.91,3.91,0,0,1-2.16.32A3.21,3.21,0,0,1,48,44.14a8.47,8.47,0,0,1-.53-2c-.1-.56-.1-.57-.55-.28s-.94.58-1.4.88a9.36,9.36,0,0,1-3.71,1.49,4.36,4.36,0,0,1-3.12-.49,2.8,2.8,0,0,1-1.37-2.43,4.36,4.36,0,0,1,.74-2.6,16.43,16.43,0,0,1,2.36-2.95c.59-.56,1.16-1.15,1.74-1.72.16-.17.32-.35.49-.51a2.24,2.24,0,0,0,.62-2.39c-.22-.83-.45-1.67-.69-2.5a16.27,16.27,0,0,1-.63-3,15,15,0,0,1,0-3.07,24,24,0,0,1,.59-3.57A12.9,12.9,0,0,1,45.89,13a18,18,0,0,1,5.89-3.85A19.51,19.51,0,0,1,56,7.93a11.58,11.58,0,0,1,2.27-.23h1.42a15.41,15.41,0,0,1,5.78,1.08,16.76,16.76,0,0,1,5.13,3,18.17,18.17,0,0,1,4.1,5,20.17,20.17,0,0,1,2.35,7.22A25.77,25.77,0,0,1,77.19,27Z"/><path class="cls-6" d="M40.55,42.51a.43.43,0,0,1-.21,0,.93.93,0,0,1-.56-1.57,1.64,1.64,0,0,1,.68-.54c.4-.18.81-.37,1.23-.52a8.5,8.5,0,0,0,3-1.92c.42-.4.82-.82,1.23-1.23.15-.14.29-.3.46-.43a.8.8,0,0,1,.89-.05.77.77,0,0,1,.41.79,2,2,0,0,1-.14.53,4.88,4.88,0,0,1-1.08,1.64c-.46.43-.88.9-1.37,1.3a11.79,11.79,0,0,1-3.62,1.88A2,2,0,0,1,40.55,42.51Z"/><path class="cls-6" d="M64.05,39.45a2.83,2.83,0,0,1-.14,1,9.29,9.29,0,0,1-1.73,3.76,1.31,1.31,0,0,1-1.16.54.86.86,0,0,1-.91-1,1.08,1.08,0,0,1,.14-.53c.13-.23.26-.46.4-.68a9.7,9.7,0,0,0,1.47-4,3.13,3.13,0,0,1,.12-.53.8.8,0,0,1,.8-.53.77.77,0,0,1,.74.48A3.2,3.2,0,0,1,64.05,39.45Z"/><path class="cls-6" d="M54.9,39.07a7,7,0,0,1-.61,2.4,8.49,8.49,0,0,1-1.32,2,3.2,3.2,0,0,1-1,.76,1,1,0,0,1-.91.07,1,1,0,0,1-.56-1.29,1.84,1.84,0,0,1,.37-.6A9,9,0,0,0,53,39a6.51,6.51,0,0,1,.31-.72.79.79,0,0,1,.82-.49.87.87,0,0,1,.74.73C54.88,38.7,54.88,38.91,54.9,39.07Z"/><path class="cls-6" d="M72.13,41.52a5.43,5.43,0,0,1-.31,2.2,2.87,2.87,0,0,1-.21.51,1.13,1.13,0,0,1-1.45.41.75.75,0,0,1-.45-.68,7.47,7.47,0,0,1,0-1c.06-.44.16-.87.23-1.31a3.49,3.49,0,0,0,0-1c-.11-.68-.23-1.35-.35-2l0-.15a.76.76,0,0,1,.37-.88,1,1,0,0,1,1,.09,1.45,1.45,0,0,1,.38.5A5.44,5.44,0,0,1,72.14,41C72.13,41.13,72.13,41.26,72.13,41.52Z"/><path class="cls-6" d="M76.05,36.44a1.72,1.72,0,0,1,1,.27,6.12,6.12,0,0,1,1.78,1.54c.34.4.62.84.93,1.27a5,5,0,0,1,.7,2.39,1.52,1.52,0,0,1-.13.69.85.85,0,0,1-.86.56.79.79,0,0,1-.79-.54,1.73,1.73,0,0,1-.11-.54A4.06,4.06,0,0,0,77.75,40,8.2,8.2,0,0,0,76,38.06a2.93,2.93,0,0,1-.52-.48.62.62,0,0,1-.13-.72.69.69,0,0,1,.62-.42Z"/><path class="cls-7" d="M58.65,33.08A3.15,3.15,0,0,1,56,31.71a4.86,4.86,0,0,1-.88-2.49,2.73,2.73,0,0,1,.2-1.16.68.68,0,0,1,.69-.43.63.63,0,0,1,.55.49,3.43,3.43,0,0,1,.14.85,3.13,3.13,0,0,0,.94,1.94,1.4,1.4,0,0,0,1.54.23,1.59,1.59,0,0,0,.87-.77,6.37,6.37,0,0,0,.56-1.47,1,1,0,0,1,1.21-.82.8.8,0,0,1,.71.73,1.83,1.83,0,0,1,0,.7,4.79,4.79,0,0,1-1.77,2.9A3.22,3.22,0,0,1,58.65,33.08Z"/><path class="cls-7" d="M69.76,27.76a2.09,2.09,0,0,1-2.15,2.13,2.13,2.13,0,0,1-2.14-2.09,2.17,2.17,0,0,1,2.14-2.19A2.06,2.06,0,0,1,69.76,27.76Z"/><path class="cls-7" d="M50.54,24.08a2.07,2.07,0,0,1,2.17,2.1,2.15,2.15,0,1,1-2.17-2.1Z"/><path class="cls-4" d="M70,21.83l-2.6-.37a1,1,0,0,1-.66-.4,1,1,0,0,1,.52-1.54,1.76,1.76,0,0,1,.79,0,12.08,12.08,0,0,1,2.22.5,1.44,1.44,0,0,1,.66.42.8.8,0,0,1,.19.9.79.79,0,0,1-.68.49,3.23,3.23,0,0,1-.44,0Z"/><path class="cls-4" d="M49.5,21.27c-.25,0-.34,0-.42,0a.84.84,0,0,1-.81-.57.86.86,0,0,1,.34-.94,2.13,2.13,0,0,1,.53-.3,11.37,11.37,0,0,1,2.31-.52A1.89,1.89,0,0,1,52,19a.94.94,0,0,1,.9.81,1,1,0,0,1-.76,1.14,5.23,5.23,0,0,1-.69.12Z"/><path class="cls-8" d="M45,29a6.18,6.18,0,0,1,3.17.76,2.45,2.45,0,0,1,1,1.05,1.92,1.92,0,0,1-.63,2.38,5.35,5.35,0,0,1-2.2,1,7,7,0,0,1-3.65-.11,4,4,0,0,1-1.91-1.19,1.59,1.59,0,0,1-.23-2,2.51,2.51,0,0,1,1-1.06A6.24,6.24,0,0,1,45,29Z"/><path class="cls-8" d="M74.39,35.1a5.82,5.82,0,0,1-3-.72,2.59,2.59,0,0,1-1.1-1.1,1.63,1.63,0,0,1,.19-1.85,3,3,0,0,1,1.08-.91,6.93,6.93,0,0,1,6.07-.15,2.75,2.75,0,0,1,1.24,1.07,1.72,1.72,0,0,1-.17,2.05,3.61,3.61,0,0,1-1.15.94A6.27,6.27,0,0,1,74.39,35.1Z"/><path class="cls-9" d="M59.1,13.87a7.75,7.75,0,0,1-2.9-.73,1.47,1.47,0,0,1-.86-1.31,1.11,1.11,0,0,1,.26-.8,2.27,2.27,0,0,1,.61-.5,4,4,0,0,1,2.06-.38,6.45,6.45,0,0,1,2.19.57,1.75,1.75,0,0,1,1.12,1.14,1.27,1.27,0,0,1-.28,1.24,1.76,1.76,0,0,1-1.21.66Z"/><path class="cls-9" d="M65.52,12.46a5.8,5.8,0,0,1,2,.56,2.48,2.48,0,0,1,.79.65,1.3,1.3,0,0,1-.58,2.07,2.54,2.54,0,0,1-1.47.16,6,6,0,0,1-1.44-.36l-.49-.25A1.43,1.43,0,0,1,63.94,13a.85.85,0,0,1,.49-.38c.2-.05.41-.1.61-.13A3.88,3.88,0,0,1,65.52,12.46Z"/><path class="cls-9" d="M61.26,18.61a6,6,0,0,1-1.7-.33,2.09,2.09,0,0,1-1.08-1,1,1,0,0,1,.44-1.47,1.78,1.78,0,0,1,.75-.2,5.34,5.34,0,0,1,2.1.27,2.18,2.18,0,0,1,.84.56,1.19,1.19,0,0,1-.3,1.88A2.94,2.94,0,0,1,61.26,18.61Z"/><path class="cls-5" d="M24.05,74.08a2.39,2.39,0,0,1,0-4.77,2.39,2.39,0,1,1,0,4.77Z"/><path class="cls-5" d="M25.76,90.71a2.4,2.4,0,0,1,2.39-2.33,2.39,2.39,0,1,1-2.39,2.33Z"/><path class="cls-5" d="M53.86,83.58a2.34,2.34,0,1,1,0-4.68,2.39,2.39,0,0,1,2.39,2.32A2.35,2.35,0,0,1,53.86,83.58Z"/><path class="cls-5" d="M34.23,69.2a1.93,1.93,0,0,1-1.95,1.87,2,2,0,0,1-1.89-1.95,1.93,1.93,0,0,1,2-1.85A1.88,1.88,0,0,1,34.23,69.2Z"/><path class="cls-5" d="M44.34,90.71a1.83,1.83,0,0,1-1.84,1.85,1.9,1.9,0,1,1-.07-3.8A1.82,1.82,0,0,1,44.34,90.71Z"/><path class="cls-5" d="M22.6,84.21a1.77,1.77,0,0,1-1.92-1.85,1.93,1.93,0,0,1,1.95-1.88,2,2,0,0,1,1.86,1.87A1.78,1.78,0,0,1,22.6,84.21Z"/></g></g></svg>