<svg xmlns="http://www.w3.org/2000/svg" viewBox="0 0 102 102"><defs><style>.cls-1{fill:#d67011;}.cls-2{fill:#a84708;}.cls-3{fill:#ffa959;}.cls-4{fill:#421c43;}.cls-5{fill:#ffda95;}.cls-6{fill:#f75e9d;}</style></defs><g id="OBJECTS"><path class="cls-1" d="M43,76.39a10.29,10.29,0,0,1-6.21-1.92,8.46,8.46,0,0,1-2.12-2.1,3.67,3.67,0,0,1-.79-2.5c0-.49-.06-1,0-1.48a10.91,10.91,0,0,1,1.42-4.47,31.67,31.67,0,0,1,2-3.08,19.79,19.79,0,0,1,5.21-4.65,21.42,21.42,0,0,1,3.52-1.76A9.84,9.84,0,0,1,47.52,54a3.4,3.4,0,0,1,3,.73,14.83,14.83,0,0,1,3.81,4.57,12,12,0,0,1,1.37,6.24,10.53,10.53,0,0,1-4.23,7.95,14.54,14.54,0,0,1-7.24,2.89A10.58,10.58,0,0,1,43,76.39Z"/><path class="cls-2" d="M44.06,73.41a12.29,12.29,0,0,1-5.25-.93,3.14,3.14,0,0,1-1.05-.67.91.91,0,0,1-.24-1.14,1,1,0,0,1,1.06-.5,4.08,4.08,0,0,1,.76.21,13.31,13.31,0,0,0,6,.91,8.51,8.51,0,0,0,3.94-1.23,4.75,4.75,0,0,0,.87-.68,3.4,3.4,0,0,1,.34-.32.7.7,0,0,1,.87-.12.77.77,0,0,1,.32,1,3.05,3.05,0,0,1-.62,1,6.69,6.69,0,0,1-2.94,1.9A10.19,10.19,0,0,1,44.06,73.41Z"/><path class="cls-1" d="M67.43,12.11a7.87,7.87,0,0,1-.29,2.09,9.15,9.15,0,0,1-.75,2.15,22.3,22.3,0,0,0-1.82,5.2,26.63,26.63,0,0,0-.47,2.95,6.51,6.51,0,0,1-.16,1.09,1.74,1.74,0,0,1-1.08,1.27,1.49,1.49,0,0,1-1.55-.28,7.4,7.4,0,0,1-1.57-2.15,15.67,15.67,0,0,1-1.16-2.93,18.77,18.77,0,0,1-.8-4.34.88.88,0,0,1,0-.23c.18-1.09.12-2.2.37-3.29a16.2,16.2,0,0,1,.74-2.73,5.47,5.47,0,0,1,3-3.13,3.82,3.82,0,0,1,5.25,2.3A5,5,0,0,1,67.43,12.11Z"/><path class="cls-3" d="M21.43,56.33q0-13.77,0-27.55a10.94,10.94,0,0,1,1-4.59,5.66,5.66,0,0,1,1.72-2.13,7.52,7.52,0,0,1,8.59-.23A6,6,0,0,1,35,24.57a12.23,12.23,0,0,1,.87,4.62V51.77c0,.23,0,.47,0,.71,0,.07,0,.16.09.18s.1,0,.12-.07a7.18,7.18,0,0,1,.77-.79q2.13-2.16,4.23-4.36c.9-.94,1.75-1.95,2.7-2.86a13.53,13.53,0,0,1,1.78-1.77c.76-1,1.75-1.75,2.52-2.72a1.84,1.84,0,0,1,.44-.44,4.16,4.16,0,0,0,.86-.92.51.51,0,0,0,.07-.59c-.19-.43-.37-.87-.54-1.31a16.34,16.34,0,0,1-1.07-7.12,12.67,12.67,0,0,1,2.79-7.24A15.22,15.22,0,0,1,53.14,20a11.51,11.51,0,0,1,5.93-2.36,6.66,6.66,0,0,1,1.41-.12,31.6,31.6,0,0,1,3.2.46c1.14.28,2.3.54,3.44.84a15.68,15.68,0,0,0,2.87.5,9.1,9.1,0,0,0,1.64-.15,5.4,5.4,0,0,0,.7-.13,11.13,11.13,0,0,1,3.45-.29A4.55,4.55,0,0,1,79,20,4.37,4.37,0,0,1,80.3,24.2a8.38,8.38,0,0,1-1.12,2.67A29.1,29.1,0,0,1,76.8,30a63.74,63.74,0,0,1-4.52,4.63c-1.09,1.07-2.24,2.07-3.36,3.11-.46.42-.9.87-1.36,1.31l-3.14,3L61.34,45l-4,3.72c-.37.35-.39.47-.1.87,1.34,1.88,2.69,3.76,4,5.65.83,1.18,1.63,2.39,2.45,3.57,1,1.41,2,2.8,2.95,4.2l3,4.32c.68,1,1.33,2,2,3,.94,1.33,1.92,2.64,2.84,4s2,2.78,2.91,4.22c.53.81,1,1.66,1.5,2.5a12.25,12.25,0,0,1,1.46,3.9,8.86,8.86,0,0,1,0,2.52,3.76,3.76,0,0,1-.3,1,6.7,6.7,0,0,1-2.88,3.14,5.18,5.18,0,0,1-1.86.62,11.2,11.2,0,0,1-3.22.06,7.6,7.6,0,0,1-2.06-.46,8.91,8.91,0,0,1-2.34-1.43,11.92,11.92,0,0,1-2.27-2.69c-.74-1.19-1.48-2.37-2.15-3.59-.36-.64-.78-1.25-1.18-1.86-.23-.36-.48-.69-.71-1-1-1.47-1.94-2.94-2.89-4.42s-1.87-2.92-2.81-4.38c-.57-.88-1.17-1.74-1.75-2.62-.48-.72-.94-1.45-1.42-2.18-.89-1.37-1.78-2.73-2.66-4.1-.43-.66-.83-1.34-1.26-2s-1-1.49-1.47-2.23c-.22-.32-.35-.33-.65-.1l-.29.26c-.71.7-1.41,1.42-2.14,2.1-1.37,1.24-2.63,2.58-4,3.83s-2.44,2.31-3.65,3.48a1.6,1.6,0,0,0-.52,1,17.37,17.37,0,0,0-.18,2.28c0,1.5,0,3,0,4.5a12.45,12.45,0,0,0,.65,3.47,1.68,1.68,0,0,0,.22.42,12.45,12.45,0,0,0,1.42,1.89,5.13,5.13,0,0,0,3.38,1.69,12.32,12.32,0,0,0,2.91,0,12.81,12.81,0,0,0,3.86-1.33c.83-.41,1.63-.86,2.44-1.29a6.6,6.6,0,0,1,1.4-.53,2.78,2.78,0,0,1,1.71.07,1.78,1.78,0,0,1,1.26,1.65A4,4,0,0,1,55,83.91a8.26,8.26,0,0,1-1.91,3.4,18.76,18.76,0,0,1-5.52,4.16,29.17,29.17,0,0,1-6.17,2.35,15.16,15.16,0,0,1-4.13.6,2.61,2.61,0,0,0-.62.06,4.11,4.11,0,0,1-1.26.06A38.85,38.85,0,0,1,30.47,94a18.14,18.14,0,0,1-4.75-1.67,7.45,7.45,0,0,1-2.31-2,8.35,8.35,0,0,1-1.69-3.52A15.73,15.73,0,0,1,21.43,84c0-.45,0-.89,0-1.34Z"/><path class="cls-4" d="M79.92,22.15a4.58,4.58,0,0,1-3.6,4.33,3.18,3.18,0,0,1-1,0,1.17,1.17,0,0,1-.44-.16.58.58,0,0,1,0-1,2,2,0,0,1,.43-.17l.68-.23a2.93,2.93,0,0,0,2-2.4c0-.15.08-.31.1-.46s0-.17-.13-.14l-.15.07A2.8,2.8,0,0,1,74.1,20.7a2.34,2.34,0,0,1-.3-1.58,2.23,2.23,0,0,1,2.75-1.72A3.14,3.14,0,0,1,79,19.66a2.17,2.17,0,0,0,.44.82A1.79,1.79,0,0,1,79.92,22.15Z"/><path class="cls-4" d="M63.34,25.73a2.16,2.16,0,0,1-2.07,2.15,2.31,2.31,0,0,1-2.21-2.15,2.27,2.27,0,0,1,2.17-2.18A2.11,2.11,0,0,1,63.34,25.73Z"/><path class="cls-5" d="M65.73,71a1.25,1.25,0,0,1,.83.34,8.14,8.14,0,0,1,2,2.55,1.48,1.48,0,0,1,0,1.15.63.63,0,0,1-.61.43,1.4,1.4,0,0,1-.89-.25,1.21,1.21,0,0,1-.3-.25c-.65-.8-1.23-1.64-1.8-2.5a.93.93,0,0,1,0-1A.9.9,0,0,1,65.73,71Z"/><path class="cls-5" d="M63.65,78a1,1,0,0,1-.65-.22,2.89,2.89,0,0,1-.4-.38,13,13,0,0,1-1.71-2.63,1.25,1.25,0,0,1-.13-.76.77.77,0,0,1,1.05-.63,1.85,1.85,0,0,1,.58.39A15,15,0,0,1,64.31,76a2,2,0,0,1,.32.71A1.05,1.05,0,0,1,63.65,78Z"/><path class="cls-5" d="M44,51.48a3,3,0,0,1,.11-1,1.44,1.44,0,0,1,.42-.66.94.94,0,0,1,1.48.24,2.08,2.08,0,0,1,.21.59c.11.67.21,1.35.29,2a2.35,2.35,0,0,1,0,.7,1.17,1.17,0,0,1-1,1,1.2,1.2,0,0,1-1.16-.66,1.86,1.86,0,0,1-.16-.45A9,9,0,0,1,44,51.48Z"/><path class="cls-5" d="M24.59,45.68c0-.32,0-.63,0-1a1,1,0,0,1,2-.21A9.06,9.06,0,0,1,27,47.4a1.38,1.38,0,0,1-.62,1.12.74.74,0,0,1-.95,0,1.5,1.5,0,0,1-.65-1A8.32,8.32,0,0,1,24.59,45.68Z"/><path class="cls-5" d="M32.08,46.17c0,.28,0,.57,0,.86a2.21,2.21,0,0,1-.09.46,1.21,1.21,0,0,1-1.15.81,1.29,1.29,0,0,1-1-1A10.88,10.88,0,0,1,29.67,45a2.93,2.93,0,0,1,.21-.92.9.9,0,0,1,1.53-.31,2.42,2.42,0,0,1,.62,1.5c0,.31,0,.63,0,.94Z"/><path class="cls-5" d="M49.53,44.83a1.51,1.51,0,0,1,.16-.76.92.92,0,0,1,1.51-.26,2.27,2.27,0,0,1,.39.58,8.23,8.23,0,0,1,.67,2.42,1.74,1.74,0,0,1-.47,1.37.6.6,0,0,1-.78.17,1.66,1.66,0,0,1-.93-.91A11.67,11.67,0,0,1,49.53,44.83Z"/><path class="cls-5" d="M24.27,60.48c0-.29,0-.57,0-.86a1.28,1.28,0,0,1,.28-.64.9.9,0,0,1,1.47.05,1.61,1.61,0,0,1,.29.55,8.66,8.66,0,0,1,.36,2.63,1.32,1.32,0,0,1-.44,1A1,1,0,0,1,24.78,63a1.86,1.86,0,0,1-.33-.87A11.27,11.27,0,0,1,24.27,60.48Z"/><path class="cls-5" d="M26.68,77.2a2.33,2.33,0,0,1-.47,1.57.7.7,0,0,1-1.09.13,1.74,1.74,0,0,1-.68-1.2,10.91,10.91,0,0,1,0-2.49,1.16,1.16,0,0,1,.91-1.13c.44,0,.9.37,1.06,1a4.24,4.24,0,0,1,.15,1c0,.21,0,.42.05.63S26.66,77.1,26.68,77.2Z"/><path class="cls-5" d="M72.18,87a.91.91,0,0,1-1.29.9,1.71,1.71,0,0,1-.51-.37,11.16,11.16,0,0,1-1.77-2.49,1.57,1.57,0,0,1-.16-.6.77.77,0,0,1,.91-.82,1.52,1.52,0,0,1,.76.4A10.47,10.47,0,0,1,72,86.27,1.39,1.39,0,0,1,72.18,87Z"/><path class="cls-5" d="M29.52,61.69a4.26,4.26,0,0,1,.11-1.33c0-.12.06-.25.1-.38a1.12,1.12,0,0,1,1-.78,1.15,1.15,0,0,1,.94.84,2.65,2.65,0,0,1,.09.62c0,.34.07.69.08,1a2.13,2.13,0,0,1-.74,2,.63.63,0,0,1-.92,0,1.82,1.82,0,0,1-.65-1.3C29.5,62.16,29.52,61.93,29.52,61.69Z"/><path class="cls-5" d="M35.51,89.4a3.54,3.54,0,0,1-.13,1.29,1.06,1.06,0,0,1-1.61.55,1,1,0,0,1-.47-.78,7.33,7.33,0,0,1,.23-2.8,1.38,1.38,0,0,1,.21-.42.83.83,0,0,1,.85-.45.87.87,0,0,1,.75.71,9,9,0,0,1,.17,1.16C35.53,88.87,35.51,89.08,35.51,89.4Z"/><path class="cls-5" d="M30,32.22a5.33,5.33,0,0,1,.18-1.51,1.49,1.49,0,0,1,.47-.8,1,1,0,0,1,1.51.32,2.9,2.9,0,0,1,.22,1.62,6.48,6.48,0,0,0-.1.77,1.89,1.89,0,0,1-.87,1.43.57.57,0,0,1-.79,0A1.56,1.56,0,0,1,30,32.82,6,6,0,0,0,30,32.22Z"/><path class="cls-5" d="M73.18,81.59a1.28,1.28,0,0,1,.89.46,12,12,0,0,1,1.54,1.87,3,3,0,0,1,.27.57.86.86,0,0,1-.26.93.9.9,0,0,1-.93.26,1.39,1.39,0,0,1-.73-.45,13.6,13.6,0,0,1-1.41-2,1.79,1.79,0,0,1-.24-.74A.93.93,0,0,1,73.18,81.59Z"/><path class="cls-5" d="M27,32.15c0,.29,0,.58,0,.87a1.27,1.27,0,0,1-.73,1.13.45.45,0,0,1-.45,0A1.33,1.33,0,0,1,24.92,33c0-.26,0-.52,0-.79v-1.1a2.68,2.68,0,0,1,.27-1.06.86.86,0,0,1,1.39-.18,1.2,1.2,0,0,1,.3.62,3.45,3.45,0,0,1,.11.54c0,.37,0,.74.06,1.1Z"/><path class="cls-5" d="M40,58.7a3.21,3.21,0,0,1-.11.52,1,1,0,0,1-.87.7.91.91,0,0,1-.89-.52,1.93,1.93,0,0,1-.22-.58,9.53,9.53,0,0,1-.17-2.26,1.35,1.35,0,0,1,.17-.68.74.74,0,0,1,1.24-.17,1.56,1.56,0,0,1,.29.46A12.69,12.69,0,0,1,40,58.7Z"/><path class="cls-5" d="M28.44,87.85v1a1.43,1.43,0,0,1-.17.68,1,1,0,0,1-1.68,0,1.34,1.34,0,0,1-.23-.66,8.2,8.2,0,0,1,.06-2,1.9,1.9,0,0,1,.27-.73A.8.8,0,0,1,28,86a1.78,1.78,0,0,1,.35.78A5,5,0,0,1,28.44,87.85Z"/><path class="cls-5" d="M31.26,74.62a1,1,0,0,1,.88.53,1.88,1.88,0,0,1,.25,1,5.71,5.71,0,0,0,.08,1.17,1.4,1.4,0,0,1-.16.92,1,1,0,0,1-1.69.18,1.3,1.3,0,0,1-.31-.79c0-.69,0-1.37,0-2A1,1,0,0,1,31.26,74.62Z"/><path class="cls-5" d="M39.27,89a4.68,4.68,0,0,1,.08-1.14.87.87,0,0,1,.78-.76.93.93,0,0,1,1,.51,1,1,0,0,1,.1.21,5.57,5.57,0,0,1,.29,1.94,1.31,1.31,0,0,1-.68,1.16.72.72,0,0,1-.88,0,1.52,1.52,0,0,1-.63-1.12C39.29,89.48,39.28,89.22,39.27,89Z"/><path class="cls-6" d="M63.81,36a5.4,5.4,0,0,1-5.41,5.4,5.42,5.42,0,0,1,0-10.84A5.43,5.43,0,0,1,63.81,36Z"/><path class="cls-1" d="M46.25,16.81a28.79,28.79,0,0,1,.41-3.59,6,6,0,0,1,2-3.32,3.89,3.89,0,0,1,6.21,1.52A7,7,0,0,1,55.34,15a18.66,18.66,0,0,1-.78,3.22,22.18,22.18,0,0,0-.91,4.86c-.1,1.16-.08,2.31-.1,3.47a2,2,0,0,1-.16.84,1.55,1.55,0,0,1-2.54.6,8.6,8.6,0,0,1-2.06-2.47,20,20,0,0,1-2.17-5.31,6.59,6.59,0,0,1-.25-1.87A11.85,11.85,0,0,1,46.25,16.81Z"/><path class="cls-2" d="M48.45,23.94a23.15,23.15,0,0,1,.45-3.1,12.48,12.48,0,0,1,1.77-4.1,6.94,6.94,0,0,1,3.19-2.6A5,5,0,0,1,55,13.85a.32.32,0,0,1,.38.31,1.83,1.83,0,0,1,0,.47,13.31,13.31,0,0,1-.61,2.92,20.53,20.53,0,0,0-1,4.51c-.11.91-.15,1.83-.19,2.74,0,.61,0,1.21,0,1.82a1.9,1.9,0,0,1-.29,1,1.51,1.51,0,0,1-2.24.5,8,8,0,0,1-1.64-1.69c-.11-.15-.19-.32-.31-.46A3.53,3.53,0,0,1,48.45,23.94Z"/></g></svg>