<svg xmlns="http://www.w3.org/2000/svg" viewBox="0 0 102 102"><defs><style>.cls-1{fill:#ffda95;}.cls-2{fill:#fff;}.cls-3{fill:#421c43;}.cls-4{fill:#ffac1b;}.cls-5{fill:#ffa8d0;}.cls-6{fill:#ff7248;}.cls-7{fill:#c94a28;}</style></defs><g id="OBJECTS"><path class="cls-1" d="M34.47,59.13V33.87a21.1,21.1,0,0,1,.15-3.46,5.58,5.58,0,0,0,0-.71A10.79,10.79,0,0,1,37,23a10.59,10.59,0,0,1,2.1-2,5.87,5.87,0,0,0,1.09-.9,1.28,1.28,0,0,1,.49-.38,18.25,18.25,0,0,1,2.58-1,10.93,10.93,0,0,1,3.61-.09,5.84,5.84,0,0,0,1.25.08,4.33,4.33,0,0,1,2.83.78,24.93,24.93,0,0,1,3.91,3.18c1,1,2,2,3,3A10.8,10.8,0,0,0,61,27.83a9.42,9.42,0,0,0,1.82.5c.82.19,1.64.36,2.46.56a6.17,6.17,0,0,1,4.49,4.25,8.52,8.52,0,0,1,.47,2.39,9.93,9.93,0,0,1-.12,2.5A6.43,6.43,0,0,1,67.67,42a15.18,15.18,0,0,1-4.51,2.4,54,54,0,0,1-8.29,2.23c-1.16.22-2.33.38-3.5.54a3.6,3.6,0,0,1-1.18,0,2.52,2.52,0,0,0-.47-.06.73.73,0,0,0-.82.76c0,.32,0,.63,0,.95V54c0,.21,0,.42,0,.63a.44.44,0,0,0,.2.4,3.15,3.15,0,0,0,.61.36,25.29,25.29,0,0,0,2.54.86c1.12.28,2.23.6,3.35.91a10.57,10.57,0,0,1,2.23,1,4.41,4.41,0,0,1,1.08.79c.35.36.72.7,1.06,1.07a5.13,5.13,0,0,1,1.48,3.56,4.9,4.9,0,0,1-1.27,3.31,7.75,7.75,0,0,1-3.45,2.29,8.86,8.86,0,0,1-2.84.57,2.52,2.52,0,0,0-.55.08,2.55,2.55,0,0,1-.78,0,17.09,17.09,0,0,1-3.33-.59c-.26-.08-.32,0-.34.26v12c0,1-.06,1,1,1H77.22a9.1,9.1,0,0,1,3.75.81A5.69,5.69,0,0,1,83.65,86a4.56,4.56,0,0,1,.41,1.6,5.62,5.62,0,0,1-1,4.35,6.25,6.25,0,0,1-3.6,2.26,7.25,7.25,0,0,1-1.8.19H42.25a9.75,9.75,0,0,1-3.47-.64,5.53,5.53,0,0,1-2.76-2A8,8,0,0,1,34.78,89a17.5,17.5,0,0,1-.31-3.61Z"/><path class="cls-2" d="M39.89,77.61a1.9,1.9,0,0,1-.6,1.41.5.5,0,0,1-.77,0,2,2,0,0,1-.56-.94,4,4,0,0,1-.13-.77c0-.84,0-1.68,0-2.52a1.27,1.27,0,0,1,.14-.61A.69.69,0,0,1,39,74a1.05,1.05,0,0,1,.44.63c.07.33.16.67.21,1C39.74,76.26,39.81,76.94,39.89,77.61Z"/><path class="cls-2" d="M42.21,76.28c0-.36,0-.73,0-1.1a1.68,1.68,0,0,1,.34-1,.63.63,0,0,1,1-.07,1.55,1.55,0,0,1,.44.81,10.81,10.81,0,0,1,.31,2.89,1.1,1.1,0,0,1-.92,1.11A1.15,1.15,0,0,1,42.34,78a2,2,0,0,1-.09-.54c0-.39,0-.78,0-1.18Z"/><path class="cls-2" d="M74.34,88.07a6.39,6.39,0,0,1-1.54-.16c-.18,0-.36-.1-.52-.16a.8.8,0,0,1-.52-.73.82.82,0,0,1,.5-.74A3.05,3.05,0,0,1,73.33,86a4,4,0,0,1,2.73.5,2.12,2.12,0,0,1,.2.12.56.56,0,0,1-.08,1A3.29,3.29,0,0,1,74.34,88.07Z"/><path class="cls-2" d="M61.67,91.82a3.76,3.76,0,0,1-1.26-.13.78.78,0,0,1-.65-.7.8.8,0,0,1,.53-.79,2.12,2.12,0,0,1,.6-.2,13.07,13.07,0,0,1,2.34-.23,1.35,1.35,0,0,1,1.05.46.68.68,0,0,1,0,1,1.16,1.16,0,0,1-.81.44A11,11,0,0,1,61.67,91.82Z"/><path class="cls-2" d="M49.93,92.3a10.55,10.55,0,0,0-1.39-.16,1.4,1.4,0,0,1-.59-.21c-.61-.41-.6-1-.05-1.42a.66.66,0,0,1,.34-.18,6.94,6.94,0,0,1,1.87-.22c.28,0,.57.07.85.1l.24,0a1.18,1.18,0,0,1,.78.9,1.1,1.1,0,0,1-.79,1C50.78,92.21,50.36,92.24,49.93,92.3Z"/><path class="cls-2" d="M73.79,91.82a5.39,5.39,0,0,1-1.55-.12,2,2,0,0,1-.24,0,.88.88,0,0,1-.64-.71.76.76,0,0,1,.54-.78,6,6,0,0,1,1.39-.24,7.43,7.43,0,0,1,1.63.14,1.64,1.64,0,0,1,.71.32.57.57,0,0,1,.06.94,1.45,1.45,0,0,1-1,.5Z"/><path class="cls-2" d="M62.82,87.76c-.25,0-.62,0-1-.08a.94.94,0,0,1-.84-1,.9.9,0,0,1,.69-.85,4.53,4.53,0,0,1,2.63,0,.89.89,0,0,1,.69,1,.7.7,0,0,1-.4.63,1.77,1.77,0,0,1-.81.27Z"/><path class="cls-2" d="M50.26,87.91h-.79a1.43,1.43,0,0,1-.46-.07.8.8,0,0,1-.58-.68.83.83,0,0,1,.44-.86.9.9,0,0,1,.28-.13A4.88,4.88,0,0,1,51.33,86a1.38,1.38,0,0,1,.77.36.71.71,0,0,1,0,1.1,1.31,1.31,0,0,1-.91.41h-.94Z"/><path class="cls-3" d="M65,40.19A6.18,6.18,0,0,1,63,39.68a2,2,0,0,1-.7-.5.57.57,0,0,1-.16-.71.71.71,0,0,1,.74-.47,3.41,3.41,0,0,1,.46.1c.28.06.57.11.84.19A3.39,3.39,0,0,0,66,38.22a3,3,0,0,0,2-1.91,6.48,6.48,0,0,0,.24-.83c.23-.77,0-.73-.58-.83a3.24,3.24,0,0,1-2.18-5.12,2.84,2.84,0,0,1,2.93-1.13,3.27,3.27,0,0,1,2.79,3,2.57,2.57,0,0,1-.25,1.3,3.68,3.68,0,0,1-.31.63,1.09,1.09,0,0,0-.14.84,3.62,3.62,0,0,1-.2,1.93,6.58,6.58,0,0,1-1.58,2.61A5.13,5.13,0,0,1,65,40.19Z"/><path class="cls-3" d="M52.53,32.48a2.16,2.16,0,1,1,0-4.31,2.16,2.16,0,1,1,0,4.31Z"/><path class="cls-4" d="M49,69.47a1.07,1.07,0,0,1-1.36,1,5.13,5.13,0,0,1-.91-.45,22.83,22.83,0,0,1-4-3,22.53,22.53,0,0,1-3.59-4.26,5.52,5.52,0,0,1-.71-1.49,1.24,1.24,0,0,1-.09-.38.78.78,0,0,1,.44-.77.68.68,0,0,1,.81.08,2.91,2.91,0,0,1,.57.64,29.66,29.66,0,0,0,3.17,3.81,24.1,24.1,0,0,0,4.22,3.3,5.69,5.69,0,0,1,1.15.81A1.14,1.14,0,0,1,49,69.47Z"/><path class="cls-4" d="M47.84,28.06a.91.91,0,0,1-.89-.53.8.8,0,0,1,.09-.89,1.44,1.44,0,0,1,.24-.3,13.61,13.61,0,0,1,2.77-1.93,1,1,0,0,1,1.16.16A1,1,0,0,1,51.42,26a2.11,2.11,0,0,1-.51.48,15.25,15.25,0,0,1-2.39,1.37A1.35,1.35,0,0,1,47.84,28.06Z"/><path class="cls-5" d="M53.67,36.68a5.37,5.37,0,0,1,3,.66,2.9,2.9,0,0,1,.34.19,1.92,1.92,0,0,1,.3,3.2,4,4,0,0,1-1.33.81,6.77,6.77,0,0,1-5,.07A4.79,4.79,0,0,1,49.78,41a1.93,1.93,0,0,1,0-3.11,5.57,5.57,0,0,1,3.12-1.17Z"/><path class="cls-6" d="M38.74,7.63a8.87,8.87,0,0,1,5.6,1.89,13.19,13.19,0,0,1,2.09,1.93,7.65,7.65,0,0,1,1.43,2.61,9.39,9.39,0,0,1,.57,3.64,3.43,3.43,0,0,1-.06.55,1,1,0,0,1-.68.8c-.15,0-.3.12-.44.17a8.66,8.66,0,0,0-4.86,4.7,15,15,0,0,0-1.34,4.6A13.19,13.19,0,0,0,40.87,31a20.7,20.7,0,0,0,.73,5.13c.16.5.31,1,.48,1.5a13.23,13.23,0,0,0,2.46,4.11,21.47,21.47,0,0,0,3.55,3.45,13,13,0,0,0,2.73,1.56,9.11,9.11,0,0,1,4.78,4.39,6,6,0,0,1,.67,2.65,7.92,7.92,0,0,1-.88,3.88,5.45,5.45,0,0,1-4,2.82,6.84,6.84,0,0,1-5.13-1.29,8.47,8.47,0,0,1-2.91-3.37.91.91,0,0,0-.07-.14c-.18-.36-.19-.37-.49-.13A9.15,9.15,0,0,1,40,57.1a5.93,5.93,0,0,1-4.23,0c-.37-.14-.74-.28-1.09-.45a5.74,5.74,0,0,1-3.22-4.83,11.45,11.45,0,0,1,1.23-6.32c.08-.17.16-.34.22-.51a.12.12,0,0,0-.1-.17l-.55,0a9.34,9.34,0,0,1-5.53-2A6.37,6.37,0,0,1,24.37,38a8,8,0,0,1,1.55-5A11.69,11.69,0,0,1,28,30.72c.35-.3.34-.29,0-.63a11.75,11.75,0,0,1-1.17-1.17,6.53,6.53,0,0,1-1.6-4.34,4.31,4.31,0,0,1,.28-1.47,7.82,7.82,0,0,1,6-5.24,12.65,12.65,0,0,1,2-.15c.26,0,.31-.11.17-.36a8.09,8.09,0,0,1-1-3.68A5.6,5.6,0,0,1,33,11.51a5.71,5.71,0,0,1,3.7-3.61A5.26,5.26,0,0,1,38.74,7.63Z"/><path class="cls-7" d="M40.49,17.23a1.08,1.08,0,0,1-1.37,1.11,1.6,1.6,0,0,1-.74-.44,14.67,14.67,0,0,1-1.62-2.22,4.69,4.69,0,0,1-.34-.8A1,1,0,0,1,38,13.76a4.75,4.75,0,0,1,.4.38,19.64,19.64,0,0,1,1.74,2.23A2.06,2.06,0,0,1,40.49,17.23Z"/><path class="cls-7" d="M44.49,15.06a1.11,1.11,0,0,1-.57,1A1.18,1.18,0,0,1,42.66,16a1.72,1.72,0,0,1-.32-.34,17.81,17.81,0,0,1-1.59-2.43,2,2,0,0,1-.21-.5,1,1,0,0,1,.35-1.06.94.94,0,0,1,1.1-.11,2.22,2.22,0,0,1,.57.42,12.06,12.06,0,0,1,1.76,2.49A1.26,1.26,0,0,1,44.49,15.06Z"/><path class="cls-7" d="M30.52,38.64a1.19,1.19,0,0,1-1.23-.74,1.2,1.2,0,0,1,.62-1.18,2.08,2.08,0,0,1,.43-.19,18.18,18.18,0,0,1,3.34-.85,1.13,1.13,0,0,1,.88.2.85.85,0,0,1,0,1.45,3.94,3.94,0,0,1-.77.38,24.7,24.7,0,0,1-2.93.88A3,3,0,0,1,30.52,38.64Z"/><path class="cls-7" d="M46.15,54a7.75,7.75,0,0,1,1.05-3,1,1,0,0,1,1.08-.48,1,1,0,0,1,.62,1.07,13,13,0,0,1-.49,2.31,6.55,6.55,0,0,1-.27.74,1.35,1.35,0,0,1-.61.7.83.83,0,0,1-1.25-.38A2.23,2.23,0,0,1,46.15,54Z"/><path class="cls-7" d="M35.6,48.75A2,2,0,0,1,36,47.53a13.31,13.31,0,0,1,2.05-2.06,1.79,1.79,0,0,1,.62-.34.76.76,0,0,1,1,.93,1.86,1.86,0,0,1-.44.83c-.53.65-1.07,1.29-1.61,1.94a2,2,0,0,1-1.24.61C35.9,49.54,35.59,49.27,35.6,48.75Z"/><path class="cls-7" d="M39.4,51.94a1.4,1.4,0,0,1,.17-.84,10.13,10.13,0,0,1,1.93-2.25,1.5,1.5,0,0,1,.25-.19.88.88,0,0,1,1,0,.82.82,0,0,1,.36.89,2,2,0,0,1-.23.66,11.66,11.66,0,0,1-1.47,2,1.93,1.93,0,0,1-1,.55.69.69,0,0,1-1-.71C39.4,52,39.4,51.93,39.4,51.94Z"/><path class="cls-7" d="M33.74,26.16a7.87,7.87,0,0,1-2.64-.85,1.88,1.88,0,0,1-.71-.82.58.58,0,0,1,.16-.83,1.5,1.5,0,0,1,1.25-.33,8.69,8.69,0,0,1,2.79,1.22.9.9,0,0,1,.42.71.79.79,0,0,1-.77.9C34.14,26.17,34,26.16,33.74,26.16Z"/><path class="cls-7" d="M32,41.36a.91.91,0,0,1,.32-.76l.38-.29a10,10,0,0,1,2-.93,1.68,1.68,0,0,1,.77-.14,1,1,0,0,1,.83.62.87.87,0,0,1-.27,1,8.12,8.12,0,0,1-2.77,1.43A1.11,1.11,0,0,1,32.12,42,.66.66,0,0,1,32,41.36Z"/><path class="cls-7" d="M53.3,53.48a7.63,7.63,0,0,1-.5,2.21,1.15,1.15,0,0,1-.46.54.94.94,0,0,1-1.4-.36,1.19,1.19,0,0,1-.15-.76,10.07,10.07,0,0,1,.59-2.28,1.43,1.43,0,0,1,.38-.59.87.87,0,0,1,1.41.39A2,2,0,0,1,53.3,53.48Z"/><path class="cls-7" d="M33.63,19.55a3.19,3.19,0,0,1,.34.09A7.25,7.25,0,0,1,36.26,21a1.86,1.86,0,0,1,.27.29.8.8,0,0,1,0,.95.88.88,0,0,1-.89.38,2.32,2.32,0,0,1-.45-.13c-.63-.31-1.27-.61-1.9-.95a1.58,1.58,0,0,1-.82-1.1.56.56,0,0,1,.19-.56A1.79,1.79,0,0,1,33.63,19.55Z"/><path class="cls-4" d="M29.14,34.85a9.59,9.59,0,0,1-2.81-.46,2.24,2.24,0,0,1-.78-.37A8.35,8.35,0,0,1,23,31.49a2.3,2.3,0,0,1-.36-1.19,4.45,4.45,0,0,1,.09-1.41,3.8,3.8,0,0,1,1.49-2.07,4.08,4.08,0,0,1,2-.7,9.68,9.68,0,0,1,4.26.59,16.2,16.2,0,0,1,3.59,1.95,7.11,7.11,0,0,1,1.27,1.18,3.05,3.05,0,0,1,.56.95,1.61,1.61,0,0,1-.52,2,7.2,7.2,0,0,1-1.53,1,14.84,14.84,0,0,1-3.06,1A9,9,0,0,1,29.14,34.85Z"/><path class="cls-1" d="M29.16,34.85a9.67,9.67,0,0,1-2.86-.47,2.5,2.5,0,0,1-.85-.42A8,8,0,0,1,23,31.46a2.27,2.27,0,0,1-.19-.34c-.31-.69-.18-1,.52-1.28a6.1,6.1,0,0,1,1.83-.43,8.92,8.92,0,0,1,1.25-.11,16.47,16.47,0,0,1,3.27.5,15.65,15.65,0,0,1,5,2.54l.31.25A.25.25,0,0,1,35,33a5.18,5.18,0,0,1-.84.57A10.52,10.52,0,0,1,29.16,34.85Z"/><path class="cls-4" d="M28,75.24a20.17,20.17,0,0,0-.17-3.16A6.1,6.1,0,0,0,27.19,70a4.76,4.76,0,0,0-1.94-1.81c-.3-.16-.61-.3-.91-.47a3,3,0,0,1-.52-.35.69.69,0,0,1-.31-.75.88.88,0,0,1,.78-.7,4.72,4.72,0,0,1,1.94.16,6.24,6.24,0,0,1,3.34,2.87,9.41,9.41,0,0,1,1,3.14,19.13,19.13,0,0,1,.17,2.51c0,1.15.09,2.31.16,3.46a3.57,3.57,0,0,0,.21.84,8.45,8.45,0,0,0,1.18,2.48,4.69,4.69,0,0,0,2.92,2,8.33,8.33,0,0,0,1.73.06c.34,0,.69,0,1,0a1.36,1.36,0,0,1,1.13,2,1.18,1.18,0,0,1-.68.62,6.87,6.87,0,0,1-2.6.57,9.19,9.19,0,0,1-1.66-.06,6,6,0,0,1-2.61-1.25A8.43,8.43,0,0,1,29.05,82a14.4,14.4,0,0,1-.92-3.82C28,77.13,28.06,76.14,28,75.24Z"/><path class="cls-1" d="M22.91,70.83a9.75,9.75,0,0,1-2.79-.51,3.82,3.82,0,0,1-1.6-1.12,2.7,2.7,0,0,1,.76-4.13c.39-.21.82-.35,1.23-.53a.17.17,0,0,0,.09-.25c-.12-.21-.23-.42-.36-.62a4.89,4.89,0,0,1-.84-2.43,2.82,2.82,0,0,1,2.08-3.06,3.73,3.73,0,0,1,2.88.45,6.94,6.94,0,0,1,2.21,2,10.18,10.18,0,0,1,1.92,4.28,4.72,4.72,0,0,1-2,4.88A6.93,6.93,0,0,1,22.91,70.83Z"/><path class="cls-4" d="M23,61.15a1,1,0,0,1,.77.29,11.83,11.83,0,0,1,2.17,2.46.87.87,0,0,1-.13,1.21.94.94,0,0,1-1.28.12,2.4,2.4,0,0,1-.26-.18,10.48,10.48,0,0,1-2-2.41,1,1,0,0,1-.11-1A.89.89,0,0,1,23,61.15Z"/><path class="cls-4" d="M23.83,69.12a23.49,23.49,0,0,1-3-.57,3.22,3.22,0,0,1-.5-.23.75.75,0,0,1-.44-.7.77.77,0,0,1,.59-.67,1.1,1.1,0,0,1,.62-.07,21.61,21.61,0,0,0,2.67.14,2.2,2.2,0,0,1,.75.2,1,1,0,0,1,.62,1,1.13,1.13,0,0,1-.83.87A3.57,3.57,0,0,1,23.83,69.12Z"/></g></svg>