<svg xmlns="http://www.w3.org/2000/svg" viewBox="0 0 102 102"><defs><style>.cls-1{fill:#e4e4e5;}.cls-2{fill:#fff;}.cls-3{fill:#bdbdbe;}.cls-4{fill:#828283;}.cls-5{fill:#421c43;}.cls-6{fill:#f75e9d;}.cls-7{fill:#ffda95;}.cls-8{fill:#ffac1b;}.cls-9{fill:#ffa8d0;}</style></defs><g id="OBJECTS"><path class="cls-1" d="M72.93,28.45a5.27,5.27,0,0,0,0,1.19A3.43,3.43,0,0,0,74.78,32a6,6,0,0,0,1.52.58,14.86,14.86,0,0,0,2.4.41,10.32,10.32,0,0,0,1.24.08,11.37,11.37,0,0,0,5.92-1.75,7.26,7.26,0,0,0,3.21-4.94,6.84,6.84,0,0,0,.14-1.49,6.51,6.51,0,0,0-1.82-4.53,7.48,7.48,0,0,0-4.28-2.26,6.57,6.57,0,0,0-3,.26,8.37,8.37,0,0,0-2.86,1.51,11.35,11.35,0,0,0-3.43,4.31,9.53,9.53,0,0,0-.93,3.86Z"/><path class="cls-2" d="M82.58,20.43a7.49,7.49,0,0,0-4.69,1.74,3.83,3.83,0,0,0-.66.83.72.72,0,0,0-.1.29.52.52,0,0,0,.71.58,4.38,4.38,0,0,0,.81-.47,7.05,7.05,0,0,1,1.64-.89,6.07,6.07,0,0,1,3.07-.35,9.77,9.77,0,0,1,1.76.41.88.88,0,0,0,.48.09.76.76,0,0,0,.3-1.38,4.18,4.18,0,0,0-.56-.28A8.88,8.88,0,0,0,82.58,20.43Z"/><path class="cls-3" d="M26.91,52.08q0-10.84,0-21.7a13.16,13.16,0,0,1,.17-2.08,5.82,5.82,0,0,1,.76-2.15,3.9,3.9,0,0,1,1.69-1.5,9.43,9.43,0,0,1,2.5-.72,18.59,18.59,0,0,1,3.16-.22c.42,0,.85,0,1.27,0,1.09-.05,2.16.08,3.24.13a10.19,10.19,0,0,1,2.31.41,3.85,3.85,0,0,1,2.39,2.06,14.39,14.39,0,0,1,.86,2.38c.07.22.13.45.19.67.19.68.41,1.34.57,2,.23,1,.57,1.91.74,2.89.08.44.25.86.37,1.28.39,1.43.8,2.86,1.17,4.3.56,2.24,1.21,4.45,1.78,6.69.38,1.47.82,2.94,1.11,4.44.17.85.49,1.67.69,2.51.37,1.52.86,3,1.2,4.55.16.7.39,1.38.59,2.08.06.2.13.4.19.6.24-.15.18-.41.25-.62A21.9,21.9,0,0,0,54.67,58c.19-.8.44-1.59.66-2.39s.37-1.52.61-2.27c.49-1.55.79-3.16,1.22-4.73.31-1.12.63-2.25.91-3.38s.66-2.41,1-3.62.63-2.2.88-3.31.58-2,.83-3.07c.29-1.24.68-2.45,1-3.68s.72-2.4,1-3.61a7,7,0,0,1,.86-2A3.79,3.79,0,0,1,66,24.18a18.6,18.6,0,0,1,2.89-.39c1.46-.11,2.92-.06,4.38-.07a22.4,22.4,0,0,1,2.59.19c.87.08,1.72.24,2.58.39a10.83,10.83,0,0,1,4.68,2,14,14,0,0,1,1.57,1.29,14.54,14.54,0,0,1,2,2.3c.51.76,1,1.54,1.42,2.34a17.15,17.15,0,0,0,1.58,2.31,7.35,7.35,0,0,0,1.13,1.1,16.21,16.21,0,0,1,1.84,1.67,3.7,3.7,0,0,1,1,1.6,3,3,0,0,1-.73,2.89,5.68,5.68,0,0,1-1.64,1.28,14.87,14.87,0,0,1-4.79,1.64c-.84.13-1.68.26-2.52.34-.61.05-1.23,0-1.84,0-.34,0-.68,0-1,0s-.3.08-.31.31,0,.42,0,.64q0,14.19,0,28.38a8.27,8.27,0,0,1-1,3.84A3.44,3.44,0,0,1,79,79.35a4.81,4.81,0,0,1-2.56,1.18,9.07,9.07,0,0,1-2.21,0,3.42,3.42,0,0,1-1.07-.38,5,5,0,0,1-2.49-2.76,9.54,9.54,0,0,1-.56-3.3V38.61a1.19,1.19,0,0,0-.07-.7c-.07.21-.16.43-.22.65-.32,1.26-.61,2.52-1,3.76-.4,1.43-.65,2.89-1,4.33s-.8,3-1.17,4.55c-.29,1.2-.64,2.38-.91,3.57s-.7,2.63-1,3.95c-.24,1.05-.59,2.08-.81,3.13-.4,1.89-1,3.72-1.36,5.62-.07.4-.22.78-.31,1.17-.34,1.44-.75,2.87-1.09,4.31-.28,1.18-.7,2.31-1,3.47a5,5,0,0,1-.91,1.6,6.27,6.27,0,0,1-2.39,2,4.23,4.23,0,0,1-1.77.46c-.23,0-.46.08-.7.09a8,8,0,0,1-2.58-.27A5.88,5.88,0,0,1,50,79.4a6.32,6.32,0,0,1-1.81-2.1,14.28,14.28,0,0,1-1.35-3.55c-.39-1.39-.75-2.79-1.1-4.18s-.66-2.55-.92-3.83-.62-2.25-.86-3.39-.58-2.21-.84-3.32-.63-2.34-.89-3.51c-.36-1.62-.87-3.19-1.19-4.82-.09-.41-.24-.81-.34-1.22-.37-1.44-.75-2.87-1.09-4.31-.25-1-.44-2-.71-3-.35-1.28-.67-2.58-1-3.87l-.12-.43a1.22,1.22,0,0,0-.07-.17.8.8,0,0,0,0,.15c0,.19,0,.38,0,.57q0,18,0,36a8.19,8.19,0,0,1-.54,3,4.77,4.77,0,0,1-3.23,3,5.08,5.08,0,0,1-2.39.15c-.22,0-.46,0-.69-.1a4.7,4.7,0,0,1-3.2-2.75,9.32,9.32,0,0,1-.7-3.72V52.08Z"/><path class="cls-4" d="M17.52,64.93a21.64,21.64,0,0,1,.91-6.54,24.84,24.84,0,0,0,.89-4.28,10.13,10.13,0,0,0-.76-4.9A6.43,6.43,0,0,0,17,47a6.26,6.26,0,0,0-1.49-1.07,3.74,3.74,0,0,0-1.6-.39,5.82,5.82,0,0,0-4.47,1.6,3.9,3.9,0,0,1-.61.46.69.69,0,0,1-.83-.1.75.75,0,0,1-.31-.78A1.62,1.62,0,0,1,8,46.17a5.16,5.16,0,0,1,1.43-1.44,9.25,9.25,0,0,1,3.19-1.19,7.58,7.58,0,0,1,6.05,2,11,11,0,0,1,2.91,5.27,10,10,0,0,1,.13,3.28,30.11,30.11,0,0,1-.79,4.11,27.07,27.07,0,0,0-.76,4.19,15.69,15.69,0,0,0,.06,3.49,13.46,13.46,0,0,0,.39,2,9.61,9.61,0,0,0,2.12,3.87,7.22,7.22,0,0,0,2.73,1.81,10.64,10.64,0,0,0,1.65.46,4.58,4.58,0,0,0,1.65,0c.23,0,.46-.06.69-.12a1.62,1.62,0,0,1,.62,0A1.25,1.25,0,0,1,30.73,76a2.31,2.31,0,0,1-.92.65,3.85,3.85,0,0,1-1,.26,7.78,7.78,0,0,1-3.32-.34L23.76,76A8.17,8.17,0,0,1,20,73.14a11.85,11.85,0,0,1-2.27-5.39,15.23,15.23,0,0,1-.21-1.51C17.49,65.74,17.52,65.23,17.52,64.93Z"/><path class="cls-4" d="M73.15,47.15a1.51,1.51,0,0,1-1.1-.43A.45.45,0,0,1,72,46a1.66,1.66,0,0,1,1.18-.56A6.14,6.14,0,0,0,75,45.08a6.45,6.45,0,0,0,2.89-2.21c.37-.52.7-1.06,1-1.6a9.85,9.85,0,0,1,1.84-2.33,5.41,5.41,0,0,1,2.56-1.2,3.28,3.28,0,0,1,.7,0,.9.9,0,0,1,.47.17.44.44,0,0,1,0,.75,1.57,1.57,0,0,1-.46.2,4.94,4.94,0,0,0-3,2.3,33.39,33.39,0,0,1-1.92,2.92,8.4,8.4,0,0,1-1.9,1.77,8.15,8.15,0,0,1-2.17,1A7.12,7.12,0,0,1,73.15,47.15Z"/><path class="cls-4" d="M78.08,48.66l-.16,0a.74.74,0,0,1-.65-.53.73.73,0,0,1,.3-.77,2.38,2.38,0,0,1,.5-.26,5.38,5.38,0,0,0,1.58-1,21.33,21.33,0,0,0,2.88-3.54,7.6,7.6,0,0,1,1.08-1.32,4.29,4.29,0,0,1,1.82-1,.73.73,0,0,1,.71.14.44.44,0,0,1,0,.71,1.09,1.09,0,0,1-.29.24,5.38,5.38,0,0,0-2,2,29.79,29.79,0,0,1-1.71,2.45A11.24,11.24,0,0,1,79.7,48a3.75,3.75,0,0,1-1.34.56Z"/><path class="cls-1" d="M43.2,44.38a.49.49,0,0,1,0,.12.91.91,0,0,1-.61.82.93.93,0,0,1-.92-.44.8.8,0,0,1-.13-.22A7.3,7.3,0,0,1,41,42.45a1.2,1.2,0,0,1,0-.38.7.7,0,0,1,1-.39.93.93,0,0,1,.36.35A6.64,6.64,0,0,1,43.2,44.38Z"/><path class="cls-1" d="M32.92,56.28v-.76a1.62,1.62,0,0,1,.16-.68.73.73,0,0,1,.66-.43.69.69,0,0,1,.61.39,3.21,3.21,0,0,1,.34,1.28,11,11,0,0,1,0,1.15.91.91,0,0,1-.21.59A.81.81,0,0,1,33,57.6a2.68,2.68,0,0,1-.11-.55C32.91,56.79,32.92,56.54,32.92,56.28Z"/><path class="cls-1" d="M61.55,44.91A7,7,0,0,1,61,47a1.09,1.09,0,0,1-.9.6,1.22,1.22,0,0,1-.7-.91,1.53,1.53,0,0,1,0-.37,9.49,9.49,0,0,1,.48-1.57,1.86,1.86,0,0,1,.29-.49A.72.72,0,0,1,61,44a.78.78,0,0,1,.52.72Z"/><path class="cls-1" d="M30.52,67.75c0,.27,0,.55,0,.82a.89.89,0,0,1-.24.58A.77.77,0,0,1,29,69a1,1,0,0,1-.18-.54,7.05,7.05,0,0,1,.1-2.15,1.48,1.48,0,0,1,.22-.52.61.61,0,0,1,.94-.09.93.93,0,0,1,.29.55A7.92,7.92,0,0,1,30.52,67.75Z"/><path class="cls-1" d="M28.08,44.84a5.67,5.67,0,0,1,.12-1.33,1,1,0,0,1,.44-.74.48.48,0,0,1,.68.07.78.78,0,0,1,.27.49,12.09,12.09,0,0,1,.14,2.4,1,1,0,0,1-.21.52.72.72,0,0,1-1.25-.06,1.28,1.28,0,0,1-.18-.66C28.08,45.32,28.08,45.11,28.08,44.84Z"/><path class="cls-1" d="M47.17,44a1.14,1.14,0,0,1-.19.69.7.7,0,0,1-1.18.07,3.23,3.23,0,0,1-.47-1c-.11-.32-.2-.65-.28-1a1.08,1.08,0,0,1,.25-1.07.66.66,0,0,1,1,0,1.58,1.58,0,0,1,.26.36,6.72,6.72,0,0,1,.58,1.74A.53.53,0,0,1,47.17,44Z"/><path class="cls-1" d="M34.57,31.54a2.46,2.46,0,0,1-.17,1.17,1.48,1.48,0,0,1-.27.43A.66.66,0,0,1,33,33a2.41,2.41,0,0,1-.24-.91,3.79,3.79,0,0,1,.12-1.5,1.05,1.05,0,0,1,.28-.49.75.75,0,0,1,1.26.33A2.87,2.87,0,0,1,34.57,31.54Z"/><path class="cls-1" d="M47,58a1.21,1.21,0,0,1-.21.79.54.54,0,0,1-.67.21,1.31,1.31,0,0,1-.78-.7,6.65,6.65,0,0,1-.51-1.64,1,1,0,0,1,.51-.94.76.76,0,0,1,1,.26A4.69,4.69,0,0,1,47,58Z"/><path class="cls-1" d="M32.79,44.87a3.33,3.33,0,0,1,.13-1.14,1.1,1.1,0,0,1,.39-.64.53.53,0,0,1,.7,0,1,1,0,0,1,.44.6,4.92,4.92,0,0,1,.11,1.83,1.09,1.09,0,0,1-.88,1c-.4,0-.84-.49-.88-1A5.28,5.28,0,0,1,32.79,44.87Z"/><path class="cls-1" d="M33,67.61v-.7a1,1,0,0,1,.14-.55.65.65,0,0,1,1.14,0,1.5,1.5,0,0,1,.18.41,6.6,6.6,0,0,1,.24,1.88,1,1,0,0,1-.17.6.76.76,0,0,1-.75.38.71.71,0,0,1-.65-.52,2.06,2.06,0,0,1-.13-.69v-.76Z"/><path class="cls-1" d="M58.28,56.87a5.34,5.34,0,0,1-.41,1.75.14.14,0,0,1,0,.06.88.88,0,0,1-1,.52,1,1,0,0,1-.68-1,4.22,4.22,0,0,1,.61-1.85,2.27,2.27,0,0,1,.26-.28.69.69,0,0,1,1.18.35A2.17,2.17,0,0,1,58.28,56.87Z"/><path class="cls-1" d="M30.28,56.93a2.63,2.63,0,0,1-.12.69.81.81,0,0,1-.68.58.88.88,0,0,1-.78-.57l0-.12a5.5,5.5,0,0,1,0-2.32.82.82,0,0,1,.3-.47.55.55,0,0,1,.87.12,1.49,1.49,0,0,1,.2.53C30.14,55.89,30.2,56.41,30.28,56.93Z"/><path class="cls-1" d="M74,52.86A3,3,0,0,1,74,53.93c-.13.43-.34.6-.71.61a.74.74,0,0,1-.77-.55,1,1,0,0,1-.08-.24,5.6,5.6,0,0,1,.09-2.08.88.88,0,0,1,.21-.39.69.69,0,0,1,1.12.15,1.87,1.87,0,0,1,.21.8Z"/><path class="cls-1" d="M63.32,47.45a4.5,4.5,0,0,1,.58-1.85,1.54,1.54,0,0,1,.17-.19.69.69,0,0,1,1.21.24,1,1,0,0,1,.08.56A6.76,6.76,0,0,1,65,47.86a.83.83,0,0,1-.7.56.78.78,0,0,1-.93-.72A2.08,2.08,0,0,1,63.32,47.45Z"/><path class="cls-1" d="M50.77,57.35a2.32,2.32,0,0,1-.05.38.81.81,0,0,1-.67.6.77.77,0,0,1-.82-.35,1.32,1.32,0,0,1-.18-.33A4.24,4.24,0,0,1,48.77,56a.88.88,0,0,1,.36-.77.6.6,0,0,1,.76,0,1.09,1.09,0,0,1,.35.36A4.77,4.77,0,0,1,50.77,57.35Z"/><path class="cls-1" d="M49.33,69.17a.93.93,0,0,1-.13.53.77.77,0,0,1-1.28.16,1.22,1.22,0,0,1-.27-.42,4.2,4.2,0,0,1-.24-1.86.71.71,0,0,1,.51-.65.66.66,0,0,1,.74.21,1,1,0,0,1,.15.2A5.56,5.56,0,0,1,49.33,69.17Z"/><path class="cls-1" d="M60.76,58.78a3.09,3.09,0,0,1,.57-1.52.75.75,0,0,1,1.28,0,1.06,1.06,0,0,1,.21.78c-.07.4-.17.79-.26,1.18a.94.94,0,0,1-.1.23.91.91,0,0,1-1,.49.92.92,0,0,1-.74-.91A1.64,1.64,0,0,1,60.76,58.78Z"/><path class="cls-1" d="M76.58,63a3.1,3.1,0,0,1,.1-1,1.55,1.55,0,0,1,.13-.36A.65.65,0,0,1,78,61.59a1.6,1.6,0,0,1,.29.83,6.39,6.39,0,0,0,.09.75,1.61,1.61,0,0,1-.53,1.37.43.43,0,0,1-.63,0,1.45,1.45,0,0,1-.59-1C76.57,63.36,76.58,63.19,76.58,63Z"/><path class="cls-1" d="M28.44,32c0-.19,0-.38,0-.57a1.7,1.7,0,0,1,.09-.5.69.69,0,0,1,1.21-.21,1.16,1.16,0,0,1,.25.51,4.81,4.81,0,0,1,.13,1.51,1.62,1.62,0,0,1-.34.87.49.49,0,0,1-.77.1,1.32,1.32,0,0,1-.57-1.14V32Z"/><path class="cls-1" d="M72.59,63a4,4,0,0,1,.13-1.14c0-.06,0-.12,0-.18a.68.68,0,0,1,.61-.48.66.66,0,0,1,.63.45.56.56,0,0,1,0,.12,7,7,0,0,1,.22,1.88,1.41,1.41,0,0,1-.12.49.73.73,0,0,1-1.29.13,1.1,1.1,0,0,1-.23-.58C72.61,63.44,72.6,63.21,72.59,63Z"/><path class="cls-1" d="M52.87,68.31a2.25,2.25,0,0,1,.2-1.07,1.11,1.11,0,0,1,.31-.4.57.57,0,0,1,.7,0,1,1,0,0,1,.41.55A4,4,0,0,1,54.66,69a1.56,1.56,0,0,1-.1.37.92.92,0,0,1-.78.56.9.9,0,0,1-.76-.58A2.48,2.48,0,0,1,52.87,68.31Z"/><path class="cls-1" d="M38.88,31.22a2.16,2.16,0,0,1,0-.27,1,1,0,0,1,.07-.3A.59.59,0,0,1,40,30.51a1.44,1.44,0,0,1,.2.39c.15.51.29,1,.43,1.52a.94.94,0,0,1,0,.62.71.71,0,0,1-1.27.17,1.47,1.47,0,0,1-.25-.5A5.17,5.17,0,0,1,38.88,31.22Z"/><path class="cls-1" d="M59.93,68.37a2.78,2.78,0,0,1-.23,1.07.92.92,0,0,1-.78.56.75.75,0,0,1-.7-.37A1,1,0,0,1,58,69a3,3,0,0,1,.38-1.45.75.75,0,0,1,.78-.43.77.77,0,0,1,.65.54A1.87,1.87,0,0,1,59.93,68.37Z"/><path class="cls-1" d="M78,52.92c0,.17,0,.33,0,.5a1.19,1.19,0,0,1-.53.9.42.42,0,0,1-.53,0,1.19,1.19,0,0,1-.42-.54,2.48,2.48,0,0,1-.18-1,6.46,6.46,0,0,1,.11-.75,1.2,1.2,0,0,1,.18-.4.65.65,0,0,1,1.2.11,2.56,2.56,0,0,1,.18,1v.26Z"/><path class="cls-1" d="M44.14,32.13a.81.81,0,0,1-.11.43.67.67,0,0,1-1.18.09.91.91,0,0,1-.09-.17,4.76,4.76,0,0,1-.32-1.54.88.88,0,0,1,.22-.64.6.6,0,0,1,1,0,.92.92,0,0,1,.13.21A5.56,5.56,0,0,1,44.14,32.13Z"/><path class="cls-5" d="M90.7,42.7a3.66,3.66,0,0,1-2.46-.9,1.2,1.2,0,0,1-.45-.61.59.59,0,0,1,.13-.64.55.55,0,0,1,.65-.08l.44.26a2.92,2.92,0,0,0,1.76.42A2.21,2.21,0,0,0,92,40.59a.86.86,0,0,0,.23-.3.15.15,0,0,0-.08-.21l-.12,0A2.68,2.68,0,0,1,90,38,2.08,2.08,0,0,1,90,36.44a1.84,1.84,0,0,1,1.46-1.09,1,1,0,0,1,.25,0A2.91,2.91,0,0,1,94.17,39c-.22.53-.37,1.06-.54,1.61a2.77,2.77,0,0,1-1.58,1.87A3.61,3.61,0,0,1,90.7,42.7Z"/><path class="cls-5" d="M81.44,34.45a1.73,1.73,0,1,1-3.46,0,1.74,1.74,0,0,1,1.75-1.72A1.71,1.71,0,0,1,81.44,34.45Z"/><path class="cls-6" d="M76.6,39.57a4.35,4.35,0,1,1-4.35-4.37A4.3,4.3,0,0,1,76.6,39.57Z"/><path class="cls-7" d="M89.86,83.92c-1.39-.14-2.8-.06-4.19-.15s-2.5,0-3.75-.12-2.54-.05-3.81-.14c-.93-.07-1.86,0-2.79-.12s-2-.06-3-.19c-.61-.07-1.23,0-1.84-.14s-1-.1-1.45-.18a1,1,0,0,1-.85-.67.79.79,0,0,1,0-.67l.38-.81c.7-1.56,1.36-3.15,2.1-4.7.93-2,1.8-3.92,2.72-5.88.36-.74.77-1.46,1.17-2.18a2.56,2.56,0,0,1,.33-.46.72.72,0,0,1,1-.19,6.12,6.12,0,0,1,.79.54c.39.32.78.65,1.15,1,1.2,1.11,2.39,2.21,3.58,3.33.65.61,1.26,1.27,1.91,1.87,1.18,1.09,2.31,2.25,3.49,3.34s2,2,3.06,3c.46.44.93.87,1.4,1.3a2,2,0,0,1,.5.8,1.05,1.05,0,0,1-.88,1.45A7.51,7.51,0,0,1,89.86,83.92Z"/><path class="cls-8" d="M85.64,78.75a2.88,2.88,0,0,1-2,2.58,1.67,1.67,0,0,1-2-1.53,3,3,0,0,1,2-2.83,1.67,1.67,0,0,1,2,1.5A2.5,2.5,0,0,0,85.64,78.75Z"/><path class="cls-8" d="M76.34,70.83a1.76,1.76,0,0,1,.9.21A1.35,1.35,0,0,1,78,72.39a3.41,3.41,0,0,1-1.61,2.67,1.52,1.52,0,0,1-2.36-1.29,3.2,3.2,0,0,1,.78-2.22A1.88,1.88,0,0,1,76.34,70.83Z"/><path class="cls-8" d="M70.06,79.89a2.54,2.54,0,0,1,.64-1.49,3.29,3.29,0,0,1,1-.78,1.17,1.17,0,0,1,1.09-.06,1.55,1.55,0,0,1,.93,1.7,3.41,3.41,0,0,1-.57,1.46,2.09,2.09,0,0,1-1,.76A1.51,1.51,0,0,1,70.06,79.89Z"/><path class="cls-8" d="M79.8,78.35a2.84,2.84,0,0,1-1.57,2.43,1.31,1.31,0,0,1-1.72-.73,1.68,1.68,0,0,1-.05-.94A3,3,0,0,1,78,77.05a1.28,1.28,0,0,1,1.8,1.12A1.08,1.08,0,0,0,79.8,78.35Z"/><path class="cls-8" d="M88,80.32a1.13,1.13,0,0,1,1.11,1.38,1.76,1.76,0,0,1-1,1.33A1,1,0,0,1,87.05,83a1.1,1.1,0,0,1-.52-1.09,2.14,2.14,0,0,1,.44-1A1.22,1.22,0,0,1,88,80.32Z"/><path class="cls-1" d="M74.44,28.45a5.27,5.27,0,0,1,0,1.19A3.43,3.43,0,0,1,72.59,32a6,6,0,0,1-1.52.58,14.86,14.86,0,0,1-2.4.41,10.19,10.19,0,0,1-1.24.08,11.4,11.4,0,0,1-5.92-1.75,7.26,7.26,0,0,1-3.21-4.94,6.84,6.84,0,0,1-.14-1.49A6.51,6.51,0,0,1,60,20.4a7.47,7.47,0,0,1,4.29-2.26,6.6,6.6,0,0,1,3,.26,8.42,8.42,0,0,1,2.85,1.51,11.35,11.35,0,0,1,3.43,4.31,9.53,9.53,0,0,1,.93,3.86Z"/><path class="cls-2" d="M64.79,20.43a7.49,7.49,0,0,1,4.69,1.74,3.31,3.31,0,0,1,.66.83.72.72,0,0,1,.1.29.52.52,0,0,1-.71.58,4.38,4.38,0,0,1-.81-.47,6.86,6.86,0,0,0-1.64-.89A6,6,0,0,0,64,22.16a9.47,9.47,0,0,0-1.75.41.93.93,0,0,1-.49.09.75.75,0,0,1-.61-.56.74.74,0,0,1,.31-.82A4.18,4.18,0,0,1,62,21,9,9,0,0,1,64.79,20.43Z"/><path class="cls-9" d="M60.84,25a18.18,18.18,0,0,1,4.34.61,14.75,14.75,0,0,1,3.93,1.75c.42.27.82.57,1.22.88a12.4,12.4,0,0,1,2.47,2.64,4.66,4.66,0,0,1,.3.47c.13.23.11.32-.1.48a3.78,3.78,0,0,1-1,.53,11.12,11.12,0,0,1-3.16.7,9.47,9.47,0,0,1-1.06.09,11.7,11.7,0,0,1-5.65-1.36,7.19,7.19,0,0,1-3.83-5.35c-.2-1.22-.2-1.2,1.06-1.31A7.82,7.82,0,0,1,60.84,25Z"/></g></svg>