<svg xmlns="http://www.w3.org/2000/svg" viewBox="0 0 102 102"><defs><style>.cls-1{fill:#3472c0;}.cls-2{fill:#2b57a0;}.cls-3{fill:#92d8ff;}.cls-4{fill:#fff;}.cls-5{fill:#ffda95;}.cls-6{fill:#ffac1b;}.cls-7{fill:#421c43;}.cls-8{fill:#6fb2f3;}.cls-9{fill:#ffa8d0;}</style></defs><g id="OBJECTS"><path class="cls-1" d="M57.08,17a3.15,3.15,0,0,1,2.17,1.09,3.92,3.92,0,0,1,1,2.47,6.43,6.43,0,0,0,1.64,3.88,4.7,4.7,0,0,1,.34.44.54.54,0,0,1,0,.65.59.59,0,0,1-.61.24,2.07,2.07,0,0,1-.33-.1,12.92,12.92,0,0,1-3.94-2.15,8.23,8.23,0,0,1-2.19-2.65,3.45,3.45,0,0,1-.31-2.16,1,1,0,0,1,.15-.46A2.6,2.6,0,0,1,57.08,17Z"/><path class="cls-2" d="M63.75,16.11a3.32,3.32,0,0,1,1.33-2.48,1.22,1.22,0,0,1,.57-.25,1.91,1.91,0,0,1,2.28,1.52,3.64,3.64,0,0,1-.32,2.16,14.38,14.38,0,0,0-1,2.46,3.78,3.78,0,0,0-.16,1.16,3,3,0,0,1,0,.42.71.71,0,0,1-.51.6.63.63,0,0,1-.68-.25,4.43,4.43,0,0,1-.75-1.32A12.52,12.52,0,0,1,63.75,16.11Z"/><path class="cls-1" d="M47.88,69.15a3.15,3.15,0,0,1-1.55,2.18,6.66,6.66,0,0,1-1.86.75,4.83,4.83,0,0,0-2.11,1.14c-.34.32-.66.66-1,1a4.89,4.89,0,0,1-.39.4.55.55,0,0,1-.92-.31,1.58,1.58,0,0,1,0-.75,13.44,13.44,0,0,1,1-3c.07-.15.16-.29.22-.43a8.3,8.3,0,0,1,2.38-3,3.38,3.38,0,0,1,1.62-.76C46.63,66,47.88,67.17,47.88,69.15Z"/><path class="cls-2" d="M49,80.05a3.83,3.83,0,0,1-1.42-.29c-.57-.2-1.15-.37-1.71-.57a4.79,4.79,0,0,0-1.91-.27,1.84,1.84,0,0,1-.62-.06.62.62,0,0,1-.29-1A3.38,3.38,0,0,1,44.27,77a11.52,11.52,0,0,1,3.59-1,3.31,3.31,0,0,1,2.89,1,1.55,1.55,0,0,1,.4,1.41A1.88,1.88,0,0,1,49,80.05Z"/><path class="cls-3" d="M24,55.51V31.86a14.11,14.11,0,0,1,.29-3,6.65,6.65,0,0,1,1.57-3.2,7.69,7.69,0,0,1,1.75-1.36,6.79,6.79,0,0,1,1.11-.56,7,7,0,0,1,5.55,0,8.12,8.12,0,0,1,3.39,2.89c.9,1.27,1.68,2.6,2.51,3.92.22.35.46.69.69,1l1.65,2.49,1.26,1.91,1.81,2.72c1.08,1.65,2.15,3.3,3.23,4.94.77,1.16,1.57,2.29,2.34,3.45s1.32,2.07,2,3.09S54.37,52,55,52.91c.46.7.9,1.41,1.35,2.11s.78,1.15,1.17,1.73c.62.92,1.25,1.83,1.8,2.8.42.72.94,1.38,1.4,2.07l2.46,3.71.2.28a.16.16,0,0,0,.11.07c.1,0,.09-.09.09-.16v-.69q0-15.51,0-31a14.32,14.32,0,0,1,.5-3.63,22.31,22.31,0,0,1,1.77-4.6,16.35,16.35,0,0,1,3.61-4.72,13.18,13.18,0,0,1,4.29-2.67c.52-.19,1-.42,1.55-.6A9,9,0,0,1,78,17.13a13,13,0,0,1,4.11.59,10.32,10.32,0,0,1,4,2.38,10.62,10.62,0,0,1,2.07,2.51,7.57,7.57,0,0,1,1.14,4.58A4.84,4.84,0,0,1,86,31.47a6.63,6.63,0,0,1-3.42.36,1,1,0,0,0-.41,0c-.37.12-.65.38-.65.65a1,1,0,0,0,.54.84,1.63,1.63,0,0,0,.53.16,9.25,9.25,0,0,0,3,.11,10.07,10.07,0,0,1,1.46-.06,2,2,0,0,1,2,1.71,3,3,0,0,1-.38,2.14,6.87,6.87,0,0,1-2,2.16A38.87,38.87,0,0,1,82.51,42a25.08,25.08,0,0,0-4,2.44,9.1,9.1,0,0,0-1.58,1.46,7.2,7.2,0,0,0-1.34,2.87,13.37,13.37,0,0,0-.3,3q0,12.52,0,25c0,1.23-.11,2.45-.23,3.67a7.66,7.66,0,0,1-1,3.14,5.09,5.09,0,0,1-1.78,1.82,6.21,6.21,0,0,1-1.64.74,1.92,1.92,0,0,1-.4.09c-.74,0-1.47.16-2.22.15a8,8,0,0,1-4.14-1.24,9.52,9.52,0,0,1-2-1.73,30.85,30.85,0,0,1-2.37-3.09c-.53-.76-1-1.55-1.52-2.32l-2.48-3.69c-.46-.7-.9-1.41-1.36-2.1-.84-1.25-1.58-2.56-2.45-3.8-.55-.8-1.06-1.63-1.59-2.44-.36-.54-.72-1.08-1.07-1.62-.77-1.19-1.56-2.36-2.32-3.55s-1.43-2.22-2.15-3.32c-.62-.95-1.27-1.88-1.89-2.83-.75-1.17-1.48-2.35-2.23-3.52C40,50.49,39.5,49.8,39,49.1l-1.82-2.79q-.53-.81-1.08-1.62a.23.23,0,0,0-.15-.11c-.08,0-.08.09-.08.15V79.3a12.07,12.07,0,0,1-.26,2.48,6.09,6.09,0,0,1-2.41,3.71,4.79,4.79,0,0,1-2.25.86,10.31,10.31,0,0,1-2.42,0,3.25,3.25,0,0,1-1.11-.38,5.5,5.5,0,0,1-2.88-3.21A9.53,9.53,0,0,1,24,79.37Q24,67.44,24,55.51Z"/><path class="cls-4" d="M32.65,32.18a.91.91,0,0,1,.53-.85.7.7,0,0,1,.84.13,3.37,3.37,0,0,1,.64.72c.31.49.62,1,.91,1.47a3.54,3.54,0,0,1,.25.64.72.72,0,0,1-.29.8.62.62,0,0,1-.77,0,2.31,2.31,0,0,1-.47-.41,14.56,14.56,0,0,1-1.48-2A.87.87,0,0,1,32.65,32.18Z"/><path class="cls-4" d="M39.94,35.2a.69.69,0,0,1-1,.67,1,1,0,0,1-.44-.33,10.68,10.68,0,0,1-.89-1.23c-.2-.34-.42-.66-.63-1a.84.84,0,0,1-.06-.8.83.83,0,0,1,1.45-.24,11.54,11.54,0,0,1,1.5,2.65A1.19,1.19,0,0,1,39.94,35.2Z"/><path class="cls-4" d="M33.21,27.21a.77.77,0,0,1,.37-.72.71.71,0,0,1,.84,0,1.89,1.89,0,0,1,.37.32,9.41,9.41,0,0,1,1.33,2,1.3,1.3,0,0,1,.14.39A.69.69,0,0,1,36,30a.74.74,0,0,1-.84,0,1.84,1.84,0,0,1-.22-.17,9.24,9.24,0,0,1-1.59-2.09A1,1,0,0,1,33.21,27.21Z"/><path class="cls-4" d="M60.55,76.16a.88.88,0,0,1-.66-.28c-.06-.07-.14-.13-.19-.2a9.16,9.16,0,0,1-1.12-2.15.9.9,0,0,1,.18-.9.6.6,0,0,1,.87-.1.91.91,0,0,1,.21.18,8.25,8.25,0,0,1,1.42,2.13,1,1,0,0,1,0,.87A.63.63,0,0,1,60.55,76.16Z"/><path class="cls-4" d="M66,76.29a.86.86,0,0,1-1.26.82,1.18,1.18,0,0,1-.51-.45c-.35-.53-.68-1-1-1.58a1.34,1.34,0,0,1-.18-.52.78.78,0,0,1,.36-.77.68.68,0,0,1,.84,0,3.63,3.63,0,0,1,.46.41,7.66,7.66,0,0,1,1.1,1.43A1.12,1.12,0,0,1,66,76.29Z"/><path class="cls-4" d="M64.3,82a.76.76,0,0,1-.5-.21,5.32,5.32,0,0,1-1.39-2,.81.81,0,0,1,.24-1,.83.83,0,0,1,1,0,1.07,1.07,0,0,1,.16.14,6.71,6.71,0,0,1,1.29,1.78A.91.91,0,0,1,64.3,82Z"/><path class="cls-5" d="M74.21,24.28A3.81,3.81,0,0,1,72.78,24a3.16,3.16,0,0,1-1.84-1.69,4.15,4.15,0,0,1-.31-2.71,9.16,9.16,0,0,1,1.69-3.39,19.19,19.19,0,0,1,3.77-3.76,23,23,0,0,1,3.72-2.41,19.13,19.13,0,0,1,4.3-1.75,4.59,4.59,0,0,1,1-.16.76.76,0,0,1,.82.39c.13.24,0,.57-.33.84-.63.51-1.19,1.09-1.77,1.66a14.2,14.2,0,0,0-3,4.49c-.64,1.45-1,3-1.53,4.47a8.58,8.58,0,0,1-1.1,2.23A5,5,0,0,1,74.21,24.28Z"/><path class="cls-6" d="M77.38,21.33a7.67,7.67,0,0,1-3.1-.69,11.27,11.27,0,0,1-2.85-1.83,2.89,2.89,0,0,1-.24-.25.33.33,0,0,1-.06-.38,3.38,3.38,0,0,1,.24-.51c.29-.49.32-.56.78-.14a8.33,8.33,0,0,0,4.33,2.06,5.57,5.57,0,0,0,2.46-.29l.33-.11a.15.15,0,0,1,.21.18,6.74,6.74,0,0,1-.55,1.56.44.44,0,0,1-.39.25A6.25,6.25,0,0,1,77.38,21.33Z"/><path class="cls-6" d="M79.25,17.84a7.13,7.13,0,0,1-3.08-.92A8.55,8.55,0,0,1,73.84,15c-.22-.26-.22-.31,0-.53a8.9,8.9,0,0,1,.7-.67c.2-.18.33-.16.55,0l.2.19a8.1,8.1,0,0,0,2.41,1.49,6.39,6.39,0,0,0,2.17.38c.84,0,.84,0,.53.79-.09.24-.18.48-.25.72a.58.58,0,0,1-.67.47A1.5,1.5,0,0,0,79.25,17.84Z"/><path class="cls-6" d="M81.39,14l-.24-.06a6.34,6.34,0,0,1-3-2,2.64,2.64,0,0,1-.23-.35.24.24,0,0,1,.06-.36c.35-.23.71-.45,1.07-.66a.3.3,0,0,1,.38.07,6.36,6.36,0,0,0,2.9,1.56c.28.08.31.2.15.47s-.44.7-.67,1.05A.52.52,0,0,1,81.39,14Z"/><path class="cls-7" d="M75.84,30.05a1.91,1.91,0,0,1-1.92,1.88A2.06,2.06,0,0,1,72.05,30,2,2,0,0,1,74,28.13,1.89,1.89,0,0,1,75.84,30.05Z"/><path class="cls-8" d="M29.8,73.59A13,13,0,0,1,36.13,75a11.25,11.25,0,0,1,5.37,5.87,14.4,14.4,0,0,1,.8,3.23,8.38,8.38,0,0,0,1.17,3.17A12.48,12.48,0,0,0,45.68,90c.34.32.71.6,1.07.89.07.06.16.11.22.17a1,1,0,0,1-.08,1.6,3.79,3.79,0,0,1-1.16.61,9.71,9.71,0,0,1-5.34.32,17.57,17.57,0,0,1-7.34-3.49,17.08,17.08,0,0,1-2.56-2.54c-.4-.51-.52-.52-.95,0A17.9,17.9,0,0,1,28.23,89a17.78,17.78,0,0,1-8,4.46,11,11,0,0,1-3.23.36A7.76,7.76,0,0,1,13.55,93a2.5,2.5,0,0,1-.57-.39.9.9,0,0,1-.09-1.31,3.79,3.79,0,0,1,.51-.47l.93-.74a2.57,2.57,0,0,0,.45-.42,22,22,0,0,0,1.8-2.39,8.84,8.84,0,0,0,1.18-3.46,11.74,11.74,0,0,1,1.83-5,10.35,10.35,0,0,1,1.83-2.08A11.67,11.67,0,0,1,27,73.9,9.91,9.91,0,0,1,29.8,73.59Z"/><path class="cls-1" d="M28.92,80.72a3.46,3.46,0,0,1-.2,1.11,15,15,0,0,1-2.51,4.85,15.11,15.11,0,0,1-5.48,4.49,12.5,12.5,0,0,1-3.1,1,1.3,1.3,0,0,1-.87-.13.84.84,0,0,1-.4-1.12,1.16,1.16,0,0,1,.7-.64l1.19-.38a11.31,11.31,0,0,0,3.69-2,16.37,16.37,0,0,0,2.95-2.93,13.35,13.35,0,0,0,1.64-2.74c.3-.65.6-1.31.9-2a1.41,1.41,0,0,1,.23-.35.66.66,0,0,1,1.11.1A1.32,1.32,0,0,1,28.92,80.72Z"/><path class="cls-1" d="M31.16,80.92a1.57,1.57,0,0,1,.14-.83A.67.67,0,0,1,32.55,80c.12.2.21.42.31.63.33.71.65,1.43,1,2.13a14.54,14.54,0,0,0,3.77,4.66,15.23,15.23,0,0,0,2.95,2,14.14,14.14,0,0,0,1.87.72c.18.06.36.1.53.17a1.59,1.59,0,0,1,.37.18.89.89,0,0,1,.41,1.08,1,1,0,0,1-1,.66,4.66,4.66,0,0,1-.82-.13,13.72,13.72,0,0,1-5-2.42,15.45,15.45,0,0,1-5.55-8A6.8,6.8,0,0,1,31.16,80.92Z"/><path class="cls-1" d="M35.42,76.94a.79.79,0,0,1,.63.34,7,7,0,0,1,.39.65,22,22,0,0,0,1.15,2.14,7.9,7.9,0,0,0,1.88,2.11,2.51,2.51,0,0,1,.53.55.87.87,0,0,1-.09,1.15.88.88,0,0,1-1.07.19,4.39,4.39,0,0,1-.81-.54,10.67,10.67,0,0,1-2.57-3.32,9.83,9.83,0,0,1-.62-1.55,2.73,2.73,0,0,1-.09-1.1A.69.69,0,0,1,35.42,76.94Z"/><path class="cls-1" d="M25.36,77.87a4.57,4.57,0,0,1-.47,1.76A11.38,11.38,0,0,1,23,82.68,6.77,6.77,0,0,1,21.34,84a.87.87,0,0,1-.92,0,.93.93,0,0,1-.39-1.2,2,2,0,0,1,.48-.59,10.28,10.28,0,0,0,3.08-4.2,3.13,3.13,0,0,1,.49-.83.74.74,0,0,1,.81-.26.7.7,0,0,1,.46.71C25.35,77.78,25.36,77.87,25.36,77.87Z"/><path class="cls-8" d="M79.17,61.45a11.18,11.18,0,0,1-.28,2.91,6.42,6.42,0,0,1-1,2.29,1.08,1.08,0,0,1-.74.47.93.93,0,0,1-.84-.22,2.5,2.5,0,0,1-.5-.66c-.34-.6-.69-1.2-1-1.81A10.26,10.26,0,0,0,71,60.67a28,28,0,0,0-4.09-1.89,8.58,8.58,0,0,1-4.36-3.5A5.93,5.93,0,0,1,62.39,49a6.21,6.21,0,0,1,4.27-3.07,7.17,7.17,0,0,1,5.92,1.26c.32.23.65.45,1,.69a12.26,12.26,0,0,1,3,3.76,20.87,20.87,0,0,1,2.26,6.1A16.17,16.17,0,0,1,79.17,61.45Z"/><path class="cls-1" d="M63.82,50.28a4.26,4.26,0,0,1,0-.62A1,1,0,0,1,64,49.2a.6.6,0,0,1,1-.09,1.48,1.48,0,0,1,.28.7,7,7,0,0,0,.67,1.89,5.92,5.92,0,0,0,2.16,2.2,15.89,15.89,0,0,0,1.81.88c.42.2.86.36,1.28.54A13.55,13.55,0,0,1,76,58.75a11.62,11.62,0,0,1,2,3.15,1,1,0,0,1-.15,1.16.82.82,0,0,1-1.13.12,1.73,1.73,0,0,1-.54-.71,9.69,9.69,0,0,0-1-1.71,11.28,11.28,0,0,0-3.46-2.95c-1.06-.59-2.18-1-3.27-1.54a8.81,8.81,0,0,1-3.58-2.87,6.27,6.27,0,0,1-1-2.22,6.69,6.69,0,0,1-.08-.9Z"/><path class="cls-1" d="M75,53.17a.88.88,0,0,1-1.19.88,13.18,13.18,0,0,1-3.41-2,6.72,6.72,0,0,1-1.68-2.18,1.89,1.89,0,0,1-.17-1,.59.59,0,0,1,.89-.44A1.45,1.45,0,0,1,70,49a7,7,0,0,0,2.26,2.12,4.59,4.59,0,0,0,.79.42,6.51,6.51,0,0,1,1.55.91A.9.9,0,0,1,75,53.17Z"/><path class="cls-9" d="M71.88,40.23a5.3,5.3,0,0,1-2.9-.81,2.11,2.11,0,0,1-.37-.3,1.64,1.64,0,0,1,.21-2.6,3.16,3.16,0,0,1,1-.57,6.19,6.19,0,0,1,4.67-.06,3.53,3.53,0,0,1,1,.57,1.65,1.65,0,0,1,.18,2.46,2.7,2.7,0,0,1-.7.56A5.71,5.71,0,0,1,71.88,40.23Z"/></g></svg>