<svg xmlns="http://www.w3.org/2000/svg" viewBox="0 0 102 102"><defs><style>.cls-1{fill:#d67011;}.cls-2{fill:#a84708;}.cls-3{fill:#ffa959;}.cls-4{fill:#fff;}.cls-5{fill:#ffda95;}.cls-6{fill:#ffac1b;}.cls-7{fill:#421c43;}.cls-8{fill:#f75e9d;}</style></defs><g id="OBJECTS"><path class="cls-1" d="M78.36,12.22a4.78,4.78,0,0,1-.24,1.55,11.76,11.76,0,0,1-1.27,3c-.11.18-.21.37-.31.55s-.16.29.17.46c.17.08.34.15.5.24a3,3,0,0,1,1.7,2.57,3.7,3.7,0,0,1-.18,1.32,5.91,5.91,0,0,1-1.35,2.37,7.63,7.63,0,0,1-2.89,2,6.81,6.81,0,0,1-3.71.42,14.16,14.16,0,0,1-4.49-1.41,5.48,5.48,0,0,1-2.51-2.63,2.62,2.62,0,0,1-.16-1.85A2.29,2.29,0,0,1,64,20a16.07,16.07,0,0,0,1.06-1.66,32.25,32.25,0,0,1,2.08-3,45.66,45.66,0,0,1,4.16-4.74,7.56,7.56,0,0,1,2.86-1.9A2.76,2.76,0,0,1,76.72,9a3.53,3.53,0,0,1,1.64,2.83C78.37,12,78.36,12.09,78.36,12.22Z"/><path class="cls-2" d="M71.76,26.79a15.93,15.93,0,0,1-3.33-.65,8,8,0,0,1-1.75-.69c-.36-.21-.41-.3-.32-.7a17.24,17.24,0,0,1,.79-2.56A20.22,20.22,0,0,1,70,17.11a18.66,18.66,0,0,1,5.35-4.7,6.11,6.11,0,0,1,1.9-.76c1.19-.23,1.2.06,1.13.94a6.59,6.59,0,0,1-.22,1.16,11.41,11.41,0,0,1-1.27,3c-.07.11-.13.23-.19.34-.29.52-.29.53.23.77a4.06,4.06,0,0,1,1.22.87,2.88,2.88,0,0,1,.76,2.38,5.55,5.55,0,0,1-1.65,3.32,7.61,7.61,0,0,1-3.31,2.06A7.81,7.81,0,0,1,71.76,26.79Z"/><path class="cls-1" d="M26.81,8.59a2.75,2.75,0,0,1,1.42.31,7,7,0,0,1,1.53,1,17.5,17.5,0,0,1,2.16,2.06c1.16,1.33,2.3,2.66,3.36,4.07a27.21,27.21,0,0,1,2,3,3.75,3.75,0,0,0,.43.66,2.85,2.85,0,0,1,.13,3.58,5.53,5.53,0,0,1-2.19,2,13.8,13.8,0,0,1-4.33,1.39,7.25,7.25,0,0,1-7-2.63A5,5,0,0,1,23,20.79a2.92,2.92,0,0,1,1.35-2.6,4.66,4.66,0,0,1,.91-.48c.2-.07.23-.18.13-.37a20.44,20.44,0,0,1-1.07-2,8.46,8.46,0,0,1-.79-2.87A3.67,3.67,0,0,1,25.14,9,2.49,2.49,0,0,1,26.81,8.59Z"/><path class="cls-2" d="M30,26.78a7.51,7.51,0,0,1-3.66-1.06,7.67,7.67,0,0,1-1.93-1.61A5.29,5.29,0,0,1,23,20.76a2.86,2.86,0,0,1,1.32-2.54,2.72,2.72,0,0,1,.68-.39c.48-.19.58-.2.22-.79a13.16,13.16,0,0,1-1.38-3,12.89,12.89,0,0,1-.32-1.62,1.48,1.48,0,0,1,0-.47.34.34,0,0,1,.35-.35,2.55,2.55,0,0,1,.78.05,7,7,0,0,1,2.37,1,18.19,18.19,0,0,1,6,6.1,20.43,20.43,0,0,1,2.4,5.72c.18.73.18.74-.54,1.07a13.53,13.53,0,0,1-3.7,1.06A4.75,4.75,0,0,1,30,26.78Z"/><path class="cls-3" d="M50.7,16.67c.85,0,1.69-.05,2.53,0a42.71,42.71,0,0,1,4.53.52c1,.19,2.07.36,3.1.59.72.15,1.43.36,2.13.58a33.47,33.47,0,0,1,3.84,1.43,28,28,0,0,1,5.16,3A25.66,25.66,0,0,1,74.66,25a22.25,22.25,0,0,1,2.07,2.05,34.81,34.81,0,0,1,3.86,5.75,30.14,30.14,0,0,1,1.81,4,33.4,33.4,0,0,1,1.43,4.92c.29,1.49.61,3,.79,4.5a28.3,28.3,0,0,1,.23,4A6.27,6.27,0,0,0,85,52a1,1,0,0,1,0,.39,17.53,17.53,0,0,0-.12,3.07,33,33,0,0,1-.71,6c-.16.74-.27,1.49-.43,2.24-.2,1-.55,2-.84,3a28.38,28.38,0,0,1-1.52,3.9,24.39,24.39,0,0,1-1.7,3.19c-.47.7-.92,1.41-1.4,2.1a27.14,27.14,0,0,1-2.65,3.22,26.55,26.55,0,0,1-5.25,4.26,29.5,29.5,0,0,1-4.92,2.49A27.72,27.72,0,0,1,62,87c-1.43.33-2.86.69-4.32.91-1.3.19-2.6.28-3.92.35s-2.47.12-3.7.09a35.18,35.18,0,0,1-9-1.15,23.5,23.5,0,0,1-4.65-1.47A20.56,20.56,0,0,1,33,84.07c-.77-.44-1.58-.82-2.32-1.34a26.48,26.48,0,0,1-3.31-2.67,32.93,32.93,0,0,1-3.57-4,24.16,24.16,0,0,1-1.79-2.69,36,36,0,0,1-3-7,33.09,33.09,0,0,1-1.29-5.19c-.22-1.48-.47-3-.57-4.46-.07-.94-.09-1.88-.15-2.83a9.88,9.88,0,0,1-.1-1.8c.15-1.33.12-2.67.23-4,.13-1.49.39-3,.56-4.45a23.3,23.3,0,0,1,.78-3.38,42,42,0,0,1,1.56-4.63,21.8,21.8,0,0,1,1.46-3.14l.2-.34a24.61,24.61,0,0,1,4-5.62,32.45,32.45,0,0,1,3.7-3.42A32.28,32.28,0,0,1,36.72,19c.62-.26,1.29-.43,1.94-.64l.61-.16A41.6,41.6,0,0,1,44.89,17c.75-.12,1.52-.16,2.27-.25C48.34,16.64,49.52,16.69,50.7,16.67ZM70.25,52.4V50.19a2.58,2.58,0,0,0,0-.39.22.22,0,0,0-.23-.17c-.21,0-.42.06-.63.1a8.53,8.53,0,0,1-2.81.15,12.44,12.44,0,0,1-2.82-.66,10.74,10.74,0,0,1-3.27-1.87c-.7-.63-.6-.62-1.2.09a11,11,0,0,1-1.87,1.8,7.91,7.91,0,0,1-6.47,1.55,9.28,9.28,0,0,1-5.74-3.31c-.21-.27-.22-.27-.5-.07-.56.4-1.09.84-1.67,1.2a7.38,7.38,0,0,1-5.3,1A8.41,8.41,0,0,1,32.87,47c-.23-.25-.47-.49-.7-.73a2.49,2.49,0,0,0-.25,1c-.09.78-.24,1.56-.27,2.34,0,1.37,0,2.74,0,4.11a14.74,14.74,0,0,0,.05,1.49c.06.68.17,1.36.24,2a31.62,31.62,0,0,0,.63,3.65,27.65,27.65,0,0,0,1.39,4.27c.18.44.42.85.6,1.29a14.28,14.28,0,0,0,2.62,4.09,18.13,18.13,0,0,0,3.69,3.3,14.87,14.87,0,0,0,4.16,2,22,22,0,0,0,6.14.92,19.81,19.81,0,0,0,3-.31,17.43,17.43,0,0,0,5.94-2A15.74,15.74,0,0,0,65,70.24a22.89,22.89,0,0,0,2-3.08c.55-1,1-2.09,1.45-3.14a21.4,21.4,0,0,0,1-3.41,19.3,19.3,0,0,0,.67-4.9,1.67,1.67,0,0,1,0-.32A14.23,14.23,0,0,0,70.25,52.4Z"/><path class="cls-4" d="M35.77,26a10.31,10.31,0,0,1,5.37,1.6,11.06,11.06,0,0,1,3.92,4,10.35,10.35,0,0,1,1.29,3.28,8.09,8.09,0,0,1-.12,3.36,8.88,8.88,0,0,1-1.29,2.94,6.51,6.51,0,0,1-1.74,1.69,6.61,6.61,0,0,1-4.36,1.31A4.53,4.53,0,0,1,37,43.59a2.87,2.87,0,0,1-1.45-2.39c0-.11,0-.21,0-.32,0-.52-.06-.61-.6-.66a5.73,5.73,0,0,1-3.82-1.81,3.38,3.38,0,0,1,.48-5,2.87,2.87,0,0,1,.67-.41c.48-.21.39-.37.13-.71a4.65,4.65,0,0,1-.84-1.85A3.65,3.65,0,0,1,35.06,26Z"/><path class="cls-4" d="M66.07,26a5.57,5.57,0,0,1,1.41.07,3.64,3.64,0,0,1,2.7,4.61,5.11,5.11,0,0,1-1,1.88.2.2,0,0,0,.06.33l.49.25a3.43,3.43,0,0,1,.45,5.75,6.46,6.46,0,0,1-3.47,1.37c-.43,0-.5.1-.52.52,0,.13,0,.26,0,.39a2.62,2.62,0,0,1-1.5,2.49,4.52,4.52,0,0,1-3.14.46,7.23,7.23,0,0,1-5.34-4,8.46,8.46,0,0,1-.94-3.71,8.56,8.56,0,0,1,1.1-4.23,11.72,11.72,0,0,1,3.45-4A11.49,11.49,0,0,1,65,26,6.72,6.72,0,0,1,66.07,26Z"/><path class="cls-1" d="M57.36,24.9a1,1,0,0,1-.17.59c-.59.93-1.18,1.86-1.78,2.79a1.13,1.13,0,0,1-.48.41.94.94,0,0,1-1.1-.09,1,1,0,0,1-.35-1.13,2.36,2.36,0,0,1,.33-.63,24.05,24.05,0,0,1,1.66-2.11,2.17,2.17,0,0,1,.81-.6A.77.77,0,0,1,57.36,24.9Z"/><path class="cls-1" d="M47.49,28.82a.77.77,0,0,1-.58-.2,2.87,2.87,0,0,1-.53-.57c-.5-.73-1-1.48-1.46-2.23a4.73,4.73,0,0,1-.31-.64.81.81,0,0,1,.23-.92.83.83,0,0,1,.95-.08,1.83,1.83,0,0,1,.31.24A14.55,14.55,0,0,1,48.2,27a2.3,2.3,0,0,1,.24.5A1,1,0,0,1,47.49,28.82Z"/><path class="cls-1" d="M59.68,23.78a1.08,1.08,0,0,1,.22-.65,14.51,14.51,0,0,1,2-2.25,1,1,0,0,1,.71-.29.76.76,0,0,1,.75,1,4.17,4.17,0,0,1-.24.58,11.56,11.56,0,0,1-1.53,2.09,1.42,1.42,0,0,1-.55.42A.92.92,0,0,1,59.68,23.78Z"/><path class="cls-1" d="M42.25,23.81a.92.92,0,0,1-1.33.83,1.31,1.31,0,0,1-.38-.27,9.29,9.29,0,0,1-1.85-2.62.72.72,0,0,1,.21-1,.74.74,0,0,1,.8-.13,1.58,1.58,0,0,1,.71.48c.48.58,1,1.16,1.45,1.75A1.59,1.59,0,0,1,42.25,23.81Z"/><path class="cls-1" d="M55.75,19.78a3.13,3.13,0,0,1-.09.41,16.46,16.46,0,0,1-1,2.4,2,2,0,0,1-.36.51.82.82,0,0,1-1,.2,1,1,0,0,1-.53-1,4.76,4.76,0,0,1,.3-.9c.22-.5.47-1,.72-1.48a2.92,2.92,0,0,1,.58-.73.69.69,0,0,1,.78-.21A.87.87,0,0,1,55.75,19.78Z"/><path class="cls-1" d="M46.24,19.83a2.58,2.58,0,0,1,0-.39.69.69,0,0,1,1-.48,1.21,1.21,0,0,1,.59.5A11,11,0,0,1,49.05,22a1.67,1.67,0,0,1,.08.3,1,1,0,0,1-.49,1,.94.94,0,0,1-1.08-.23,1.8,1.8,0,0,1-.27-.39,14,14,0,0,1-.94-2.23A1.93,1.93,0,0,1,46.24,19.83Z"/><path class="cls-5" d="M57.05,38.31a8.39,8.39,0,0,1-1.45,5.07,5.21,5.21,0,0,1-2.28,2,5.29,5.29,0,0,1-3,.42,5.57,5.57,0,0,1-1.52-.39,5.78,5.78,0,0,1-2.62-2.53A8.38,8.38,0,0,1,45,38.28a10.54,10.54,0,0,1,1.38-5,6.15,6.15,0,0,1,2-2.11,4.85,4.85,0,0,1,5.62.21,6.56,6.56,0,0,1,2.14,2.77A9.8,9.8,0,0,1,57.05,38.31Z"/><path class="cls-6" d="M50.85,41.45c-.4-.07-1-.16-1.53-.29A9.88,9.88,0,0,1,46.64,40a1.31,1.31,0,0,1-.63-.68.78.78,0,0,1,.14-.88.66.66,0,0,1,.8-.09,11.63,11.63,0,0,0,4,.93,5.29,5.29,0,0,0,1.63-.17,10.65,10.65,0,0,0,2.57-.75.68.68,0,0,1,1.06.42.72.72,0,0,1,0,.46,1.45,1.45,0,0,1-.67.75,10.77,10.77,0,0,1-4.3,1.42Z"/><path class="cls-5" d="M58.56,88.44a10.24,10.24,0,0,1,1-4.22A8.27,8.27,0,0,1,63,80.75a11,11,0,0,1,4.76-1.27,7.15,7.15,0,0,1,2.63.42,10.49,10.49,0,0,1,4.48,2.86A5.53,5.53,0,0,1,76.19,85a3.18,3.18,0,0,1-.33,2.73,1.83,1.83,0,0,1-1.51.85,4.38,4.38,0,0,1-1.93-.31,5.57,5.57,0,0,1-1.35-.64,4.52,4.52,0,0,0-.49-.25c-.12,0-.23,0-.21.14a7.21,7.21,0,0,0,.15.93,2.87,2.87,0,0,1-.3,2,2.12,2.12,0,0,1-2.4,1.21,4.73,4.73,0,0,1-2.24-1.1c-.14-.11-.27-.25-.41-.37s-.19-.08-.23.06c-.11.35-.2.71-.32,1.05a3.54,3.54,0,0,1-.76,1.28,2.62,2.62,0,0,1-3.75.24,3.32,3.32,0,0,1-.94-1.16A6.75,6.75,0,0,1,58.56,88.44Z"/><path class="cls-6" d="M66.21,84.56a1,1,0,0,1,.71.38,10.33,10.33,0,0,1,1.51,2.64.92.92,0,0,1,0,.61.82.82,0,0,1-1.38.35,2.64,2.64,0,0,1-.45-.64c-.31-.6-.61-1.21-.89-1.83a1.76,1.76,0,0,1-.2-.91A.65.65,0,0,1,66.21,84.56Z"/><path class="cls-6" d="M69.9,82.84a3.16,3.16,0,0,1,.45.16,10,10,0,0,1,2.26,1.56,1.21,1.21,0,0,1,.21.24.76.76,0,0,1,0,1,.83.83,0,0,1-1,.21,2.59,2.59,0,0,1-.39-.25l-2-1.61-.12-.11a.74.74,0,0,1-.14-.87A.81.81,0,0,1,69.9,82.84Z"/><path class="cls-6" d="M62.54,88.43c0,.37,0,.74,0,1.1a2.77,2.77,0,0,1-.16.69.73.73,0,0,1-.71.52.88.88,0,0,1-.79-.56,1.59,1.59,0,0,1-.07-.38,10.91,10.91,0,0,1,.13-2.35,1.5,1.5,0,0,1,.3-.71.7.7,0,0,1,1.22.14,1.81,1.81,0,0,1,.13.77v.78Z"/><path class="cls-5" d="M34.05,79.47a10,10,0,0,1,7.08,3,7.43,7.43,0,0,1,2,4.35c0,.44.18.88.21,1.32a5.29,5.29,0,0,1-1.5,4.61,2.63,2.63,0,0,1-4-.43,4.73,4.73,0,0,1-.76-1.64A3.81,3.81,0,0,0,37,90.2c-.05-.12-.15-.14-.25,0a3.57,3.57,0,0,0-.28.27,4.83,4.83,0,0,1-2,1.13,2.3,2.3,0,0,1-3.08-2.11,4.17,4.17,0,0,1,.09-1.57,1.67,1.67,0,0,0,0-.31.18.18,0,0,0-.25-.19c-.4.21-.78.43-1.19.62a5.25,5.25,0,0,1-2.43.56,1.8,1.8,0,0,1-1.68-1,3.1,3.1,0,0,1-.2-2.81,6.87,6.87,0,0,1,2-2.76,10.76,10.76,0,0,1,3.89-2.17A7.39,7.39,0,0,1,34.05,79.47Z"/><path class="cls-6" d="M36.37,85.35a2.21,2.21,0,0,1-.11.45,11.48,11.48,0,0,1-1.16,2.39,1.79,1.79,0,0,1-.34.43.78.78,0,0,1-1.28-.46,1.18,1.18,0,0,1,.07-.69,9.93,9.93,0,0,1,1.3-2.31,2.62,2.62,0,0,1,.44-.44.68.68,0,0,1,.81-.07C36.34,84.79,36.35,85,36.37,85.35Z"/><path class="cls-6" d="M33,83.47a.76.76,0,0,1-.27.57A24.34,24.34,0,0,1,30.21,86a.79.79,0,0,1-1.15-.31.7.7,0,0,1,0-.75,2,2,0,0,1,.4-.48,14.26,14.26,0,0,1,1.87-1.31,4.11,4.11,0,0,1,.65-.28.82.82,0,0,1,.94.42A.76.76,0,0,1,33,83.47Z"/><path class="cls-6" d="M41.1,88.8c0,.37,0,.74,0,1.11a.8.8,0,0,1-.35.67A.82.82,0,0,1,39.49,90a4.92,4.92,0,0,1-.11-.77c0-.58-.06-1.16-.07-1.73a1,1,0,0,1,.25-.73.67.67,0,0,1,1.09-.06,1.65,1.65,0,0,1,.38.85.85.85,0,0,1,0,.23c0,.34,0,.68,0,1Z"/><path class="cls-7" d="M62.67,36.13A2.14,2.14,0,1,1,64.86,34,2.1,2.1,0,0,1,62.67,36.13Z"/><path class="cls-7" d="M39,36.13A2.14,2.14,0,1,1,41.17,34,2.09,2.09,0,0,1,39,36.13Z"/><path class="cls-1" d="M34.9,62.62a14.2,14.2,0,0,1-.27,3.81,5.46,5.46,0,0,1-.86,2.1,2.31,2.31,0,0,1-3.15.94A4.75,4.75,0,0,1,28.77,68a11.51,11.51,0,0,1-1.19-1.67c-.1-.19-.25-.18-.34,0a11.37,11.37,0,0,1-2,3.16A5.16,5.16,0,0,1,23.14,71a3,3,0,0,1-3.63-1.09,5.11,5.11,0,0,1-.79-1.54l-.27-1s-.05-.11-.07-.11a.17.17,0,0,0-.13.07c-.23.28-.45.58-.69.86a4.23,4.23,0,0,1-2.5,1.51,3,3,0,0,1-2.78-1.28,5.45,5.45,0,0,1-.76-2.62,20.41,20.41,0,0,1,.13-3.31c.14-.93.16-1.88.31-2.81.39-2.41.91-4.8,1.51-7.17a60,60,0,0,1,2-6.29,33.44,33.44,0,0,1,1.77-3.79,6.48,6.48,0,0,1,1.66-2,3.59,3.59,0,0,1,2.84-.68,7.11,7.11,0,0,1,2.66.93,16.66,16.66,0,0,1,4.41,4,27.89,27.89,0,0,1,3.25,5.39,32.36,32.36,0,0,1,1.2,3.34,32.6,32.6,0,0,1,1.14,4.26A19.43,19.43,0,0,1,34.9,62.62Z"/><path class="cls-2" d="M18.78,48.4a8.39,8.39,0,0,1,1-3.09c.3-.49.71-.67,1.11-.51a1,1,0,0,1,.52,1.11,20,20,0,0,1-.81,2.94,1.2,1.2,0,0,1-.46.62.81.81,0,0,1-1.21-.29A1.37,1.37,0,0,1,18.78,48.4Z"/><path class="cls-2" d="M18.64,52.73c0,.1-.06.31-.13.51-.26.69-.52,1.37-.79,2a1.67,1.67,0,0,1-.25.4.86.86,0,0,1-1,.35,1,1,0,0,1-.69-1A4.42,4.42,0,0,1,16,54.4,8.94,8.94,0,0,1,17,52a1.44,1.44,0,0,1,.3-.36.73.73,0,0,1,1.19.19A1.55,1.55,0,0,1,18.64,52.73Z"/><path class="cls-2" d="M32.08,63.8A2.37,2.37,0,0,1,32,64.9a.86.86,0,0,1-.91.59.76.76,0,0,1-.7-.43,1.42,1.42,0,0,1-.18-.51A24.64,24.64,0,0,1,30,62a1.58,1.58,0,0,1,.16-.68.76.76,0,0,1,1.25-.18,1.48,1.48,0,0,1,.36.69c.08.33.13.67.22,1A5.17,5.17,0,0,1,32.08,63.8Z"/><path class="cls-2" d="M24.68,62.16A10.76,10.76,0,0,1,24.5,64a1.38,1.38,0,0,1-.26.64.88.88,0,0,1-.87.43.87.87,0,0,1-.72-.64,1.85,1.85,0,0,1-.08-.46,7.43,7.43,0,0,1,.58-3,.61.61,0,0,1,.07-.14.79.79,0,0,1,.77-.43.88.88,0,0,1,.67.69.78.78,0,0,1,0,.16Z"/><path class="cls-2" d="M17.71,60.78c0,.14-.05.27-.07.4a15.48,15.48,0,0,1-.55,2.13,2.3,2.3,0,0,1-.35.7.87.87,0,0,1-1,.32,1,1,0,0,1-.61-.92,3.69,3.69,0,0,1,.08-.46,16.07,16.07,0,0,1,.95-2.5,1.43,1.43,0,0,1,.15-.27.72.72,0,0,1,1.27.16A3.54,3.54,0,0,1,17.71,60.78Z"/><path class="cls-2" d="M26.69,48.08a1.43,1.43,0,0,1-.46,1.22.49.49,0,0,1-.7.06,1.46,1.46,0,0,1-.68-.93A15.11,15.11,0,0,1,24.47,46a1.86,1.86,0,0,1,0-.47.76.76,0,0,1,.54-.62.72.72,0,0,1,.82.32,2.7,2.7,0,0,1,.33.71c.19.66.34,1.32.5,2C26.7,48.05,26.7,48.15,26.69,48.08Z"/><path class="cls-2" d="M24.68,54.66c0,.29,0,.58,0,.87a1.84,1.84,0,0,1-.06.47,1,1,0,0,1-.89.76,1.09,1.09,0,0,1-.9-.68,1.24,1.24,0,0,1-.09-.38,7.88,7.88,0,0,1,.15-2.27,1.46,1.46,0,0,1,.3-.64.75.75,0,0,1,1.22,0,1.57,1.57,0,0,1,.27.82v1Z"/><path class="cls-2" d="M29,54.09a2.33,2.33,0,0,1,.06-.49.7.7,0,0,1,.59-.57.75.75,0,0,1,.75.33,1.51,1.51,0,0,1,.15.28,8.26,8.26,0,0,1,.57,2.44,1.49,1.49,0,0,1-.06.63.77.77,0,0,1-.68.57.8.8,0,0,1-.85-.44,1.69,1.69,0,0,1-.15-.37A14.79,14.79,0,0,1,29,54.09Z"/><path class="cls-1" d="M67,63.48a4.19,4.19,0,0,1,.09-1.09,5.09,5.09,0,0,0,0-1.17,19.34,19.34,0,0,1,.57-4.29,39.11,39.11,0,0,1,2.06-6.54,22.69,22.69,0,0,1,3.76-6.17A16,16,0,0,1,77,41a8.05,8.05,0,0,1,2.81-1.2,4,4,0,0,1,4.11,1.56,16.13,16.13,0,0,1,1.83,3.3A48.47,48.47,0,0,1,88,50.71a50,50,0,0,1,1.25,5c.26,1.27.5,2.53.72,3.8.12.67.17,1.35.25,2,.09.91.2,1.82.26,2.74a7.36,7.36,0,0,1-.64,3.84,2.83,2.83,0,0,1-2.2,1.61,3.07,3.07,0,0,1-2-.45,6,6,0,0,1-1.52-1.36,3.65,3.65,0,0,1-.29-.37c-.06-.08-.13-.19-.24-.18s-.14.14-.17.24c-.12.4-.22.81-.38,1.2a4.22,4.22,0,0,1-1.28,1.76,2.82,2.82,0,0,1-2.6.55,4.65,4.65,0,0,1-2-1.16,11,11,0,0,1-2.07-2.77c-.18-.31-.24-.69-.57-.91-.2.28-.38.56-.59.83a11.47,11.47,0,0,1-1.33,1.55,4.13,4.13,0,0,1-1.69,1,2.22,2.22,0,0,1-2.43-.67,4.53,4.53,0,0,1-.89-1.57A9.29,9.29,0,0,1,67.1,65,9.11,9.11,0,0,1,67,63.48Z"/><path class="cls-2" d="M83.13,48.36c0,.75-.19,1.08-.68,1.24a.62.62,0,0,1-.59-.09,1.76,1.76,0,0,1-.66-.95c-.22-.79-.43-1.57-.63-2.36a3.21,3.21,0,0,1,0-.7.74.74,0,0,1,.53-.71A.83.83,0,0,1,82,45a1.33,1.33,0,0,1,.14.19A8.08,8.08,0,0,1,83.13,48.36Z"/><path class="cls-2" d="M86.11,55.08a1.72,1.72,0,0,1,0,.36.88.88,0,0,1-1.32.51,1.26,1.26,0,0,1-.49-.6,24.38,24.38,0,0,1-.94-2.51,1.08,1.08,0,0,1,.15-1,.75.75,0,0,1,1.35,0,9.06,9.06,0,0,1,.92,1.74A4.55,4.55,0,0,1,86.11,55.08Z"/><path class="cls-2" d="M77.21,62.08c0-.36,0-.57,0-.78a1,1,0,0,1,.19-.51.72.72,0,0,1,1.25,0,2.35,2.35,0,0,1,.21.42,9.8,9.8,0,0,1,.55,2.61,1.24,1.24,0,0,1-.3,1,.84.84,0,0,1-1.44-.13,2.1,2.1,0,0,1-.28-.9A14.22,14.22,0,0,1,77.21,62.08Z"/><path class="cls-2" d="M71.9,62.94a7.8,7.8,0,0,1-.18,1.8,1,1,0,0,1-1,.75.75.75,0,0,1-.77-.56,2.7,2.7,0,0,1-.16-.92,9.73,9.73,0,0,1,.27-2,4.69,4.69,0,0,1,.34-.8.77.77,0,0,1,1.34.12,1.39,1.39,0,0,1,.13.61C71.89,62.26,71.9,62.6,71.9,62.94Z"/><path class="cls-2" d="M86,64.38a.83.83,0,0,1-.68-.28,1.5,1.5,0,0,1-.25-.4,9.1,9.1,0,0,1-.72-2.57,2.57,2.57,0,0,1,0-.62.68.68,0,0,1,.53-.62.73.73,0,0,1,.76.29.56.56,0,0,1,.14.2,17.09,17.09,0,0,1,1.05,2.88.94.94,0,0,1-.31.92A.77.77,0,0,1,86,64.38Z"/><path class="cls-2" d="M77.45,46a15.78,15.78,0,0,1-.37,2.43,1.34,1.34,0,0,1-.76.94.44.44,0,0,1-.58,0,1.42,1.42,0,0,1-.48-1.2,14.57,14.57,0,0,1,.55-2.37,2.3,2.3,0,0,1,.24-.5.77.77,0,0,1,.81-.36.84.84,0,0,1,.62.74A1.72,1.72,0,0,1,77.45,46Z"/><path class="cls-2" d="M77.19,54.74c0-.51,0-.85.06-1.19.09-.68.41-1,.86-1.06s.77.33.93.93a2,2,0,0,1,.1.54c0,.58,0,1.16,0,1.73a1,1,0,0,1-.86,1.06,1,1,0,0,1-1-.92A8.18,8.18,0,0,1,77.19,54.74Z"/><path class="cls-2" d="M72.85,54.26a8.74,8.74,0,0,1-.31,2.1,2.81,2.81,0,0,1-.08.31.89.89,0,0,1-1,.59.9.9,0,0,1-.7-.92,7,7,0,0,1,.12-1,6.36,6.36,0,0,1,.38-1.44,2.62,2.62,0,0,1,.35-.61.62.62,0,0,1,.7-.25.72.72,0,0,1,.52.54A2,2,0,0,1,72.85,54.26Z"/><path class="cls-8" d="M35,36.53a5.36,5.36,0,0,1,3,.66l.34.19a1.93,1.93,0,0,1,.31,3.2,3.71,3.71,0,0,1-1.34.81,6.77,6.77,0,0,1-5,.07,4.79,4.79,0,0,1-1.17-.65,1.93,1.93,0,0,1,0-3.11,5.52,5.52,0,0,1,3.13-1.16C34.45,36.52,34.71,36.53,35,36.53Z"/><path class="cls-8" d="M67.35,36.53a5.36,5.36,0,0,1,3,.66l.34.19a1.92,1.92,0,0,1,.3,3.2,3.59,3.59,0,0,1-1.33.81,6.77,6.77,0,0,1-5,.07,4.79,4.79,0,0,1-1.17-.65,1.93,1.93,0,0,1,0-3.11,5.52,5.52,0,0,1,3.13-1.16C66.82,36.52,67.08,36.53,67.35,36.53Z"/></g></svg>