<svg xmlns="http://www.w3.org/2000/svg" viewBox="0 0 102 102"><defs><style>.cls-1{fill:#ffac1b;}.cls-2{fill:#ffda95;}.cls-3{fill:#421c43;}.cls-4{fill:#e4e4e5;}.cls-5{fill:#fff;}.cls-6{fill:#926589;}.cls-7{fill:#ffa8d0;}</style></defs><g id="OBJECTS"><path class="cls-1" d="M38.31,87.26a19.12,19.12,0,0,1-5.41-.87A7.77,7.77,0,0,1,29.43,84a4.86,4.86,0,0,1-1.12-2.88,4.14,4.14,0,0,1,.61-2.56,5.46,5.46,0,0,1,1.46-1.53,9.85,9.85,0,0,1,3.18-1.53c1-.27,1.94-.43,2.92-.64a12.42,12.42,0,0,1,3-.14,3.35,3.35,0,0,1,1.57.48,1.92,1.92,0,0,1,.8,2.7,8.31,8.31,0,0,1-.49.72c-.17.25-.16.32,0,.54s.29.3.45.44a2.07,2.07,0,0,1-.35,3.15,4.88,4.88,0,0,1-.55.31c-.13.07-.19.17-.07.3l.39.4a1.88,1.88,0,0,1-.51,3,3.78,3.78,0,0,1-1.73.48Z"/><path class="cls-2" d="M37.12,81.42c-.21,0-.42,0-.63,0a2.62,2.62,0,0,1-.62-.12.84.84,0,0,1-.62-.81.87.87,0,0,1,.65-.81,5,5,0,0,1,2.79,0,.76.76,0,0,1,.54.93.78.78,0,0,1-.55.6,3.59,3.59,0,0,1-1.17.19Z"/><path class="cls-2" d="M37.51,85.49A8.17,8.17,0,0,1,36,85.32a1.26,1.26,0,0,1-.37-.13.79.79,0,0,1-.5-.81.86.86,0,0,1,.7-.75,4.22,4.22,0,0,1,.94,0,10.29,10.29,0,0,1,1.24.18,1.57,1.57,0,0,1,.72.29.72.72,0,0,1-.17,1.27A2.3,2.3,0,0,1,37.51,85.49Z"/><path class="cls-2" d="M36.86,77.78a1.43,1.43,0,0,1-1-.26.75.75,0,0,1,0-1.22,1.3,1.3,0,0,1,.48-.25,5.21,5.21,0,0,1,2.42,0,.67.67,0,0,1,.52.53.64.64,0,0,1-.28.68,1.41,1.41,0,0,1-.42.22A8.79,8.79,0,0,1,36.86,77.78Z"/><path class="cls-1" d="M75.53,44.44a13.27,13.27,0,0,1-3-.28,7,7,0,0,1-3.67-2,9.62,9.62,0,0,1-2.22-4,25.53,25.53,0,0,1-.81-4.41,3,3,0,0,1,.08-.78A4.81,4.81,0,0,1,68.8,29.1,2.28,2.28,0,0,1,70.71,29a12.72,12.72,0,0,0,3.77.77c1.8.17,3.61.3,5.41.57.49.07,1,.12,1.48.21a4.09,4.09,0,0,1,1.12.37,1.34,1.34,0,0,1,.69,1.39,3.94,3.94,0,0,1-.5,1.48,9.55,9.55,0,0,1-3.63,3.75c-.46.25-1,.42-1.44.63-.24.11-.28.26-.07.4.5.34,1,.66,1.52,1,.33.21.65.44,1,.66l.18.15a1.77,1.77,0,0,1,0,2.86,3.35,3.35,0,0,1-.59.39,6,6,0,0,1-2.41.7A7.14,7.14,0,0,1,75.53,44.44Z"/><path class="cls-3" d="M76.55,35.94a.92.92,0,0,1-.88-.51.78.78,0,0,1,.07-.89,4.75,4.75,0,0,1,2-1.45.67.67,0,0,1,.79.21.72.72,0,0,1,.07.87,4.28,4.28,0,0,1-.58.75c-.3.29-.63.55-1,.82A.84.84,0,0,1,76.55,35.94Z"/><path class="cls-3" d="M72.52,32.5a25.42,25.42,0,0,0-1.28-5.28,9,9,0,0,0-.72-1.58c-.36-.6-.69-1.24-1.06-1.84a12.55,12.55,0,0,0-1.71-2.26,18.73,18.73,0,0,0-4-3.33A17.57,17.57,0,0,0,59,16.08a41,41,0,0,0-6.14-1c-2-.19-3.93-.3-5.9-.3H28.76a19.34,19.34,0,0,0-2.74.13A12.2,12.2,0,0,0,22.17,16a4.16,4.16,0,0,0-1.43,1.09A7.68,7.68,0,0,0,19,20.76a16.07,16.07,0,0,0-.22,2.59q0,13.65,0,27.32V78.22a9.91,9.91,0,0,0,1.26,5.06c.13.2.25.39.38.57a6,6,0,0,0,2,1.78,7.4,7.4,0,0,0,5.27.82,6.89,6.89,0,0,0,3.91-2.35,7,7,0,0,0,1.48-2.94,16.54,16.54,0,0,0,.47-3.91q0-7.95,0-15.91V59.1c0-.92,0-.91.91-.93H35c4.28-.05,8.57.12,12.85-.11C49,58,50,58,51.1,57.92c1.28-.12,2.56-.27,3.82-.51a26.73,26.73,0,0,0,10.3-4.2,7.05,7.05,0,0,0,.82-.62,21.07,21.07,0,0,0,3.78-4.52,19,19,0,0,0,1.87-4.23c.07-.22.14-.46.2-.7a29.22,29.22,0,0,0,.84-6.79A26.16,26.16,0,0,0,72.52,32.5Zm-39,13.28V27.07c0-.94,0-.95,1-.95,3.81,0,7.62,0,11.43.06a20.86,20.86,0,0,1,6.27,1.09,8.57,8.57,0,0,1,2.6,1.47,7,7,0,0,1,1.88,2.6,10.86,10.86,0,0,1,1,4.82,14.26,14.26,0,0,1-.35,3.44,9.61,9.61,0,0,1-1.08,2.53,7.39,7.39,0,0,1-1.67,1.77,10.65,10.65,0,0,1-4.23,2,24.53,24.53,0,0,1-4.43.73c-2.08.19-4.15.09-6.23.11-1.73,0-3.47,0-5.2,0C33.5,46.78,33.55,46.83,33.55,45.78Z"/><path class="cls-4" d="M71.69,43.84a19,19,0,0,1-1.87,4.23A21.07,21.07,0,0,1,66,52.59a7.05,7.05,0,0,1-.82.62,26.73,26.73,0,0,1-10.3,4.2c-1.26.24-2.54.39-3.82.51C50,58,49,58,47.87,58.06c-4.28.23-8.57.06-12.85.11a3.07,3.07,0,0,1,0-1,7,7,0,0,1,3.14-5.86,9.41,9.41,0,0,1,3.77-1.43,10.54,10.54,0,0,1,4.4.25c1.27.3,2.53.63,3.76,1a14.91,14.91,0,0,0,2.65.58,3.57,3.57,0,0,0,1.55-.23,7.21,7.21,0,0,0,3.33-2.37,31,31,0,0,1,3.66-3.76A9.09,9.09,0,0,1,64.4,43.8,12.27,12.27,0,0,1,68,43.28a13.83,13.83,0,0,1,3.38.46,1,1,0,0,1,.23.07Z"/><path class="cls-4" d="M33.56,77.25a16.54,16.54,0,0,1-.47,3.91,7,7,0,0,1-1.48,2.94,6.89,6.89,0,0,1-3.91,2.35,7.4,7.4,0,0,1-5.27-.82,6,6,0,0,1-2-1.78.26.26,0,0,1,.29-.08,3,3,0,0,0,.31,0c.45,0,.91,0,1.35,0A3,3,0,0,0,25,82.2a7.57,7.57,0,0,0,.83-3,22.6,22.6,0,0,0,.15-3.49c0-1-.1-2-.14-3a16,16,0,0,1,.42-4.58,8.56,8.56,0,0,1,2.93-4.63,10.94,10.94,0,0,1,3.48-2,4.88,4.88,0,0,1,.54-.18c.18,0,.3,0,.38,0Q33.55,69.31,33.56,77.25Z"/><path class="cls-5" d="M69.21,32.32a3.5,3.5,0,0,1-3.53,3.43,3.36,3.36,0,0,1-3.43-3.47,3.43,3.43,0,0,1,3.53-3.47A3.53,3.53,0,0,1,69.21,32.32Z"/><path class="cls-3" d="M43.16,62.67a10.37,10.37,0,0,1-.66,4.1,7,7,0,0,1-4,4.24,6.11,6.11,0,0,1-6.25-.87,7.42,7.42,0,0,1-2.3-3,25.63,25.63,0,0,1-1.2-3.59,35.9,35.9,0,0,0-1.57-4.62,13.11,13.11,0,0,0-2.92-4.36c-.41-.38-.86-.69-1.29-1a3.14,3.14,0,0,1-1.18-2.31,6.34,6.34,0,0,1,3.4-5.71A5.7,5.7,0,0,1,28.27,45,10.79,10.79,0,0,1,32,46.06a17.55,17.55,0,0,1,3.69,2.1,25.76,25.76,0,0,1,3,3,19.08,19.08,0,0,1,2.67,4.17A18,18,0,0,1,43,60.24,9.69,9.69,0,0,1,43.16,62.67Z"/><path class="cls-3" d="M63.5,32.11a2.16,2.16,0,0,1,4.31.07,2.16,2.16,0,1,1-4.31-.07Z"/><path class="cls-6" d="M29.1,63.22A1.5,1.5,0,0,1,29,64a.83.83,0,0,1-1.38.15,1.93,1.93,0,0,1-.29-.55c-.11-.3-.2-.6-.28-.91a38.54,38.54,0,0,0-2.18-6.16c-.32-.69-.73-1.33-1.11-2-.26-.45-.3-.7-.08-.93s.64-.18,1-.08a1.48,1.48,0,0,1,.61.48,10,10,0,0,1,1.81,2.94,44.29,44.29,0,0,1,1.88,5.52C29,62.75,29.07,63.06,29.1,63.22Z"/><path class="cls-6" d="M52.79,20.8a8.06,8.06,0,0,1-.16,1.61,1.23,1.23,0,0,1-.33.71A.88.88,0,0,1,50.84,23a1.63,1.63,0,0,1-.24-.83c0-.63,0-1.26,0-1.89a1.52,1.52,0,0,1,.47-1.06,1,1,0,0,1,1.57.34A2.84,2.84,0,0,1,52.79,20.8Z"/><path class="cls-6" d="M57.5,22c0-.31,0-.63,0-.94a1.4,1.4,0,0,1,.37-.93,1,1,0,0,1,1.52,0,1.16,1.16,0,0,1,.32.71,8.34,8.34,0,0,1-.1,2.34,1.25,1.25,0,0,1-.36.68.94.94,0,0,1-1.54-.2,1.52,1.52,0,0,1-.22-.75V22Z"/><path class="cls-6" d="M24.09,33.79a1.79,1.79,0,0,1-.39,1.32.63.63,0,0,1-.9.18,1.27,1.27,0,0,1-.67-.83,8,8,0,0,1-.1-2.58,1.61,1.61,0,0,1,.21-.59.76.76,0,0,1,1.35,0,1.5,1.5,0,0,1,.18.43A11.23,11.23,0,0,1,24.09,33.79Z"/><path class="cls-6" d="M23.78,43.58c0,.32,0,.63,0,.94a2.48,2.48,0,0,1,0,.39,1.13,1.13,0,0,1-.89.89,1.06,1.06,0,0,1-1-.75,2.56,2.56,0,0,1-.12-1.23,4,4,0,0,0,.07-.78,3.26,3.26,0,0,1,.26-1.15.78.78,0,0,1,.7-.54.82.82,0,0,1,.8.53,1.28,1.28,0,0,1,.16.6v1.1Z"/><path class="cls-6" d="M44.94,21.26c0,.26,0,.52,0,.78a1.14,1.14,0,0,1-.65.84.63.63,0,0,1-.67-.05,1.29,1.29,0,0,1-.51-.68,7.7,7.7,0,0,1-.36-2.23,1.2,1.2,0,0,1,.48-1,.74.74,0,0,1,1,0,1.41,1.41,0,0,1,.55.91A8.23,8.23,0,0,1,44.94,21.26Z"/><path class="cls-6" d="M27.37,32.19a2.92,2.92,0,0,1,.13-1,.83.83,0,0,1,.65-.62.85.85,0,0,1,.81.38,1.4,1.4,0,0,1,.16.26,8.43,8.43,0,0,1,.45,2.54.39.39,0,0,1,0,.15,1.17,1.17,0,0,1-1,1,1.11,1.11,0,0,1-1-.89A7.11,7.11,0,0,1,27.37,32.19Z"/><path class="cls-6" d="M29.55,54.11a.82.82,0,0,1,1.23-.78,1.49,1.49,0,0,1,.32.24,9,9,0,0,1,1.49,1.93,1,1,0,0,1,0,1,.92.92,0,0,1-1.21.41,1.32,1.32,0,0,1-.55-.44,9.73,9.73,0,0,1-1.16-1.87A1.23,1.23,0,0,1,29.55,54.11Z"/><path class="cls-6" d="M27.81,42.83c0-.29,0-.58,0-.87a2,2,0,0,1,.11-.53.66.66,0,0,1,.63-.49c.34,0,.67.05.8.38a6.31,6.31,0,0,1,.54,3,1,1,0,0,1-.77.8,1,1,0,0,1-1-.38,1.45,1.45,0,0,1-.32-.86c0-.34,0-.68,0-1Z"/><path class="cls-6" d="M35.74,65.36a1.2,1.2,0,0,1-.15.69.83.83,0,0,1-1.38.19,1.62,1.62,0,0,1-.35-.61,6.26,6.26,0,0,1-.36-2.39,1.15,1.15,0,0,1,.16-.6.72.72,0,0,1,1.14-.15,1.21,1.21,0,0,1,.34.52,15.5,15.5,0,0,1,.58,2.2A.77.77,0,0,1,35.74,65.36Z"/><path class="cls-6" d="M29.9,22.48a1.83,1.83,0,0,1-.37,1A.92.92,0,0,1,28,23.37a1.22,1.22,0,0,1-.22-.67c0-.65,0-1.31,0-2a1.65,1.65,0,0,1,.19-.68A.77.77,0,0,1,29.37,20a2.61,2.61,0,0,1,.3.73C29.84,21.31,29.71,21.93,29.9,22.48Z"/><path class="cls-6" d="M37,21.53c0,.26,0,.52,0,.78a.93.93,0,0,1-.59.78.76.76,0,0,1-.81-.12,1.61,1.61,0,0,1-.51-.77,7.51,7.51,0,0,1-.31-1.69,1.14,1.14,0,0,1,.61-1.18.79.79,0,0,1,1,.09,1.51,1.51,0,0,1,.48.79A4.52,4.52,0,0,1,37,21.53Z"/><path class="cls-6" d="M36.87,54.55a.9.9,0,0,1-1.35.77,2.29,2.29,0,0,1-.61-.59c-.33-.41-.64-.83-.94-1.26a1.71,1.71,0,0,1-.27-.56.75.75,0,0,1,.89-.94,1.55,1.55,0,0,1,.76.37,7.23,7.23,0,0,1,1.32,1.55A1.05,1.05,0,0,1,36.87,54.55Z"/><path class="cls-6" d="M22,21.52a3.22,3.22,0,0,1,.14-1.13,1.26,1.26,0,0,1,.13-.37.73.73,0,0,1,.68-.46.79.79,0,0,1,.7.43,2.2,2.2,0,0,1,.24.83A12,12,0,0,0,24,22.15a1.23,1.23,0,0,1-.18.91c-.18.3-.41.57-.8.53a.91.91,0,0,1-.83-.64A3.92,3.92,0,0,1,22,21.88C22,21.77,22,21.67,22,21.52Z"/><path class="cls-6" d="M37.46,63.46a3.82,3.82,0,0,1,0-.49.73.73,0,0,1,.56-.68.75.75,0,0,1,.78.26,1.72,1.72,0,0,1,.31.54,9.85,9.85,0,0,1,.4,1.77v.08a1.14,1.14,0,0,1-.82,1.11,1,1,0,0,1-1-.82A6,6,0,0,1,37.46,63.46Z"/><path class="cls-7" d="M65.28,45.41a6.06,6.06,0,0,1-2.53-.51,2.9,2.9,0,0,1-1.53-1.29,1.6,1.6,0,0,1,0-1.65,2.8,2.8,0,0,1,1.24-1.17,6.8,6.8,0,0,1,6-.19,2.64,2.64,0,0,1,1.34,1.17,1.7,1.7,0,0,1,0,1.73,2.69,2.69,0,0,1-1.05,1A6.55,6.55,0,0,1,65.28,45.41Z"/></g></svg>