<svg xmlns="http://www.w3.org/2000/svg" viewBox="0 0 102 102"><defs><style>.cls-1{fill:#45cc96;}.cls-2{fill:#421c43;}.cls-3{fill:#6ff6c0;}.cls-4{fill:#ffac1b;}.cls-5{fill:#ffda95;}.cls-6{fill:#0d6c6f;}.cls-7{fill:#45cc95;}.cls-8{fill:#f75e9d;}</style></defs><g id="OBJECTS"><path class="cls-1" d="M17.15,56.24c0-.45,0-1.13,0-1.82a42,42,0,0,1,.42-4.62c.15-1.07.29-2.14.51-3.19a32.25,32.25,0,0,1,2.11-6.93c.39-.83.71-1.7,1.1-2.53a25.4,25.4,0,0,1,2.86-4.71c.71-.92,1.46-1.8,2.19-2.69.12-.14.25-.27.38-.4a32.64,32.64,0,0,1,8.21-5.82,19.67,19.67,0,0,1,2-.83,41.58,41.58,0,0,1,6.73-2c1-.18,2.07-.33,3.12-.42s1.89-.13,2.83-.15c.52,0,1-.14,1.57-.12,1.71.05,3.41.13,5.11.27a30.93,30.93,0,0,1,5,.79,41.32,41.32,0,0,1,6.94,2.33c.77.35,1.49.78,2.23,1.19a27.51,27.51,0,0,1,4.47,3.08,20.19,20.19,0,0,1,3.07,3.06,13.76,13.76,0,0,0,.92,1.08A14.65,14.65,0,0,1,80.44,34a33.79,33.79,0,0,1,3.16,6.34,37,37,0,0,1,1.81,6.28c.32,1.6.49,3.22.74,4.83,0,0,0,.1,0,.16.06,1.62.19,3.25.19,4.88s-.07,3.15-.2,4.72c-.09,1.21-.27,2.41-.46,3.6A38,38,0,0,1,84,71.59a35,35,0,0,1-1.9,4.51,27.27,27.27,0,0,1-5,7A43.15,43.15,0,0,1,69.78,89,18,18,0,0,1,66,90.79a36.92,36.92,0,0,1-5.93,1.63q-2.45.42-4.92.6c-1.53.12-3,.11-4.57.1a41.09,41.09,0,0,1-5-.39,37.8,37.8,0,0,1-7.56-1.86,16.24,16.24,0,0,1-3.39-1.49c-.53-.33-1.14-.52-1.69-.85A26.32,26.32,0,0,1,28.12,85c-.46-.44-.92-.86-1.37-1.3a30.4,30.4,0,0,1-2.15-2.52,29.24,29.24,0,0,1-3-4.62c-.37-.67-.65-1.38-1-2.08s-.63-1.56-.95-2.34a33.15,33.15,0,0,1-1.59-5.69c-.36-1.67-.55-3.37-.76-5.06A33.72,33.72,0,0,1,17.15,56.24Zm15.06.22a40.09,40.09,0,0,0,.1,4.1,36.61,36.61,0,0,0,.54,3.74,26,26,0,0,0,1.24,4.47,21.29,21.29,0,0,0,1.58,3.17,17.56,17.56,0,0,0,3.13,4,23.87,23.87,0,0,0,2,1.77,19.4,19.4,0,0,0,5.34,2.68,22,22,0,0,0,5.52.81,1.84,1.84,0,0,0,.47,0,11.37,11.37,0,0,1,1.65-.15,2.56,2.56,0,0,0,.39,0,20.67,20.67,0,0,0,10.3-4.81,14.24,14.24,0,0,0,2.86-3.43,25.81,25.81,0,0,0,3.33-8.63c.1-.57.25-1.14.31-1.71A44.59,44.59,0,0,0,71.31,58,48.63,48.63,0,0,0,71,51.08a29,29,0,0,0-1.24-5.52A24.15,24.15,0,0,0,67.1,40a15.7,15.7,0,0,0-3.76-4.12,16.91,16.91,0,0,0-4.29-2.45A21,21,0,0,0,51,32a19.8,19.8,0,0,0-4.13.53A17.51,17.51,0,0,0,43,33.89a16.64,16.64,0,0,0-4.1,2.92,16,16,0,0,0-2.69,3.28c-.14.25-.29.5-.44.75a22.58,22.58,0,0,0-2.49,6c-.18.76-.37,1.53-.54,2.3a30.86,30.86,0,0,0-.54,4.29C32.15,54.46,32.21,55.46,32.21,56.46Z"/><path class="cls-2" d="M29.9,39.25a2.15,2.15,0,1,1,0,4.29,2.15,2.15,0,0,1,0-4.29Z"/><path class="cls-3" d="M74.81,62.68A8.67,8.67,0,0,0,75,64.86l.12.38a.14.14,0,0,0,.25,0,6.17,6.17,0,0,0,.92-1.64c.18-.41.34-.83.5-1.25a1.64,1.64,0,0,1,.43-.65.85.85,0,0,1,1.39.22,1.81,1.81,0,0,1,.21.67c.1.76.2,1.51.31,2.26a3.91,3.91,0,0,0,.35,1.21,2.3,2.3,0,0,0,.21.33.29.29,0,0,0,.47,0,3.8,3.8,0,0,0,.65-1,13.27,13.27,0,0,0,.56-1.72,2.1,2.1,0,0,1,.76-1.08.51.51,0,0,1,.81.14,1.43,1.43,0,0,1,.22,1.13,11,11,0,0,1-.94,2.59A6.65,6.65,0,0,1,81,67.92a1.67,1.67,0,0,1-2.46,0,4,4,0,0,1-1-1.5c-.07-.17-.11-.36-.19-.52s-.15-.15-.24,0l-.57.65a3.55,3.55,0,0,1-.34.33,1.72,1.72,0,0,1-2.9-.66,4.39,4.39,0,0,1-.44-1.82,14.12,14.12,0,0,1,.12-3,3.86,3.86,0,0,1,.2-.76.78.78,0,0,1,1.54.15,4.43,4.43,0,0,1,0,.63Z"/><path class="cls-3" d="M36.62,30.1a1.44,1.44,0,0,1-.31.87,11.46,11.46,0,0,0-.85,1.43,4.17,4.17,0,0,0-.32,1c-.06.28,0,.38.34.35a2.58,2.58,0,0,0,1.3-.51l1.82-1.38c.27-.21.53-.43.82-.62a.74.74,0,0,1,1,.12.7.7,0,0,1,.19.92,1.41,1.41,0,0,1-.38.49,28,28,0,0,1-2.8,2.18,4.57,4.57,0,0,1-1.75.68,2.75,2.75,0,0,1-1.53-.22,1.82,1.82,0,0,1-1-2c.12-.54.3-1.06.46-1.59.08-.3,0-.36-.3-.29l-.62.15a2.76,2.76,0,0,1-.86.08A1.43,1.43,0,0,1,30.5,30a4.15,4.15,0,0,1,1-2,8.1,8.1,0,0,1,2.54-2c.42-.22.84-.44,1.27-.65a.61.61,0,0,1,.53,0,.65.65,0,0,1,.34,1,2.05,2.05,0,0,1-.63.58c-.67.47-1.35.92-2,1.4a4,4,0,0,0-1.13,1.4.2.2,0,0,0,0,.15.19.19,0,0,0,.14.05l2-.56a8.59,8.59,0,0,1,.84-.21A1,1,0,0,1,36.62,30.1Z"/><path class="cls-3" d="M83.05,47.36a10.53,10.53,0,0,1-.34,2.5,3.39,3.39,0,0,1-.83,1.59,1.61,1.61,0,0,1-1.95.34,2.9,2.9,0,0,1-1.11-.86,7.47,7.47,0,0,1-.89-1.39c0-.06-.11-.1-.17-.15a2,2,0,0,0-.12.19A6.15,6.15,0,0,1,77,50.93a1.8,1.8,0,0,1-3.13.1,3.27,3.27,0,0,1-.53-1,13.79,13.79,0,0,1-.63-4,1.38,1.38,0,0,1,.23-.82.5.5,0,0,1,.86,0,2.44,2.44,0,0,1,.39.94c.16.77.33,1.54.48,2.32a6.28,6.28,0,0,0,.41,1.27c.06.14.14.32.3.34s.25-.17.32-.31a6.35,6.35,0,0,0,.49-1.49c.1-.46.19-.93.29-1.39a3.84,3.84,0,0,1,.11-.46,1,1,0,0,1,1.6-.34,3.93,3.93,0,0,1,.7,1.05l1,2.11a1.6,1.6,0,0,0,.55.66.19.19,0,0,0,.28,0,2.26,2.26,0,0,0,.31-.88,11.63,11.63,0,0,0,.19-2.36,1.6,1.6,0,0,1,.19-.91c.16-.27.34-.57.7-.56s.48.29.64.53a1.7,1.7,0,0,1,.24,1Z"/><path class="cls-3" d="M20.3,64.84V63.66a1.35,1.35,0,0,1,.36-.94.47.47,0,0,1,.75.05,1.31,1.31,0,0,1,.19.51c.08.47.13.94.18,1.41a11.42,11.42,0,0,0,.43,2.39,1.35,1.35,0,0,0,.32.63.16.16,0,0,0,.27,0,2,2,0,0,0,.33-.79c.11-.54.21-1.08.32-1.62a2.33,2.33,0,0,1,.16-.53A.85.85,0,0,1,25,64.5a2.67,2.67,0,0,1,.46.64c.31.48.63,1,1,1.43a2.07,2.07,0,0,0,.77.67.29.29,0,0,0,.45-.15,1.48,1.48,0,0,0,.11-.62A13.19,13.19,0,0,0,27.64,64a1.16,1.16,0,0,1,.3-1,.55.55,0,0,1,.7-.17,1.11,1.11,0,0,1,.71.88,8.11,8.11,0,0,1,.18,1.56c0,.45,0,.89,0,1.34a3.22,3.22,0,0,1-.46,1.57,1.81,1.81,0,0,1-2,.89,3.59,3.59,0,0,1-1.8-1.07c-.07-.08-.12-.17-.19-.25-.2-.24-.33-.22-.46,0a2.87,2.87,0,0,1-.15.37,4.93,4.93,0,0,1-.45.73,1.63,1.63,0,0,1-2.78-.08,5.82,5.82,0,0,1-.91-3A7.37,7.37,0,0,1,20.3,64.84Z"/><path class="cls-3" d="M70,38.21a2.31,2.31,0,0,1-1.55-.5,9.19,9.19,0,0,1-2.73-3.42.62.62,0,0,1,.1-.79.58.58,0,0,1,.79-.08,2.61,2.61,0,0,1,.45.43c.39.46.76.94,1.17,1.39a4.09,4.09,0,0,0,1.42,1.22c.23.1.37,0,.35-.22a3.2,3.2,0,0,0-.08-.54c-.14-.59-.26-1.19-.44-1.76a1,1,0,0,1,1.42-1.24,6.36,6.36,0,0,1,1.19.61,1.49,1.49,0,0,0,.89.28c.23,0,.36-.14.32-.35a3.33,3.33,0,0,0-.31-1l-.9-1.57c-.12-.21-.24-.41-.34-.63a1.15,1.15,0,0,1-.11-.61c0-.58.39-.77.92-.55a1.64,1.64,0,0,1,.83.7,12.4,12.4,0,0,1,1.4,2.55,8.41,8.41,0,0,1,.28,1A2,2,0,0,1,73,35.53a5.71,5.71,0,0,1-1.23-.25.19.19,0,0,0-.26.19,1.46,1.46,0,0,0,0,.31,2.46,2.46,0,0,1-.07,1.32A1.34,1.34,0,0,1,70,38.21Z"/><path class="cls-3" d="M46.57,85.69l.66.1a2.94,2.94,0,0,0,1.32-.06c.23-.08.26-.16.13-.34a2.18,2.18,0,0,0-.85-.68c-.37-.2-.76-.36-1.14-.54l-1-.45a1.45,1.45,0,0,1-.56-.42.72.72,0,0,1-.11-.81.75.75,0,0,1,.7-.44,2,2,0,0,1,.54.1,11.1,11.1,0,0,1,3,1.51,3.31,3.31,0,0,1,1.23,1.6,1.38,1.38,0,0,1-.45,1.62,2.37,2.37,0,0,1-1,.5l-.54.13c-.33.09-.39.21-.22.5a3.64,3.64,0,0,1,.41,1,1.33,1.33,0,0,1-.91,1.61,2.45,2.45,0,0,1-1.17.1,10.4,10.4,0,0,1-3.91-1.41,1.38,1.38,0,0,1-.4-.36.57.57,0,0,1,.44-.92,1.72,1.72,0,0,1,.83.2,11.93,11.93,0,0,0,2.38.81,7,7,0,0,0,.78.11c.07,0,.18,0,.21-.07s0-.15,0-.21a4.57,4.57,0,0,0-1-1.12,3.27,3.27,0,0,1-.65-.69.86.86,0,0,1,.58-1.34C46.1,85.71,46.32,85.71,46.57,85.69Z"/><path class="cls-3" d="M31.51,81.51c-.07-.42-.19-1-.28-1.61a.85.85,0,0,1,.6-1.05.91.91,0,0,1,.75.13c.44.24.87.5,1.3.75a1.37,1.37,0,0,0,.71.3,1,1,0,0,0-.05-.83,6,6,0,0,0-.67-1.51,3.76,3.76,0,0,1-.3-.56,1.94,1.94,0,0,1-.12-.53.7.7,0,0,1,.31-.75.72.72,0,0,1,.74.13,1.21,1.21,0,0,1,.45.42,10.51,10.51,0,0,1,1.29,3.12,2.32,2.32,0,0,1-.11,1.25,1.45,1.45,0,0,1-1.67,1,3.08,3.08,0,0,1-1.25-.45.17.17,0,0,0-.14,0,.15.15,0,0,0,0,.14,1.92,1.92,0,0,1,0,1.16,1.47,1.47,0,0,1-2.07,1.06,5.53,5.53,0,0,1-2.72-2.42c-.25-.41-.43-.84-.64-1.27a1,1,0,0,1-.11-.29.62.62,0,0,1,.26-.76.6.6,0,0,1,.78.15,3.11,3.11,0,0,1,.39.49c.32.46.61.93.93,1.37a3.31,3.31,0,0,0,1.29,1.14c.27.13.39.06.4-.23Z"/><path class="cls-4" d="M23.53,46.61a7,7,0,0,1-2.13,5.33A7.31,7.31,0,0,1,17.26,54a7,7,0,0,1-5.7-1.9,12.13,12.13,0,0,1-1.27-1.5,10.52,10.52,0,0,1-.85-2.29c0-.07,0-.15,0-.23-.09-.37-.23-.5-.61-.42s-.87.22-1.3.34a6.45,6.45,0,0,1-.75.22.89.89,0,0,1-1-.57.83.83,0,0,1,0-.62,11.77,11.77,0,0,1,1.66-3,14.29,14.29,0,0,1,2.18-2.15,10.38,10.38,0,0,1,5.33-2.4,7.8,7.8,0,0,1,4.77.64,6.9,6.9,0,0,1,3.66,4.78A6,6,0,0,1,23.53,46.61Z"/><path class="cls-2" d="M13.34,44.21a.88.88,0,0,1-.82-.47.92.92,0,0,1,.07-1,1.28,1.28,0,0,1,.4-.37,7.1,7.1,0,0,1,1.77-.81.78.78,0,0,1,.68.06.76.76,0,0,1,.29,1.08,4.1,4.1,0,0,1-2.21,1.52A.82.82,0,0,1,13.34,44.21Z"/><path class="cls-5" d="M10.8,46.82a9.78,9.78,0,0,1,2.83.64,13.13,13.13,0,0,0,2.08.72,4.07,4.07,0,0,0,4-1.19,8.3,8.3,0,0,0,.61-.82,4.71,4.71,0,0,1,.33-.45.56.56,0,0,1,.63-.19.65.65,0,0,1,.45.51,1.55,1.55,0,0,1-.06.77A3.75,3.75,0,0,1,21,48,6.53,6.53,0,0,1,18.05,50a4.55,4.55,0,0,1-3.38-.2c-.57-.27-1.16-.5-1.74-.74A4.82,4.82,0,0,0,11,48.63a6.91,6.91,0,0,1-.79,0,2.34,2.34,0,0,1-.46-.09.74.74,0,0,1-.59-.67.72.72,0,0,1,.42-.7A2.32,2.32,0,0,1,10.8,46.82Z"/><path class="cls-6" d="M72.79,91.51c0,.61,0,1.22,0,1.82a4.13,4.13,0,0,1-.7,2.15,2.9,2.9,0,0,1-2.45,1.34,3.71,3.71,0,0,1-2.66-1,9.92,9.92,0,0,1-1.77-2.11,44.26,44.26,0,0,1-2.11-4c-1-1.92-1.92-3.86-3-5.72-.38-.66-.75-1.33-1.11-2a10.71,10.71,0,0,0-1.15-1.69,51.79,51.79,0,0,0-4.49-4.76,20,20,0,0,1-2.66-3,4.86,4.86,0,0,1-.94-2.72,2.68,2.68,0,0,1,1.43-2.47,5.37,5.37,0,0,1,1.17-.46,16.35,16.35,0,0,1,2.87-.46,3.38,3.38,0,0,1,.55,0,5.71,5.71,0,0,0,.71.08,18.16,18.16,0,0,1,4.26.71,48.47,48.47,0,0,1,7,2.58,68.13,68.13,0,0,1,7,3.64c2.38,1.36,4.64,2.9,7,4.36s4.56,3.12,6.85,4.66A38.76,38.76,0,0,1,92,85a21,21,0,0,1,3.28,3.18,5.64,5.64,0,0,1,.85,1.41,2.92,2.92,0,0,1-.1,2.45,2.74,2.74,0,0,1-1.46,1.26,4.86,4.86,0,0,1-2.72.23,7.62,7.62,0,0,1-2.23-.75,17.41,17.41,0,0,1-2.28-1.26c-.06,0-.14-.1-.2,0a.17.17,0,0,0,0,.14A19.11,19.11,0,0,1,87.88,94a6.3,6.3,0,0,1,.21,1.56,2.83,2.83,0,0,1-2.26,2.76,5,5,0,0,1-2.49-.1A12.79,12.79,0,0,1,80.45,97a29.16,29.16,0,0,1-5.79-4.47c-.58-.57-1.19-1.11-1.79-1.67a.52.52,0,0,0-.13-.06s-.06.09,0,.13C72.72,91.1,72.76,91.31,72.79,91.51Z"/><path class="cls-7" d="M83.48,94.08a.74.74,0,0,1-.59.8,1.4,1.4,0,0,1-1.12-.27c-.68-.5-1.37-1-2-1.51a18.71,18.71,0,0,1-1.92-1.75c-1.08-1.22-2.16-2.43-3.18-3.7-1.89-2.33-3.57-4.81-5.33-7.23a30.41,30.41,0,0,0-2.75-3.35c-.88-.9-1.69-1.87-2.55-2.79a6,6,0,0,0-1-.92,2,2,0,0,1-.44-.44.62.62,0,0,1,0-.74.6.6,0,0,1,.7-.2,3.78,3.78,0,0,1,1.25.67c.42.35.84.71,1.24,1.08a43.94,43.94,0,0,1,6.1,6.9c1.48,2.08,3,4.12,4.61,6.1a38.78,38.78,0,0,0,4.22,4.56c.67.59,1.38,1.13,2.08,1.7a2.05,2.05,0,0,1,.58.63A1,1,0,0,1,83.48,94.08Z"/><path class="cls-7" d="M69.14,89.75a3.45,3.45,0,0,1-.07.55.57.57,0,0,1-.92.33A3.36,3.36,0,0,1,67,89.24a39.94,39.94,0,0,0-2-4.11,40,40,0,0,0-4.64-6.84c-1-1.2-2.16-2.29-3.27-3.41a14.57,14.57,0,0,0-2.23-1.75,4.73,4.73,0,0,1-.86-.69.54.54,0,0,1-.13-.58.65.65,0,0,1,.63-.38,1.82,1.82,0,0,1,.67.22,13.2,13.2,0,0,1,3.57,2.43c.94.92,1.89,1.83,2.79,2.78a34.3,34.3,0,0,1,4,5.34,42.19,42.19,0,0,1,3.36,6.51A2.26,2.26,0,0,1,69.14,89.75Z"/><path class="cls-7" d="M89.93,90a3.4,3.4,0,0,1-1-.3,28,28,0,0,1-3.83-2,25,25,0,0,1-4-3,33.11,33.11,0,0,1-3-2.91c-.53-.58-1-1.21-1.49-1.83a1.73,1.73,0,0,1-.28-.56.53.53,0,0,1,.61-.68,1.51,1.51,0,0,1,.75.41l1.85,1.71a40.5,40.5,0,0,0,7.53,5.82,25.59,25.59,0,0,0,2.81,1.43,1.69,1.69,0,0,1,.72.48.76.76,0,0,1,.18.87A.85.85,0,0,1,89.93,90Z"/><path class="cls-6" d="M51.77,27.48a21.47,21.47,0,0,1-3.92-.31A12.18,12.18,0,0,1,44.54,26a3.45,3.45,0,0,1-1-.79,1.84,1.84,0,0,1-.18-2.38,6,6,0,0,1,1.39-1.37,10.39,10.39,0,0,0,2.8-3.28c.56-1,1-2.07,1.5-3.12a2,2,0,0,1,.09-.22,15.3,15.3,0,0,0,1.29-3.29,21,21,0,0,1,2.4-5,6.87,6.87,0,0,1,3-2.67,2.6,2.6,0,0,1,2.91.51,3.73,3.73,0,0,1,1,1.77,4.93,4.93,0,0,1,.11,2.26,10.17,10.17,0,0,0-.18,1.25.18.18,0,0,0,0,.14c.06.07.14,0,.21,0l.51-.36a7.77,7.77,0,0,1,2.86-1.28,4.29,4.29,0,0,1,3.39.66,2.31,2.31,0,0,1,1,1.86,4.45,4.45,0,0,1-.71,2.7c-.25.43-.55.83-.84,1.24-.11.17-.24.34-.35.52s0,.15.09.15l.23,0a6.87,6.87,0,0,1,3.84.58,2.69,2.69,0,0,1,.93.71,2,2,0,0,1,.48,2.05,5.61,5.61,0,0,1-1.16,2,15.19,15.19,0,0,1-4.13,3.26A33.21,33.21,0,0,1,58,26.91a20.54,20.54,0,0,1-2.72.43A33,33,0,0,1,51.77,27.48Z"/><path class="cls-7" d="M49.72,25h-.86a1.83,1.83,0,0,1-.47,0,.86.86,0,0,1-.67-.7.81.81,0,0,1,.48-.82,2.44,2.44,0,0,1,1-.24A51.89,51.89,0,0,0,57.13,22a45.48,45.48,0,0,0,4.43-1.1,27.79,27.79,0,0,0,4.51-2.06,2.5,2.5,0,0,1,.79-.33.58.58,0,0,1,.61.27c.13.17,0,.35,0,.52a1.73,1.73,0,0,1-.54.66,16.44,16.44,0,0,1-3.46,2,34.31,34.31,0,0,1-6.18,1.85c-1.23.27-2.46.53-3.71.72A21.27,21.27,0,0,1,49.72,25Z"/><path class="cls-7" d="M52.92,19.37a1,1,0,0,1-.92-.6.89.89,0,0,1,.31-1,2.91,2.91,0,0,1,.62-.35A43.39,43.39,0,0,0,60,13c.38-.29.73-.6,1.1-.9a2.35,2.35,0,0,1,.32-.23.63.63,0,0,1,.74,0,.67.67,0,0,1,.23.77,2.18,2.18,0,0,1-.47.73,16.59,16.59,0,0,1-2.59,2.29,31.4,31.4,0,0,1-5.15,3.2,8.41,8.41,0,0,1-.87.37A2.94,2.94,0,0,1,52.92,19.37Z"/><path class="cls-7" d="M56.36,8.05c0,.2-.08.49-.17.76a11.35,11.35,0,0,1-1,2.38c-.36.58-.69,1.18-1,1.76a1.3,1.3,0,0,1-1.12.62.59.59,0,0,1-.66-.44,1.41,1.41,0,0,1,.1-1.29c.28-.44.53-.9.81-1.34a27.48,27.48,0,0,0,1.37-2.57c.1-.19.18-.38.29-.56a.79.79,0,0,1,.86-.4.79.79,0,0,1,.58.76Z"/><path class="cls-8" d="M31.07,53.42a5.4,5.4,0,0,1-5.41,5.42,5.34,5.34,0,0,1-5.42-5.4,5.42,5.42,0,1,1,10.83,0Z"/></g></svg>