<svg xmlns="http://www.w3.org/2000/svg" viewBox="0 0 102 102"><defs><style>.cls-1{fill:#828283;}.cls-2{fill:#5c5c5c;}.cls-3{fill:#bdbdbe;}.cls-4{fill:#e4e4e5;}.cls-5{fill:#421c43;}.cls-6{fill:#f75e9d;}.cls-7{fill:#fff;}</style></defs><g id="OBJECTS"><path class="cls-1" d="M59,27a10.14,10.14,0,0,1,.32-2.07A30.22,30.22,0,0,1,62,17.61a19.85,19.85,0,0,1,2.76-4,21,21,0,0,1,2-2.05A8.27,8.27,0,0,1,69.05,10,2.51,2.51,0,0,1,71,10a5.82,5.82,0,0,1,2.84,2.17,10,10,0,0,1,1.7,4.61,9.22,9.22,0,0,1-.15,2.73,5.72,5.72,0,0,1-1,2.37,8.43,8.43,0,0,1-1.48,1.63A7.19,7.19,0,0,1,68.77,25c-.55.05-1.09.09-1.64.19a3.9,3.9,0,0,0-2.91,2.06c-.28.51-.59,1-.89,1.49a3.22,3.22,0,0,1-.74.82,2.33,2.33,0,0,1-2.15.47,1.57,1.57,0,0,1-1.15-1.09A4.76,4.76,0,0,1,59,27Z"/><path class="cls-2" d="M70.83,12.84a.67.67,0,0,1-.13.44,3.09,3.09,0,0,1-.4.48,37.91,37.91,0,0,0-3.82,4.39,1.75,1.75,0,0,1-.64.57.82.82,0,0,1-1-.16.77.77,0,0,1-.11-.94,3.45,3.45,0,0,1,.25-.41,26.32,26.32,0,0,1,3.13-3.62,7.77,7.77,0,0,1,1.77-1.3A.64.64,0,0,1,70.83,12.84Z"/><path class="cls-2" d="M68.31,18.5a.77.77,0,0,1,.2-.58A5.68,5.68,0,0,1,70,16.73a1.18,1.18,0,0,1,.45-.14.71.71,0,0,1,.74,1,.64.64,0,0,1-.08.14,9.19,9.19,0,0,1-1.49,1.5.69.69,0,0,1-.81.05A.78.78,0,0,1,68.31,18.5Z"/><path class="cls-3" d="M23.64,56.22q0-13.59,0-27.16a11.87,11.87,0,0,1,.71-4.17,7.26,7.26,0,0,1,.78-1.55,5.12,5.12,0,0,1,2-1.82,11.52,11.52,0,0,1,3.46-1,17.22,17.22,0,0,1,2.59-.13H57.55c1.57,0,3.14.15,4.71.28a31.08,31.08,0,0,1,4.9.79,17.46,17.46,0,0,1,2.48.79,20.07,20.07,0,0,1,5.42,3.34,17.75,17.75,0,0,1,5.21,7.85A16.88,16.88,0,0,1,81,36.72a29.85,29.85,0,0,1,.1,5.75,15.91,15.91,0,0,1-1.53,6.08,15.17,15.17,0,0,1-2.47,3.74,19.23,19.23,0,0,1-3.52,3,16,16,0,0,1-2.06,1.16l-.63.31A23.53,23.53,0,0,1,64.75,59a3.33,3.33,0,0,0-.45.13.14.14,0,0,0-.09.11s0,.09.07.12l.19.13a22.33,22.33,0,0,1,3.22,2.41c.73.68,1.49,1.34,2.17,2.07a47.87,47.87,0,0,1,3.84,4.69c.55.77,1.15,1.51,1.67,2.3a72.47,72.47,0,0,1,4.26,7.28A42.21,42.21,0,0,1,82,83.82c.11.32.18.66.29,1a4.8,4.8,0,0,1-.83,4.47,6.6,6.6,0,0,1-4,2.7,8.06,8.06,0,0,1-4.59-.15,7.78,7.78,0,0,1-2.5-1.47,10.71,10.71,0,0,1-2.12-2.43c-.76-1.14-1.5-2.28-2.21-3.45-1.58-2.61-3.14-5.24-4.69-7.86s-3.19-5.32-4.93-7.9a25.4,25.4,0,0,0-4-4.66,10.73,10.73,0,0,0-6-2.77c-.83-.1-1.68-.1-2.51-.19-1.52-.16-3-.06-4.57-.1h-.47c-.23,0-.33.12-.34.35s0,.53,0,.79V82.75a15.68,15.68,0,0,1-.67,4.66A6.46,6.46,0,0,1,33,92a7.77,7.77,0,0,1-4.43-.17,6.45,6.45,0,0,1-4.08-3.9,12.49,12.49,0,0,1-.7-2.91,21.25,21.25,0,0,1-.11-2.52ZM38.49,41v8.68c0,.59.06.63.62.65h9c2.34,0,4.67,0,7-.26a23.75,23.75,0,0,0,5.78-1.18,9.13,9.13,0,0,0,2.62-1.42,6.44,6.44,0,0,0,2.22-3.09,10.82,10.82,0,0,0,.34-5.53,8.18,8.18,0,0,0-1.55-3.5,9.09,9.09,0,0,0-1.67-1.55,7.19,7.19,0,0,0-3-1.43,21.18,21.18,0,0,0-4.68-.58c-5.26-.05-10.52,0-15.78-.05-.95,0-.95,0-.95,1Z"/><path class="cls-1" d="M38.49,82a16.23,16.23,0,0,1-.15,3.06A10.84,10.84,0,0,1,37,89.3a4.48,4.48,0,0,1-.94,1,6.9,6.9,0,0,1-4.64,1.87,7.62,7.62,0,0,1-3.24-.52,6.46,6.46,0,0,1-3.7-3.77A11.88,11.88,0,0,1,23.76,85c-.19-1.62-.11-3.25-.14-4.87V80c0-.38.14-.52.53-.56a6.66,6.66,0,0,1,2,.07,7.56,7.56,0,0,1,3.94,2.17l.17.17c.57.58.58.59,1.16.06a10.16,10.16,0,0,1,5-2.43,4.45,4.45,0,0,1,1.41,0c.54,0,.65.15.66.68S38.49,81.25,38.49,82Z"/><path class="cls-1" d="M75.49,92.22a7.38,7.38,0,0,1-5.36-2.07,12.54,12.54,0,0,1-2.28-2.8c-.34-.56-.73-1.09-1.09-1.64-.19-.3-.18-.38.06-.62a6,6,0,0,1,4.11-1.91,8.5,8.5,0,0,1,2.19.23c.56.13.54.11.73-.38a9.23,9.23,0,0,1,4.57-5.1l.21-.1c.6-.26.71-.23,1,.33s.53,1.09.77,1.64c.57,1.33,1.15,2.65,1.61,4,.14.43.25.86.37,1.29a4.36,4.36,0,0,1-.45,3.42A6.76,6.76,0,0,1,77,92.08,5.1,5.1,0,0,1,75.49,92.22Z"/><path class="cls-4" d="M34.7,36.21A2,2,0,0,1,34,38a.67.67,0,0,1-.87.08,1.3,1.3,0,0,1-.66-.84,4.12,4.12,0,0,1-.17-1.48c0-.36.09-.73.16-1.09a1.41,1.41,0,0,1,.38-.77.87.87,0,0,1,1.45.18,1.79,1.79,0,0,1,.21.6C34.62,35.27,34.66,35.84,34.7,36.21Z"/><path class="cls-4" d="M32.51,28.11a2.69,2.69,0,0,1-.76,2,.56.56,0,0,1-.94,0,2.41,2.41,0,0,1-.57-1.59A8.07,8.07,0,0,1,30.39,27c0-.1,0-.21.07-.31a1.11,1.11,0,0,1,1-.8,1.16,1.16,0,0,1,.92.87q.07.34.12.69C32.49,27.69,32.49,27.9,32.51,28.11Z"/><path class="cls-4" d="M27.26,35.16a4.62,4.62,0,0,1,.12-1.33,1.31,1.31,0,0,1,.35-.6.7.7,0,0,1,1.1.05,1.57,1.57,0,0,1,.36.94c0,.39.09.78.14,1.17a2.67,2.67,0,0,1-.17,1.16.93.93,0,0,1-1.76,0,2.07,2.07,0,0,1-.13-.61A6.91,6.91,0,0,1,27.26,35.16Z"/><path class="cls-4" d="M68.13,68.21a.8.8,0,0,1-.58-.19,8,8,0,0,1-1.73-2.12.74.74,0,0,1-.08-.68A.88.88,0,0,1,67,64.69a3.46,3.46,0,0,1,.84.57A4.7,4.7,0,0,1,69,66.76,1,1,0,0,1,68.13,68.21Z"/><path class="cls-4" d="M65.62,71.72a2,2,0,0,1-1-.38,5.26,5.26,0,0,1-1.31-1.75.85.85,0,0,1,.22-1.07.76.76,0,0,1,.94-.14A5.24,5.24,0,0,1,66.17,70,2.17,2.17,0,0,1,66.46,71C66.49,71.42,66.14,71.72,65.62,71.72Z"/><path class="cls-4" d="M72.62,72.74a1,1,0,0,1-1.53.94,1.24,1.24,0,0,1-.26-.19,5.86,5.86,0,0,1-1.21-1.63.86.86,0,0,1,0-1A.92.92,0,0,1,71,70.58a3.93,3.93,0,0,1,1.59,1.89A1.12,1.12,0,0,1,72.62,72.74Z"/><path class="cls-5" d="M76.78,50.73a6.87,6.87,0,0,1-4.87-1.64,3.4,3.4,0,0,1-1.13-1.67.88.88,0,0,1,0-.62.73.73,0,0,1,1.09-.39,2.29,2.29,0,0,1,.57.41,5.63,5.63,0,0,0,3.58,1.45,7.65,7.65,0,0,0,2.64-.39c.15,0,.29-.11.45-.14s.52-.34.71-.1-.09.48-.18.72a14.12,14.12,0,0,1-.94,1.81,1,1,0,0,1-.69.48A6.63,6.63,0,0,1,76.78,50.73Z"/><path class="cls-5" d="M70.51,38.57a2.1,2.1,0,0,1-2.18-2.11,2.15,2.15,0,1,1,4.3,0A2.11,2.11,0,0,1,70.51,38.57Z"/><path class="cls-6" d="M65.28,41a5.43,5.43,0,0,1,3.15.7,2.74,2.74,0,0,1,.46.29,1.89,1.89,0,0,1,.16,3,4,4,0,0,1-1.39.86,6.8,6.8,0,0,1-5,.06,4.27,4.27,0,0,1-1.16-.65,1.91,1.91,0,0,1-.06-3.06,5.39,5.39,0,0,1,3-1.2A7.62,7.62,0,0,1,65.28,41Z"/><path class="cls-1" d="M43.68,17.19a9.11,9.11,0,0,1,2.16-5.62,5.32,5.32,0,0,1,3.08-1.78,1.77,1.77,0,0,1,.94.08,6.41,6.41,0,0,1,1.35.64,13.4,13.4,0,0,1,2.48,2.16c.59.68,1.19,1.33,1.74,2a21.74,21.74,0,0,1,2.77,4.93,29.36,29.36,0,0,1,1.86,6.09,7.72,7.72,0,0,1,.09,2.35,3.66,3.66,0,0,1-.5,1.48,1.8,1.8,0,0,1-1.61,1,3.51,3.51,0,0,1-2.47-1.05,4.81,4.81,0,0,1-.75-.81c-.32-.45-.67-.88-1-1.31a5.83,5.83,0,0,0-2.72-1.94c-.82-.27-1.65-.55-2.48-.78A6.7,6.7,0,0,1,45.05,22,7.38,7.38,0,0,1,43.68,17.19Z"/><path class="cls-2" d="M58,30.51a2.5,2.5,0,0,1-1.35-.29,5.18,5.18,0,0,1-1.74-1.45c-.37-.48-.73-1-1.11-1.43a5.65,5.65,0,0,0-2.73-1.93c-.82-.27-1.64-.55-2.47-.79a6.59,6.59,0,0,1-3.52-2.54,7.46,7.46,0,0,1-1.3-5.83,10.24,10.24,0,0,1,.67-2.42c.06-.14.13-.29.2-.43a.36.36,0,0,1,.47-.17,4.64,4.64,0,0,1,.72.32,26.54,26.54,0,0,1,3,1.92,27.27,27.27,0,0,1,4,3.48,23.54,23.54,0,0,1,3,4.1,29.45,29.45,0,0,1,2.66,6.81,1.55,1.55,0,0,1,.05.23.33.33,0,0,1-.27.4l-.16,0Z"/><path class="cls-4" d="M90.16,31.37a6.19,6.19,0,0,1-.45,2.48,22.69,22.69,0,0,1-1.92,4A16.85,16.85,0,0,1,84.22,42a8.51,8.51,0,0,1-3.89,2,3.59,3.59,0,0,1-3.11-.75A6.22,6.22,0,0,1,75,38.55a4.85,4.85,0,0,1,.78-2.69,2.39,2.39,0,0,1,1.64-1.14,22.47,22.47,0,0,0,6.51-2.53c1.36-.74,2.74-1.45,4.12-2.16a3.12,3.12,0,0,1,.74-.27,1.1,1.1,0,0,1,1.39,1C90.17,31,90.16,31.23,90.16,31.37Z"/><path class="cls-7" d="M79.79,37.78a1.06,1.06,0,0,1-1-.66A.94.94,0,0,1,79.24,36a5.68,5.68,0,0,1,1-.47,29.6,29.6,0,0,0,3.37-1.35,15.85,15.85,0,0,0,2.19-1.25,4.28,4.28,0,0,1,.89-.49.63.63,0,0,1,.72.16.65.65,0,0,1,.17.73,2.67,2.67,0,0,1-.51.79A8,8,0,0,1,85.6,35.3a19.48,19.48,0,0,1-5.3,2.39l-.31.07Z"/><path class="cls-4" d="M79.11,23.5a6.93,6.93,0,0,1-.21,1.66,18.07,18.07,0,0,1-1.51,4.63,6.55,6.55,0,0,1-.66,1.07,3,3,0,0,1-3.68.91,5.63,5.63,0,0,1-3-3.28,2.86,2.86,0,0,1-.17-1.09,1.41,1.41,0,0,1,1-1.37,16.13,16.13,0,0,0,4.35-2.5c.66-.52,1.36-1,2-1.48a1.37,1.37,0,0,1,.88-.29.89.89,0,0,1,.81.53A2.25,2.25,0,0,1,79.11,23.5Z"/><path class="cls-7" d="M73.8,28.43a1,1,0,0,1-.87-1.49,1.55,1.55,0,0,1,.56-.55,16.3,16.3,0,0,0,2.29-1.66,3.23,3.23,0,0,1,.65-.44.62.62,0,0,1,.73.06.72.72,0,0,1,.29.83,2,2,0,0,1-.4.76,10.48,10.48,0,0,1-2.45,2.2A1.53,1.53,0,0,1,73.8,28.43Z"/><path class="cls-1" d="M22.78,66.92a4.5,4.5,0,0,0,2.35-.55c.34-.19.7-.35,1.06-.51a1.36,1.36,0,0,1,1.72.69,1.3,1.3,0,0,1-.4,1.62,10.17,10.17,0,0,1-3.66,1.61,7.8,7.8,0,0,1-4.75-.67,9.27,9.27,0,0,1-4.05-3.86,10.11,10.11,0,0,1-1.38-4.65,6.52,6.52,0,0,1-.12-1.33c.13-.93.17-1.88.39-2.8a37.34,37.34,0,0,1,1.36-4.28,26.86,26.86,0,0,0,.85-2.63,6.73,6.73,0,0,0,.24-2c0-.26,0-.52,0-.79a1.31,1.31,0,0,1,.18-.6.72.72,0,0,1,1.19-.12,2.11,2.11,0,0,1,.45.83,5,5,0,0,1,.22,2,15.45,15.45,0,0,1-.58,2.7,39.57,39.57,0,0,0-1.53,6.52,9,9,0,0,0,.62,5.09,5.76,5.76,0,0,0,3.14,3.16A6.92,6.92,0,0,0,22.78,66.92Z"/><path class="cls-4" d="M17.29,54.35a4.48,4.48,0,0,1-1.77-.4,5.82,5.82,0,0,1-3.09-2.79A4.92,4.92,0,0,1,12,47.57a15.78,15.78,0,0,1,.59-1.8,7.68,7.68,0,0,0,.55-2.05,8.12,8.12,0,0,0-.17-2c-.07-.53-.08-1-.1-1.58a1.68,1.68,0,0,1,2-1.71,5.55,5.55,0,0,1,2.54,1,11,11,0,0,1,4.66,8.15,13.2,13.2,0,0,1,0,1.41,5.78,5.78,0,0,1-1.35,3.38A4.59,4.59,0,0,1,18,54.25Z"/><path class="cls-7" d="M17.18,44.72a29.44,29.44,0,0,1-.52,4.33c-.08.33-.15.66-.23,1a1.29,1.29,0,0,1-.35.61.87.87,0,0,1-1,.3,1.08,1.08,0,0,1-.74-.85,1.89,1.89,0,0,1,.08-.78c.16-.69.34-1.37.48-2.07a23.12,23.12,0,0,0,.36-2.88,11,11,0,0,1,.15-1.17c.09-.44.34-.7.63-.73a1,1,0,0,1,.86.58,1.18,1.18,0,0,1,.1.3C17.07,43.82,17.13,44.29,17.18,44.72Z"/><path class="cls-7" d="M20.5,47.94a9.16,9.16,0,0,1-.29,1.67.87.87,0,0,1-1.12.61.75.75,0,0,1-.55-.41,1.72,1.72,0,0,1-.24-1,16.06,16.06,0,0,1,.28-1.95,2.65,2.65,0,0,1,.12-.37.81.81,0,0,1,.73-.52.82.82,0,0,1,.81.54A3.73,3.73,0,0,1,20.5,47.94Z"/></g></svg>