<svg xmlns="http://www.w3.org/2000/svg" viewBox="0 0 102 102"><defs><style>.cls-1{fill:#ffda95;}.cls-2{fill:#fff;}.cls-3{fill:#ec9848;}.cls-4{fill:#421c43;}.cls-5{fill:#ffa8d0;}.cls-6{fill:#fbba7c;}</style></defs><g id="OBJECTS"><path class="cls-1" d="M59.78,13.9c.78,0,1.58-.05,2.36,0,1.44.12,2.88.25,4.3.5a36.88,36.88,0,0,1,4.44,1.09,24,24,0,0,1,4.64,2,21.66,21.66,0,0,1,3.07,2.06,19.81,19.81,0,0,1,2.85,2.94,10.86,10.86,0,0,0,4.64,3.67,16.34,16.34,0,0,1,1.67.7A7.3,7.3,0,0,1,90,28.29a6.4,6.4,0,0,1,1.78,4,7.34,7.34,0,0,1-.28,2.95,5.36,5.36,0,0,1-1.41,2.34c-.49.48-1,1-1.45,1.45A11.88,11.88,0,0,1,86,41a15.86,15.86,0,0,1-6.2,2,17.79,17.79,0,0,1-4.25-.06,18.57,18.57,0,0,1-2.09-.34A9.94,9.94,0,0,1,69,40.13a17.21,17.21,0,0,1-3.9-5.78,48.86,48.86,0,0,0-2.59-5.23,7.89,7.89,0,0,0-2.07-2.35,2,2,0,0,0-.69-.35,15.11,15.11,0,0,0-4.27-.67c-.79,0-1.58,0-2.37,0a13.36,13.36,0,0,0-8,2.72,8,8,0,0,0-2,2.13,5.75,5.75,0,0,0-.77,3.95,5,5,0,0,0,1,2.61,10.43,10.43,0,0,0,2.36,2.08,19.89,19.89,0,0,0,5.63,2.4c3.87,1,7.73,2.06,11.61,3a44.06,44.06,0,0,1,4.73,1.51c1,.36,2,.68,3,1.09a33.75,33.75,0,0,1,4,2.14,19.73,19.73,0,0,1,2.73,1.88,7.09,7.09,0,0,1,.65.58,19.24,19.24,0,0,1,2.21,2.56,18.61,18.61,0,0,1,2.43,5.11,20.26,20.26,0,0,1,.65,3.64,23.6,23.6,0,0,1,.12,2.91,20.82,20.82,0,0,1-.93,5.82,23,23,0,0,1-2.89,5.94c-.25.34-.51.67-.78,1a18.48,18.48,0,0,1-3.79,3.65,27.49,27.49,0,0,1-6.91,3.58,36,36,0,0,1-4.86,1.33,44.74,44.74,0,0,1-4.77.61c-1.5.12-3,.11-4.49.1a33.51,33.51,0,0,1-4.79-.39c-1-.14-2-.29-3-.52A28.22,28.22,0,0,1,40,85.08a24.46,24.46,0,0,1-5.52-3.62,28,28,0,0,1-2.72-2.95A23.52,23.52,0,0,1,28,71.78a11.05,11.05,0,0,1-.69-3.06c0-.29-.1-.58-.11-.86a6.35,6.35,0,0,1,1.78-5,7.1,7.1,0,0,1,2.18-1.66A6.87,6.87,0,0,1,36.07,61a5.25,5.25,0,0,1,2.08,1.4,11.78,11.78,0,0,1,2.48,4.08,26.79,26.79,0,0,0,2.56,5.14A11.71,11.71,0,0,0,46,74.51a15,15,0,0,0,1.65,1.07,10.9,10.9,0,0,0,2.82,1,20.67,20.67,0,0,0,5.32.46A18.9,18.9,0,0,0,61,76.21a12.71,12.71,0,0,0,5.19-3A8.41,8.41,0,0,0,68,70.81a7.88,7.88,0,0,0,.81-3.19,9.81,9.81,0,0,0-.31-3.05,5.82,5.82,0,0,0-1.59-2.77c-.45-.43-.9-.88-1.39-1.28a12.09,12.09,0,0,0-3.18-1.72,34.83,34.83,0,0,0-4.79-1.57c-1.88-.5-3.78-.91-5.67-1.39-2.19-.55-4.4-1.06-6.54-1.8C44,53.55,42.57,53,41.17,52.42c-.46-.18-.92-.38-1.38-.59a20.77,20.77,0,0,1-5-3.21c-.46-.39-.92-.78-1.35-1.21A15.13,15.13,0,0,1,29.83,42a17.65,17.65,0,0,1-1.12-5.07c0-.52-.13-1-.13-1.57a20.08,20.08,0,0,1,1.61-8.06,15.85,15.85,0,0,1,2-3.37,18.38,18.38,0,0,1,5.17-4.57,23,23,0,0,1,4.93-2.28,37.14,37.14,0,0,1,5.4-1.47,14.54,14.54,0,0,0,1.44-.38,40.14,40.14,0,0,1,5.65-1.05A35.77,35.77,0,0,1,59.78,13.9Z"/><path class="cls-2" d="M38.36,38.74a.86.86,0,0,1,.46-.75.75.75,0,0,1,.88.07,3.39,3.39,0,0,1,.51.49c.47.57.93,1.14,1.38,1.72a2.65,2.65,0,0,1,.33.62A.92.92,0,0,1,40.6,42a2.16,2.16,0,0,1-.54-.46,10.75,10.75,0,0,1-1.48-2.12A1.8,1.8,0,0,1,38.36,38.74Z"/><path class="cls-2" d="M70.06,82.62a1,1,0,0,1-.11.32,1.79,1.79,0,0,1-.34.43,8.36,8.36,0,0,1-2.92,1.5.72.72,0,0,1-.86-.39.63.63,0,0,1,.13-.86,7.06,7.06,0,0,1,.76-.69,14.75,14.75,0,0,1,1.7-1.13,1.14,1.14,0,0,1,1.13-.06A.94.94,0,0,1,70.06,82.62Z"/><path class="cls-2" d="M71.94,73.52a1,1,0,0,1,.93,1.34,1,1,0,0,1-.15.27A7.31,7.31,0,0,1,70.84,77a1.73,1.73,0,0,1-.57.26.79.79,0,0,1-.94-1,2.08,2.08,0,0,1,.39-.77c.41-.5.83-1,1.27-1.49A1.23,1.23,0,0,1,71.94,73.52Z"/><path class="cls-2" d="M33.16,33.8c0,.34,0,.68,0,1A2.13,2.13,0,0,1,32.77,36a.64.64,0,0,1-1.07.11,1.19,1.19,0,0,1-.46-.88,8.6,8.6,0,0,1,.18-2.58,6,6,0,0,1,.19-.6.74.74,0,0,1,1.39.05,1.82,1.82,0,0,1,.16.76v.95Z"/><path class="cls-2" d="M78,65.27A4.14,4.14,0,0,1,78,66a1.31,1.31,0,0,1-.19.51.76.76,0,0,1-1.39,0,2.31,2.31,0,0,1-.22-.51A10.38,10.38,0,0,1,75.79,64a2.06,2.06,0,0,1,0-.7,1,1,0,0,1,.86-.8,1.09,1.09,0,0,1,1,.64,1.68,1.68,0,0,1,.15.53A11.69,11.69,0,0,1,78,65.27Z"/><path class="cls-2" d="M50.81,50.82a7.71,7.71,0,0,1,2.38.49,1.08,1.08,0,0,1,.68.5.93.93,0,0,1-.68,1.43,1.7,1.7,0,0,1-.55,0,10.33,10.33,0,0,1-2.24-.74,3.26,3.26,0,0,1-.48-.27.68.68,0,0,1-.27-.83.69.69,0,0,1,.69-.54Z"/><path class="cls-2" d="M59.45,81.34a1.13,1.13,0,0,1-.67-.14.68.68,0,0,1-.26-1,1.24,1.24,0,0,1,.53-.46A8.51,8.51,0,0,1,61.51,79a1.42,1.42,0,0,1,.54,0,1,1,0,0,1,.76.81,1,1,0,0,1-.54.89l-.21.1A11,11,0,0,1,59.45,81.34Z"/><path class="cls-2" d="M47.91,44a9.87,9.87,0,0,1,2.46.65,1.25,1.25,0,0,1,.44.32A.79.79,0,0,1,51,46a1,1,0,0,1-1,.54,1.83,1.83,0,0,1-.39-.09c-.6-.19-1.2-.38-1.79-.59a2.25,2.25,0,0,1-.81-.46A.75.75,0,0,1,47.48,44Z"/><path class="cls-2" d="M39.88,22.62c-.44,0-.84,0-1-.44a1,1,0,0,1,.27-.94,4.83,4.83,0,0,1,3-1.37.83.83,0,0,1,.53,1.5,10.82,10.82,0,0,1-2.46,1.21A1.45,1.45,0,0,1,39.88,22.62Z"/><path class="cls-2" d="M77.33,55.28a1.08,1.08,0,0,1,.79.35A8.31,8.31,0,0,1,79.75,58a.76.76,0,0,1,.06.61.72.72,0,0,1-1.14.37,3.72,3.72,0,0,1-.46-.43A12.31,12.31,0,0,1,76.86,57a1.19,1.19,0,0,1-.3-1.23A.76.76,0,0,1,77.33,55.28Z"/><path class="cls-2" d="M55.46,18.83c-.24,0-.48,0-.71,0a1.8,1.8,0,0,1-1.1-.37.64.64,0,0,1-.1-1,1.63,1.63,0,0,1,1-.52,6.14,6.14,0,0,1,2.41.19,2.24,2.24,0,0,1,.5.22.68.68,0,0,1-.1,1.21,3.25,3.25,0,0,1-1.15.25h-.78Z"/><path class="cls-2" d="M77.81,74.17a6.25,6.25,0,0,1,.63-2,1.25,1.25,0,0,1,.85-.66.58.58,0,0,1,.58.12,1.32,1.32,0,0,1,.43,1.2,6.58,6.58,0,0,1-1,2.3.79.79,0,0,1-.48.38.75.75,0,0,1-1-.48A2.19,2.19,0,0,1,77.81,74.17Z"/><path class="cls-2" d="M44.93,77a1.38,1.38,0,0,1,.25,0,12.15,12.15,0,0,1,2.12.84,1.4,1.4,0,0,1,.67,1,.54.54,0,0,1-.22.55,1.13,1.13,0,0,1-1,.24,5.62,5.62,0,0,1-2.55-1.48.66.66,0,0,1,0-1A.9.9,0,0,1,44.93,77Z"/><path class="cls-2" d="M39.71,27.2a.86.86,0,0,1,.72.9,1.53,1.53,0,0,1-.18.52c-.35.58-.72,1.15-1.08,1.73a1.46,1.46,0,0,1-.58.52.81.81,0,0,1-1-.08.85.85,0,0,1-.34-.9,1.76,1.76,0,0,1,.15-.44,6.54,6.54,0,0,1,1.63-2A1,1,0,0,1,39.71,27.2Z"/><path class="cls-2" d="M39.13,81.51c-.16,0-.26,0-.36-.07a8.61,8.61,0,0,1-2.3-1.17,1.21,1.21,0,0,1-.24-.21.65.65,0,0,1-.13-.79.73.73,0,0,1,.77-.42,11,11,0,0,1,2.6.89,1.44,1.44,0,0,1,.67.84.55.55,0,0,1-.3.72A6.12,6.12,0,0,1,39.13,81.51Z"/><path class="cls-2" d="M50.53,21.33a3.67,3.67,0,0,1,1.32.14.79.79,0,0,1,.61.74.69.69,0,0,1-.38.72,2.19,2.19,0,0,1-.59.21,13.47,13.47,0,0,1-1.55.23,2.12,2.12,0,0,1-1.4-.47.54.54,0,0,1,0-.92A2.31,2.31,0,0,1,50,21.33Z"/><path class="cls-2" d="M60.19,47.82a.77.77,0,0,1-.76.84,1.47,1.47,0,0,1-.47,0,11.63,11.63,0,0,1-2-.69,1.92,1.92,0,0,1-.62-.47.65.65,0,0,1,.29-1.12,1.11,1.11,0,0,1,.54-.05,10.15,10.15,0,0,1,2.35.66,1.31,1.31,0,0,1,.5.37A.74.74,0,0,1,60.19,47.82Z"/><path class="cls-2" d="M40.27,48.67a1.11,1.11,0,0,1-.74-.26,15.3,15.3,0,0,1-1.71-1.5.84.84,0,0,1-.26-.63.71.71,0,0,1,1-.71,3.78,3.78,0,0,1,.69.36c.48.32.95.65,1.42,1a1.57,1.57,0,0,1,.43.46.82.82,0,0,1,0,.89A.78.78,0,0,1,40.27,48.67Z"/><path class="cls-2" d="M52,84l1.1.06a1.16,1.16,0,0,1,.82.42.73.73,0,0,1-.19,1.15,1,1,0,0,1-.59.19c-.55,0-1.1,0-1.65,0a2.31,2.31,0,0,1-.69-.16c-.47-.17-.73-.49-.7-.85A.86.86,0,0,1,51,84c.34,0,.69,0,1,0Z"/><path class="cls-3" d="M73.31,21.76a1.67,1.67,0,0,1,.85.17A1.15,1.15,0,0,1,74.84,23a1.13,1.13,0,0,1-.64,1,2.09,2.09,0,0,1-.44.16,2.34,2.34,0,0,1-.38.09,3.06,3.06,0,0,0-2.33,1.3,1.61,1.61,0,0,1-.23.22.9.9,0,0,1-1.41-.22,1.19,1.19,0,0,1-.16-1,3,3,0,0,1,.7-1.3A5.15,5.15,0,0,1,73.31,21.76Z"/><path class="cls-3" d="M79.53,31.6a1.38,1.38,0,0,1,1.31,1.32,1.4,1.4,0,0,1-1.29,1.35,1.43,1.43,0,0,1-1.36-1.38A1.39,1.39,0,0,1,79.53,31.6Z"/><path class="cls-3" d="M78.12,37.6a1.29,1.29,0,0,1,1.3-1.29,1.32,1.32,0,0,1,1.3,1.32A1.46,1.46,0,0,1,79.43,39,1.33,1.33,0,0,1,78.12,37.6Z"/><path class="cls-3" d="M74.66,35.21a1.33,1.33,0,0,1,1.26-1.34,1.37,1.37,0,0,1,1.34,1.36,1.3,1.3,0,0,1-1.32,1.28A1.29,1.29,0,0,1,74.66,35.21Z"/><path class="cls-4" d="M88.08,38.1a3.22,3.22,0,0,1-2.18-.76,4.83,4.83,0,0,1-1.39-1.59,2.36,2.36,0,0,1-.34-1.28.66.66,0,0,1,.42-.61.65.65,0,0,1,.77.24c.25.3.46.63.71.94a2.42,2.42,0,0,0,2.13,1,1.52,1.52,0,0,0,1.37-.91,2.35,2.35,0,0,0,.14-.37c.22-.65.21-.71-.38-1.06a3.33,3.33,0,0,1-1.72-3.38,2.25,2.25,0,0,1,2.82-2,3.22,3.22,0,0,1,1.94,4.5,2.14,2.14,0,0,0-.31,1,4.82,4.82,0,0,1-.77,2.45A3.5,3.5,0,0,1,88.08,38.1Z"/><path class="cls-4" d="M74.5,30.8a2.15,2.15,0,1,1,2.19-2.14A2.19,2.19,0,0,1,74.5,30.8Z"/><path class="cls-5" d="M71.85,37.09a5.42,5.42,0,0,1-5.39,5.38A5.36,5.36,0,0,1,61,37a5.42,5.42,0,1,1,10.83.08Z"/><path class="cls-3" d="M57,55.31a4.88,4.88,0,0,1,.77-2.87A5.77,5.77,0,0,1,61,50.05a7.18,7.18,0,0,1,3.82-.11A11,11,0,0,1,70.33,53a12.9,12.9,0,0,1,3.45,7c.14.78.07,1.58.25,2.35a19.7,19.7,0,0,1-.54,3.89,13.26,13.26,0,0,1-1.32,3.19,9.18,9.18,0,0,1-3.59,3.35,5.54,5.54,0,0,1-2.65.66,2.56,2.56,0,0,1-2.42-1.8,7.69,7.69,0,0,1-.37-1.85,10.4,10.4,0,0,0-1-3.69A25.34,25.34,0,0,0,60,62.41c-.58-.87-1.18-1.74-1.72-2.64A8.21,8.21,0,0,1,57,55.31Z"/><path class="cls-6" d="M67.12,67.41A7.51,7.51,0,0,0,67,69.12a1.76,1.76,0,0,1-.72,1.18.43.43,0,0,1-.63-.06,1.94,1.94,0,0,1-.56-1.35c0-.45,0-.9,0-1.34a15.81,15.81,0,0,0-3.13-9.32c-.58-.82-1.25-1.56-1.89-2.32a1.27,1.27,0,0,1-.37-.68.63.63,0,0,1,.73-.77,1.1,1.1,0,0,1,.58.23A6.92,6.92,0,0,1,62.46,56a25.83,25.83,0,0,1,1.65,2.1A18.56,18.56,0,0,1,67,65.52,10.14,10.14,0,0,0,67.12,67.41Z"/><path class="cls-6" d="M66.67,54.62a.75.75,0,0,1,.56.22,5.86,5.86,0,0,1,.64.68,15.87,15.87,0,0,1,2.93,7c.1.68.1,1.36.22,2a1.12,1.12,0,0,1-.46,1.11.66.66,0,0,1-.87,0,1.1,1.1,0,0,1-.44-.72c-.08-.52-.18-1-.24-1.55a16.32,16.32,0,0,0-2.54-7.13,4.69,4.69,0,0,1-.44-.83A.63.63,0,0,1,66.67,54.62Z"/><path class="cls-3" d="M22.56,76.45a22.12,22.12,0,0,1-4.55-2,29,29,0,0,1-5.09-3.56,17.58,17.58,0,0,1-3.14-3.53,3.67,3.67,0,0,1-.51-1.64A1.17,1.17,0,0,1,9.49,65a4.44,4.44,0,0,1,1.8-1.61,9.55,9.55,0,0,1,3-1A20.66,20.66,0,0,1,19,62.15a34.11,34.11,0,0,1,4.38.58c.75.15,1.49.3,2.22.51,0,0,.1,0,.14,0s0-.11,0-.14c-.5-.64-1-1.27-1.5-1.93A30.23,30.23,0,0,1,21,55.73a16.22,16.22,0,0,1-1.28-4,12.36,12.36,0,0,1-.28-2.27,1.39,1.39,0,0,1,.71-1.32,2.63,2.63,0,0,1,1.34-.4c.29,0,.58,0,.87,0a19.07,19.07,0,0,1,4.84,1.36,30.83,30.83,0,0,1,3.1,1.54A23.86,23.86,0,0,1,36,55.44,19.89,19.89,0,0,1,39.1,60a14.22,14.22,0,0,1,1.63,7.54,9.75,9.75,0,0,1-5.12,8.1,13.63,13.63,0,0,1-6,1.63,21.25,21.25,0,0,1-5.1-.31C23.82,76.83,23.19,76.62,22.56,76.45Z"/><path class="cls-6" d="M35.89,66.77a4.38,4.38,0,0,1-.79-.37A18.86,18.86,0,0,1,32,64.1a37.68,37.68,0,0,1-4.4-4.62c-.77-1-1.49-2-2.18-3.09S23.94,54,23.2,52.85a2.51,2.51,0,0,1-.36-1.51c0-.57.44-.81,1-.56A2.69,2.69,0,0,1,25,51.85c1.12,1.78,2.22,3.57,3.43,5.29a32.14,32.14,0,0,0,3.09,3.79c.83.87,1.68,1.74,2.54,2.58.55.53,1.14,1,1.72,1.51a5.76,5.76,0,0,1,.88.9,1.69,1.69,0,0,1,.25.48.36.36,0,0,1-.36.49C36.35,66.87,36.12,66.81,35.89,66.77Z"/><path class="cls-6" d="M25.24,66.16a34,34,0,0,1,7.82,3.46,2.36,2.36,0,0,1,.5.38.67.67,0,0,1,.14.8.69.69,0,0,1-.73.34,1.83,1.83,0,0,1-.39-.09,8.68,8.68,0,0,1-1.47-.55c-.61-.31-1.26-.52-1.89-.77a29.56,29.56,0,0,0-3.63-1.29c-.31-.08-.61-.18-.91-.28a35.79,35.79,0,0,0-3.52-.8,33.39,33.39,0,0,0-4.45-.55,4.11,4.11,0,0,1-.7-.13.91.91,0,0,1-.63-.55.77.77,0,0,1,.28-1,1.6,1.6,0,0,1,1-.26,23.57,23.57,0,0,1,3.46.23c1.16.18,2.33.37,3.49.6C24.14,65.78,24.68,66,25.24,66.16Z"/><path class="cls-6" d="M31.51,55.19a2,2,0,0,1,1.1.76c.67.77,1.34,1.54,2,2.33.51.63,1,1.27,1.51,1.92a2.74,2.74,0,0,1,.29.46.7.7,0,0,1-.11.87.68.68,0,0,1-.87.07,5,5,0,0,1-1.11-.87c-1.16-1.15-2.25-2.35-3.29-3.61a2.18,2.18,0,0,1-.47-1.23c-.06-.54.28-.83.82-.73Z"/><path class="cls-6" d="M22.39,72.42l-.57-.17a1.46,1.46,0,0,1-.71-.48c-.47-.52-.38-.93.28-1.22a1.82,1.82,0,0,1,1-.14,12.88,12.88,0,0,1,1.93.37,8.59,8.59,0,0,0,1.83.45,3.71,3.71,0,0,1,1.57.7.73.73,0,0,1,.34.88.78.78,0,0,1-.78.55,7,7,0,0,1-.79-.06c-.36,0-.72-.1-1.08-.18C24.41,72.9,23.42,72.66,22.39,72.42Z"/></g></svg>