<svg xmlns="http://www.w3.org/2000/svg" viewBox="0 0 102 102"><defs><style>.cls-1{isolation:isolate;}.cls-2,.cls-6{fill:#0d6c6f;}.cls-3{fill:#45cc95;}.cls-4{fill:#accf56;}.cls-5{fill:#421c43;}.cls-6{opacity:0.25;mix-blend-mode:multiply;}.cls-7{fill:#ccf094;}.cls-8{fill:#f75e9d;}</style></defs><g class="cls-1"><g id="OBJECTS"><path class="cls-2" d="M42.49,82.11A24.93,24.93,0,0,1,33.8,80.4a25.79,25.79,0,0,1-7.3-4.32,28.48,28.48,0,0,1-6.39-7.64A31.29,31.29,0,0,1,16.53,59,23.81,23.81,0,0,1,16,54.12a18.41,18.41,0,0,1-.12-2c.17-1.49.18-3,.39-4.47a34.53,34.53,0,0,1,2.12-7.82,31.77,31.77,0,0,1,4.52-7.74,28.53,28.53,0,0,1,10.32-8.25,23.09,23.09,0,0,1,5.39-1.74,11.54,11.54,0,0,1,1.17-.1,1.51,1.51,0,0,1,1.56,1.52c0,.74-.16,1.46-.25,2.19s-.17,1.46-.28,2.18c-.16,1.15-.05,2.31-.25,3.46a11.53,11.53,0,0,0,0,1.18c-.2,2.6-.17,5.2-.17,7.8,0,1,0,2.06,0,3.08.12,1.42,0,2.84.16,4.25q.23,3.06.55,6.11c.33,3.12.87,6.19,1.5,9.26.29,1.38.69,2.75,1,4.13.77,3.06,1.85,6,2.84,9a17.08,17.08,0,0,1,.74,3,2.6,2.6,0,0,1-.51,1.93,2,2,0,0,1-1.22.67A8.27,8.27,0,0,1,42.49,82.11Z"/><path class="cls-3" d="M19.76,52.3A26.93,26.93,0,0,1,22,41.82a30.5,30.5,0,0,1,4.89-7.69A35.75,35.75,0,0,1,35.31,27c.92-.56,1.85-1.11,2.8-1.61s1.76-.83,2.64-1.24l.15,0c.24-.06.38,0,.35.26s-.08.58-.12.86c-.07.47-.14.94-.19,1.41a.77.77,0,0,1-.48.66l-1.13.57A33.76,33.76,0,0,0,32.92,32a30.24,30.24,0,0,0-6.46,7.08,25.23,25.23,0,0,0-3.6,8.61,22.09,22.09,0,0,0,1.79,14A26.56,26.56,0,0,0,31.06,70a28.55,28.55,0,0,0,4.65,3.37,39.09,39.09,0,0,0,6.41,3c1.34.49,2.7.88,4.07,1.25.74.21.78.23.92,1a7.11,7.11,0,0,1,.13,1c0,.42-.21.51-.54.45-.88-.16-1.75-.38-2.61-.61a40.27,40.27,0,0,1-8.34-3.31,34,34,0,0,1-6.24-4.27,29.21,29.21,0,0,1-2.77-2.68,27,27,0,0,1-5.25-8.37,24.77,24.77,0,0,1-1.34-4.78,17.06,17.06,0,0,1-.26-2A17.18,17.18,0,0,1,19.76,52.3Z"/><path class="cls-3" d="M26.2,52.37A20,20,0,0,1,29,41.8,22.6,22.6,0,0,1,31.8,38a25.82,25.82,0,0,1,6.34-5c.52-.3,1.06-.57,1.6-.86l.35-.16c.24-.09.4,0,.39.21,0,.55,0,1.1-.07,1.65,0,.16-.07.32-.06.47,0,.44-.2.66-.55.86-.66.38-1.31.78-1.95,1.19a21.41,21.41,0,0,0-4.2,3.57,18.67,18.67,0,0,0-3.93,6.5,17.62,17.62,0,0,0-.79,3.45,16.62,16.62,0,0,0-.1,3.07,14.35,14.35,0,0,0,.51,3.18,20.45,20.45,0,0,0,4.52,8.22,26.13,26.13,0,0,0,6.76,5.36A22.76,22.76,0,0,0,44,71.31l.22.08a1.35,1.35,0,0,1,1,1.08c.13.53.34,1,.5,1.58.06.2-.05.31-.25.25-.65-.21-1.3-.41-1.94-.65a30.36,30.36,0,0,1-7.09-3.77,26.38,26.38,0,0,1-6.25-6.18,21.23,21.23,0,0,1-3.38-7.24A16.87,16.87,0,0,1,26.2,52.37Z"/><path class="cls-3" d="M40.36,42c0,1.64.14,1.22-1,2.25a10.77,10.77,0,0,0-3,4.13,9.32,9.32,0,0,0-.65,2.91,9.7,9.7,0,0,0,.63,4.24,11.17,11.17,0,0,0,2.4,3.77A14.34,14.34,0,0,0,42,61.88a.92.92,0,0,1,.47.6c.17.77.36,1.53.53,2.3.06.23-.1.36-.32.27a13.94,13.94,0,0,1-1.36-.63,18.16,18.16,0,0,1-4.71-3.65,13.5,13.5,0,0,1-3.52-7.19,11.77,11.77,0,0,1,1-6.83,14.15,14.15,0,0,1,3.25-4.42,15.62,15.62,0,0,1,2.51-1.9c.24-.15.41-.07.43.2C40.32,41.07,40.33,41.52,40.36,42Z"/><path class="cls-4" d="M54.55,56.39v25a10.82,10.82,0,0,1-.72,3.85,6.48,6.48,0,0,1-2.64,3.15,7.43,7.43,0,0,1-8-.16,7.27,7.27,0,0,1-3-4.74c-.1-.55-.14-1.1-.2-1.65a55.46,55.46,0,0,1-.1-5.91q0-22.38,0-44.75c0-.29,0-.58,0-.87a.33.33,0,0,0-.36-.34l-.79,0c-4.81,0-9.63,0-14.44,0A9.74,9.74,0,0,1,21,29.41,5,5,0,0,1,18.83,28a5.59,5.59,0,0,1-1.52-3A6.16,6.16,0,0,1,18,20.75a5.44,5.44,0,0,1,2.55-2.28,10.49,10.49,0,0,1,4.14-.84H56.73c.23,0,.47,0,.71,0a.88.88,0,0,0,.88-.52,9.37,9.37,0,0,1,6.73-4.5,10.92,10.92,0,0,1,6.67,1A10.66,10.66,0,0,1,75.11,16c.21.23.45.45.66.67a3.86,3.86,0,0,0,2.3,1.12,10.53,10.53,0,0,1,5,1.85,7.1,7.1,0,0,1,3,4.64,7.3,7.3,0,0,1-.91,5.33,6.28,6.28,0,0,1-4.26,3,7.41,7.41,0,0,1-2,0,11.26,11.26,0,0,1-2.74-.7,1.93,1.93,0,0,0-2,.27c-.3.22-.6.44-.87.68A8.91,8.91,0,0,1,68.29,35a8.47,8.47,0,0,1-3.73-.44A10.55,10.55,0,0,1,61,32.47a12.71,12.71,0,0,1-2-2.24.76.76,0,0,0-.71-.38,15.33,15.33,0,0,0-2.44.1,7.47,7.47,0,0,1-1,0c-.23,0-.32.11-.33.35s0,.53,0,.79Z"/><path class="cls-5" d="M69.43,22.27a2.15,2.15,0,1,1,2.14-2.1A2.26,2.26,0,0,1,69.43,22.27Z"/><path class="cls-6" d="M55.24,30h-.16c-.66,0-.67,0-.76-.7A8.59,8.59,0,0,1,55.59,23a5.75,5.75,0,0,1,.44-.54,1.28,1.28,0,0,1,.53-.33A1,1,0,0,1,58,23a11.06,11.06,0,0,1,0,1.41,15.26,15.26,0,0,0,.5,3.81c.09.38.24.75.35,1.13s0,.43-.33.46h-.08A21.63,21.63,0,0,0,55.24,30Z"/><path class="cls-2" d="M82.46,29.53a4.7,4.7,0,0,1-2.29-.71,4.79,4.79,0,0,1-1.31-1.23,2.71,2.71,0,0,1-.44-1,.82.82,0,0,1,.39-.95.76.76,0,0,1,1,.1,11.45,11.45,0,0,0,1.19,1,2.79,2.79,0,0,0,2.55.35,1.76,1.76,0,0,0,.67-.4,3.6,3.6,0,0,1,.41-.37,1,1,0,0,1,1.54.93,1.43,1.43,0,0,1-.37.77A4.4,4.4,0,0,1,82.46,29.53Z"/><path class="cls-2" d="M80.66,22.32a.82.82,0,0,1,.44-.81.83.83,0,0,1,1,.18,3.43,3.43,0,0,1,1,1.84,1.2,1.2,0,0,1-.05.62,1,1,0,0,1-1.57.38,1.32,1.32,0,0,1-.29-.37A4.17,4.17,0,0,1,80.66,22.32Z"/><path class="cls-7" d="M54.55,80.58A12,12,0,0,1,54.23,84a7.87,7.87,0,0,1-1.12,2.59,6.3,6.3,0,0,1-2.58,2.14,7.21,7.21,0,0,1-7.36-.51,7,7,0,0,1-3-4.79,20.59,20.59,0,0,1-.31-3.84c0-.5,0-1,0-1.5a.51.51,0,0,1,.41-.51,3.8,3.8,0,0,1,1.64-.1,6.47,6.47,0,0,1,3.79,1.77,14.67,14.67,0,0,1,1.09,1.14c.33.38.4.45.81.09a14,14,0,0,1,2-1.4,11.21,11.21,0,0,1,2.16-.94A6,6,0,0,1,54,78c.4,0,.52.13.53.52C54.56,79.13,54.55,79.78,54.55,80.58Z"/><path class="cls-7" d="M24.8,22.41a8,8,0,0,1-1.47-.16,1.86,1.86,0,0,1-.94-.38.92.92,0,0,1,0-1.53,1.08,1.08,0,0,1,.48-.26,3.76,3.76,0,0,1,1.7-.15,4,4,0,0,0,.78.06,1.49,1.49,0,0,1,.83.21,1.14,1.14,0,0,1,0,2A2.29,2.29,0,0,1,24.8,22.41Z"/><path class="cls-7" d="M46.46,57.38v.71a1.78,1.78,0,0,1-.27.89,1.08,1.08,0,0,1-1.83.08,1.22,1.22,0,0,1-.25-.65A7.51,7.51,0,0,1,44.29,56a1.65,1.65,0,0,1,.55-.84.71.71,0,0,1,1.06,0,1.23,1.23,0,0,1,.43.72,3.45,3.45,0,0,1,.11.54c0,.31,0,.63,0,.94Z"/><path class="cls-7" d="M50.73,53.34a3,3,0,0,1-.18,1.21,1.07,1.07,0,0,1-2,.12,3.59,3.59,0,0,1-.13-1.56,7.86,7.86,0,0,1,.17-1.17,1.81,1.81,0,0,1,.21-.59.88.88,0,0,1,1.59,0,1.22,1.22,0,0,1,.21.5A8.32,8.32,0,0,1,50.73,53.34Z"/><path class="cls-7" d="M24.54,24.58h.86a1.91,1.91,0,0,1,.84.22A1.14,1.14,0,0,1,26.91,26a1.26,1.26,0,0,1-1,1,7.81,7.81,0,0,1-2.63-.39,1.64,1.64,0,0,1-.37-.28,1,1,0,0,1,.35-1.65,1.71,1.71,0,0,1,.46-.09c.26,0,.52,0,.79,0Z"/><path class="cls-7" d="M51.25,62a7.38,7.38,0,0,1-.07.88,1.15,1.15,0,0,1-1.1,1A1.18,1.18,0,0,1,49,62.79a6.72,6.72,0,0,1,.17-2.19,2.31,2.31,0,0,1,.22-.51.83.83,0,0,1,1.51,0,2.47,2.47,0,0,1,.29,1C51.22,61.39,51.23,61.68,51.25,62Z"/><path class="cls-7" d="M30.77,24.63c-.37-.06-.92-.13-1.45-.25a1.37,1.37,0,0,1-.85-.54.92.92,0,0,1,.17-1.27,1.23,1.23,0,0,1,.71-.33,4.76,4.76,0,0,1,1.95.11,1.48,1.48,0,0,1,.55.3,1.08,1.08,0,0,1,.36,1.27,1.06,1.06,0,0,1-1,.71C31.1,24.64,31,24.63,30.77,24.63Z"/><path class="cls-8" d="M67,30.31a6,6,0,0,1-2.52-.51,2.91,2.91,0,0,1-1.54-1.29,1.62,1.62,0,0,1,0-1.65,2.8,2.8,0,0,1,1.24-1.17,6.8,6.8,0,0,1,6-.19A3.2,3.2,0,0,1,71,26a1.87,1.87,0,0,1,.22,2.84,3.05,3.05,0,0,1-.8.63A6.52,6.52,0,0,1,67,30.31Z"/></g></g></svg>