<svg xmlns="http://www.w3.org/2000/svg" viewBox="0 0 102 102"><defs><style>.cls-1{fill:#ffa8d0;}.cls-2{fill:#ffda95;}.cls-3{fill:#ffac1b;}.cls-4{fill:#ffd7e9;}.cls-5{fill:#421c43;}.cls-6{fill:#f75e9d;}.cls-7{fill:#b5346c;}.cls-8{fill:#fff;}.cls-9{fill:#f75e9e;}</style></defs><g id="OBJECTS"><path class="cls-1" d="M38.07,49.42V66.86c0,1.45.13,2.88.27,4.32a27.73,27.73,0,0,0,.69,4,13.51,13.51,0,0,0,1.62,4,11.54,11.54,0,0,0,3.15,3.27,12,12,0,0,0,4,1.71,14.78,14.78,0,0,0,4,.53,4.22,4.22,0,0,1,.79.07,4.87,4.87,0,0,0,1.57,0,7.68,7.68,0,0,1,1.17-.09,15.08,15.08,0,0,0,6.87-1.8,9.4,9.4,0,0,0,3.29-3,15.12,15.12,0,0,0,2-4.28,21.77,21.77,0,0,0,.75-3.55c.1-.94.2-1.88.23-2.82.22-6.18.06-12.37.1-18.55s0-12.31,0-18.47a13.27,13.27,0,0,1,.5-4,7.26,7.26,0,0,1,.94-2,6.25,6.25,0,0,1,4.2-2.69,10.5,10.5,0,0,1,4,.09,24.87,24.87,0,0,1,9.79,4.18,19.37,19.37,0,0,1,5.43,5.65A12.48,12.48,0,0,1,95.12,38a7.84,7.84,0,0,1-.09,3.2,8.72,8.72,0,0,1-.85,2.37,6.71,6.71,0,0,1-4.09,3.13,9.29,9.29,0,0,1-2.41.34,13.1,13.1,0,0,1-3.89-.48,3.41,3.41,0,0,0-.54-.1.19.19,0,0,0-.17.13,4.21,4.21,0,0,0,0,.62c0,1.11,0,2.21,0,3.32,0,5.63,0,11.26,0,16.89a25.5,25.5,0,0,1-.25,3.38c0,.1,0,.21,0,.31a35.69,35.69,0,0,1-1.32,8.47,20.1,20.1,0,0,1-2.81,6.05,22.09,22.09,0,0,1-3.33,3.89,22.87,22.87,0,0,1-6.49,4.26,26.84,26.84,0,0,1-4.93,1.62,38,38,0,0,1-4.74.75c-3,.27-6,.11-9.06.11-.92,0-1.83-.19-2.74-.26-1.47-.11-2.91-.44-4.35-.69a25.19,25.19,0,0,1-3.5-1,24.06,24.06,0,0,1-5.62-2.65,19.37,19.37,0,0,1-6.2-6.5A25.62,25.62,0,0,1,25,78.74a45,45,0,0,1-1-5c-.12-.85-.16-1.73-.27-2.58-.17-1.39,0-2.79-.24-4.17a5.21,5.21,0,0,1,0-.79q0-16.82,0-33.62a17.35,17.35,0,0,1,.34-3.37A7.36,7.36,0,0,1,25.7,25.5a6.26,6.26,0,0,1,3.17-1.82,8,8,0,0,1,5.23.48,6.22,6.22,0,0,1,3.31,3.64,9.93,9.93,0,0,1,.66,3.7C38.06,37.47,38.07,43.44,38.07,49.42Z"/><path class="cls-2" d="M83.87,7.5c-.08.81-.12,1.62-.22,2.43-.19,1.48-.41,3-.72,4.43s-.61,3-1,4.47c-.43,1.81-.8,3.64-1.3,5.44l0,.15c-.28,1.33-.83,1.81-2.42,2.09a7.34,7.34,0,0,1-5-1.11,7.22,7.22,0,0,1-1.27-.92,5.49,5.49,0,0,1-1.63-2.83,1.11,1.11,0,0,1,.12-.91,4,4,0,0,1,.41-.58c1.13-1.25,2.1-2.63,3.11-4s2.09-2.7,3.13-4.05L80.74,7.4c.29-.37.59-.74.91-1.09a1.86,1.86,0,0,1,.67-.54,1,1,0,0,1,1.51.86,6.31,6.31,0,0,1,0,.87Z"/><path class="cls-3" d="M75.25,15.14c.4.1,1,.24,1.57.4a33.65,33.65,0,0,1,5,1.74c.47.21.5.28.39.79s-.22,1-.35,1.53c-.08.34-.2.39-.51.26l-2.32-1a30.58,30.58,0,0,0-4.4-1.44l-1.07-.25a.18.18,0,0,1-.11-.3c.34-.5.69-1,1-1.48A.71.71,0,0,1,75.25,15.14Z"/><path class="cls-3" d="M78.62,10.75a18.23,18.23,0,0,1,4.24,1.18c.46.19.5.29.41.79s-.14.83-.23,1.24-.2.4-.5.26a19.74,19.74,0,0,0-2-.82,24.93,24.93,0,0,0-3.28-.81c-.29-.05-.35-.2-.18-.43.3-.4.6-.8.91-1.19A.56.56,0,0,1,78.62,10.75Z"/><path class="cls-2" d="M63.75,65.82c.08-.83.13-1.67.25-2.5a1.06,1.06,0,0,0-.29-1c-.51-.53-1-1.09-1.48-1.64-.15-.17-.28-.37-.44-.55a.75.75,0,0,1,.47-1.3c.92-.22,1.83-.45,2.76-.63a1.12,1.12,0,0,0,.8-.56c.44-.75.88-1.5,1.33-2.24a2.7,2.7,0,0,1,.25-.4.78.78,0,0,1,1.23,0,4.63,4.63,0,0,1,.39.59l1.17,2a1.22,1.22,0,0,0,.92.65c.85.16,1.69.38,2.53.59s1.11.68.5,1.51c-.4.52-.89,1-1.33,1.45-.92,1-.88,1-.71,2.24.09.68.07,1.36.18,2a.81.81,0,0,1-1.18.87l-1.52-.65-.5-.24c-1-.47-1-.47-2.07,0-.65.28-1.31.54-2,.84-.83.38-1.43,0-1.32-.94A.19.19,0,0,0,63.75,65.82Z"/><path class="cls-3" d="M69,59.48a1.15,1.15,0,0,1-.15.59,10.94,10.94,0,0,1-1.64,2.3,1.88,1.88,0,0,1-.51.36.89.89,0,0,1-1-.14,1,1,0,0,1-.31-1,1,1,0,0,1,.08-.22,8.21,8.21,0,0,1,2.2-2.53,1.19,1.19,0,0,1,.44-.17A.76.76,0,0,1,69,59.48Z"/><path class="cls-3" d="M68.2,63.39a.79.79,0,0,1,.1-.45,3.45,3.45,0,0,1,1.38-1.35.75.75,0,0,1,1.1.39.61.61,0,0,1,0,.46,3.47,3.47,0,0,1-1.18,1.62,1,1,0,0,1-.66.18A.84.84,0,0,1,68.2,63.39Z"/><path class="cls-2" d="M33.92,51.56c.07-.64.13-1.43.24-2.21a1.15,1.15,0,0,0-.28-1.08c-.59-.64-1.14-1.31-1.71-2L32,46.13a.76.76,0,0,1,.37-1.34c.68-.21,1.38-.33,2.07-.5,1.38-.33,1.13,0,1.92-1.36.36-.61.73-1.22,1.1-1.83a.82.82,0,0,1,1.47,0c.37.63.75,1.26,1.12,1.9.11.18.22.36.32.55a1.12,1.12,0,0,0,.86.6c.83.15,1.64.37,2.46.56a2.56,2.56,0,0,1,.46.11A.72.72,0,0,1,44.52,46c-.29.38-.61.73-.93,1.08s-.75.8-1.11,1.23a1.26,1.26,0,0,0-.31.93c.08.76.15,1.52.23,2.28a4.44,4.44,0,0,1,.05.62.74.74,0,0,1-1,.77,3.28,3.28,0,0,1-.67-.22c-.51-.21-1-.44-1.52-.66-.22-.09-.44-.17-.65-.27a1.19,1.19,0,0,0-1.07,0c-.74.33-1.49.64-2.24,1a1.7,1.7,0,0,1-.76.18.63.63,0,0,1-.66-.56A6.1,6.1,0,0,1,33.92,51.56Z"/><path class="cls-3" d="M35.32,47.47a1.35,1.35,0,0,1,.35-.85c.59-.62,1.2-1.24,1.83-1.84a1.32,1.32,0,0,1,.55-.29.88.88,0,0,1,1,.34.78.78,0,0,1,0,1A14.21,14.21,0,0,1,37,48.11a.94.94,0,0,1-1.29.11A.91.91,0,0,1,35.32,47.47Z"/><path class="cls-3" d="M38.8,49.7c-.7,0-.9-.43-.85-1.09a2.12,2.12,0,0,1,1.4-1.45.84.84,0,0,1,1,.84,2.36,2.36,0,0,1-1.29,1.65Z"/><path class="cls-2" d="M72.93,91.45c.16-.6.1-1.34.21-2.07,0-.18,0-.36.07-.54a1.29,1.29,0,0,0-.38-1.14c-.61-.65-1.2-1.32-1.76-2s-.38-1.14.46-1.37,1.53-.37,2.3-.55h.08c.88-.18.88-.18,1.32-1s.78-1.37,1.19-2,1.15-.8,1.63,0,.82,1.41,1.24,2.11.4.67,1.14.84l2.22.51a3.21,3.21,0,0,1,.53.15.72.72,0,0,1,.42,1.07,1.74,1.74,0,0,1-.29.38c-.6.66-1.19,1.33-1.81,2a1.09,1.09,0,0,0-.29,1c.11.86.18,1.72.26,2.58a2,2,0,0,1,0,.55.71.71,0,0,1-.83.55,2.5,2.5,0,0,1-.52-.19c-.75-.31-1.51-.61-2.24-1a1.33,1.33,0,0,0-1.27,0c-.74.34-1.49.65-2.24,1l-.36.15a.74.74,0,0,1-1-.7Z"/><path class="cls-3" d="M77.85,84.5a1,1,0,0,1-.15.51,7.54,7.54,0,0,1-1.83,2,1.26,1.26,0,0,1-.5.22.89.89,0,0,1-1.09-.92,1.24,1.24,0,0,1,.34-.85l1.5-1.5a1.53,1.53,0,0,1,.69-.36A.83.83,0,0,1,77.85,84.5Z"/><path class="cls-3" d="M76.85,88c0,.14,0,.11,0,.09a2.24,2.24,0,0,1,1.35-1.59.76.76,0,0,1,.79.2.71.71,0,0,1,.13.86,3.4,3.4,0,0,1-.71,1.11,1.37,1.37,0,0,1-.61.34C77.31,89.11,76.84,88.69,76.85,88Z"/><path class="cls-2" d="M20.48,77.83c.07-.82.11-1.66.21-2.49a1,1,0,0,0-.27-.85c-.53-.59-1.05-1.18-1.58-1.76a3.72,3.72,0,0,1-.4-.49A.74.74,0,0,1,18.9,71c.48-.14,1-.24,1.45-.35s.92-.24,1.39-.31a1,1,0,0,0,.79-.56c.43-.76.89-1.49,1.33-2.24a3.7,3.7,0,0,1,.21-.33.79.79,0,0,1,1.33,0,3.34,3.34,0,0,1,.25.4c.43.72.87,1.44,1.29,2.17a1,1,0,0,0,.79.56c.85.16,1.69.39,2.53.58.1,0,.21,0,.31.06a.78.78,0,0,1,.4,1.34c-.56.57-1.07,1.17-1.6,1.75-.12.14-.25.26-.37.41a1.06,1.06,0,0,0-.27.8,5.86,5.86,0,0,0,.06.94c.15.67.09,1.36.19,2a.76.76,0,0,1-1.07.82,11.9,11.9,0,0,1-1.17-.47c-.49-.2-1-.4-1.45-.63a1.3,1.3,0,0,0-1.2,0c-.76.36-1.54.68-2.31,1a2.35,2.35,0,0,1-.37.14.7.7,0,0,1-.92-.58A5.9,5.9,0,0,1,20.48,77.83Z"/><path class="cls-3" d="M22.71,74a.86.86,0,0,1-.81-1.25,1.85,1.85,0,0,1,.21-.33,9.35,9.35,0,0,1,2.09-1.78,1.33,1.33,0,0,1,.67-.19.8.8,0,0,1,.78,1.08,1.4,1.4,0,0,1-.28.47,13.49,13.49,0,0,1-2,1.76A1.08,1.08,0,0,1,22.71,74Z"/><path class="cls-3" d="M25.9,73.64c.78,0,1.12.58.82,1.15a2.25,2.25,0,0,1-1.14,1,.84.84,0,0,1-1.06-.23.76.76,0,0,1,0-1A1.82,1.82,0,0,1,25.9,73.64Z"/><path class="cls-4" d="M36.48,88.3a3.28,3.28,0,0,1,.6.06,11.41,11.41,0,0,1,2.4,1A1.17,1.17,0,0,1,40,90.69a1.22,1.22,0,0,1-1.24.89,6.12,6.12,0,0,1-3-1.51,3.79,3.79,0,0,1-.2-.34.94.94,0,0,1,.84-1.43Z"/><path class="cls-4" d="M45.59,91.18a4.3,4.3,0,0,1,1.55.17A1.2,1.2,0,0,1,48,92.6a1.22,1.22,0,0,1-1,1.11.85.85,0,0,1-.23,0,8.3,8.3,0,0,1-2.48-.29,1.2,1.2,0,0,1-.69-.5,1,1,0,0,1,.26-1.52,1.37,1.37,0,0,1,.73-.26Z"/><path class="cls-4" d="M44.82,87.8A1.25,1.25,0,0,1,43.48,89a4.64,4.64,0,0,1-2.38-1,1.63,1.63,0,0,1-.36-.42,1,1,0,0,1,.76-1.51,4.87,4.87,0,0,1,2.71.68A1.15,1.15,0,0,1,44.82,87.8Z"/><path class="cls-5" d="M79,35.57a2.14,2.14,0,1,1-4.28-.06,2.19,2.19,0,0,1,2.21-2.09A2.09,2.09,0,0,1,79,35.57Z"/><path class="cls-6" d="M80.85,44.6a5.27,5.27,0,1,1-5.2-5.31A5.22,5.22,0,0,1,80.85,44.6Z"/><path class="cls-4" d="M87,47.05a11.41,11.41,0,0,1-3.4-.51.88.88,0,0,1-.73-.72,15.11,15.11,0,0,1-.35-5.15c.09-.76.18-1.51.34-2.26a17.63,17.63,0,0,1,3.59-7.54,11.47,11.47,0,0,1,2-2c.34-.26.41-.27.75,0a18.06,18.06,0,0,1,4.45,5.16,13.43,13.43,0,0,1,1.22,2.81,8.47,8.47,0,0,1-.84,7,6,6,0,0,1-2.8,2.46,8,8,0,0,1-3.51.75Z"/><path class="cls-7" d="M91.31,44.7a7.4,7.4,0,0,1-5.17-1.83,4.53,4.53,0,0,1-1.33-2.1,2.15,2.15,0,0,1-.07-.71.62.62,0,0,1,.39-.63.76.76,0,0,1,.74.11,1.23,1.23,0,0,1,.39.49,4.46,4.46,0,0,0,3.19,2.34,6.31,6.31,0,0,0,3.65-.13c.42-.15.85-.25,1.29-.36s.52.11.46.43a2.21,2.21,0,0,1-1.36,1.88A6.37,6.37,0,0,1,91.31,44.7Z"/><path class="cls-7" d="M89,37.87a2.06,2.06,0,0,1,.14-.85,1,1,0,0,1,1-.63.92.92,0,0,1,.85.8,2,2,0,0,1-.44,1.69.9.9,0,0,1-1.49-.25A1.64,1.64,0,0,1,89,37.87Z"/><path class="cls-4" d="M31.62,25.62a1.73,1.73,0,0,0-1,.11c-1.15.41-2.3.84-3.42,1.35l-.31.16a16.09,16.09,0,0,0-5.07,4.61,26.54,26.54,0,0,0-2.5,5c-.63,1.66-1.11,3.38-1.64,5.07a14.23,14.23,0,0,1-1.39,3.2A7.54,7.54,0,0,1,10,49a7.48,7.48,0,0,1-1.57,0,5.78,5.78,0,0,1-.6-.11,1.27,1.27,0,0,1-.68-2.17,2.42,2.42,0,0,1,.6-.5,8.56,8.56,0,0,0,3.56-4.41,20.62,20.62,0,0,0,.75-2.77,24.49,24.49,0,0,1,1.8-5.38,18,18,0,0,1,4-5.24,17.6,17.6,0,0,1,3.79-2.63A17,17,0,0,1,27.2,24a13.2,13.2,0,0,1,3.66-.15,6.48,6.48,0,0,1,2.23.27,3.56,3.56,0,0,1,2.26,1.52.71.71,0,0,1,.07.75,5.31,5.31,0,0,1-.47.84,21.41,21.41,0,0,0-2.6,5.33c-.47,1.38-.86,2.78-1.26,4.18s-.73,2.94-1.08,4.41a54.13,54.13,0,0,1-1.56,5.28,39.49,39.49,0,0,1-1.6,4.07,20.9,20.9,0,0,1-3.12,4.83A13.3,13.3,0,0,1,18.66,59a15.61,15.61,0,0,1-2.77.78l-.26,0a1,1,0,0,1-1.08-.57,1.1,1.1,0,0,1,.18-1.3c.44-.47.89-.92,1.35-1.37a5.68,5.68,0,0,0,1-1.41,37.8,37.8,0,0,0,3-7.36c1.07-3.54,2-7.14,3.3-10.6a35.17,35.17,0,0,1,3.27-6.66,15.32,15.32,0,0,1,2.93-3.34,8.22,8.22,0,0,1,2.18-1.28l.24-.1a.18.18,0,0,0,.07-.05s-.07-.07-.1-.08Z"/><path class="cls-8" d="M18.76,55.87a1.67,1.67,0,0,1,.4-1c.62-.7,1.19-1.44,1.82-2.13a13.67,13.67,0,0,0,2.6-4.61c.65-1.74,1.17-3.53,1.66-5.33s1-3.59,1.63-5.34a14.79,14.79,0,0,1,1-2.06,1.64,1.64,0,0,1,.65-.68.57.57,0,0,1,.84.45,1.59,1.59,0,0,1-.14.68,26,26,0,0,0-1,3c-.3,1.1-.61,2.19-.89,3.29-.48,1.85-.94,3.72-1.57,5.54A19.49,19.49,0,0,1,21,55.29c-.21.2-.4.42-.61.62a1.63,1.63,0,0,1-.92.47C19,56.46,18.72,56.21,18.76,55.87Z"/><path class="cls-8" d="M10.46,47.09a.55.55,0,0,1-.43-.67,2,2,0,0,1,.86-1.27A6.4,6.4,0,0,0,12.79,43a14.51,14.51,0,0,0,1.36-3.31,40.27,40.27,0,0,1,1.36-4.42,15.28,15.28,0,0,1,2.73-4.55,4.81,4.81,0,0,1,.57-.54,1.11,1.11,0,0,1,.39-.2.67.67,0,0,1,.71.2.61.61,0,0,1,0,.66,7.38,7.38,0,0,1-.59.87,14.7,14.7,0,0,0-2,3.67,25.08,25.08,0,0,0-1.1,3.68,20,20,0,0,1-1.9,4.87A9.28,9.28,0,0,1,12,46.67,2.26,2.26,0,0,1,10.46,47.09Z"/><path class="cls-9" d="M10.71,55.46a3.68,3.68,0,0,1-1.32-.31,1,1,0,0,1-.74-.89,1,1,0,0,1,.54-1c.28-.16.57-.3.85-.45.54-.29,1.09-.56,1.61-.88A7.13,7.13,0,0,0,13,50.73a15.53,15.53,0,0,0,3.29-5.91c.4-1.28.72-2.58,1-3.88a40,40,0,0,1,2.2-7.26A16.14,16.14,0,0,1,23.71,28a16.45,16.45,0,0,1,2.47-1.78,13,13,0,0,1,5-1.61,19.11,19.11,0,0,1,2.27,0,4.92,4.92,0,0,1,1.43.32.94.94,0,0,1,.52.44.64.64,0,0,1-.08.88,1.87,1.87,0,0,1-.91.48,9.8,9.8,0,0,0-2.45.92A7.35,7.35,0,0,0,30.11,29a18,18,0,0,0-3.23,4.55,31.24,31.24,0,0,0-2.25,5.86c-.43,1.54-.76,3.11-1.11,4.67a21.17,21.17,0,0,1-1.67,5.14,12.17,12.17,0,0,1-2.32,3.15,11,11,0,0,1-6.7,3.09A7.17,7.17,0,0,1,10.71,55.46Z"/><path class="cls-7" d="M15.22,51.62a1.34,1.34,0,0,1,.28-.69,4.92,4.92,0,0,1,.5-.61,9.87,9.87,0,0,0,2.31-3.77,15.15,15.15,0,0,0,.61-2.09c.32-1.31.4-2.65.6-4a19.57,19.57,0,0,1,2.08-6.36,20.24,20.24,0,0,1,3.06-4.45A11.19,11.19,0,0,1,28,27.16,1.54,1.54,0,0,1,28.3,27a.64.64,0,0,1,.69.26.57.57,0,0,1,.06.66A3.47,3.47,0,0,1,28,29a13.64,13.64,0,0,0-2.31,2.37A17.21,17.21,0,0,0,22.45,38,19.56,19.56,0,0,0,22,40.9c-.13,1.34-.44,2.65-.66,4a12.79,12.79,0,0,1-1.4,3.75,13.69,13.69,0,0,1-2,2.88,7.2,7.2,0,0,1-1.26,1.08.93.93,0,0,1-1.2-.14A.83.83,0,0,1,15.22,51.62Z"/><path class="cls-6" d="M84.68,16.16a5.21,5.21,0,0,1,1.5.18,3,3,0,0,1,.59.22,1.17,1.17,0,0,1,.61,1.52,2.51,2.51,0,0,1-.56.94,7.53,7.53,0,0,1-1.46,1.19s-.09.08-.09.12.08.11.15.12l1.09.16a4.73,4.73,0,0,1,1.43.43,1.88,1.88,0,0,1,.33,3.28,6.69,6.69,0,0,1-1.83.92L86,25.4a.18.18,0,0,0-.12.08c0,.1.06.14.12.18l1,.61a6.72,6.72,0,0,1,1.41,1.25,1.85,1.85,0,0,1,.5,1.05,1.46,1.46,0,0,1-.41,1.37,2.69,2.69,0,0,1-1.82.83,13.46,13.46,0,0,1-2.2-.1c-.67-.1-1.35-.16-2-.32a20.5,20.5,0,0,1-7.73-3.77c-.36-.27-.65-.61-1-.91A2,2,0,0,1,73.19,24a3.33,3.33,0,0,1,.38-1.36,8.39,8.39,0,0,1,2-2.69,15.4,15.4,0,0,1,4.22-2.72A11.38,11.38,0,0,1,84.68,16.16Z"/><path class="cls-7" d="M76.92,24.57a4.6,4.6,0,0,1,2.14.67,1,1,0,0,1,.44,1.28,1,1,0,0,1-1.25.52,6.41,6.41,0,0,1-1.91-.89c-.06,0-.13-.09-.18-.14a.76.76,0,0,1-.29-.84.81.81,0,0,1,.74-.6C76.71,24.56,76.82,24.57,76.92,24.57Z"/><path class="cls-7" d="M84.48,29.33a6.82,6.82,0,0,1-1.89-.57,1.67,1.67,0,0,1-.46-.42.78.78,0,0,1,.19-1.16,1.17,1.17,0,0,1,.82-.23,6.26,6.26,0,0,1,1.81.46,1.43,1.43,0,0,1,.21.12.94.94,0,0,1,.52,1,1,1,0,0,1-1,.76A1.57,1.57,0,0,1,84.48,29.33Z"/><path class="cls-7" d="M77,23.17a1.23,1.23,0,0,1-.67-.17.73.73,0,0,1-.3-1.07.67.67,0,0,1,.14-.19,3.83,3.83,0,0,1,2.34-1,.92.92,0,0,1,.86.45.74.74,0,0,1,0,.89,1.45,1.45,0,0,1-.44.45A6.21,6.21,0,0,1,77,23.17Z"/><path class="cls-7" d="M83.27,24.15A4.17,4.17,0,0,1,82.1,24a.78.78,0,0,1-.63-.7.8.8,0,0,1,.57-.85,3.36,3.36,0,0,1,.82-.24,4.39,4.39,0,0,1,1.4,0,1,1,0,0,1,.65,1.45.89.89,0,0,1-.49.36A3.46,3.46,0,0,1,83.27,24.15Z"/><path class="cls-7" d="M84,18.89a.89.89,0,0,1-.45.86,5.44,5.44,0,0,1-1.9.73.94.94,0,0,1-.94-.43.81.81,0,0,1,.14-.95,3.17,3.17,0,0,1,2.38-1A.77.77,0,0,1,84,18.89Z"/><path class="cls-4" d="M64.85,22.82a10.38,10.38,0,0,1,1.32-4.45,3,3,0,0,1,.56-.76,1.52,1.52,0,0,1,1.93-.4,5,5,0,0,1,1.43,1,19.66,19.66,0,0,1,5.44,8.92,4.33,4.33,0,0,1,.2,1,2.68,2.68,0,0,1-.92,2.33,4.11,4.11,0,0,1-3.48.88,7.53,7.53,0,0,1-5.47-4.11A8.7,8.7,0,0,1,64.85,22.82Z"/><path class="cls-9" d="M73.09,28.92a9.11,9.11,0,0,1-.15,1.95c0,.38-.19.51-.58.51a6.27,6.27,0,0,1-2.67-.49,8.46,8.46,0,0,1-4.8-8.71,3.39,3.39,0,0,1,.15-.61.33.33,0,0,1,.43-.24,2.71,2.71,0,0,1,1.32.66,6.14,6.14,0,0,1,1.56,2.33c.08.2.14.4.22.6s.17.21.36.1.3-.22.46-.31a2.15,2.15,0,0,1,2.92.65,4.07,4.07,0,0,1,.59,1.45,6.58,6.58,0,0,1,.18,1.08C73.11,28.23,73.09,28.57,73.09,28.92Z"/></g></svg>