<svg xmlns="http://www.w3.org/2000/svg" viewBox="0 0 102 102"><defs><style>.cls-1{fill:#ffa8d0;}.cls-2{fill:#ffd7e9;}.cls-3{fill:#926589;}.cls-4{fill:#ffda95;}.cls-5{fill:#694061;}.cls-6{fill:#d38ac4;}.cls-7{fill:#421c43;}</style></defs><g id="OBJECTS"><path class="cls-1" d="M43.75,77a14.67,14.67,0,0,1-.17,2.86,3,3,0,0,1-.42,1,1.4,1.4,0,0,1-.53.47c-.49.24-.65.22-1-.23a27,27,0,0,0-2.41-2.6,17.32,17.32,0,0,0-7.55-4.41,30.27,30.27,0,0,0-4.62-.94A9.89,9.89,0,0,1,26,73a3.24,3.24,0,0,1-.53-.16,1.76,1.76,0,0,1-.92-2.6c.5-.9,1-1.76,1.59-2.63A11.5,11.5,0,0,0,28,63a9.73,9.73,0,0,0-.83-6.07,8.21,8.21,0,0,0-2.56-2.84A16.65,16.65,0,0,0,20,51.72c-.9-.29-1.8-.58-2.69-.9a10.36,10.36,0,0,1-1.08-.47,2.23,2.23,0,0,1-.83-.72,1.6,1.6,0,0,1-.24-1.7,10.73,10.73,0,0,1,.62-1.1c.79-1.21,1.59-2.41,2.38-3.63a19.31,19.31,0,0,0,2.35-5.74,31.31,31.31,0,0,0,.84-5.36,17.55,17.55,0,0,0,.1-2.28A23.39,23.39,0,0,0,21,26c-.21-.9-.44-1.79-.57-2.7a1.65,1.65,0,0,1,0-.7.84.84,0,0,1,1.43-.37,3,3,0,0,1,.65,1c.08.19.15.39.23.58.2.47.2.46.6.22a2.3,2.3,0,0,1,1.81-.31A6.74,6.74,0,0,1,28,25.31a14.63,14.63,0,0,1,3,3.75,45.71,45.71,0,0,1,2.91,6.12c1,2.46,1.94,4.94,2.78,7.46a114.53,114.53,0,0,1,3.16,11.07c.65,2.84,1.24,5.7,1.88,8.54.54,2.39,1,4.8,1.34,7.21.26,1.61.45,3.22.56,4.85C43.68,75.25,43.71,76.2,43.75,77Z"/><path class="cls-2" d="M23.82,39.28a8.24,8.24,0,0,1-.22,2.06,13.12,13.12,0,0,1-1.11,3.52,10.6,10.6,0,0,1-2.14,3,1.31,1.31,0,0,1-.74.41,1,1,0,0,1-1.09-1.44,4,4,0,0,1,.65-1,10.86,10.86,0,0,0,1.36-2.11,10.09,10.09,0,0,0,.56-1.47,17.63,17.63,0,0,0,.82-4,1.63,1.63,0,0,1,0-.31,1.31,1.31,0,0,1,.8-.9c.26,0,.71.33.86.72A3.35,3.35,0,0,1,23.82,39.28Z"/><path class="cls-2" d="M32.23,64.21a10.26,10.26,0,0,1-1.88,5.9,7.53,7.53,0,0,1-.83,1,1.39,1.39,0,0,1-.53.33,1,1,0,0,1-1-.2,1,1,0,0,1-.33-1,1.7,1.7,0,0,1,.3-.72c.13-.17.24-.35.38-.51a8.54,8.54,0,0,0,1.79-4.56c.08-.57.14-1.14.19-1.72a1.48,1.48,0,0,1,.58-1.07.49.49,0,0,1,.76.09,2.48,2.48,0,0,1,.42.92,4.56,4.56,0,0,1,.13.62C32.21,63.62,32.22,64,32.23,64.21Z"/><path class="cls-1" d="M58.21,77.25c.24-1.11.08-2.38.28-3.64.1-.61.11-1.25.18-1.88.14-1.28.35-2.55.56-3.82.66-3.91,1.53-7.78,2.4-11.66.64-2.9,1.33-5.79,2.17-8.64.78-2.62,1.6-5.23,2.56-7.79.7-1.87,1.4-3.74,2.16-5.59a34.35,34.35,0,0,1,3.56-6.76A10.3,10.3,0,0,1,76,24a4.64,4.64,0,0,1,1.35-.39,1.89,1.89,0,0,1,1.13.28c.65.3.65.3.9-.35a3.62,3.62,0,0,1,.6-1.11,2.15,2.15,0,0,1,.35-.32.81.81,0,0,1,1.28.51,2.5,2.5,0,0,1,0,1c-.18.85-.37,1.7-.55,2.54a20.2,20.2,0,0,0-.34,5.26,30,30,0,0,0,1.13,6.91A19.36,19.36,0,0,0,84.41,44c.64.94,1.27,1.88,1.88,2.83a6.46,6.46,0,0,1,.55,1,1.82,1.82,0,0,1-.6,2.31,3.71,3.71,0,0,1-.88.52c-.67.25-1.33.48-2,.69a18.63,18.63,0,0,0-4.92,2.1,10.11,10.11,0,0,0-3,2.71,7.85,7.85,0,0,0-1.33,3.18,11.22,11.22,0,0,0,1.54,7.79c.58,1,1.19,1.93,1.77,2.9a3.68,3.68,0,0,1,.31.63,1.64,1.64,0,0,1-.65,2,2.69,2.69,0,0,1-1.18.44c-.7.11-1.4.18-2.1.32-1.26.26-2.52.51-3.76.85a15.45,15.45,0,0,0-4.46,2.15,21.07,21.07,0,0,0-3.78,3.21c-.45.48-.84,1-1.26,1.51s-.58.52-1.15.23a1.25,1.25,0,0,1-.55-.54,3.3,3.3,0,0,1-.38-1.12C58.33,78.9,58.28,78.14,58.21,77.25Z"/><path class="cls-2" d="M78.27,39.28a7.07,7.07,0,0,1,0-.91A1.45,1.45,0,0,1,79,37.13a.48.48,0,0,1,.65.07,1.14,1.14,0,0,1,.42.73c.1.7.18,1.4.32,2.09a15.29,15.29,0,0,0,1.25,4A15.51,15.51,0,0,0,83,46.07a4.7,4.7,0,0,1,.46.73A.93.93,0,0,1,83.3,48a1,1,0,0,1-1.18.17,1.51,1.51,0,0,1-.62-.47c-.35-.42-.72-.84-1-1.29a12.7,12.7,0,0,1-2-5.07A8.06,8.06,0,0,1,78.27,39.28Z"/><path class="cls-2" d="M72.1,66.25a1.76,1.76,0,0,1,.08-.67.68.68,0,0,1,1.2-.21,1,1,0,0,1,.2.33c.13.35.26.69.38,1A6.14,6.14,0,0,0,75.26,69a2.45,2.45,0,0,1,.57.85.77.77,0,0,1-.2.86.83.83,0,0,1-.94.23,2,2,0,0,1-.64-.44A5.45,5.45,0,0,1,72.46,68,7.24,7.24,0,0,1,72.1,66.25Z"/><path class="cls-3" d="M50.66,87.43h-.87a8.34,8.34,0,0,1-5.67-2.21,11,11,0,0,1-2.44-3.16,29.19,29.19,0,0,1-1.75-4L36.21,68q-1.05-2.9-2.11-5.78c-1-2.81-2.07-5.62-3.1-8.44-.85-2.29-1.68-4.59-2.52-6.88q-1.47-4-3-8c-.69-1.88-1.37-3.75-2.05-5.63-.9-2.44-1.81-4.88-2.68-7.33a15.26,15.26,0,0,1-1-4.38,5.92,5.92,0,0,1,1.26-4.05A7,7,0,0,1,24.3,15a8.21,8.21,0,0,1,5.49.05,5,5,0,0,1,2.72,2.39,25.29,25.29,0,0,1,1.29,2.61c.65,1.5,1.16,3.05,1.68,4.6l2.28,6.72c.93,2.76,1.85,5.53,2.78,8.29.7,2.07,1.41,4.13,2.1,6.2l2.82,8.37q2.13,6.36,4.28,12.7c.36,1.07.74,2.14,1.11,3.21,0,.12,0,.3.2.3s.13-.21.17-.33c.43-1.25.86-2.49,1.28-3.74.52-1.57,1-3.14,1.55-4.71l3.18-9.41c.88-2.62,1.77-5.23,2.65-7.85.63-1.89,1.24-3.8,1.88-5.69.93-2.76,1.88-5.52,2.82-8.29.38-1.12.72-2.25,1.11-3.37,1-2.8,1.84-5.64,3-8.4a6.19,6.19,0,0,1,5.68-4.08,6.82,6.82,0,0,1,5,1.62,6.41,6.41,0,0,1,2.36,4.23,9.29,9.29,0,0,1-.56,4.18c-.6,1.82-1.27,3.62-1.92,5.42s-1.25,3.35-1.87,5l-3.49,9.39c-.61,1.65-1.21,3.31-1.82,5q-1.63,4.44-3.29,8.87-1.5,4.06-3,8.13Q64.35,70,63,73.58c-.35.94-.68,1.89-1,2.83-.55,1.53-1.08,3.07-1.78,4.54a14.32,14.32,0,0,1-2.38,3.71,8.82,8.82,0,0,1-1.71,1.39,8.19,8.19,0,0,1-4.61,1.39Z"/><path class="cls-4" d="M65.72,78.5s.08.07.08.11a.49.49,0,0,1-.24.45s-.12,0-.12,0C65.41,78.8,65.58,78.52,65.72,78.5Z"/><path class="cls-5" d="M28.84,26.31a1.29,1.29,0,0,1,.34-1,1,1,0,0,1,1.41.11,1.75,1.75,0,0,1,.29.47,10.78,10.78,0,0,1,.79,2.21,1.19,1.19,0,0,1,0,.62c-.12.42-.28.8-.76.9a1.22,1.22,0,0,1-1.3-.53,3.72,3.72,0,0,1-.42-1c-.13-.45-.24-.91-.34-1.37A2.23,2.23,0,0,1,28.84,26.31Z"/><path class="cls-5" d="M26.85,26.11a1.24,1.24,0,0,1-.1.61.88.88,0,0,1-1.28.31,1.1,1.1,0,0,1-.41-.47,13.41,13.41,0,0,1-.9-2.84.81.81,0,0,1,.24-.79.84.84,0,0,1,1.08-.1,1.78,1.78,0,0,1,.58.73,10.48,10.48,0,0,1,.76,2.23A1,1,0,0,1,26.85,26.11Z"/><path class="cls-5" d="M28.93,35.32a.93.93,0,0,1-.89-.51,7.85,7.85,0,0,1-.91-2.49,1.61,1.61,0,0,1,0-.31.89.89,0,0,1,.65-.81.86.86,0,0,1,.92.3,1.64,1.64,0,0,1,.19.25,9.56,9.56,0,0,1,1,2.29,1,1,0,0,1,0,.69A.89.89,0,0,1,28.93,35.32Z"/><path class="cls-5" d="M63.35,46.54a1,1,0,0,1-.93-1.12,7.05,7.05,0,0,1,.4-1.69,6,6,0,0,1,.54-1.22,3.78,3.78,0,0,1,.22-.33.86.86,0,0,1,1-.4.94.94,0,0,1,.63.83,1.24,1.24,0,0,1,0,.47q-.24,1.11-.51,2.22a3.11,3.11,0,0,1-.28.65A1,1,0,0,1,63.35,46.54Z"/><path class="cls-5" d="M67.58,48.62a2.54,2.54,0,0,1-.16.93,7.28,7.28,0,0,1-.57,1.38,1.74,1.74,0,0,1-.51.6,1,1,0,0,1-1,.08.9.9,0,0,1-.53-1,5.17,5.17,0,0,1,1-2.53.91.91,0,0,1,.51-.35C67,47.58,67.54,47.89,67.58,48.62Z"/><path class="cls-5" d="M70.75,40.05a7.63,7.63,0,0,1-.8,2.43,1,1,0,0,1-1.85-.7,7.41,7.41,0,0,1,.82-2.28,1.14,1.14,0,0,1,.41-.46.87.87,0,0,1,1.38.6A2.59,2.59,0,0,1,70.75,40.05Z"/><path class="cls-6" d="M72,59.71c0,.31,0,.63-.06.94a3.24,3.24,0,0,1-1.12,2.11c-.29.23-.54.5-.81.75a.61.61,0,0,0-.18.65c.11.46.2.92.31,1.38a4.14,4.14,0,0,1-.1,2.26,2.68,2.68,0,0,1-1.64,1.8,2.64,2.64,0,0,1-1.47.1,5.18,5.18,0,0,1-2.58-1.1,3.92,3.92,0,0,1-1.15-4.94,29.28,29.28,0,0,1,2.29-4A8.87,8.87,0,0,1,68.27,57a2.68,2.68,0,0,1,2-.4,1.51,1.51,0,0,1,.75.42A3.26,3.26,0,0,1,72,59a5.58,5.58,0,0,1,0,.71Z"/><path class="cls-5" d="M51.43,79.4a4.72,4.72,0,0,1,.73-2.91,2.84,2.84,0,0,1,.41-.57,1,1,0,0,1,1.23-.1,4.77,4.77,0,0,1,.6.51c.82.77,1.63,1.56,2.46,2.31a8.18,8.18,0,0,0,2.69,1.6c.15.06.3.1.45.17s.36.25.25.55a2.21,2.21,0,0,1-.16.35,16.83,16.83,0,0,1-1.73,2.81,9.09,9.09,0,0,1-2.37,2,.56.56,0,0,1-.66,0,9.39,9.39,0,0,1-3.07-3.32A6.12,6.12,0,0,1,51.43,79.4Z"/><path class="cls-5" d="M61.38,60.52a3.51,3.51,0,0,1,2,.43,3.33,3.33,0,0,1,.83.71.92.92,0,0,1,.23.5.76.76,0,0,1-.51.94,2.38,2.38,0,0,1-1.39.13,14.05,14.05,0,0,0-2.67-.12h-.71a.58.58,0,0,1-.53-.41,1.21,1.21,0,0,1,.2-1.25,2.91,2.91,0,0,1,1.94-.93A4.42,4.42,0,0,1,61.38,60.52Z"/><path class="cls-3" d="M60.8,62.59a8,8,0,0,1,4.85,1,10.85,10.85,0,0,1,4.94,5.53,10.45,10.45,0,0,1,.73,3A7.83,7.83,0,0,1,71,75.09a8.34,8.34,0,0,1-4.4,5.21,7.68,7.68,0,0,1-3.41.82,8.77,8.77,0,0,1-2.88-.36,7.94,7.94,0,0,1-2.63-1.4A20.79,20.79,0,0,1,56,77.93a9.64,9.64,0,0,1-2.9-8.17,8.25,8.25,0,0,1,2.59-5.26,7.33,7.33,0,0,1,3.67-1.89A6.85,6.85,0,0,1,60.8,62.59Z"/><path class="cls-7" d="M66,78.91a7.16,7.16,0,0,1-4-1.19,3,3,0,0,1-.71-.62,2,2,0,0,1-.3-.46.61.61,0,0,1,.09-.73.67.67,0,0,1,.79-.19,5.55,5.55,0,0,1,.74.44,6.2,6.2,0,0,0,1.52.82,4.49,4.49,0,0,0,3.66-.23,3.4,3.4,0,0,0,.59-.4c.33-.25.32-.26.07-.62s-.56-.76-.83-1.15a3.34,3.34,0,0,1-.25-.4c-.21-.44-.18-.79.09-1s.66-.24,1.06.11a4.72,4.72,0,0,1,.5.5c.47.57.93,1.15,1.39,1.72a.85.85,0,0,1,.13.89,3,3,0,0,1-1,1.44A5.91,5.91,0,0,1,66,78.91Z"/><path class="cls-7" d="M64.11,71.09a1.86,1.86,0,0,1-1.92,1.78A1.82,1.82,0,0,1,60.45,71a1.75,1.75,0,0,1,1.83-1.77A1.83,1.83,0,0,1,64.11,71.09Z"/><path class="cls-7" d="M64.77,67.7a1.62,1.62,0,0,1-.31,0A11.05,11.05,0,0,1,62.55,67a1.18,1.18,0,0,1-.3-.25.93.93,0,0,1-.18-1.21A1.06,1.06,0,0,1,63.3,65a6.46,6.46,0,0,1,2,1l.12.11a1,1,0,0,1,.25,1.08A.83.83,0,0,1,64.77,67.7Z"/><path class="cls-6" d="M54.47,68.46a3.2,3.2,0,0,1-1.34-.22,2.55,2.55,0,0,1-1.72-2.31,4.81,4.81,0,0,1,.56-2.5c.2-.37.37-.75.57-1.12a.65.65,0,0,0,0-.74c-.1-.15-.19-.31-.3-.46A4.11,4.11,0,0,1,51.72,57a3.6,3.6,0,0,1,.94-1.52,1.92,1.92,0,0,1,2.58-.26,5.64,5.64,0,0,1,1.83,2,16,16,0,0,1,1.49,3.89,20.83,20.83,0,0,1,.59,2.93,3.39,3.39,0,0,1-1.24,3.16A4.82,4.82,0,0,1,54.47,68.46Z"/><path class="cls-1" d="M56.7,63.11a2.44,2.44,0,0,1-.1.84.46.46,0,0,1-.82.13,2.46,2.46,0,0,1-.49-.88c-.17-.63-.36-1.26-.54-1.89a25.62,25.62,0,0,0-1-3.3,1.73,1.73,0,0,1-.1-.45.58.58,0,0,1,.35-.64.63.63,0,0,1,.72.18,2.59,2.59,0,0,1,.34.52,14,14,0,0,1,1,2.65c.22.73.4,1.47.58,2.21C56.65,62.73,56.68,63,56.7,63.11Z"/><path class="cls-1" d="M54.6,65.3c0,.11,0,.18-.05.26-.08.32-.18.62-.56.68a.92.92,0,0,1-.89-.4,1.65,1.65,0,0,1-.2-1.43A.7.7,0,0,1,54,64.12,1.68,1.68,0,0,1,54.6,65.3Z"/><path class="cls-1" d="M55.42,73a5.19,5.19,0,0,1,2.77.64,2.63,2.63,0,0,1,1.11,1,1.72,1.72,0,0,1-.08,1.93,2.66,2.66,0,0,1-.93.83,6.56,6.56,0,0,1-6.06.25,3.09,3.09,0,0,1-1-.76,1.75,1.75,0,0,1-.15-2.18,3.1,3.1,0,0,1,1.39-1.12A5.83,5.83,0,0,1,55.42,73Z"/></g></svg>