<svg xmlns="http://www.w3.org/2000/svg" viewBox="0 0 102 102"><defs><style>.cls-1{fill:#828283;}.cls-2{fill:#5c5c5c;}.cls-3{fill:#bdbdbe;}.cls-4{fill:#e4e4e5;}.cls-5{fill:#421c43;}.cls-6{fill:#f75e9d;}</style></defs><g id="OBJECTS"><path class="cls-1" d="M92.48,21.17a15.37,15.37,0,0,0-.29-3.45,2.83,2.83,0,0,0-.14-.52,1.34,1.34,0,0,0-1.24-.91,3.73,3.73,0,0,0-1.48.15,13,13,0,0,0-4,2.17,13.16,13.16,0,0,0-2.57,2.7,8.12,8.12,0,0,0-1.43,3.49,4.52,4.52,0,0,0,.31,2.27,5.89,5.89,0,0,0,3.28,3.27,6,6,0,0,0,3.2.44,3.69,3.69,0,0,0,2.44-1.35,6.24,6.24,0,0,0,1.14-2.29,23.23,23.23,0,0,0,.76-3.87C92.49,22.58,92.46,21.87,92.48,21.17Z"/><path class="cls-2" d="M92.43,21.21c0-.64,0-1.27,0-1.91,0-.43-.17-.58-.59-.54a3,3,0,0,0-1.67.69A4.87,4.87,0,0,0,88.63,22c-.13.46-.21.93-.31,1.4,0,.2-.09.23-.28.13a2.65,2.65,0,0,0-1.38-.27,2,2,0,0,0-1.35.56,4,4,0,0,0-1.06,1.57,7,7,0,0,0-.44,1.91,13.76,13.76,0,0,0-.11,1.43c0,1,.15,1.17,1.06,1.59a6,6,0,0,0,3.32.49,3.71,3.71,0,0,0,2.44-1.36,6.36,6.36,0,0,0,1.14-2.3,22.24,22.24,0,0,0,.75-3.87,19.82,19.82,0,0,0,0-2Z"/><path class="cls-3" d="M3.65,37.32c0-.34,0-.68,0-1,.06-2-.1-4-.15-6.06,0-.74-.13-1.48-.2-2.23,0-.18,0-.36,0-.54a40.56,40.56,0,0,0-.61-4.92c-.07-.36-.14-.71-.19-1.07a12,12,0,0,0-.66-2.64,2.57,2.57,0,0,1-.19-1,1.49,1.49,0,0,1,1.7-1.37,28,28,0,0,1,4.23,1,25.06,25.06,0,0,1,5.31,2.58,21,21,0,0,1,2.89,2.15,21.35,21.35,0,0,1,2.93,3.22,31.2,31.2,0,0,1,3.72,6.71,46.15,46.15,0,0,1,2.35,7.52,40.43,40.43,0,0,1,.86,4.75c.15,1.35.26,2.71.35,4.07.1,1.54.06,3.08.08,4.62s-.16,3.26-.12,4.9c0,.16,0,.32,0,.48.06,1.58-.13,3.17-.14,4.75a11.18,11.18,0,0,0-.11,1.15.79.79,0,0,0,0,.13l.07-.12,0-.13c.21-.76.43-1.53.63-2.29.47-1.73.93-3.47,1.39-5.2q.84-3.12,1.66-6.24l1.29-4.73c.31-1.14.61-2.28.91-3.42.36-1.31.72-2.62,1.07-3.93.46-1.69.94-3.37,1.36-5.06.28-1.11.58-2.2.92-3.28a16.07,16.07,0,0,1,1.31-3.35,8.1,8.1,0,0,1,2.91-3A7,7,0,0,1,41.67,23a9.36,9.36,0,0,1,2.24-.11,7.63,7.63,0,0,1,3.27.81,5.92,5.92,0,0,1,1.17.83,8.48,8.48,0,0,1,2.18,2.92c.17.42.32.85.46,1.28.74,2.17,1.3,4.39,1.91,6.6l1.36,5c.38,1.42.76,2.85,1.15,4.27.63,2.34,1.26,4.69,1.9,7l1.5,5.52q1.08,4,2.15,7.94c.07.26.13.53.2.79a1.51,1.51,0,0,0,.09.18,1.3,1.3,0,0,0,.1-.15l.15-.67c.41-1.81.84-3.62,1.24-5.43.54-2.44,1.07-4.88,1.61-7.31.3-1.37.63-2.74.94-4.11.17-.73.33-1.46.49-2.19.33-1.44.65-2.88,1-4.32.18-.79.36-1.59.53-2.39.34-1.48.67-3,1-4.44.44-2,.88-3.94,1.34-5.91a18.94,18.94,0,0,1,.54-2A7.85,7.85,0,0,1,73,23.29a8.08,8.08,0,0,1,4-1.57,15.7,15.7,0,0,1,2.65-.09A9.89,9.89,0,0,1,82,22a15,15,0,0,1,5.84,3.11,14.38,14.38,0,0,1,2.91,3.58,34.57,34.57,0,0,1,1.84,4,11.22,11.22,0,0,0,2,3.19,25.55,25.55,0,0,0,3.45,3c.47.35.94.71,1.4,1.08a1.4,1.4,0,0,1,0,2.29,19,19,0,0,1-2.55,1.91,12.29,12.29,0,0,1-4.28,1.69c-.58.1-1.17.16-1.75.23a27.41,27.41,0,0,1-4.15.11,19.2,19.2,0,0,1-3.68-.59c-1.49-.32-2.95-.75-4.4-1.19l-.19-.06c-.2-.05-.29,0-.35.21s-.08.26-.11.39q-.84,3.44-1.69,6.87-.6,2.45-1.21,4.89-.81,3.3-1.63,6.6-.92,3.73-1.85,7.46-.78,3.18-1.59,6.34c-.31,1.23-.66,2.45-1.08,3.65a8.28,8.28,0,0,1-2.41,3.58,5.85,5.85,0,0,1-2.47,1.22,4.42,4.42,0,0,1-1.35.16c-.52,0-1.05,0-1.57,0a6.09,6.09,0,0,1-4.41-1.81,7.67,7.67,0,0,1-2-3.24c-.8-2.39-1.51-4.8-2.15-7.24-.29-1.1-.6-2.19-.9-3.28-.41-1.51-.82-3-1.22-4.53q-1-3.53-1.9-7c-.8-3-1.59-6-2.39-9-.41-1.51-.84-3-1.25-4.53s-.88-3.28-1.32-4.93c0-.15-.09-.3-.14-.45a.2.2,0,0,0-.1-.08.14.14,0,0,0-.1.07c-.06.14-.11.29-.16.44-.78,2.9-1.55,5.79-2.34,8.68s-1.59,5.72-2.37,8.59c-.55,2-1.08,4-1.63,6l-2.59,9.52C33.77,74.24,33.4,75.62,33,77a35.52,35.52,0,0,1-1.37,4.2,7.16,7.16,0,0,1-4.41,4.26,5.37,5.37,0,0,1-1.74.28c-.54,0-1.09,0-1.64,0a6,6,0,0,1-5-2.61,10.21,10.21,0,0,1-1.27-2.4,22.59,22.59,0,0,1-1-3.25c-.06-.26-.15-.52-.22-.78-.38-1.52-.74-3-1.14-4.55a9.54,9.54,0,0,0-1-2.23C13.66,68.91,13,68,12.37,67c-.87-1.36-1.69-2.74-2.46-4.16-.53-1-1-1.92-1.5-2.9a51.41,51.41,0,0,1-2.18-5.06c-.49-1.37-.9-2.76-1.27-4.17a36.67,36.67,0,0,1-.85-4.54C4,45.58,4,44.94,3.92,44.32c-.16-.94-.06-1.9-.23-2.85a5.16,5.16,0,0,1,0-.88V37.32Z"/><path class="cls-4" d="M7.9,27.26a1,1,0,0,1-.57,1A1,1,0,0,1,6.09,28a2.13,2.13,0,0,1-.25-.63,21.85,21.85,0,0,1-.49-2.8,1,1,0,0,1,.07-.46.75.75,0,0,1,1.29-.31,2,2,0,0,1,.48.81,13.72,13.72,0,0,1,.6,2.08C7.82,26.87,7.87,27.09,7.9,27.26Z"/><path class="cls-4" d="M54.48,68.69a2,2,0,0,1,0-.35.74.74,0,0,1,.66-.67.79.79,0,0,1,.87.39,4.58,4.58,0,0,1,.28.54,13.62,13.62,0,0,1,.58,1.88,1.69,1.69,0,0,1,0,.67.85.85,0,0,1-.65.78c-.5.07-.82,0-1.11-.43a.34.34,0,0,1-.06-.12A10.56,10.56,0,0,1,54.48,68.69Z"/><path class="cls-4" d="M12.56,25.62a.85.85,0,0,1-.5.88.9.9,0,0,1-1-.14,1.33,1.33,0,0,1-.39-.46c-.28-.57-.57-1.13-.84-1.7a2.09,2.09,0,0,1-.22-1.05A.66.66,0,0,1,10,22.5a.72.72,0,0,1,.77.08,2.33,2.33,0,0,1,.47.47,11.3,11.3,0,0,1,1.13,1.85A1.38,1.38,0,0,1,12.56,25.62Z"/><path class="cls-4" d="M44.94,30.94c0-.65.24-1,.63-1.14a1,1,0,0,1,1.11.56,8.2,8.2,0,0,1,.73,2A1.28,1.28,0,0,1,47,33.61a.61.61,0,0,1-.63.14,1.32,1.32,0,0,1-.86-.72A7.54,7.54,0,0,1,44.94,30.94Z"/><path class="cls-4" d="M15.72,47.92c0,.11,0,.22,0,.33a.91.91,0,0,1-.5.77,1.1,1.1,0,0,1-1.13-.26,1.24,1.24,0,0,1-.3-.52A6.55,6.55,0,0,1,13.48,46a1.15,1.15,0,0,1,.11-.46.78.78,0,0,1,1.3-.2,1.39,1.39,0,0,1,.39.63A7.17,7.17,0,0,1,15.72,47.92Z"/><path class="cls-4" d="M12.1,35.53c0-.16,0-.32,0-.48a.81.81,0,0,1,.65-.84,1,1,0,0,1,.92.46,1.69,1.69,0,0,1,.17.36,15.1,15.1,0,0,1,.46,2,1.11,1.11,0,0,1-.21.84.92.92,0,0,1-1.61-.13,5.19,5.19,0,0,1-.36-1.65,5,5,0,0,1,0-.55Z"/><path class="cls-4" d="M21.67,46.22A1.15,1.15,0,0,1,21,47.38a1,1,0,0,1-1.2-.55,4.86,4.86,0,0,1-.41-2.52.8.8,0,0,1,1.21-.63,1.24,1.24,0,0,1,.56.57A8,8,0,0,1,21.67,46.22Z"/><path class="cls-4" d="M52.69,58.92a.86.86,0,0,1-.51.82.9.9,0,0,1-1-.2,1.15,1.15,0,0,1-.31-.52c-.19-.7-.38-1.4-.55-2.1a1.8,1.8,0,0,1,0-.61.72.72,0,0,1,.57-.68.76.76,0,0,1,.81.37,4.89,4.89,0,0,1,.37.72,6.12,6.12,0,0,1,.62,2A1.18,1.18,0,0,0,52.69,58.92Z"/><path class="cls-4" d="M71.94,56.93a5.42,5.42,0,0,1-.35,1.79,1.19,1.19,0,0,1-.45.59A.9.9,0,0,1,69.8,59a1.16,1.16,0,0,1-.14-.85c.11-.51.23-1,.36-1.52a1.74,1.74,0,0,1,.17-.45.87.87,0,0,1,1-.53.92.92,0,0,1,.76.85A2.67,2.67,0,0,1,71.94,56.93Z"/><path class="cls-4" d="M68,70.14a4.09,4.09,0,0,1-.2,1.39A1,1,0,0,1,66.3,72a.93.93,0,0,1-.36-.64,6.7,6.7,0,0,1,.32-2.47.8.8,0,0,1,.57-.53.83.83,0,0,1,1.09.54A3.7,3.7,0,0,1,68,70.14Z"/><path class="cls-4" d="M35.33,43.75c-.11.63-.2,1.32-.34,2a1.11,1.11,0,0,1-.63.83.78.78,0,0,1-1-.22,1,1,0,0,1-.27-.81,10.58,10.58,0,0,1,.52-2.24,2.11,2.11,0,0,1,.16-.3.88.88,0,0,1,.88-.39.81.81,0,0,1,.62.72A3.47,3.47,0,0,1,35.33,43.75Z"/><path class="cls-4" d="M24.38,69.7a4.85,4.85,0,0,1,0-.75.83.83,0,0,1,.69-.74.81.81,0,0,1,.94.5,3.68,3.68,0,0,1,.26.77c.1.42.18.85.25,1.27a1.17,1.17,0,0,1-.29,1,.9.9,0,0,1-1.42,0,1.67,1.67,0,0,1-.3-.68c0-.11,0-.22-.05-.34A9.81,9.81,0,0,1,24.38,69.7Z"/><path class="cls-4" d="M62.79,70.44c0,.33,0,.6-.1.86a1,1,0,0,1-.9.79,1,1,0,0,1-1-.73,2.81,2.81,0,0,1-.12-1c0-.43.09-.85.14-1.28a.75.75,0,0,1,.18-.43.8.8,0,0,1,1.28-.13,1.6,1.6,0,0,1,.42.84C62.76,69.73,62.67,70.13,62.79,70.44Z"/><path class="cls-4" d="M19.52,35.38a.92.92,0,0,1-1.78.41,11.94,11.94,0,0,1-.68-2.35.8.8,0,0,1,1.31-.74,1.8,1.8,0,0,1,.2.19A5.08,5.08,0,0,1,19.52,35.38Z"/><path class="cls-4" d="M65.94,57.24a12.54,12.54,0,0,1,.37-1.94,1,1,0,0,1,.35-.57.85.85,0,0,1,1.3.35,1.43,1.43,0,0,1,.16.66,5.66,5.66,0,0,1-.37,2,2,2,0,0,1-.2.35.81.81,0,0,1-.84.34.83.83,0,0,1-.71-.65A4.78,4.78,0,0,1,65.94,57.24Z"/><path class="cls-4" d="M20.74,71.18a1,1,0,0,1-.7,1A.94.94,0,0,1,19,71.62a4,4,0,0,1-.17-.44q-.21-.8-.39-1.59a1.68,1.68,0,0,1,0-.74.74.74,0,0,1,.51-.59.7.7,0,0,1,.75.2A3.43,3.43,0,0,1,20,69a7.21,7.21,0,0,1,.7,2A.65.65,0,0,1,20.74,71.18Z"/><path class="cls-4" d="M22,80.46a1,1,0,0,1-.26.75A.88.88,0,0,1,20.34,81a3.34,3.34,0,0,1-.17-.44,14,14,0,0,1-.4-1.79,2,2,0,0,1,0-.6.74.74,0,0,1,1.37-.28,2,2,0,0,1,.19.36A7.48,7.48,0,0,1,22,80.46Z"/><path class="cls-4" d="M7.61,47.25c0-.08,0-.26,0-.44a.69.69,0,0,1,.52-.65.79.79,0,0,1,.85.28,1,1,0,0,1,.11.17,4.93,4.93,0,0,1,.61,2.55.79.79,0,0,1-.85.85.82.82,0,0,1-.55-.22,1.57,1.57,0,0,1-.36-.57A5.16,5.16,0,0,1,7.61,47.25Z"/><path class="cls-4" d="M47.51,42.58a.84.84,0,0,1,.76.37,4.82,4.82,0,0,1,.81,2.2.94.94,0,0,1-.15.58.88.88,0,0,1-1,.38.85.85,0,0,1-.52-.4,4.89,4.89,0,0,1-.63-2.47A.69.69,0,0,1,47.51,42.58Z"/><path class="cls-4" d="M39.42,44.21a5.19,5.19,0,0,1-.31,1.66,1.3,1.3,0,0,1-.22.42.88.88,0,0,1-1.52-.06,1,1,0,0,1-.16-.72,5.65,5.65,0,0,1,.63-2,1,1,0,0,1,.36-.39.75.75,0,0,1,1.17.48A3,3,0,0,1,39.42,44.21Z"/><path class="cls-4" d="M64.46,81.38a1.36,1.36,0,0,1-.33,1,.85.85,0,0,1-1.43-.13.58.58,0,0,1-.11-.24,4.6,4.6,0,0,1-.13-1.48c0-.19,0-.4.08-.6a1.2,1.2,0,0,1,.41-.76.75.75,0,0,1,1,.06,1,1,0,0,1,.31.6A12,12,0,0,1,64.46,81.38Z"/><path class="cls-4" d="M18.94,60.13a1.14,1.14,0,0,1-.13.6.78.78,0,0,1-1,.33,1.25,1.25,0,0,1-.63-.69,7.49,7.49,0,0,1-.49-2,.87.87,0,0,1,.56-.92.85.85,0,0,1,.95.36,1.75,1.75,0,0,1,.2.35,7.76,7.76,0,0,1,.56,1.75A1.52,1.52,0,0,1,18.94,60.13Z"/><path class="cls-4" d="M57.62,79.59c0-.58.15-.87.47-1a.78.78,0,0,1,1,.42,6.5,6.5,0,0,1,.84,2.63.7.7,0,0,1-.53.63,1,1,0,0,1-1.24-.56A8.33,8.33,0,0,1,57.62,79.59Z"/><path class="cls-4" d="M41.33,31.66c0,.27,0,.54,0,.81a1,1,0,0,1-.16.52.94.94,0,0,1-1.2.5,1,1,0,0,1-.66-1,9.8,9.8,0,0,1,.25-1.61,3.38,3.38,0,0,1,.26-.62A.74.74,0,0,1,41,30.16a1.07,1.07,0,0,1,.26.68c0,.27,0,.55,0,.82Z"/><path class="cls-4" d="M54.35,55.87v-.18a.7.7,0,0,1,1.12-.57,1.25,1.25,0,0,1,.44.5,6.54,6.54,0,0,1,.63,1.64,1.71,1.71,0,0,1,0,.87.74.74,0,0,1-.73.6.77.77,0,0,1-.85-.42A7.8,7.8,0,0,1,54.35,55.87Z"/><path class="cls-4" d="M6.11,37.51c0-.31,0-.63,0-.94A1.45,1.45,0,0,1,6.24,36a.66.66,0,0,1,.56-.44.7.7,0,0,1,.68.37,2.2,2.2,0,0,1,.25.69,11,11,0,0,1,.2,1.81,1.53,1.53,0,0,1-.12.6.79.79,0,0,1-.73.51.81.81,0,0,1-.79-.41,1.16,1.16,0,0,1-.18-.65v-1Z"/><path class="cls-4" d="M11.59,59.32a.68.68,0,0,1,1-.68,1.18,1.18,0,0,1,.49.45c.33.51.66,1,1,1.55a2.16,2.16,0,0,1,.21.57.79.79,0,0,1-.3.89.75.75,0,0,1-.94-.05,1.54,1.54,0,0,1-.29-.28,9.23,9.23,0,0,1-1.08-2.18A1.21,1.21,0,0,1,11.59,59.32Z"/><path class="cls-4" d="M29,70.65a4.56,4.56,0,0,1,.18-1.29,1.45,1.45,0,0,1,.42-.69.73.73,0,0,1,1.18.27,1.94,1.94,0,0,1,.16.72,7.32,7.32,0,0,1-.12,1.55,1.36,1.36,0,0,1-.58.89.65.65,0,0,1-.91-.13A1.26,1.26,0,0,1,29,71.1Z"/><path class="cls-4" d="M75.36,44.58a4.45,4.45,0,0,1-.27,1.53.89.89,0,0,1-1.48.38.93.93,0,0,1-.29-.81,8.84,8.84,0,0,1,.47-2,1.11,1.11,0,0,1,.09-.19.74.74,0,0,1,.73-.39.75.75,0,0,1,.63.45A2.16,2.16,0,0,1,75.36,44.58Z"/><path class="cls-4" d="M25.21,79.93a3,3,0,0,1,.11-1.07,2.17,2.17,0,0,1,.19-.44.73.73,0,0,1,1.07-.16,1.06,1.06,0,0,1,.39.62,5.77,5.77,0,0,1,.14,1.76A2.74,2.74,0,0,1,27,81a.8.8,0,0,1-.75.59.81.81,0,0,1-.86-.43,1.46,1.46,0,0,1-.2-.64Z"/><path class="cls-4" d="M50.8,42.71c0-.61.21-.89.69-1a.81.81,0,0,1,.79.3A3.79,3.79,0,0,1,53.16,44a.87.87,0,0,1-.37.89.91.91,0,0,1-1.22-.14,1,1,0,0,1-.24-.33c-.18-.48-.34-1-.51-1.47C50.8,42.84,50.81,42.74,50.8,42.71Z"/><path class="cls-4" d="M70.61,44.11a5,5,0,0,1-.15,1.21,2.34,2.34,0,0,1-.2.58.78.78,0,0,1-.85.42.86.86,0,0,1-.74-.7,1.89,1.89,0,0,1,0-.41A6.83,6.83,0,0,1,69,43.48a1.19,1.19,0,0,1,.32-.51.71.71,0,0,1,1.23.33A3.13,3.13,0,0,1,70.61,44.11Z"/><path class="cls-4" d="M31.25,57.64a6.15,6.15,0,0,1-.19,1.42,1.61,1.61,0,0,1-.74.94.38.38,0,0,1-.5,0,1.38,1.38,0,0,1-.5-1.21A6.78,6.78,0,0,1,29.81,57a3,3,0,0,1,.15-.31.63.63,0,0,1,.69-.31.62.62,0,0,1,.55.53C31.24,57.14,31.23,57.4,31.25,57.64Z"/><path class="cls-4" d="M35.73,58.33a3.35,3.35,0,0,1-.29,1.61.86.86,0,0,1-.7.56.8.8,0,0,1-1-.73,2.63,2.63,0,0,1,0-.74,4.67,4.67,0,0,1,.41-1.21,1.9,1.9,0,0,1,.3-.44.67.67,0,0,1,.75-.17.64.64,0,0,1,.45.61Z"/><path class="cls-4" d="M21.92,58.52c0-.2,0-.41,0-.61a1.35,1.35,0,0,1,.18-.65.73.73,0,0,1,.75-.36.66.66,0,0,1,.59.48,2.39,2.39,0,0,1,.12.46,6.74,6.74,0,0,1,0,1.49.83.83,0,0,1-1.65.07,6.46,6.46,0,0,1,0-.88Z"/><path class="cls-4" d="M15.93,69.8c0-.06,0-.1,0-.14a.07.07,0,0,1,0,0l.05,0c0,.17.06.34.08.51,0,0,0,0-.05,0l-.06,0A.69.69,0,0,1,15.93,69.8Z"/><path class="cls-5" d="M95.35,44.44a4.41,4.41,0,0,1-3.82-2.09,4,4,0,0,1-.46-1.2.63.63,0,0,1,.11-.58.6.6,0,0,1,1,0,2.68,2.68,0,0,1,.26.47,3.87,3.87,0,0,0,1.09,1.29,3,3,0,0,0,3.15.24c.12,0,.13-.16,0-.26A3.75,3.75,0,0,1,95.6,41a2.76,2.76,0,0,1,.48-3,.88.88,0,0,1,.66-.29,1.92,1.92,0,0,1,.79.15,5.67,5.67,0,0,1,2.25,1.48,2.19,2.19,0,0,1,.54,2.08,1.49,1.49,0,0,1-.34.66,7.15,7.15,0,0,1-2.39,1.87A5.13,5.13,0,0,1,95.35,44.44Z"/><path class="cls-5" d="M84.79,34.62a1.81,1.81,0,1,1,0-3.61,1.79,1.79,0,0,1,1.88,1.84A1.77,1.77,0,0,1,84.79,34.62Z"/><path class="cls-6" d="M81.15,46.19a4.55,4.55,0,0,1-4.58-4.51,4.57,4.57,0,1,1,9.13,0A4.55,4.55,0,0,1,81.15,46.19Z"/><path class="cls-1" d="M66.73,21.17A15.37,15.37,0,0,1,67,17.72a2.83,2.83,0,0,1,.13-.52,1.34,1.34,0,0,1,1.24-.91,3.71,3.71,0,0,1,1.48.15,13,13,0,0,1,4.06,2.17,13.38,13.38,0,0,1,2.56,2.7,8.12,8.12,0,0,1,1.43,3.49,4.52,4.52,0,0,1-.3,2.27,6.21,6.21,0,0,1-6.48,3.71,3.65,3.65,0,0,1-2.44-1.35,6.26,6.26,0,0,1-1.15-2.29,22.24,22.24,0,0,1-.75-3.87A21,21,0,0,1,66.73,21.17Z"/><path class="cls-2" d="M66.78,21.21c0-.64,0-1.27,0-1.91,0-.43.17-.58.6-.54a3.06,3.06,0,0,1,1.67.69A4.94,4.94,0,0,1,70.58,22c.12.46.2.93.3,1.4.05.2.1.23.29.13a2.61,2.61,0,0,1,1.38-.27,2,2,0,0,1,1.35.56,3.89,3.89,0,0,1,1,1.57,7,7,0,0,1,.45,1.91c0,.48.11.95.1,1.43,0,1-.14,1.17-1,1.59a6.08,6.08,0,0,1-3.33.49,3.66,3.66,0,0,1-2.43-1.36,6.36,6.36,0,0,1-1.14-2.3,21.34,21.34,0,0,1-.75-3.87,17.34,17.34,0,0,1,0-2Z"/><path class="cls-2" d="M81.05,29a.78.78,0,0,1,.44-.77,10.68,10.68,0,0,1,2.42-1.07,1.26,1.26,0,0,1,.61,0,.62.62,0,0,1,.34,1.05l-.1.1a12.51,12.51,0,0,1-2.57,1.52.77.77,0,0,1-.71,0A.8.8,0,0,1,81.05,29Z"/></g></svg>