<svg xmlns="http://www.w3.org/2000/svg" viewBox="0 0 102 102"><defs><style>.cls-1{fill:#92d8ff;}.cls-2{fill:#2067ac;}.cls-3{fill:#6fb2f3;}.cls-4{fill:#421c43;}.cls-5{fill:#ffa8d0;}</style></defs><g id="OBJECTS"><path class="cls-1" d="M81,79.05a7.42,7.42,0,0,1-1.91-.15,6.59,6.59,0,0,1-3.2-2.05A27.59,27.59,0,0,1,73.7,73.7c-.89-1.34-1.75-2.7-2.61-4q-2.46-3.86-4.9-7.73c-1.3-2-2.61-4.07-3.91-6.12-.59-.93-1.15-1.88-1.74-2.82a19,19,0,0,0-2.48-3.25c-.87-.91-1.69-1.87-2.5-2.84-1.06-1.27-2.08-2.58-3.14-3.85a36.16,36.16,0,0,1-2.6-3.66c-.82-1.26-1.62-2.52-2.43-3.78L43,28.77c-1.65-2.54-3.31-5.06-4.95-7.6a43.23,43.23,0,0,1-2.76-4.87,11,11,0,0,1-1-2.82,6.94,6.94,0,0,1-.15-2.65,4.85,4.85,0,0,1,.88-2,6.48,6.48,0,0,1,4-2.51,8,8,0,0,1,3.74.22,5.27,5.27,0,0,1,2.44,1.55,26.52,26.52,0,0,1,2.56,3.4c2.64,4,5.09,8.16,7.64,12.25.56.89,1.26,1.68,1.89,2.52,1,1.32,2,2.61,3,3.92l4.85,6.22c1.17,1.49,2.32,3,3.5,4.47,1.31,1.66,2.35,3.49,3.52,5.24,1.35,2,2.64,4,4,6.08q3,4.64,6,9.27c1,1.59,2.08,3.16,3.07,4.78a18.75,18.75,0,0,1,2.06,4.16,7.6,7.6,0,0,1,.23,4,5.73,5.73,0,0,1-1.78,3,7.3,7.3,0,0,1-2.45,1.4A6.81,6.81,0,0,1,81,79.05Z"/><path class="cls-2" d="M43.45,35.6a5.73,5.73,0,0,1,2.13-4.39,4.7,4.7,0,0,1,2.84-1.05c.37,0,.78.15,1.13-.13a2.9,2.9,0,0,0-.6-.9,7.16,7.16,0,0,1-1.3-2.76,7.38,7.38,0,0,1,0-2.2,2.6,2.6,0,0,1,.33-1,6.36,6.36,0,0,1,4.42-3.26,10.66,10.66,0,0,1,9,2.2A2,2,0,0,1,62,24.47a8.5,8.5,0,0,1-.82,1.62c-.87,1.37-1.89,2.65-2.87,3.95-1.68,2.22-3.4,4.41-5.22,6.52-.52.59-1,1.21-1.53,1.79a20.21,20.21,0,0,1-2.17,2,3.75,3.75,0,0,1-.67.41,2.21,2.21,0,0,1-2.32-.15,6.71,6.71,0,0,1-2-2A5.18,5.18,0,0,1,43.45,35.6Z"/><path class="cls-2" d="M59.12,68.3c-.22,0-.52-.21-.7,0s0,.46,0,.69a4.13,4.13,0,0,1,0,.86,9.87,9.87,0,0,1-.69,3.22,5.28,5.28,0,0,1-1.64,2.18,3.75,3.75,0,0,1-3.56.64,5.57,5.57,0,0,1-2.89-2.2,7.53,7.53,0,0,1-1.08-2.27,1.27,1.27,0,0,1,.18-1.26c.39-.52.62-1.16,1.21-1.53a37.7,37.7,0,0,1,3.33-3.11c.82-.78,1.68-1.51,2.53-2.25s1.84-1.65,2.76-2.47a5.49,5.49,0,0,1,1.35-1,1.22,1.22,0,0,1,1.63.34,3.32,3.32,0,0,1,.61,1c.22.57.43,1.13.64,1.7a5.41,5.41,0,0,1,.26,1.55A3.72,3.72,0,0,1,59.12,68.3Z"/><path class="cls-3" d="M85.49,10.7a10.55,10.55,0,0,1-.33,3.44A1.81,1.81,0,0,1,84,15.47a7.54,7.54,0,0,1-3.59.73,3.36,3.36,0,0,0-.71,0,.38.38,0,0,0-.35.37,1.44,1.44,0,0,0,.2.91,7.85,7.85,0,0,0,.94,1.36,4.32,4.32,0,0,0,2.66,1.4,5.4,5.4,0,0,1,.7.13,1,1,0,0,1,.85,1,18.52,18.52,0,0,1-.09,2.68c-.13,1-.29,2-.51,3a35.53,35.53,0,0,1-1.27,4.31,50.9,50.9,0,0,1-3.29,7.16,72.63,72.63,0,0,1-4.2,6.77c-1.54,2.22-3.21,4.36-4.94,6.44-1,1.25-2.13,2.46-3.23,3.66-1.44,1.58-3,3.07-4.48,4.56-1.23,1.21-2.54,2.36-3.85,3.48s-2.41,2.05-3.67,3c-1,.73-1.93,1.46-2.91,2.17-2.09,1.51-4.26,2.89-6.48,4.21a44.09,44.09,0,0,1-9.89,4.48c-.72.21-1.47.39-2.2.58s-1-.12-.94-.84A69.57,69.57,0,0,1,34,69.75,83.86,83.86,0,0,1,36.54,61q1.29-3.76,2.85-7.43c.87-2,1.79-4,2.78-6,1.11-2.24,2.22-4.47,3.49-6.62,1.58-2.67,3.3-5.25,5.11-7.77q1.9-2.67,4-5.2c.67-.81,1.36-1.6,2-2.4s1.57-1.7,2.35-2.56c.6-.66,1.2-1.32,1.85-1.93,1.87-1.77,3.76-3.52,5.79-5.11a53,53,0,0,1,6.06-4.12,35.22,35.22,0,0,1,5.55-2.63c.93-.35,1.86-.71,2.8-1.05a10.65,10.65,0,0,1,2.15-.5,1.65,1.65,0,0,1,2.15,1.66A13.43,13.43,0,0,1,85.49,10.7Z"/><path class="cls-4" d="M73.08,17.88a2.15,2.15,0,0,1,0,4.29,2.18,2.18,0,0,1-2.19-2.12A2.13,2.13,0,0,1,73.08,17.88Z"/><path class="cls-5" d="M79.06,26.57a4.63,4.63,0,0,1-1,2.93,6.84,6.84,0,0,1-2.61,2.22,4.76,4.76,0,0,1-1.2.37,1.87,1.87,0,0,1-2.3-2,4.53,4.53,0,0,1,.72-2.22,7.07,7.07,0,0,1,2.21-2.31,5,5,0,0,1,2-.79,1.76,1.76,0,0,1,2.18,1.82Z"/><path class="cls-1" d="M61.31,30.17a3.57,3.57,0,0,1,3.6,2.32A13.7,13.7,0,0,1,65.52,34a7.25,7.25,0,0,0,1,1.79,1.92,1.92,0,0,0,2.68.72c.55-.25,1.07-.56,1.6-.85a6,6,0,0,1,2.13-.79,3.2,3.2,0,0,1,3.21,1.4,4.37,4.37,0,0,1,.78,1.79,1.14,1.14,0,0,1-.61,1.32,1.19,1.19,0,0,1-1.41-.35,6,6,0,0,1-.33-.54,7.86,7.86,0,0,0-.54-.87.79.79,0,0,0-1.1-.29c-.63.26-1.25.56-1.85.88a11.43,11.43,0,0,1-1.44.63A4,4,0,0,1,66,38.46a5.1,5.1,0,0,1-1.72-1.91,11.93,11.93,0,0,1-1.07-2.62,4.13,4.13,0,0,0-.39-1,1.77,1.77,0,0,0-2.15-.85,6.14,6.14,0,0,0-1.94,1,3.38,3.38,0,0,1-.52.35.65.65,0,0,1-.86-.17.6.6,0,0,1-.15-.78,2.35,2.35,0,0,1,.65-.88,7.43,7.43,0,0,1,1.95-1.17A3.26,3.26,0,0,1,61.31,30.17Z"/><path class="cls-1" d="M56.12,62.4a1,1,0,0,1-1.51.93,2.24,2.24,0,0,1-.53-.33c-.3-.22-.57-.47-.86-.7a.55.55,0,0,0-.79,0,7.68,7.68,0,0,0-1.34,1.21c-.63.74-1.28,1.47-1.94,2.18a3.77,3.77,0,0,1-1.58,1,3,3,0,0,1-3-.59,6.71,6.71,0,0,1-2-2.86c-.28-.71-.58-1.41-.88-2.11A3.92,3.92,0,0,0,40.93,60a.64.64,0,0,0-.91-.16c-.23.12-.44.28-.67.41a.57.57,0,0,1-.88-.42.86.86,0,0,1,.1-.61,2.27,2.27,0,0,1,1.19-1,2.23,2.23,0,0,1,2.48.47,4.6,4.6,0,0,1,.95,1.24,23,23,0,0,1,1.13,2.35,6.5,6.5,0,0,0,1,1.68.93.93,0,0,0,.16.18c.85.8,1.36.78,2.11,0a22.79,22.79,0,0,0,1.74-1.93,10.56,10.56,0,0,1,2.21-2,2.33,2.33,0,0,1,2.67,0,5.34,5.34,0,0,1,1.67,1.54A1,1,0,0,1,56.12,62.4Z"/><path class="cls-1" d="M49.09,57.25A2.72,2.72,0,0,1,47,56.43a5.92,5.92,0,0,1-1.3-1.68c-.29-.55-.6-1.1-.91-1.65-.11-.2-.19-.21-.37-.07s-.49.4-.75.58a.73.73,0,0,1-1.11-.87,2.69,2.69,0,0,1,2.09-1.84,1.88,1.88,0,0,1,1.91.86c.35.49.64,1,1,1.54a5.83,5.83,0,0,0,.76,1.1c.15.14.3.29.47.42a.67.67,0,0,0,.74.07A2.29,2.29,0,0,0,50,54.6a1.82,1.82,0,0,1,1.43-.25.71.71,0,0,1,.62.79,1.3,1.3,0,0,1-.43,1,5.36,5.36,0,0,1-1.43,1A2.54,2.54,0,0,1,49.09,57.25Z"/><path class="cls-1" d="M67.9,28a3.19,3.19,0,0,1-2.81-1.72,7.86,7.86,0,0,1-.62-1.27c-.44-1.1-.8-1.12-1.63-.33-.25.23-.45.51-.7.74a.57.57,0,0,1-.73.06.73.73,0,0,1-.34-.74.83.83,0,0,1,0-.15,3.33,3.33,0,0,1,2.56-2.31,1.82,1.82,0,0,1,1.53.44,3.52,3.52,0,0,1,.88,1.11c.14.31.3.61.46.91a3.52,3.52,0,0,0,.64.9,1.21,1.21,0,0,0,1.15.35c.26-.05.51-.12.76-.19a.84.84,0,0,1,.47,0,1,1,0,0,1,.78.69.89.89,0,0,1-.43.95,3.65,3.65,0,0,1-1.69.59C68.12,28.05,68,28,67.9,28Z"/><path class="cls-2" d="M54.43,48.55a6.66,6.66,0,0,1-2.18-.14,4.61,4.61,0,0,1-.8-.32,2.71,2.71,0,0,1-1.15-3.83,8.45,8.45,0,0,1,1.53-2.09,21.35,21.35,0,0,1,5.4-4.05,12.08,12.08,0,0,1,4.16-1.42A2.8,2.8,0,0,1,64,37.8a5.69,5.69,0,0,1,1.12,3.07,6.12,6.12,0,0,0,.1.86,1.7,1.7,0,0,1,0,.55,27.74,27.74,0,0,1-.54,4,28.37,28.37,0,0,1-1.24,3.82,15,15,0,0,1-2,3.57,8.16,8.16,0,0,1-3,2.58,2.3,2.3,0,0,1-1.9.15,2.55,2.55,0,0,1-1.3-1.1,4.67,4.67,0,0,1-.59-2.1,12.6,12.6,0,0,1,.38-3.67c.06-.28.12-.57.17-.85s0-.29-.24-.26Z"/><path class="cls-3" d="M57.09,52a2.11,2.11,0,0,1,.29-1c.58-1.23,1.17-2.47,1.75-3.71.4-.85.77-1.72,1.17-2.58a7.66,7.66,0,0,1,.55-1,1.47,1.47,0,0,1,.31-.35.89.89,0,0,1,1-.11.8.8,0,0,1,.4.8,2.37,2.37,0,0,1-.13.54c-.18.55-.35,1.1-.58,1.63-.71,1.64-1.41,3.29-2.23,4.88-.19.37-.39.74-.61,1.1a2.58,2.58,0,0,1-.46.53.85.85,0,0,1-1,.13.8.8,0,0,1-.45-.77A.76.76,0,0,0,57.09,52Z"/><path class="cls-3" d="M53.71,45.29c-.15,0-.33-.07-.5-.13a.63.63,0,0,1-.45-.73,1.65,1.65,0,0,1,.78-1.21c1.23-.77,2.45-1.55,3.71-2.24.56-.3,1.11-.59,1.68-.87a4.67,4.67,0,0,1,.81-.31.74.74,0,0,1,.88.34.67.67,0,0,1-.15.86,5.49,5.49,0,0,1-.9.76c-1.6,1.06-3.21,2.1-4.81,3.15A2.18,2.18,0,0,1,53.71,45.29Z"/><path class="cls-2" d="M43.86,76.37a37.9,37.9,0,0,1-.59,6.17c-.26,1.45-.55,2.89-.89,4.32a34.64,34.64,0,0,1-2.15,6.5,5,5,0,0,1-1.59,1.93,2.28,2.28,0,0,1-3-.11A7.31,7.31,0,0,1,33.44,92a24.22,24.22,0,0,1-.74-2.33c-.27-1-.47-1.94-.7-2.91a17.39,17.39,0,0,1-.37-2.49c-.09-1-.19-2-.27-3.06,0-.47,0-.95,0-1.42,0-.2-.12-.28-.32-.25-.57.1-1.15.17-1.71.3a23.09,23.09,0,0,1-5.25.44c-1,0-2.05,0-3.07,0a12.44,12.44,0,0,1-4.09-.76,7.88,7.88,0,0,1-1.58-.88,2.42,2.42,0,0,1-.79-3.14,5.7,5.7,0,0,1,1.83-2,20.88,20.88,0,0,1,3.29-2A59.39,59.39,0,0,1,27.43,68a34,34,0,0,1,5.86-1.55,17.11,17.11,0,0,1,4.63-.22,7.48,7.48,0,0,1,2.36.61,4,4,0,0,1,1.8,1.48,8,8,0,0,1,1.05,2.19,19.6,19.6,0,0,1,.58,2.94C43.82,74.41,43.83,75.38,43.86,76.37Z"/><path class="cls-3" d="M42,76.5a56.23,56.23,0,0,1-.59,7.44c-.29,1.76-.59,3.52-1,5.25a8.68,8.68,0,0,1-.51,1.4.78.78,0,0,1-.82.49.58.58,0,0,1-.59-.53,4.77,4.77,0,0,1,0-1.25c.3-2,.63-4,.88-6.08.16-1.3.25-2.61.33-3.92s0-2.73.19-4.08a1.55,1.55,0,0,1,.28-.81A.9.9,0,0,1,41,74a1,1,0,0,1,.89.79,6.65,6.65,0,0,1,.07.78C42,75.86,42,76.18,42,76.5Z"/><path class="cls-3" d="M33.91,68.69a1.35,1.35,0,0,1,.69.1.94.94,0,0,1,.2,1.62,2.59,2.59,0,0,1-.86.39l-4.3,1.28c-1.77.52-3.49,1.18-5.19,1.87l-3.88,1.56a4.92,4.92,0,0,1-.82.27.71.71,0,0,1-.8-.37.68.68,0,0,1,.17-.86,6.21,6.21,0,0,1,1-.76c1-.54,1.95-1,3-1.49,1.43-.65,2.88-1.28,4.37-1.8a60.71,60.71,0,0,1,6.06-1.74Z"/><path class="cls-3" d="M35,83.09c.08-1.41.16-2.82.26-4.23a2.2,2.2,0,0,1,.16-.61.9.9,0,0,1,.86-.58,1,1,0,0,1,.94.59,1.87,1.87,0,0,1,.13.93c-.08,1.2-.18,2.4-.36,3.6a9.09,9.09,0,0,1-.32,1.37,1.34,1.34,0,0,1-.32.54.61.61,0,0,1-1.05-.08,1.32,1.32,0,0,1-.25-.74c0-.26,0-.52,0-.79Z"/><path class="cls-3" d="M32.66,75.08A1,1,0,0,1,32,76a12.39,12.39,0,0,1-1.33.48c-1.25.38-2.51.74-3.8,1a1.63,1.63,0,0,1-.3.07,1,1,0,0,1-.93-.48.76.76,0,0,1,.32-.82,3.06,3.06,0,0,1,.59-.4,20.7,20.7,0,0,1,3.5-1.38l.9-.28a1.93,1.93,0,0,1,.86-.08A.92.92,0,0,1,32.66,75.08Z"/></g></svg>