<svg xmlns="http://www.w3.org/2000/svg" viewBox="0 0 102 102"><defs><style>.cls-1{fill:#f37c0d;}.cls-2{fill:#c74c00;}.cls-3{fill:#ffa959;}.cls-4{fill:#ffda95;}.cls-5{fill:#ffac1b;}.cls-6{fill:#421c43;}.cls-7{fill:#f75e9d;}</style></defs><g id="OBJECTS"><path class="cls-1" d="M32.42,48.25a10.51,10.51,0,0,1-5.55-1.87A11.76,11.76,0,0,1,24,43.51,6.38,6.38,0,0,1,22.72,40a3.39,3.39,0,0,1,.39-1.82A2.18,2.18,0,0,1,24.77,37a6.35,6.35,0,0,1,3.08.44A17,17,0,0,1,31,39a26.49,26.49,0,0,1,4.78,3.71,6.58,6.58,0,0,1,1.39,1.8c.13.28.25.58.36.87a1,1,0,0,1-.24,1.15,4.34,4.34,0,0,1-.93.73A8.19,8.19,0,0,1,32.42,48.25Z"/><path class="cls-2" d="M27.39,41.26a7.46,7.46,0,0,1,4.41,1.47,13.3,13.3,0,0,1,3.28,3.37,4.74,4.74,0,0,1,.52,1.06c.11.35,0,.46-.31.59a8.48,8.48,0,0,1-5.27.11,10.87,10.87,0,0,1-4.65-2.71,8.53,8.53,0,0,1-1.56-1.87c-.23-.4-.23-.48.11-.82a4.45,4.45,0,0,1,2.76-1.2A5.61,5.61,0,0,1,27.39,41.26Z"/><path class="cls-1" d="M69.51,48.25a8.89,8.89,0,0,1-3.62-.8,6.8,6.8,0,0,1-1-.69,1.18,1.18,0,0,1-.46-1.46,5.16,5.16,0,0,1,1.09-1.9,14.19,14.19,0,0,1,2.08-2c.27-.21.52-.45.79-.66a23.27,23.27,0,0,1,3.76-2.44,10.29,10.29,0,0,1,4.24-1.34,2.38,2.38,0,0,1,2.41,1.15,3.78,3.78,0,0,1,.37,2.67,7.58,7.58,0,0,1-2,3.72,11.68,11.68,0,0,1-3,2.43,11,11,0,0,1-3.32,1.18A4.56,4.56,0,0,1,69.51,48.25Z"/><path class="cls-2" d="M74.56,41.24a4.75,4.75,0,0,1,2.51.56,4.13,4.13,0,0,1,1,.76c.22.22.24.35.06.63a9.21,9.21,0,0,1-.64.9,11.58,11.58,0,0,1-2.79,2.52,10.74,10.74,0,0,1-4.64,1.61,7.28,7.28,0,0,1-3.48-.5c-.33-.14-.38-.27-.25-.62a6.09,6.09,0,0,1,1.08-1.82,14.13,14.13,0,0,1,3.34-3A7.79,7.79,0,0,1,74.56,41.24Z"/><path class="cls-3" d="M43.49,71c0-3.23,0-5.86,0-8.5,0-.88,0-.87-.8-1.21A16.2,16.2,0,0,1,39.16,59a12.45,12.45,0,0,1-3-3.61,10.64,10.64,0,0,1-.33-9.85l.16-.36a.61.61,0,0,0,0-.6c-.08-.11-.14-.22-.21-.33L30,35.47c-.95-1.48-1.87-3-2.84-4.46-1.27-1.9-2.44-3.87-3.52-5.89a11.17,11.17,0,0,1-1.25-3.22,5.71,5.71,0,0,1,2-5.79,6.65,6.65,0,0,1,2.94-1.44,4.17,4.17,0,0,1,.78-.1h1.42a5.29,5.29,0,0,1,4.32,2.09c.81,1,1.58,2.1,2.29,3.2,1.84,2.85,3.59,5.77,5.37,8.65l5,8.12c1.27,2.06,2.52,4.13,3.79,6.2a9.64,9.64,0,0,0,.58.84c.07.11.19.08.27,0a2,2,0,0,0,.18-.25l3-4.82,3.62-5.83Q62.3,25.89,66.56,19a13.42,13.42,0,0,1,2.15-2.72,6.24,6.24,0,0,1,2.92-1.63,4.15,4.15,0,0,1,.79-.08h1.34a5.75,5.75,0,0,1,3.87,1.54,5.83,5.83,0,0,1,1.81,2.63,6.72,6.72,0,0,1,.14,3.12,10,10,0,0,1-1.41,3.57c-.72,1.23-1.48,2.43-2.25,3.62-2.07,3.21-4.16,6.4-6.24,9.59l-3.24,5-.13.2c-.51.76-.44.73-.08,1.41a10.61,10.61,0,0,1,1,2.89,10.44,10.44,0,0,1-.67,6.24,12.51,12.51,0,0,1-4.73,5.57,14.41,14.41,0,0,1-3.2,1.69.61.61,0,0,0-.5.69c0,.21,0,.42,0,.63q0,7.33,0,14.68a21.69,21.69,0,0,1-.29,3.69,8.37,8.37,0,0,1-.65,2.19,6.72,6.72,0,0,1-4.36,3.71,9,9,0,0,1-2.42.24,6.11,6.11,0,0,1-3.24-.84,6.26,6.26,0,0,1-2.93-3.39,11.6,11.6,0,0,1-.67-3.3C43.37,76.71,43.57,73.53,43.49,71Z"/><path class="cls-4" d="M73.31,14.57a6,6,0,0,1,1.81.16,6.2,6.2,0,0,1,4.44,4.49,6.76,6.76,0,0,1-.16,3.51,11.73,11.73,0,0,1-1.24,2.72c-.81,1.35-1.67,2.68-2.5,4-.58.92-1.15,1.83-1.73,2.73-.3.47-.62.92-.94,1.37a.3.3,0,0,1-.47.08,3.14,3.14,0,0,1-.5-.38c-.81-.76-1.65-1.47-2.51-2.17a35.91,35.91,0,0,0-6.72-4.38,2.44,2.44,0,0,1-.28-.14c-.44-.23-.46-.29-.2-.72.69-1.09,1.39-2.17,2.06-3.27s1.26-2.12,1.91-3.17a16.06,16.06,0,0,1,2.46-3.16,5.5,5.5,0,0,1,4.11-1.68Z"/><path class="cls-5" d="M67.32,23.11a7.43,7.43,0,0,1,1.83.46,13,13,0,0,1,2.5,1.5,16.32,16.32,0,0,1,2.4,2.15c.12.14.24.28.35.43a1,1,0,0,1,0,1.11,1,1,0,0,1-1,.42,1.5,1.5,0,0,1-1-.51,18.81,18.81,0,0,0-2.1-1.78,12.52,12.52,0,0,0-3.13-1.81,3.81,3.81,0,0,1-.7-.35.82.82,0,0,1-.44-1,.88.88,0,0,1,.82-.62Z"/><path class="cls-5" d="M70.75,18.52a5.8,5.8,0,0,1,1.81.45,11.91,11.91,0,0,1,4.09,3,.94.94,0,0,1,.14.19,1,1,0,0,1,0,1.17,1.06,1.06,0,0,1-1.23.21,3.58,3.58,0,0,1-.86-.69,11.44,11.44,0,0,0-2.94-2.08,7.49,7.49,0,0,0-1-.41A3.06,3.06,0,0,1,70,20a.76.76,0,0,1-.33-.82.73.73,0,0,1,.57-.58A3.67,3.67,0,0,1,70.75,18.52Z"/><path class="cls-4" d="M28.93,14.57a7.05,7.05,0,0,1,2.15.18,5.36,5.36,0,0,1,2.63,1.64,45.77,45.77,0,0,1,3.65,5.23c.8,1.27,1.58,2.55,2.37,3.83.13.22.25.46.37.69a.21.21,0,0,1-.09.28,1.36,1.36,0,0,1-.21.1,36.72,36.72,0,0,0-7.74,5.12c-.78.66-1.55,1.34-2.32,2a3.57,3.57,0,0,1-.37.31.24.24,0,0,1-.35,0,2.66,2.66,0,0,1-.28-.38c-1.41-2.34-3-4.59-4.3-7a30.67,30.67,0,0,1-1.63-3.24,6.67,6.67,0,0,1-.37-4.09,5.73,5.73,0,0,1,1.78-2.93,7,7,0,0,1,3.18-1.65A9.34,9.34,0,0,1,28.93,14.57Z"/><path class="cls-5" d="M35,23.09l.37,0a.76.76,0,0,1,.7.54.89.89,0,0,1-.19.89,1.78,1.78,0,0,1-.72.46,15.25,15.25,0,0,0-4.46,2.8c-.4.34-.79.69-1.18,1a1.08,1.08,0,0,1-.77.33,1,1,0,0,1-1-1.38,1.83,1.83,0,0,1,.44-.65,19.18,19.18,0,0,1,2.89-2.43,10.1,10.1,0,0,1,2.13-1.19A7.85,7.85,0,0,1,35,23.09Z"/><path class="cls-5" d="M31.57,18.53a1.65,1.65,0,0,1,.33,0,.81.81,0,0,1,.62.64.75.75,0,0,1-.31.76,1.88,1.88,0,0,1-.62.34,10.43,10.43,0,0,0-4,2.54,5.33,5.33,0,0,1-.79.63,1,1,0,0,1-1.44-.31.91.91,0,0,1,.17-1.09,13.61,13.61,0,0,1,1.81-1.75,8.44,8.44,0,0,1,3.57-1.73l.31-.06Z"/><path class="cls-2" d="M62.29,44.73a3.26,3.26,0,0,1,1.91.63,1.23,1.23,0,0,1,.54.93,1.09,1.09,0,0,1-1.37,1.1,3.69,3.69,0,0,1-.64-.29,1.13,1.13,0,0,0-1.2-.06,1.14,1.14,0,0,1-.6.15.81.81,0,0,1-.82-1,1.54,1.54,0,0,1,.76-1A2.82,2.82,0,0,1,62.29,44.73Z"/><path class="cls-2" d="M39.93,44.73a2.76,2.76,0,0,1,1.33.35,1.53,1.53,0,0,1,.8,1,.82.82,0,0,1-1,1.06,2.43,2.43,0,0,1-.52-.17,1,1,0,0,0-.9,0,5.31,5.31,0,0,1-.64.3,1.09,1.09,0,0,1-1.36-.45,1.11,1.11,0,0,1,.25-1.42A3.14,3.14,0,0,1,39.93,44.73Z"/><path class="cls-2" d="M50.82,30.21a16.65,16.65,0,0,1,5,.78,13.89,13.89,0,0,1,3,1.4,18.07,18.07,0,0,1,4,3.26,7.08,7.08,0,0,1,1,1.34,3.78,3.78,0,0,1,.38,2.74A2.4,2.4,0,0,1,62,41.49a5.13,5.13,0,0,1-2-.21c-.28-.11-.37,0-.37.3s0,.42.05.63a5.32,5.32,0,0,1-1.15,4,2.13,2.13,0,0,1-2.63.63,3.74,3.74,0,0,1-1.6-1.37,9.5,9.5,0,0,1-.92-1.83.18.18,0,0,0-.1-.11c-.09,0-.14,0-.17.1-.28.54-.56,1.08-.82,1.62a6.82,6.82,0,0,1-2.08,2.55c-1.54,1.17-4.1,1-4.69-1.6a8.06,8.06,0,0,1,.09-3.75c.12-.48.25-1,.36-1.45a.32.32,0,0,0-.08-.2s-.1,0-.15,0a1.91,1.91,0,0,0-.27.16,8.29,8.29,0,0,1-3.33,1.13,4.82,4.82,0,0,1-2-.12,3.28,3.28,0,0,1-1.82-1.32A2.69,2.69,0,0,1,38,38.38a4.52,4.52,0,0,1,.7-1.66,14.07,14.07,0,0,1,2-2.26A16.83,16.83,0,0,1,46.38,31,11,11,0,0,1,50.82,30.21Z"/><path class="cls-1" d="M52.32,35.43c-.07-1,.52-1.66,1.53-1.39a.92.92,0,0,1,.62.67c.1.35.17.71.24,1.07s.07.63.12.93a1.65,1.65,0,0,1-.21,1.07,1,1,0,0,1-1.63.09,1.38,1.38,0,0,1-.18-.34A9.64,9.64,0,0,1,52.32,35.43Z"/><path class="cls-1" d="M60.69,37.39a1,1,0,0,1-1.37,1,2.3,2.3,0,0,1-.54-.33,5.29,5.29,0,0,1-1.28-1.68,1.32,1.32,0,0,1-.14-.68.87.87,0,0,1,1.19-.77,1.3,1.3,0,0,1,.42.22,6.92,6.92,0,0,1,1.48,1.62A1.37,1.37,0,0,1,60.69,37.39Z"/><path class="cls-1" d="M46.78,36.8a5.48,5.48,0,0,1,.89-2.33,1,1,0,0,1,1.18-.37,1,1,0,0,1,.63,1.07s0,.06,0,.08a6.89,6.89,0,0,1-1.14,2.49.83.83,0,0,1-.9.33.85.85,0,0,1-.65-.8C46.77,37.16,46.78,37.06,46.78,36.8Z"/><path class="cls-1" d="M41.88,38.82A.89.89,0,0,1,41,37.58a1.3,1.3,0,0,1,.22-.42,15,15,0,0,1,1.36-1.51,2.55,2.55,0,0,1,.66-.42.81.81,0,0,1,1.07,1c0,.12-.08.25-.14.37a9.6,9.6,0,0,1-1.39,1.89A1,1,0,0,1,41.88,38.82Z"/><path class="cls-1" d="M50.57,42.32c0,.13,0,.26-.09.38-.16.55-.31,1.11-.5,1.65a1.06,1.06,0,0,1-1.06.78A1,1,0,0,1,48,44a8.31,8.31,0,0,1,.72-2,1.43,1.43,0,0,1,.29-.37.89.89,0,0,1,1-.23A1.05,1.05,0,0,1,50.57,42.32Z"/><path class="cls-1" d="M57.54,43.27a1.57,1.57,0,0,1-.18.93.94.94,0,0,1-1,.57,1,1,0,0,1-.89-.78,5.65,5.65,0,0,1-.13-1.16,4.91,4.91,0,0,1,.08-.86,1.35,1.35,0,0,1,.11-.45.82.82,0,0,1,1.36-.23,1.72,1.72,0,0,1,.37.69,2.52,2.52,0,0,1,.1.46C57.47,42.78,57.51,43.11,57.54,43.27Z"/><path class="cls-1" d="M45.65,80.18c0-.24,0-.47.06-.7a.89.89,0,0,1,.72-.75.83.83,0,0,1,.87.42,1.69,1.69,0,0,1,.25.48c.18.72.34,1.43.5,2.15A1.55,1.55,0,0,1,47.74,83a.67.67,0,0,1-1,.22,1.48,1.48,0,0,1-.88-1.14A10.64,10.64,0,0,1,45.65,80.18Z"/><path class="cls-1" d="M52.78,81.47c.07-.49.13-1,.22-1.47a1.87,1.87,0,0,1,.24-.58.89.89,0,0,1,1.6,0,3.05,3.05,0,0,1,.3,1.45A6.87,6.87,0,0,1,55,82a1.24,1.24,0,0,1-.71,1.06.9.9,0,0,1-1.14-.24A1.83,1.83,0,0,1,52.78,81.47Z"/><path class="cls-1" d="M52.05,76.8v.71a2.58,2.58,0,0,1,0,.39,1.05,1.05,0,0,1-.94.82,1.12,1.12,0,0,1-1-.71,2.52,2.52,0,0,1-.14-.54,6.24,6.24,0,0,1,.11-2.11A2,2,0,0,1,50.2,75a.83.83,0,0,1,1.43-.16,1.81,1.81,0,0,1,.39,1c0,.31,0,.63,0,1Z"/><path class="cls-1" d="M37.62,30.43c0-.88.48-1.22,1.14-.95a1.06,1.06,0,0,1,.33.22,7.16,7.16,0,0,1,1.23,1.61,1.19,1.19,0,0,1,.15.76,1,1,0,0,1-1.48.68A4,4,0,0,1,37.62,30.43Z"/><path class="cls-1" d="M61.78,31.88a1.21,1.21,0,0,1,.21-.74,9.38,9.38,0,0,1,1-1.37,1,1,0,0,1,.84-.35.71.71,0,0,1,.75.8,1.79,1.79,0,0,1-.09.46,6.15,6.15,0,0,1-.86,1.67,2.44,2.44,0,0,1-.27.29.91.91,0,0,1-1.08.18A.9.9,0,0,1,61.78,31.88Z"/><path class="cls-1" d="M68.12,32.74a.8.8,0,0,1,.77.9.6.6,0,0,1-.06.23,6.89,6.89,0,0,1-1.13,1.78,1,1,0,0,1-.86.32A1,1,0,0,1,66,34.66a4,4,0,0,1,1.59-1.8A.82.82,0,0,1,68.12,32.74Z"/><path class="cls-1" d="M34.2,32.74a.94.94,0,0,1,.59.18,4.26,4.26,0,0,1,1.36,1.59.88.88,0,0,1,.07.23,1,1,0,0,1-.41,1.09,1,1,0,0,1-1.17-.08,4.86,4.86,0,0,1-1.24-1.89A.8.8,0,0,1,34.2,32.74Z"/><path class="cls-6" d="M61.91,48.52a2.1,2.1,0,1,1-2.15,2.06A2.12,2.12,0,0,1,61.91,48.52Z"/><path class="cls-6" d="M40.36,52.71A2,2,0,0,1,38.2,50.6a2.06,2.06,0,0,1,2.11-2.09,2.23,2.23,0,0,1,2.14,2.09A2.18,2.18,0,0,1,40.36,52.71Z"/><path class="cls-4" d="M51.31,72.46a16.42,16.42,0,0,1-6.85-1.4,17.26,17.26,0,0,1-3.24-2A12.53,12.53,0,0,1,37.6,65a5.26,5.26,0,0,1-.6-4.1,6.17,6.17,0,0,1,1.31-2.31A12.3,12.3,0,0,1,42,55.67a21.9,21.9,0,0,1,5.75-2.14,10.46,10.46,0,0,1,2-.28c.39,0,.78-.13,1.17-.11a19.93,19.93,0,0,1,4.28.56,22.87,22.87,0,0,1,5.12,2,12.43,12.43,0,0,1,2.32,1.63,12.08,12.08,0,0,1,1.38,1.39A6.13,6.13,0,0,1,65.43,62a3.11,3.11,0,0,1-.11,1,6.57,6.57,0,0,1-.93,2.41,12.77,12.77,0,0,1-3.9,4.07,15.65,15.65,0,0,1-6.55,2.76A10.89,10.89,0,0,1,51.31,72.46Z"/><path class="cls-6" d="M51.3,69.14a7.29,7.29,0,0,1-4.6-1.43,5.6,5.6,0,0,1-1.39-1.48,3.06,3.06,0,0,1-.35-.88,1,1,0,0,1,.22-.88.61.61,0,0,1,.9-.15,7.32,7.32,0,0,1,.9.77,5.24,5.24,0,0,0,4,1.61,8.2,8.2,0,0,0,1.56-.12,5.53,5.53,0,0,0,2.74-1.47c.23-.21.45-.44.68-.66a.74.74,0,0,1,.86-.2.81.81,0,0,1,.47.76A1.85,1.85,0,0,1,57,66.13a6.19,6.19,0,0,1-2.85,2.4A6.4,6.4,0,0,1,51.3,69.14Z"/><path class="cls-6" d="M53.57,60.53a2.6,2.6,0,0,1,1.52-2.39,1.24,1.24,0,0,1,1.64.5A1.75,1.75,0,0,1,57,60.07a3.44,3.44,0,0,1-1,1.73,1.4,1.4,0,0,1-1.46.3,1.29,1.29,0,0,1-.9-1.18A2.54,2.54,0,0,1,53.57,60.53Z"/><path class="cls-6" d="M48.58,60.56a3.49,3.49,0,0,1,0,.44,1.36,1.36,0,0,1-2.15.93,2.75,2.75,0,0,1-1.19-2.73,1.31,1.31,0,0,1,2-1A2.6,2.6,0,0,1,48.58,60.56Z"/><path class="cls-7" d="M41.45,58.75a5.27,5.27,0,1,1-5.23-5.29A5.21,5.21,0,0,1,41.45,58.75Z"/><path class="cls-7" d="M71.29,58.78a5.27,5.27,0,1,1-5.2-5.32A5.2,5.2,0,0,1,71.29,58.78Z"/></g></svg>