<svg xmlns="http://www.w3.org/2000/svg" viewBox="0 0 102 102"><defs><style>.cls-1{fill:#bdbdbe;}.cls-2{fill:#828283;}.cls-3{fill:#e4e4e5;}.cls-4{fill:#421c43;}.cls-5{fill:#ffa8d0;}.cls-6{fill:#ffd7e9;}.cls-7{fill:#b5346c;}.cls-8{fill:#fff;}.cls-9{fill:#926589;}</style></defs><g id="OBJECTS"><path class="cls-1" d="M32.06,9.12a3.34,3.34,0,0,0-1.47,0A2.55,2.55,0,0,0,28.64,11a4.55,4.55,0,0,0,.16,3,11.85,11.85,0,0,0,3.55,4.84,20.72,20.72,0,0,0,6.1,3.54,17.62,17.62,0,0,0,3,.89,2.23,2.23,0,0,0,1.09,0,.78.78,0,0,0,.66-1,4.19,4.19,0,0,0-.26-.9,18.57,18.57,0,0,0-1.31-2.78c-.67-1.16-1.36-2.31-2.06-3.45a14.58,14.58,0,0,0-1.46-1.86A16.67,16.67,0,0,0,35,10.4a12.09,12.09,0,0,0-1.71-1A5.19,5.19,0,0,0,32.06,9.12Z"/><path class="cls-2" d="M37.91,17.12a.69.69,0,0,1-.44-.13A2.34,2.34,0,0,1,37,16.6a39.75,39.75,0,0,0-4.49-3.7,1.64,1.64,0,0,1-.59-.61.83.83,0,0,1,.13-1,.76.76,0,0,1,.94-.13,2.71,2.71,0,0,1,.41.23,27,27,0,0,1,3.71,3,7.76,7.76,0,0,1,1.35,1.73A.66.66,0,0,1,37.91,17.12Z"/><path class="cls-3" d="M44.09,92.94H20.56a10.39,10.39,0,0,1-4.15-.79,6.75,6.75,0,0,1-4.33-5.39,8.69,8.69,0,0,1,0-2.74,6.93,6.93,0,0,1,1.47-3.19c1.27-1.65,2.63-3.21,4-4.79,1.19-1.41,2.35-2.83,3.53-4.25.94-1.13,1.9-2.25,2.84-3.38s1.77-2.15,2.67-3.22S28.4,63,29.32,61.88c1.79-2.14,3.57-4.29,5.36-6.42,1.5-1.8,3-3.58,4.52-5.38,1.18-1.41,2.34-2.83,3.52-4.24s2.44-2.9,3.66-4.35L49.25,38c1.19-1.43,2.4-2.86,3.6-4.29,0,0,0,0,0-.06s.1-.13.09-.2-.11-.08-.18-.09h-7c-.34,0-.52.13-.63.45A11.51,11.51,0,0,1,40,39.73a16.78,16.78,0,0,1-6.09,2.06,25.68,25.68,0,0,1-5.11.1,25.47,25.47,0,0,1-5-.73,18,18,0,0,1-6.75-3.3,9,9,0,0,1-1.45-1.44,5.82,5.82,0,0,1-1.24-3.35,5,5,0,0,1,.5-2.3,10.78,10.78,0,0,1,2.92-3.87,19.29,19.29,0,0,1,8.29-3.84c1.26-.29,2.54-.4,3.81-.6a4.42,4.42,0,0,1,.63,0H62.57a10.84,10.84,0,0,1,3.48.56,5.75,5.75,0,0,1,4,4.5A12,12,0,0,1,69.66,34a9.17,9.17,0,0,1-1.41,2.54c-1,1.4-2.11,2.76-3.23,4.08l-3.74,4.48c-1.22,1.45-2.45,2.89-3.66,4.34C56.06,51.26,54.51,53.12,53,55l-3.61,4.28-3.8,4.53c-.94,1.13-1.9,2.25-2.85,3.38-1.26,1.51-2.52,3-3.79,4.54C38,72.8,37,73.9,36.11,75l-3.8,4.53-1.87,2.24a.86.86,0,0,0-.13.2s0,.1.07.1c.26,0,.53,0,.79,0H67.79a8.21,8.21,0,0,1,2.78.48,4.68,4.68,0,0,1,3.19,4.52,6.42,6.42,0,0,1-.46,2.77,4.92,4.92,0,0,1-2,2.23,6.72,6.72,0,0,1-3.32.84Z"/><path class="cls-4" d="M11.94,85.84a.76.76,0,0,1,.44-.76,9.16,9.16,0,0,1,1.93-.9,20.45,20.45,0,0,1,3.64-1,12.79,12.79,0,0,0,1.95-.22,9.56,9.56,0,0,1,2.84.57,1.23,1.23,0,0,1,.81,1.23,1,1,0,0,1-.46.87l-1.29.91a20.2,20.2,0,0,0-3.26,2.72,8.85,8.85,0,0,0-1.76,2.5c-.17.4-.39.44-.74.29A6.06,6.06,0,0,1,14.4,91a6.7,6.7,0,0,1-2.24-3.63A14.25,14.25,0,0,1,11.94,85.84Z"/><path class="cls-4" d="M49.7,52.82a1.24,1.24,0,0,1-1.52,1.35,14.1,14.1,0,0,1-2-.71,24,24,0,0,0-4.78-1.29,14.78,14.78,0,0,0-2.89-.31,1.54,1.54,0,0,1-.31,0,.22.22,0,0,1-.15-.36,7.25,7.25,0,0,1,.53-.68c1.31-1.48,2.56-3,3.79-4.55a3.58,3.58,0,0,1,.26-.29c.31-.3.36-.31.76-.13a11.5,11.5,0,0,1,3.4,2.27A11.16,11.16,0,0,1,49.47,52,6.55,6.55,0,0,1,49.7,52.82Z"/><path class="cls-4" d="M56.9,39.79a10.45,10.45,0,0,1,6.31,2,1.5,1.5,0,0,1,.24.2.29.29,0,0,1,.07.42,5.93,5.93,0,0,1-.43.56c-1.11,1.23-2.17,2.49-3.18,3.8l-.1.12c-.75.79-.66.92-1.36-.07A9.19,9.19,0,0,0,53,43L52.79,43c-.35-.14-.66-.33-.69-.77A1.14,1.14,0,0,1,52.54,41a6.82,6.82,0,0,1,2.53-1A8.51,8.51,0,0,1,56.9,39.79Z"/><path class="cls-4" d="M36.53,82.11H40c.1,0,.23,0,.25.13a.31.31,0,0,1-.08.21c-.27.35-.55.69-.83,1A11.4,11.4,0,0,0,37,88.34c-.13.56-.22,1.13-.34,1.69a3,3,0,0,1-.16.61,1.15,1.15,0,0,1-1.77.52,4.46,4.46,0,0,1-1.1-1.11,7.55,7.55,0,0,1-1.21-2.81,9.8,9.8,0,0,1,0-4.21,3.84,3.84,0,0,1,.11-.46c.12-.37.21-.45.63-.45Z"/><path class="cls-4" d="M29.36,74.7A3.61,3.61,0,0,1,29.12,76a1,1,0,0,1-.54.64.83.83,0,0,1-1-.07c-.12-.1-.24-.2-.35-.31A9.66,9.66,0,0,0,23.36,74a12.34,12.34,0,0,0-3.08-.59H20.2c-.24,0-.32-.19-.18-.38.28-.35.56-.7.85-1,1-1.16,2-2.36,3-3.56,1.14-1.38.87-1.3,2.19-.19a9.65,9.65,0,0,1,2.64,3.49A7.58,7.58,0,0,1,29.36,74.7Z"/><path class="cls-4" d="M34.53,63.32a.81.81,0,0,1,.22-.56,1.93,1.93,0,0,1,.57-.41,6.78,6.78,0,0,1,2.26-.62,7.09,7.09,0,0,1,4,.76,7.26,7.26,0,0,1,2.72,2.2.4.4,0,0,1,0,.51c-.11.15-.21.3-.33.44L41,69.23a8.23,8.23,0,0,1-.81,1c-.15.12-.31.11-.39-.06s-.22-.47-.32-.71a13.69,13.69,0,0,0-1.51-2.76,8.18,8.18,0,0,0-2-1.93l-1-.65A.83.83,0,0,1,34.53,63.32Z"/><path class="cls-4" d="M47.11,92.94h-2.6a3.62,3.62,0,0,1-.47,0,.34.34,0,0,1-.34-.36,6.33,6.33,0,0,1,0-.87,7.83,7.83,0,0,1,1.66-4.11,8.77,8.77,0,0,1,1.4-1.26A9.27,9.27,0,0,1,49,85.14,3.25,3.25,0,0,1,50.49,85a.73.73,0,0,1,.71,1,14.9,14.9,0,0,1-.49,1.42,5.07,5.07,0,0,0-.36,1.76,12.07,12.07,0,0,0,.23,2.75c.21.94.16,1-.78,1Z"/><path class="cls-4" d="M61.87,82.11h3.31c.25,0,.35.16.23.37s-.35.58-.54.87a12.74,12.74,0,0,0-1.59,3.25,16.33,16.33,0,0,0-.43,2.08,5.27,5.27,0,0,1-.14.69,1.13,1.13,0,0,1-1.87.62,5.07,5.07,0,0,1-.86-.81,8.7,8.7,0,0,1-2.06-6.28c0-.08,0-.16,0-.24.07-.43.17-.54.61-.55h3.32Z"/><path class="cls-4" d="M31.58,30.73a2.1,2.1,0,1,1,0-4.19,2.1,2.1,0,1,1,0,4.19Z"/><path class="cls-5" d="M35.23,32.86a5.39,5.39,0,0,1,2.72.49,3.23,3.23,0,0,1,1.09.77,1.69,1.69,0,0,1,0,2.42A4,4,0,0,1,37,37.78a6.6,6.6,0,0,1-3.5.14,5.7,5.7,0,0,1-1.87-.82,1.84,1.84,0,0,1-.76-2.21,2.44,2.44,0,0,1,.87-1.09,5.8,5.8,0,0,1,2.73-.94C34.77,32.84,35.06,32.86,35.23,32.86Z"/><path class="cls-6" d="M26.53,31.33c-.22,1-.14,1.93-.27,2.9a31.86,31.86,0,0,1-.85,4.33c-.19.71-.44,1.4-.68,2.1a2.83,2.83,0,0,1-.16.36.39.39,0,0,1-.46.21l-.62-.15A18,18,0,0,1,17.17,38,9.21,9.21,0,0,1,15.6,36.4a5.76,5.76,0,0,1-1.23-3.35,5,5,0,0,1,.51-2.29,10.65,10.65,0,0,1,2.86-3.82,17.65,17.65,0,0,1,6.6-3.42,1,1,0,0,1,.23-.07.37.37,0,0,1,.46.19,3,3,0,0,1,.18.36,17.89,17.89,0,0,1,1,4,18.72,18.72,0,0,1,.15,2.12C26.39,30.5,26.57,30.9,26.53,31.33Z"/><path class="cls-7" d="M18.21,35.76a11.56,11.56,0,0,1-2.57-.46,3.77,3.77,0,0,1-.8-.34,1.41,1.41,0,0,1-.67-1.41.9.9,0,0,1,1.23-.7,6.39,6.39,0,0,0,3.28.66,8.07,8.07,0,0,0,3-.41,1.61,1.61,0,0,1,.78-.08.6.6,0,0,1,.59.61.93.93,0,0,1-.22.66A2.46,2.46,0,0,1,22,35a8,8,0,0,1-1,.41A10.45,10.45,0,0,1,18.21,35.76Z"/><path class="cls-7" d="M18.16,30a.51.51,0,0,1,0-.2A3.37,3.37,0,0,1,19.75,28a.94.94,0,0,1,1.1.09,1,1,0,0,1,.35,1.12,4.82,4.82,0,0,1-.78,1.53,1.69,1.69,0,0,1-.61.48A1.2,1.2,0,0,1,18.16,30Z"/><path class="cls-2" d="M69.58,87.8a5.63,5.63,0,0,0,3.65-.93A3.46,3.46,0,0,0,75,83.8a11,11,0,0,0-.32-2.73c-.21-.81-.42-1.63-.57-2.45A4.66,4.66,0,0,1,74.3,76a7.89,7.89,0,0,1,1.89-2.88,13.82,13.82,0,0,1,4.88-3,4.47,4.47,0,0,1,1.7-.32,2.31,2.31,0,0,1,.46.05,1,1,0,0,1,.76.72,1,1,0,0,1-.5,1,5.93,5.93,0,0,1-.72.34,19.78,19.78,0,0,0-3.4,1.81,9.44,9.44,0,0,0-2,2,3.41,3.41,0,0,0-.68,1.67,3.66,3.66,0,0,0,.16,1.39,34.5,34.5,0,0,1,.77,3.46A7.27,7.27,0,0,1,77.36,86a6.46,6.46,0,0,1-2.54,3.13A9,9,0,0,1,70,90.55a5.34,5.34,0,0,1-1.32-.2,1.5,1.5,0,0,1-1.14-1.58.8.8,0,0,1,.56-.78A2.18,2.18,0,0,1,69,87.8C69.24,87.81,69.48,87.8,69.58,87.8Z"/><path class="cls-3" d="M84.93,76.34a16.63,16.63,0,0,1-6.46-1.58,4.93,4.93,0,0,1-1.41-1,2.24,2.24,0,0,1-.61-2,3.45,3.45,0,0,0,.07-.55,11.82,11.82,0,0,1,1.78-5.81,5.14,5.14,0,0,1,2.21-2.19,2.47,2.47,0,0,1,.9-.26,2.18,2.18,0,0,1,2.38,1.64,3,3,0,0,1,.2,1.16,1.89,1.89,0,0,0,0,.47.23.23,0,0,0,.3.17,2.35,2.35,0,0,0,.37-.14,10.19,10.19,0,0,1,1.73-.53,3,3,0,0,1,1.63.1,1.9,1.9,0,0,1,1.33,2,2.64,2.64,0,0,1-.4,1.26,6.72,6.72,0,0,1-1.09,1.45,7.27,7.27,0,0,0-.54.57c-.1.1-.06.18.07.22a6.06,6.06,0,0,0,.61.16,3.79,3.79,0,0,1,1.15.5,1.69,1.69,0,0,1,.72,2.24,2.52,2.52,0,0,1-.83,1,4.3,4.3,0,0,1-1.42.67A11.38,11.38,0,0,1,84.93,76.34Z"/><path class="cls-8" d="M81.34,67.05a2.58,2.58,0,0,1-.13.77l-.57,1.72a1.9,1.9,0,0,1-.5.78,1.19,1.19,0,0,1-1.38.24,1.16,1.16,0,0,1-.64-1.17,2,2,0,0,1,.13-.53,16,16,0,0,1,.94-2.07,2.14,2.14,0,0,1,.66-.77.93.93,0,0,1,1.49.72Z"/><path class="cls-8" d="M84.87,68.25a1,1,0,0,1,1,1.48,2.05,2.05,0,0,1-.39.49,8.53,8.53,0,0,1-2.26,1.54,1.06,1.06,0,0,1-1.05,0,1.1,1.1,0,0,1-.3-1.84,7.12,7.12,0,0,1,2.74-1.63A1,1,0,0,1,84.87,68.25Z"/><path class="cls-8" d="M83.9,75.08a2.27,2.27,0,0,1-.84-.14,1.18,1.18,0,0,1-.83-1,1.24,1.24,0,0,1,.83-1.12,3.45,3.45,0,0,1,.84-.15c.29,0,.58,0,.86-.07a4.23,4.23,0,0,1,1.54.18,1,1,0,0,1,.71.94.91.91,0,0,1-.58.94,2,2,0,0,1-.59.21A12.54,12.54,0,0,1,83.9,75.08Z"/><path class="cls-4" d="M35.94,20.28a8.3,8.3,0,0,1,2.93-.56,15.65,15.65,0,0,1,4.26.42,15.58,15.58,0,0,1,3.24,1.34,4.59,4.59,0,0,1,1.69,1.75A6.83,6.83,0,0,1,49,28.68a5.33,5.33,0,0,1-2.08,3.26,3.31,3.31,0,0,1-1.79.65,1.86,1.86,0,0,1-1.84-1.1,2.74,2.74,0,0,1-.32-1.26c0-.24,0-.47,0-.7s-.12-.26-.29-.15a9.18,9.18,0,0,1-2.08.91,4.64,4.64,0,0,1-2.34.17,2.49,2.49,0,0,1-1.38-.71,1.87,1.87,0,0,1-.31-2.33,7.77,7.77,0,0,1,1.38-1.8.63.63,0,0,0,.11-.13.58.58,0,0,0-.21-.07,10.74,10.74,0,0,1-2.69-.35,3.47,3.47,0,0,1-1.1-.52,2,2,0,0,1-.09-3.27,3.68,3.68,0,0,1,1.29-.74Z"/><path class="cls-9" d="M41.31,28c-.37.12-.62.24-.89.12a.86.86,0,0,1-.48-.94,1.38,1.38,0,0,1,.15-.4,6.88,6.88,0,0,1,2-2,1,1,0,0,1,.76-.14.94.94,0,0,1,.7,1.46,1.83,1.83,0,0,1-.18.3A7,7,0,0,1,41.31,28Z"/><path class="cls-9" d="M39,21.59a5.06,5.06,0,0,1,1.53-.34,1.69,1.69,0,0,1,.86.09.93.93,0,0,1,.45,1.49,1.24,1.24,0,0,1-.62.46,5.39,5.39,0,0,1-2.58.25.85.85,0,0,1-.81-.78.87.87,0,0,1,.6-1C38.62,21.72,38.81,21.66,39,21.59Z"/><path class="cls-9" d="M45.29,29.39a2.33,2.33,0,0,1,0-.44c0-.64.09-1.28.14-1.92a1.37,1.37,0,0,1,.26-.73.93.93,0,0,1,.9-.43.86.86,0,0,1,.76.62,1.26,1.26,0,0,1,.09.69c-.14.68-.28,1.37-.44,2.05a1.45,1.45,0,0,1-.24.46A.74.74,0,0,1,46,30,.81.81,0,0,1,45.29,29.39Z"/><path class="cls-1" d="M55.52,10a3.18,3.18,0,0,1,1.47,0,2.58,2.58,0,0,1,1.94,1.88,4.58,4.58,0,0,1-.15,3,11.85,11.85,0,0,1-3.55,4.84,20.67,20.67,0,0,1-6.11,3.55,19.3,19.3,0,0,1-3,.89A2.36,2.36,0,0,1,45,24.18a.79.79,0,0,1-.66-1,4.74,4.74,0,0,1,.26-.91,20.15,20.15,0,0,1,1.31-2.78c.68-1.16,1.37-2.3,2.06-3.45a13.82,13.82,0,0,1,1.46-1.85,16.45,16.45,0,0,1,3.12-2.89,12.53,12.53,0,0,1,1.71-1A5.11,5.11,0,0,1,55.52,10Z"/><path class="cls-2" d="M46.31,24.17a2.08,2.08,0,0,1-1.35,0A.78.78,0,0,1,44.45,23a4.66,4.66,0,0,1,.43-.66,20.14,20.14,0,0,1,3.78-3.88,22,22,0,0,1,5.06-3,23.53,23.53,0,0,1,2.46-.8,6.62,6.62,0,0,1,2.35-.12c.28,0,.34.16.25.44a10.13,10.13,0,0,1-2.08,3.41,18.6,18.6,0,0,1-5.89,4.27,28.62,28.62,0,0,1-3.91,1.44A4.65,4.65,0,0,1,46.31,24.17Z"/></g></svg>